<?xml version="1.0" standalone="no"?>
<!DOCTYPE svg PUBLIC "-//W3C//DTD SVG 1.1//EN" "http://www.w3.org/Graphics/SVG/1.1/DTD/svg11.dtd">
<svg xmlns="http://www.w3.org/2000/svg">
<defs >
<font id="Baskervville" horiz-adv-x="533" ><font-face
    font-family="Baskervville"
    units-per-em="1000"
    panose-1="0 0 0 0 0 0 0 0 0 0"
    ascent="998"
    descent="-295"
    alphabetic="0" />
<glyph unicode=" " glyph-name="space" horiz-adv-x="250" />
<glyph unicode="!" glyph-name="exclam" horiz-adv-x="275" d="M146 199L118 208L221 660Q229 694 246 707T286 720Q302 720 315 709T329 675Q329 659 322 642L146 199ZM91 -11Q65 -11 48 6T31 49Q31 72 48 89T91 107Q115 107 132 90T149 49Q149 24 132 7T91 -11Z" />
<glyph unicode="&quot;" glyph-name="quotedbl" horiz-adv-x="327" d="M222 507L199 511L220 648Q225 680 236 700T268 720Q292 720 292 690Q292 669 282 648L222 507ZM345 507L322 511L343 648Q348 680 359 700T391 720Q415 720 415 690Q415 669 405 648L345 507Z" />
<glyph unicode="#" glyph-name="numbersign" horiz-adv-x="707" d="M162 0L231 237H56L65 268H240L292 447H115L124 479H301L368 710H404L337 479H533L600 710H637L570 479H762L753 447H561L509 268H702L693 237H500L432 0H395L463 237H267L199 0H162ZM276 268H472L524
447H328L276 268Z" />
<glyph unicode="$" glyph-name="dollar" horiz-adv-x="589" d="M171 -115L209 1Q178 11 157 24T120 46T92 56Q77 56 67 39T48 4L22 19L66 149L97 271L124 269L121 229V200Q126 65 218 28L320 344L294 369Q271 392 245 418T200 476T181 549Q181 600 207 638T278
698T384 720Q400 720 414 718T440 713L478 830H503L463 706Q502 691 524 672T560 653Q568 653 574 662T587 694L614 693L587 581L570 470L544 471V501Q543 559 524 609T455 681L366 408L402 373Q454 324 481 279T509 187Q509 132 482 87T406 16T293 -11Q276 -11
261 -10T232 -5L196 -115H171ZM265 567Q265 520 289 489T347 426L432 688Q415 692 395 692Q361 692 331 677T283 633T265 567ZM340 325L339 326L240 21Q259 17 281 17Q347 17 386 57T426 154Q426 210 405 247T340 325Z" />
<glyph unicode="%" glyph-name="percent" horiz-adv-x="819" d="M224 309Q172 309 145 334T118 402Q118 436 134 469T179 528T243 570T317 586Q370 586 397 561T424 496Q424 460 408 427T363 367T298 325T224 309ZM61 0L743 575H798L116 0H61ZM229 336Q259 336
284 352T327 395T356 449T366 502Q366 559 309 559Q280 559 256 543T213 500T185 446T175 393Q175 336 229 336ZM550 -14Q498 -14 471 11T444 79Q444 113 460 146T505 205T569 247T643 263Q696 263 723 238T750 173Q750 137 734 104T689 44T624 2T550 -14ZM555
13Q585 13 610 29T653 72T682 126T692 179Q692 236 635 236Q606 236 582 220T539 177T511 123T501 70Q501 13 555 13Z" />
<glyph unicode="&amp;" glyph-name="ampersand" horiz-adv-x="793" d="M227 -14Q182 -14 137 3T63 59T33 162Q33 215 54 256T110 329T189 384T275 425Q266 451 262 475T257 524Q257 583 285 628T359 698T462 724Q515 724 544 698T574 639Q574 604 554 573T502
516T436 468T373 432Q385 401 402 368T439 300Q451 279 463 258T487 217Q502 240 520 270Q559 335 601 375T703 415Q742 415 762 402T788 371T795 340Q795 318 782 298T740 278Q721 278 710 292T699 328Q699 355 698 369T677 384Q644 384 610 347T540 250Q521 218
504 192Q546 129 596 87T710 44Q741 44 764 62T815 117L833 103Q787 38 742 12T642 -14Q588 -14 545 17T452 117Q396 44 345 15T227 -14ZM348 530Q348 514 352 496T363 457Q411 480 452 509T518 571T543 639Q543 662 525 677T479 692Q439 692 410 671T364 612T348
530ZM123 170Q123 104 156 61T252 18Q304 18 346 47T436 141Q420 164 403 191T367 250Q341 289 320 326T284 401Q204 358 164 303T123 170Z" />
<glyph unicode="&apos;" glyph-name="quotesingle" horiz-adv-x="187" d="M222 507L199 511L220 648Q225 680 236 700T268 720Q292 720 292 690Q292 669 282 648L222 507Z" />
<glyph unicode="(" glyph-name="parenleft" horiz-adv-x="337" d="M497 784Q421 726 351 648T227 479T141 288T109 89Q109 5 125 -55T151 -142H128Q113 -124 93 -84T57 7T42 109Q42 191 69 273T142 431T241 575T352 696T455 784H497Z" />
<glyph unicode=")" glyph-name="parenright" horiz-adv-x="337" d="M-98 -142Q-22 -84 48 -6T172 163T258 354T290 553Q290 637 274 697T248 784H271Q287 766 307 726T342 635T357 533Q357 451 330 369T257 211T158 67T47 -54T-56 -142H-98Z" />
<glyph unicode="*" glyph-name="asterisk" horiz-adv-x="520" d="M363 305Q340 305 332 319T323 355Q323 374 331 395T348 442T356 498Q330 483 311 464T277 429T245 402Q229 392 214 392Q193 392 183 411Q176 425 176 433Q176 445 184 454T206 471Q222 480 244
484T293 494T346 515Q321 533 296 541T249 555T211 572Q199 580 192 589T184 610Q184 621 193 633Q205 650 223 650Q238 650 257 636Q272 626 285 608T315 569T356 531Q356 562 349 587T333 634T325 674Q325 696 333 710T365 724Q384 724 394 711T404 674Q404 656
397 634T383 587T375 531Q412 557 432 588T474 636Q493 650 508 650Q526 650 538 633Q547 621 547 610Q547 599 540 590T520 572Q505 562 483 556T435 541T385 515Q412 500 438 494T486 484T525 471Q539 463 547 454T555 434Q555 424 548 411Q537 392 517 392Q502
392 486 402Q470 412 455 428T421 464T375 498Q375 468 382 442T395 395T402 355Q402 333 392 319T363 305Z" />
<glyph unicode="+" glyph-name="plus" horiz-adv-x="556" d="M219 106L290 300H89L102 336H303L373 529H409L339 336H538L525 300H326L255 106H219Z" />
<glyph unicode="," glyph-name="comma" horiz-adv-x="292" d="M-63 -179L-68 -151Q-32 -143 3 -130T67 -93T109 -31Q116 -10 116 13Q116 22 114 31T106 46L103 42Q105 38 105 32Q107 12 95 -3T59 -18Q34 -18 18 1T1 46Q1 71 18 89T63 107Q94 107 118 83T145 20Q149
-29 124 -70T54 -138Q25 -156 -6 -165T-63 -179Z" />
<glyph unicode="-" glyph-name="hyphen" horiz-adv-x="388" d="M53 196L65 232H332L320 196H53Z" />
<glyph unicode="." glyph-name="period" horiz-adv-x="245" d="M61 -11Q35 -11 18 6T1 49Q1 72 18 89T61 107Q85 107 102 90T119 49Q119 24 102 7T61 -11Z" />
<glyph unicode="/" glyph-name="slash" horiz-adv-x="257" d="M-129 -135L445 834H480L-94 -135H-129Z" />
<glyph unicode="0" glyph-name="zero" horiz-adv-x="490" d="M185 -11Q112 -11 77 30T42 131Q42 190 67 249T134 359T230 439T340 469Q414 469 446 429T479 328Q479 268 455 209T390 99T295 19T185 -11ZM196 14Q240 14 278 45T346 127T391 237T407 351Q407 392
390 418T331 444Q294 444 261 422T202 364T155 283T125 194T114 109Q114 64 135 39T196 14Z" />
<glyph unicode="1" glyph-name="one" horiz-adv-x="306" d="M-41 -3L-33 20L-16 22Q14 26 31 31T62 56T92 121L171 337Q182 368 182 384Q182 408 164 414T117 420L128 450Q152 450 182 452T241 461T291 475L162 121Q144 72 144 53Q144 35 157 30T198 22L213 20L205
-3L83 0L-41 -3Z" />
<glyph unicode="2" glyph-name="two" horiz-adv-x="427" d="M208 -88L212 -72Q215 -59 217 -49T219 -31Q219 -13 203 -7T139 0H-5L2 20L86 81Q125 109 166 141T243 207T300 279T322 354Q322 399 300 418T245 438Q203 438 172 415T125 358T108 294Q108 272 116
259T136 240L118 218Q99 229 89 249T78 293Q78 337 101 377T168 443T270 469Q330 469 366 439T403 357Q403 317 379 280T316 211T235 151T154 100L94 64L298 79L265 10L231 -88H208Z" />
<glyph unicode="3" glyph-name="three" horiz-adv-x="426" d="M-19 -294Q-52 -294 -84 -283T-138 -246T-159 -180Q-159 -154 -145 -136T-102 -117Q-91 -117 -76 -126T-60 -162Q-60 -178 -67 -187T-83 -204T-91 -226Q-91 -239 -72 -253T-19 -267Q31 -267 74 -239T150
-167T201 -77T220 8Q220 55 200 73T149 92Q130 92 111 86T77 73V99Q93 105 103 109T129 124Q164 144 199 167T264 219T312 281T331 356Q331 391 310 414T245 438Q205 438 174 417T124 363T106 297Q106 272 117 257T142 236L125 213Q102 225 89 247T76 293Q76 340
101 380T171 444T271 469Q344 469 378 436T412 356Q412 297 362 244T232 153L155 118Q160 118 167 119T187 120Q240 120 268 88T297 8Q297 -50 271 -104T199 -201T97 -269T-19 -294Z" />
<glyph unicode="4" glyph-name="four" horiz-adv-x="512" d="M385 -3L263 0L139 -2L148 21L164 22Q194 26 211 31T242 56T273 121L307 212H12L23 241L524 681H546L387 245H499L487 212H375L342 121Q324 72 324 53Q324 35 337 30T378 22L393 20L385 -3ZM65 245H319L442
575L65 245Z" />
<glyph unicode="5" glyph-name="five" horiz-adv-x="453" d="M105 -14Q52 -14 16 15T-21 97Q-21 126 -5 142T34 158Q58 158 68 145T79 120Q79 102 72 94T56 78T48 54Q48 38 63 25T108 12Q155 12 196 43T268 124T317 230T335 336Q335 383 316 402T269 421Q235 421
205 401T152 354H133L291 716H317L305 689L344 688H375Q416 688 453 691T514 706H524L520 696Q507 660 478 643T406 621T311 615H275L187 416Q211 433 239 443T297 454Q350 454 383 422T416 321Q416 266 391 207T323 98T223 17T105 -14Z" />
<glyph unicode="6" glyph-name="six" horiz-adv-x="515" d="M190 -14Q126 -14 90 23T54 128Q54 161 63 207T89 307Q117 397 159 473T253 605T364 693T487 724Q508 724 529 719T565 700T580 664Q580 643 566 626T527 609Q505 609 494 621T483 652Q483 693 445 693Q407
693 359 653T260 528T165 308Q211 377 258 404T348 431Q380 431 408 418T453 378T470 305Q470 249 447 193T383 90T293 15T190 -14ZM195 11Q236 11 271 41T332 119T374 220T389 318Q389 403 326 403Q296 403 267 383T212 328T166 253T135 170T123 92Q123 52 143
32T195 11Z" />
<glyph unicode="7" glyph-name="seven" horiz-adv-x="468" d="M-24 -294Q-47 -294 -47 -271Q-47 -257 -39 -238T-12 -197L425 368H111L74 268H52L137 500H159L141 450H498L492 434L58 -231Q33 -269 12 -281T-24 -294Z" />
<glyph unicode="8" glyph-name="eight" horiz-adv-x="491" d="M184 -14Q112 -14 70 27T27 126Q27 208 89 267T257 380Q232 417 208 460T184 547Q184 597 214 637T295 700T411 723Q470 723 507 693T544 614Q544 565 517 524T444 450T345 392Q366 365 389 334T428
269T444 198Q444 155 423 117T364 49T281 3T184 -14ZM264 554Q264 519 281 488T327 415Q376 436 418 464T486 529T512 607Q512 646 484 668T412 691Q365 691 332 672T281 622T264 554ZM59 134Q59 79 92 48T187 17Q246 17 285 40T343 103T363 190Q363 238 337 275T273
358Q176 310 118 257T59 134Z" />
<glyph unicode="9" glyph-name="nine" horiz-adv-x="511" d="M396 720Q460 720 496 683T532 578Q532 545 523 499T497 399Q469 309 427 233T333 101T222 13T99 -18Q79 -18 57 -13T21 6T6 42Q6 63 20 80T59 97Q82 97 92 85T103 54Q103 13 141 13Q179 13 227 53T326
178T421 398Q375 329 328 302T238 275Q206 275 178 288T133 329T116 401Q116 457 139 513T203 616T293 691T396 720ZM391 695Q351 695 316 665T254 587T212 486T197 388Q197 303 260 303Q290 303 319 323T374 378T420 453T451 536T463 614Q463 654 443 674T391
695Z" />
<glyph unicode=":" glyph-name="colon" horiz-adv-x="273" d="M180 314Q154 314 137 331T120 374Q120 397 137 414T180 432Q204 432 221 415T238 374Q238 349 221 332T180 314ZM89 -11Q63 -11 46 6T29 49Q29 72 46 89T89 107Q113 107 130 90T147 49Q147 24 130 7T89 -11Z" />
<glyph unicode=";" glyph-name="semicolon" horiz-adv-x="304" d="M-51 -179L-56 -151Q-20 -143 15 -130T79 -93T121 -31Q128 -10 128 13Q128 22 126 31T118 46L115 42Q117 38 117 32Q119 12 107 -3T71 -18Q46 -18 30 1T13 46Q13 71 30 89T75 107Q106 107 130
83T157 20Q161 -29 136 -70T66 -138Q37 -156 6 -165T-51 -179ZM179 313Q153 313 136 330T119 373Q119 396 136 413T179 431Q203 431 220 414T237 373Q237 348 220 331T179 313Z" />
<glyph unicode="&lt;" glyph-name="less" horiz-adv-x="492" d="M471 492L465 451L136 321L381 189L373 152L70 315L78 336L471 492Z" />
<glyph unicode="=" glyph-name="equal" horiz-adv-x="566" d="M111 357L125 392H569L555 357H111ZM63 226L78 261H522L507 226H63Z" />
<glyph unicode="&gt;" glyph-name="greater" horiz-adv-x="502" d="M71 152L77 193L406 323L161 455L169 492L472 329L464 308L71 152Z" />
<glyph unicode="?" glyph-name="question" horiz-adv-x="460" d="M143 172Q127 172 119 182T111 207Q111 216 114 226L180 463L202 464V448Q203 415 221 396T275 377Q311 377 343 401T399 463T438 543T452 620Q452 658 432 676T377 694Q301 694 303 638Q305 607
290 594T253 581Q234 581 222 591T210 620Q210 651 235 673T298 707T377 720Q439 720 481 688T524 597Q524 551 504 507T448 428T368 371T276 350Q250 350 230 359T196 382L184 217Q183 195 171 184T143 172ZM131 -11Q105 -11 88 6T71 49Q71 72 88 89T131 107Q155
107 172 90T189 49Q189 24 172 7T131 -11Z" />
<glyph unicode="@" glyph-name="at" horiz-adv-x="843" d="M416 -139Q313 -139 233 -98T106 20T60 205Q60 299 94 374T188 503T325 585T487 614Q578 614 648 579T758 479T798 323Q798 254 772 194T693 96T562 59Q515 59 495 76T474 120Q474 124 474 128T476 137Q452
103 421 81T352 59Q313 59 288 78T251 127T239 187Q239 238 263 283T325 363T406 418T489 438Q521 438 540 420T563 364L588 427H653L557 172Q553 161 551 151T549 131Q549 88 588 88Q629 88 670 118T740 201T768 323Q768 403 734 461T636 552T486 584Q416 584
350 558T231 483T147 364T116 203Q116 115 152 45T256 -66T424 -107Q472 -107 520 -97T606 -72L617 -97Q580 -116 526 -127T416 -139ZM363 84Q393 84 423 111T478 178T518 254Q540 306 540 347Q540 376 528 394T489 413Q456 413 425 392T367 334T326 251T311 157Q311
129 321 107T363 84Z" />
<glyph unicode="A" glyph-name="A" horiz-adv-x="662" d="M-70 -3L-62 22L-41 24Q11 29 37 55T84 112L508 724L530 710V114Q530 87 534 68T553 39T605 24L624 22L616 -3L471 0L326 -3L334 22L355 24Q399 29 423 45T448 116V258H219L117 111Q95 79 95 60Q95 30
160 24L179 22L171 -3L53 0L-70 -3ZM237 284H448V590L237 284Z" />
<glyph unicode="B" glyph-name="B" horiz-adv-x="665" d="M-23 -3L-15 22L6 24Q61 29 85 52T126 124L289 616Q292 627 294 634T296 649Q296 667 280 674T222 686L203 688L211 713L356 710L418 711Q488 712 542 699T627 653T661 566Q662 530 648 502T612 451Q583
423 543 406T459 380Q534 366 576 327T618 223Q618 183 603 150T560 90Q516 46 444 23T277 0H126L-23 -3ZM398 685H389L294 397H386Q473 397 526 444T576 572Q575 633 528 660T398 685ZM269 26Q345 26 405 52T499 126T534 235Q534 312 492 342T375 372H286L198
106Q196 99 194 89T192 72Q192 46 212 36T269 26Z" />
<glyph unicode="C" glyph-name="C" horiz-adv-x="700" d="M325 -11Q264 -11 209 13T120 91T85 228Q85 300 106 371T167 506T260 619T379 696T518 724Q562 724 593 715T645 694T681 672T705 663Q713 663 724 675T742 697H768L730 594L695 485H669Q671 499 672 511T673
535Q673 614 632 654T526 694Q473 694 422 670T326 602T247 503T194 382T174 249Q174 145 217 83T340 20Q379 20 420 38T499 88T569 161T618 247H644L594 106L566 0H540Q541 6 541 12T542 23Q542 44 528 44Q518 44 493 31T426 3T325 -11Z" />
<glyph unicode="D" glyph-name="D" horiz-adv-x="789" d="M-49 -3L-40 22L-19 24Q20 28 41 33T73 52T93 88L285 617Q293 639 293 651Q293 668 277 675T221 686L202 688L211 713L358 710H359L441 713Q548 717 627 687T751 597T796 450Q796 377 772 311T704 190Q657
131 592 89T448 23T285 0H100L-49 -3ZM252 26H286Q378 26 455 62T588 158T675 295T706 453Q706 521 680 574T592 657T424 684L389 683L189 133Q177 99 177 77Q177 51 189 41T220 28T252 26Z" />
<glyph unicode="E" glyph-name="E" horiz-adv-x="695" d="M-23 -3L-15 22L6 24Q60 29 81 39T113 81L288 617Q291 628 293 636T295 650Q295 667 279 674T222 686L203 688L211 713L358 710H695V650L698 527H672Q671 572 659 607T618 664T542 685H391L293 388H434Q456
388 473 395T506 428T543 508H569L522 371L479 226H453Q462 254 466 275T470 312Q470 339 458 350T426 362H285L220 165Q213 143 209 123T204 89Q204 54 227 39T295 24L433 25Q491 26 528 47T592 109T643 210H669L624 74L602 0H126L-23 -3Z" />
<glyph unicode="F" glyph-name="F" horiz-adv-x="599" d="M-20 -3L-11 22L10 24Q41 27 60 32T92 52T118 100L292 631Q295 642 295 650Q295 667 279 674T222 686L203 688L211 713L358 710L684 709L690 526H664Q663 571 651 607T610 664T534 685H390L283 358H415Q437
358 454 365T488 398T524 478H550L499 341L460 196H434Q443 224 447 245T451 282Q451 309 439 320T407 332H274L194 87Q188 71 188 60Q188 41 209 36T284 24L303 22L294 -3L125 0L-20 -3Z" />
<glyph unicode="G" glyph-name="G" horiz-adv-x="762" d="M334 -14Q249 -14 194 19T113 109T86 235Q86 302 106 371T164 503T255 616T375 695T520 724Q564 724 595 715T647 694T683 672T706 663Q715 663 724 673T743 696H769L729 593L694 485H668Q670 499 671
511T672 535Q672 608 635 651T526 694Q470 694 418 669T322 598T245 496T194 375T175 248Q175 134 223 75T351 16Q399 16 444 35T523 85T565 144L587 207Q590 216 590 222Q590 239 577 249T543 260L498 264L505 290L644 286L775 290L768 265L731 261Q706 258 691
243T668 208L637 120Q634 111 634 104Q634 87 644 77T659 58L634 32Q624 44 612 58T583 73Q571 73 552 60T503 30T432 -1T334 -14Z" />
<glyph unicode="H" glyph-name="H" horiz-adv-x="839" d="M-23 -3L-15 22L6 24Q43 28 65 39T103 73T131 136L291 624Q297 641 297 651Q297 668 280 675T222 686L203 688L211 713L360 710L509 713L501 688L480 686Q444 683 421 672T383 638T354 573L290 376H664L745
624Q750 641 750 650Q750 667 734 674T676 686L657 688L665 713L814 710L963 713L955 688L934 686Q898 683 875 673T837 639T808 573L652 97Q648 86 646 78T644 61Q644 42 661 35T719 24L738 22L730 -3L581 0L432 -3L440 22L461 24Q495 28 517 36T553 64T580 121L653
345H279L198 96Q191 75 191 60Q191 42 207 35T264 24L283 22L275 -3L126 0L-23 -3Z" />
<glyph unicode="I" glyph-name="I" horiz-adv-x="384" d="M-23 -3L-15 22L6 24Q43 28 65 38T102 71T131 136L291 624Q295 637 295 650Q295 668 279 675T222 686L203 688L211 713L360 710L509 713L501 688L480 686Q444 683 422 673T384 640T354 573L198 96Q195
85 193 76T191 60Q191 42 207 35T264 24L283 22L275 -3L126 0L-23 -3Z" />
<glyph unicode="J" glyph-name="J" horiz-adv-x="430" d="M87 -14Q50 -14 18 -4T-35 25T-56 75Q-56 95 -44 107T-11 120Q15 120 26 103T42 63Q48 41 55 25T90 9Q118 9 136 35T170 109T207 217L337 614Q340 625 342 634T344 650Q344 668 328 675T271 686L252 688L260
713L409 710L558 713L550 688L529 686Q495 683 472 674T434 642T403 574L264 147Q254 114 243 85T214 34T166 -1T87 -14Z" />
<glyph unicode="K" glyph-name="K" horiz-adv-x="721" d="M-33 -3L-25 22L-4 24Q33 28 55 37T92 70T121 136L284 635Q288 644 288 653Q288 672 269 677T221 686L202 688L211 713L350 710L478 713L465 686Q431 682 411 675T376 648T346 580L258 309L602 587Q648
625 648 653Q648 683 595 687L581 688L590 713L713 709L827 713L818 688L796 685Q774 682 739 660T655 599L436 421L551 139Q574 79 603 54T679 22L670 -3L559 0L393 -2L402 23L420 26Q461 32 475 44T489 71Q489 78 487 85T482 101L372 369L243 265L188 96Q185
85 183 76T181 60Q181 42 197 35T254 24L273 22L265 -3L116 0L-33 -3Z" />
<glyph unicode="L" glyph-name="L" horiz-adv-x="646" d="M-23 -3L-15 22L6 24Q42 28 62 33T94 48T112 80L291 624Q297 641 297 651Q297 669 280 675T222 686L203 688L211 713L360 710L509 713L501 688L480 686Q444 683 421 673T383 640T354 574L219 161Q210 134
205 113T199 77Q199 48 221 36T298 23H373Q459 23 514 71T604 210H630L552 -3L117 0L-23 -3Z" />
<glyph unicode="M" glyph-name="M" horiz-adv-x="916" d="M-26 -3L-18 22L3 24Q37 28 56 34T88 58T112 116L287 652Q275 666 262 673T229 683L191 688L199 713L317 710H373L433 117L810 710H857L1002 713L994 688L973 686Q949 684 929 679T895 659T874 615L758
96Q755 85 753 76T751 60Q751 42 767 35T824 24L843 22L835 -3L686 0L537 -3L545 22L566 24Q603 28 626 37T664 70T691 137L807 652L395 7H365L303 612L136 90Q134 81 133 74T131 60Q131 40 148 34T204 24L223 22L215 -3L97 0L-26 -3Z" />
<glyph unicode="N" glyph-name="N" horiz-adv-x="793" d="M-13 -3L-4 22L17 24Q48 27 68 33T101 56T124 103L290 632Q278 657 266 670T233 685L202 688L211 713L328 710H346L612 122L767 624Q770 633 771 640T772 653Q771 670 755 676T701 686L682 688L691 713L808
710L931 713L922 688L901 686Q870 683 850 678T817 656T794 607L604 0H574L308 590L150 81Q146 68 146 57Q147 40 163 34T217 24L236 22L227 -3L110 0L-13 -3Z" />
<glyph unicode="O" glyph-name="O" horiz-adv-x="778" d="M342 -14Q272 -14 214 14T121 100T86 241Q86 310 108 379T172 510T269 620T394 696T540 724Q611 724 667 694T757 607T790 469Q790 399 768 330T705 199T608 89T485 14T342 -14ZM345 16Q400 16 452 42T548
113T627 218T681 344T700 481Q700 582 657 638T536 695Q481 695 429 669T331 597T251 491T197 363T177 225Q177 126 221 71T345 16Z" />
<glyph unicode="P" glyph-name="P" horiz-adv-x="637" d="M-25 -3L-16 22L6 24Q56 29 81 50T125 125L292 630Q295 642 295 650Q295 667 279 674T221 686L202 688L211 713L358 710H369L466 711Q599 713 663 664T728 534Q728 467 689 415T575 332T388 302Q366 302
340 303T266 309L196 96Q192 86 191 77T189 60Q189 42 207 35T271 23L290 21L281 -3L124 0L-25 -3ZM389 683L275 337Q321 335 343 334T374 333Q451 333 502 352T584 401T628 468T642 539Q642 609 595 646T472 683H389Z" />
<glyph unicode="Q" glyph-name="Q" horiz-adv-x="804" d="M33 -150Q18 -150 9 -142T-1 -117Q-1 -86 31 -71T113 -55Q135 -55 159 -58L308 -9Q250 0 205 31T133 115T106 241Q106 310 128 379T192 510T289 620T414 696T560 724Q631 724 687 694T777 607T810 469Q810
399 788 330T725 199T628 89T505 14T362 -14Q357 -14 352 -14L249 -48Q231 -54 216 -59Q284 -60 337 -87T431 -154Q447 -170 468 -188T514 -219T567 -232Q598 -232 628 -210T670 -136L690 -138Q677 -214 645 -254T557 -294Q508 -294 473 -277T409 -233T350 -174Q308
-132 260 -112T171 -92Q153 -92 137 -93Q111 -107 91 -124Q77 -135 63 -142T33 -150ZM365 16Q420 16 472 42T568 113T647 218T701 344T720 481Q720 582 677 638T556 695Q501 695 449 669T351 597T271 491T217 363T197 225Q197 126 241 71T365 16Z" />
<glyph unicode="R" glyph-name="R" horiz-adv-x="743" d="M-20 -3L-12 22L9 24Q43 28 63 34T96 59T124 120L292 632Q295 643 295 650Q295 666 279 674T222 686L203 688L211 713L358 710H369L446 711Q571 713 630 669T689 550Q689 481 655 440T562 379T431 360H404Q476
352 516 313T563 205L568 127Q570 73 581 48T626 22Q647 22 661 32T685 53L704 36Q681 8 653 -3T596 -14Q544 -14 510 30T472 154L471 205Q468 272 420 313T283 360L194 87Q187 67 187 54Q187 38 201 33T251 24L270 22L262 -3L125 0L-20 -3ZM389 683L291 383L408
382Q500 381 551 430T603 558Q603 589 590 617T542 664T446 683H389Z" />
<glyph unicode="S" glyph-name="S" horiz-adv-x="589" d="M293 -11Q247 -11 214 -1T159 22T121 46T92 56Q77 56 67 39T48 4L22 19L66 149L97 271L124 269L121 229V200Q124 113 166 65T281 17Q347 17 386 57T426 154Q426 210 405 247T340 325L294 369Q271 392 245
418T200 476T181 549Q181 600 207 638T278 698T384 720Q424 720 453 710T502 687T537 663T560 653Q568 653 574 662T587 694L614 693L587 581L570 470L544 471V501Q543 550 529 593T483 664T395 692Q361 692 331 677T283 633T265 567Q265 533 278 508T312 462T357
417L402 373Q454 324 481 279T509 187Q509 132 482 87T406 16T293 -11Z" />
<glyph unicode="T" glyph-name="T" horiz-adv-x="741" d="M139 -3L148 20L164 22Q214 29 251 43T302 100L494 687V687L366 685Q324 684 296 676T247 649T206 599T161 522L135 523L207 713L534 710L840 713L838 632L842 510H817Q815 558 802 597T763 660T697 685L575
688L386 112Q383 103 382 96T381 82Q381 53 404 40T468 23L504 20L496 -3L314 0H303L139 -3Z" />
<glyph unicode="U" glyph-name="U" horiz-adv-x="758" d="M366 -14Q243 -14 190 31T137 156Q137 182 143 212T159 275L268 614Q271 625 273 634T275 650Q275 668 259 675T202 686L183 688L191 713L340 710L489 713L481 688L460 686Q424 683 402 674T364 642T335
574L240 275Q231 246 226 219T221 168Q221 101 259 60T377 18Q433 18 478 42T561 122T629 274L742 625Q747 643 747 652Q747 671 731 676T677 686L658 688L666 713L784 710L907 713L899 688L878 686Q846 683 826 678T792 659T769 612L672 308Q637 200 600 129T507
22T366 -14Z" />
<glyph unicode="V" glyph-name="V" horiz-adv-x="686" d="M287 -8L237 593Q234 622 231 641T213 671T160 686L141 688L149 713L292 710L438 713L430 688L409 686Q382 683 360 677T325 655T314 611L354 105L695 613Q709 635 709 648Q709 678 638 686L619 688L627
713L746 710L868 713L860 688L839 686Q804 683 785 672T752 643T721 598L313 -8H287Z" />
<glyph unicode="W" glyph-name="W" horiz-adv-x="1019" d="M292 -8L237 593Q234 622 231 641T213 671T160 686L141 688L149 713L288 710L415 713L407 688L395 686Q374 683 355 677T324 656T314 613L357 124L606 562Q616 580 624 599T632 635Q632 652 621 664T581
681L543 687L547 713L574 710Q605 706 624 699T653 679Q675 697 701 703T759 711L786 713L785 687L745 683Q708 680 686 662T663 609Q663 604 663 599T665 587L726 118L1004 613Q1016 636 1016 650Q1016 682 947 686L910 688L918 713L1055 710L1177 713L1169 688L1148
686Q1113 683 1093 673T1059 644T1030 598L690 -8H664L601 490L318 -8H292Z" />
<glyph unicode="X" glyph-name="X" horiz-adv-x="744" d="M-47 -2L-38 23L-17 26Q10 30 40 49T107 102L392 368L294 593Q276 634 256 658T197 686L178 688L187 713L316 710L465 713L456 688L435 686Q404 683 387 670T370 631Q370 621 372 609T380 581L456 408L675
609Q705 638 705 654Q704 678 628 686L609 688L618 713L746 710L872 713L863 688L842 685Q816 681 786 662T718 609L469 379L571 146Q599 82 621 56T683 25L702 23L693 -2L567 0L415 -2L424 23L445 25Q513 33 513 76Q513 89 507 104L405 338L152 104Q137 91 131
80T125 61Q126 46 145 37T197 25L216 23L207 -2L86 1L-47 -2Z" />
<glyph unicode="Y" glyph-name="Y" horiz-adv-x="663" d="M150 -3L159 22L180 24Q211 28 230 32T263 52T288 102L336 275L257 593Q250 622 242 641T216 671T160 686L141 688L150 713L281 710L427 713L418 688L397 686Q331 680 331 626Q331 616 333 605T338 581L406
316L628 595Q654 628 654 648Q654 666 634 674T576 686L557 688L566 713L694 710L820 713L811 688L790 685Q763 681 733 661T670 601L420 287L364 89Q361 79 361 70Q361 44 387 37T458 24L477 22L468 -3L295 0L150 -3Z" />
<glyph unicode="Z" glyph-name="Z" horiz-adv-x="675" d="M-9 0L-16 9L643 685H415Q358 685 322 672T262 636T222 579T185 506H159L236 710H759L762 703L105 29H327Q397 29 443 42T519 84T572 156T618 260H644L607 107L586 1L-9 0Z" />
<glyph unicode="[" glyph-name="bracketleft" horiz-adv-x="279" d="M-73 -119L255 784H439L428 754Q370 751 336 745T276 718L-4 -54Q7 -72 36 -78T121 -90L111 -119H-73Z" />
<glyph unicode="\" glyph-name="backslash" horiz-adv-x="609" d="M529 -135H494L-80 834H-45L529 -135Z" />
<glyph unicode="]" glyph-name="bracketright" horiz-adv-x="281" d="M424 785L96 -118H-88L-77 -88Q-19 -85 15 -78T75 -52L355 720Q344 738 315 744T230 756L240 785H424Z" />
<glyph unicode="^" glyph-name="asciicircum" horiz-adv-x="510" d="M104 348L418 710H458L514 348H478L428 669L152 348H104Z" />
<glyph unicode="_" glyph-name="underscore" horiz-adv-x="494" d="M-80 -56L-67 -20H387L374 -56H-80Z" />
<glyph unicode="`" glyph-name="grave" horiz-adv-x="276" d="M287 520L251 617Q244 636 241 650T237 678Q237 695 246 707T275 720Q289 720 298 706T308 656L311 520H287Z" />
<glyph unicode="a" glyph-name="a" d="M162 -14Q115 -14 85 5T41 57T27 127Q27 190 54 249T124 354T219 427T319 454Q365 454 388 424T416 347L450 440H516L391 85Q387 70 384 59T381 39Q381 19 397 19Q419 19 440 42T474 87L492 75Q473 44 443 15T370 -14Q339
-14 327 1T314 41Q314 60 320 84Q287 38 247 12T162 -14ZM172 12Q229 12 279 66T365 210L377 244Q394 294 394 336Q394 377 377 402T325 428Q285 428 246 398T174 318T122 214T102 107Q102 60 121 36T172 12Z" />
<glyph unicode="b" glyph-name="b" horiz-adv-x="493" d="M179 -14Q115 -14 81 16T46 108Q46 134 52 165T71 233L195 619Q202 639 202 653Q202 671 191 678T163 685T127 686L134 710L296 713L187 369Q207 397 231 414Q254 432 280 443T333 454Q390 454 425 414T460
300Q460 236 437 179T373 79T282 11T179 -14ZM179 8Q218 8 254 37T320 112T367 213T384 317Q384 375 364 400T312 426Q285 426 255 405T198 349T156 274L137 221Q124 182 119 150T113 91Q113 51 131 30T179 8Z" />
<glyph unicode="c" glyph-name="c" horiz-adv-x="438" d="M200 -14Q119 -14 78 33T36 155Q36 216 61 270T130 365T225 430T332 454Q382 454 405 441T436 410T444 379Q444 360 433 344T399 327Q380 327 369 338T358 367Q358 399 356 415T326 432Q285 432 247 406T179
338T132 246T114 148Q114 92 138 52T217 11Q241 11 266 22T311 53Q333 74 350 103L368 90Q346 47 305 17T200 -14Z" />
<glyph unicode="d" glyph-name="d" horiz-adv-x="539" d="M162 -14Q115 -14 85 5T41 57T27 127Q27 190 54 249T124 354T219 427T319 454Q363 454 386 427T415 357L499 615Q503 626 504 635T506 652Q506 671 496 677T469 685T433 686L440 710L602 713L397 85Q393
70 390 59T387 39Q387 19 403 19Q425 19 446 42T480 87L498 75Q479 44 449 15T376 -14Q345 -14 333 1T320 41Q320 54 323 69T331 99Q296 46 254 16T162 -14ZM172 12Q213 12 250 40T319 118T374 234Q394 289 394 336Q394 377 377 402T325 428Q285 428 246 398T174
318T122 214T102 107Q102 60 121 36T172 12Z" />
<glyph unicode="e" glyph-name="e" horiz-adv-x="418" d="M188 -14Q135 -14 102 9T53 71T37 154Q37 216 61 269T125 364T212 429T308 452Q355 452 382 429T410 366Q409 307 355 274T208 230L124 222Q112 176 112 134Q112 105 120 77T149 31T201 12Q240 12 272
37T324 90L341 76Q318 44 281 15T188 -14ZM307 432Q274 432 240 406T177 337T131 243L187 251Q240 259 272 275T322 311T345 349T351 381Q351 404 341 418T307 432Z" />
<glyph unicode="f" glyph-name="f" horiz-adv-x="342" d="M-99 -290Q-160 -290 -185 -267T-210 -217Q-210 -197 -196 -184T-161 -170Q-139 -170 -130 -185T-116 -219T-104 -253T-81 -268Q-55 -268 -32 -230T13 -127L190 416H103L111 440H198L234 552Q266 650 319
687T436 724Q491 724 515 702T540 654Q540 634 530 618T494 601Q471 601 462 615T453 651Q453 680 446 691T418 702Q399 702 372 684T327 611L271 440H378L370 416H263L85 -127Q63 -193 37 -228T-22 -277T-99 -290Z" />
<glyph unicode="g" glyph-name="g" horiz-adv-x="534" d="M251 134Q219 134 195 140T151 158Q107 141 86 121T64 81Q64 66 79 54T131 36L251 21Q308 14 340 -5T386 -52T400 -111Q400 -132 391 -162T357 -221T287 -270T167 -290Q93 -290 46 -267T-24 -210T-47 -148Q-47
-121 -32 -102T5 -83Q28 -83 37 -96T46 -124Q46 -143 37 -160T27 -197Q27 -210 39 -227T82 -256T170 -268Q231 -268 272 -249T334 -200T355 -135Q355 -108 335 -84T265 -52L136 -35Q79 -27 50 -3T21 56Q21 91 47 121T131 174Q110 194 101 220T91 272Q91 323 118
364T191 429T293 453Q324 453 349 446T392 425Q412 449 443 463T502 478Q535 478 555 461T575 419Q575 404 565 391T534 378Q518 378 505 388T492 417Q492 431 488 440T469 449Q458 449 445 441T409 411Q428 391 437 366T447 315Q447 264 419 223T347 158T251 134ZM241
158Q276 158 302 176T345 221T370 280T379 338Q379 378 357 403T295 429Q252 429 222 401T175 332T159 250Q159 210 181 184T241 158Z" />
<glyph unicode="h" glyph-name="h" horiz-adv-x="518" d="M77 0H5L206 616Q213 637 213 652Q213 671 203 678T176 685T140 686L147 710L309 713L305 702L188 343Q222 386 270 420T378 454Q428 454 446 436T465 388Q465 362 454 331L364 80Q355 55 355 39Q355 19
371 19Q393 19 414 40T448 84L466 72Q447 41 417 14T344 -14Q313 -14 301 1T288 40Q288 55 292 73T303 110L390 356Q397 376 397 391Q397 411 386 420T359 429Q331 429 300 412T241 369T192 313T161 257L162 261L77 0Z" />
<glyph unicode="i" glyph-name="i" horiz-adv-x="279" d="M100 -14Q69 -14 57 1T44 41Q44 57 48 75T59 113L146 347Q154 369 154 382Q154 400 143 407T115 415T78 416L85 440L247 443L121 85Q117 70 114 59T111 39Q111 19 127 19Q149 19 170 42T204 87L222 75Q203
44 173 15T100 -14ZM496 553Q472 553 457 569T441 607Q441 628 456 644T496 660Q517 660 532 644T548 607Q548 585 533 569T496 553Z" />
<glyph unicode="j" glyph-name="j" horiz-adv-x="270" d="M-111 -290Q-172 -290 -197 -267T-222 -217Q-222 -197 -208 -184T-173 -170Q-151 -170 -142 -185T-128 -219T-116 -253T-93 -268Q-66 -268 -45 -230T-2 -127L156 360Q161 377 161 384Q161 409 137 412T85
416L92 440L254 443L67 -132Q39 -220 -3 -255T-111 -290ZM255 553Q231 553 216 569T200 607Q200 628 215 644T255 660Q276 660 291 644T307 607Q307 585 292 569T255 553Z" />
<glyph unicode="k" glyph-name="k" horiz-adv-x="486" d="M77 0H5L206 616Q213 637 213 652Q213 671 203 678T176 685T140 686L147 710L308 713L169 285Q209 290 233 308T286 355L323 394Q351 423 372 438T418 454Q445 454 457 443T474 417T478 392Q478 370 467
354T435 337Q422 337 410 345T398 373Q398 390 397 397T393 409Q390 414 383 414Q373 414 363 406T339 383L298 340Q278 319 262 304T222 281Q287 273 309 240T333 136Q334 87 335 62T343 28T362 19Q375 19 395 34T436 84L453 72Q427 25 394 6T332 -14Q289 -14
277 18T265 132Q265 184 257 214T227 256T164 269L77 0Z" />
<glyph unicode="l" glyph-name="l" horiz-adv-x="265" d="M90 -14Q59 -14 47 1T34 41Q34 57 38 75T49 113L213 615Q217 626 218 635T220 652Q220 671 210 677T183 685T147 686L154 710L316 713L111 85Q107 70 104 59T101 39Q101 19 117 19Q139 19 160 42T194 87L212
75Q193 44 163 15T90 -14Z" />
<glyph unicode="m" glyph-name="m" horiz-adv-x="778" d="M613 -14Q578 -14 564 2T549 45Q549 64 554 86T569 135L650 356Q657 376 657 392Q657 412 646 420T619 429Q594 429 566 414T513 375T467 323T437 267L340 0H266L396 356Q403 376 403 391Q403 411 392
420T365 429Q338 429 310 413T255 370T209 314T179 257L86 0H14L138 344Q148 370 148 386Q148 411 128 413T80 416L88 440L235 443L206 346Q238 388 283 421T384 454Q432 454 449 434T467 382Q467 368 464 351Q495 392 539 423T638 454Q685 454 704 434T724 383Q724
357 714 331L631 103Q626 87 623 72T619 45Q619 34 623 27T637 19Q654 19 674 40T708 84L726 72Q707 41 679 14T613 -14Z" />
<glyph unicode="n" glyph-name="n" horiz-adv-x="536" d="M362 -14Q331 -14 319 1T306 40Q306 55 310 73T321 110L408 356Q419 388 411 408T374 429Q347 429 317 413T259 370T210 314T179 257L86 0H14L138 344Q155 393 141 404T80 416L88 440L235 443L203 336Q225
367 254 393T319 437T396 454Q457 454 475 422T472 331L382 80Q375 59 375 39T391 19Q414 19 433 40T466 84L484 72Q465 41 435 14T362 -14Z" />
<glyph unicode="o" glyph-name="o" horiz-adv-x="514" d="M196 -14Q143 -14 107 8T54 68T36 149Q36 209 58 263T120 361T211 429T318 454Q372 454 408 432T461 373T479 294Q479 234 457 179T395 80T304 11T196 -14ZM195 8Q232 8 264 29T322 86T368 163T397 246T408
322Q408 432 320 432Q283 432 251 411T193 355T147 279T118 196T107 121Q107 8 195 8Z" />
<glyph unicode="p" glyph-name="p" horiz-adv-x="527" d="M-126 -280L-118 -256H-94Q-72 -256 -61 -247T-37 -200L142 345Q151 372 151 386Q151 412 131 414T82 416L90 440L224 443L205 361Q230 393 256 413Q285 435 312 444T361 454Q422 454 458 411T494 300Q494
236 470 180T407 80T320 11T224 -14Q186 -14 159 10T123 79L34 -201Q24 -232 26 -244T53 -256H87L80 -280H-126ZM223 12Q259 12 294 40T357 114T402 214T419 320Q419 376 399 401T345 427Q316 427 285 406T226 351T183 274L164 221Q142 159 142 112Q142 64 164
38T223 12Z" />
<glyph unicode="q" glyph-name="q" horiz-adv-x="508" d="M117 -280L125 -256H155Q178 -256 197 -244T226 -200L321 86Q288 39 248 13T162 -14Q115 -14 85 5T41 57T27 127Q27 190 54 249T124 354T219 427T319 454Q361 454 384 429T414 363L437 440H507L297 -201Q288
-228 291 -242T316 -256H350L343 -280H117ZM172 12Q213 12 250 40T319 118T374 234Q394 289 394 336Q394 377 377 402T325 428Q285 428 246 398T174 318T122 214T102 107Q102 60 121 36T172 12Z" />
<glyph unicode="r" glyph-name="r" horiz-adv-x="390" d="M9 0L133 344Q145 377 143 392T124 412T75 416L83 440L220 443L176 296Q198 338 223 374T280 432T349 454Q375 454 400 438T425 387Q425 372 416 357T383 342Q364 342 354 352T339 385Q333 415 309 415Q290
415 269 397T221 338Q204 310 185 272T147 182L81 0H9Z" />
<glyph unicode="s" glyph-name="s" horiz-adv-x="363" d="M136 -14Q84 -14 54 4T11 47T-2 93Q-2 116 10 131T46 147Q62 147 71 137T81 112Q81 96 74 84T67 55Q67 35 85 22T131 8Q162 8 182 21T214 55T225 96Q225 119 217 136T187 178L150 217Q128 241 117 270T106
327Q106 358 121 387T166 435T242 454Q291 454 316 441T350 411T360 380Q360 361 348 348T316 334Q304 334 293 343T281 371Q281 382 281 396T273 421T241 432Q204 432 184 409T163 357Q163 337 171 318T197 278L235 238Q254 219 273 193T292 124Q292 90 272 59T217
7T136 -14Z" />
<glyph unicode="t" glyph-name="t" horiz-adv-x="308" d="M102 -14Q73 -14 60 1T47 42Q47 56 51 73T62 110L172 416H107L115 440H181L212 526H279L249 440H341L333 416H240L123 82Q115 58 115 46Q115 19 139 19Q162 19 183 40T217 84L235 72Q216 41 184 14T102 -14Z" />
<glyph unicode="u" glyph-name="u" d="M139 -14Q8 -14 66 137L145 346Q150 357 151 366T153 383Q153 401 142 408T114 415T78 416L85 440L249 443L129 108Q113 65 119 38T158 11Q183 11 211 27T267 69T315 125T348 186L443 440H509L384 85Q380 70 377 59T374 39Q374
19 390 19Q412 19 433 42T467 87L485 75Q466 44 436 15T363 -14Q332 -14 320 1T307 41Q307 61 315 91Q283 49 238 18T139 -14Z" />
<glyph unicode="v" glyph-name="v" horiz-adv-x="483" d="M175 -11Q165 36 148 75T115 148Q100 181 89 211T78 274Q78 324 110 358T189 422L86 416L95 440L247 448L252 431Q235 423 214 410T177 374T161 309Q161 268 172 224T200 121L221 54L340 193Q372 229 390
263T408 322Q408 345 401 360T387 388T379 413Q379 427 392 440T425 454Q448 454 464 434T481 379Q481 333 449 289T370 192L192 -11H175Z" />
<glyph unicode="w" glyph-name="w" horiz-adv-x="728" d="M175 -11Q165 36 148 75T115 148Q100 181 89 211T78 274Q78 324 110 358T189 422L86 416L95 440L247 448L252 431Q236 423 215 410T177 374T161 309Q161 268 172 224T200 121L220 55L328 188Q350 214 365
242T380 302Q380 327 371 346T352 382T342 411Q342 427 355 440T384 454Q403 454 419 439T440 392Q456 409 478 424T525 448L533 432Q515 424 492 409T451 366T434 294Q434 254 444 217T476 121L499 56L606 188Q628 214 642 242T657 302Q657 327 648 346T630 382T621
410Q621 425 633 439T664 454Q684 454 701 433T719 371Q719 331 700 287T638 192L470 -11H453Q443 36 427 72T396 152Q392 165 387 180T380 218Q371 205 360 192L192 -11H175Z" />
<glyph unicode="x" glyph-name="x" horiz-adv-x="553" d="M77 -11Q35 -11 13 2T-16 34T-24 65Q-24 85 -12 100T23 116Q43 116 52 104T62 70Q62 57 62 44T67 21T91 11Q118 11 146 37T198 107T237 205T252 317Q252 344 249 368T235 408T199 424Q165 424 134 398T86
334L70 346Q90 390 127 422T217 454Q260 454 285 429T318 359Q353 403 394 428T477 454Q519 454 540 441T570 411T578 381Q578 357 566 342T533 327Q510 327 501 340T492 367Q492 385 492 399T487 423T463 432Q438 432 411 406T359 339T319 248T300 152Q300 145
300 139T299 127Q299 81 311 50T355 19Q387 19 419 44T467 106L484 94Q463 51 427 20T342 -11Q297 -11 272 16T238 83Q203 40 162 15T77 -11Z" />
<glyph unicode="y" glyph-name="y" horiz-adv-x="481" d="M-55 -290Q-87 -290 -106 -275T-126 -238Q-126 -215 -111 -202T-73 -189Q-54 -189 -40 -200T-10 -222T29 -234Q61 -234 93 -199L175 -112Q192 -95 203 -74T215 -31Q215 -1 199 32T160 101Q132 145 108
190T84 278Q84 331 115 363T190 422L87 416L95 440L248 448L253 431Q202 406 184 379T166 316Q166 285 176 249T202 178T229 112L271 9L317 66Q365 126 385 170T410 244T415 290Q415 312 409 329T387 362Q376 373 368 383T359 409Q359 422 372 438T406 454Q426
454 444 431T462 354Q462 296 439 226T345 66L203 -110Q144 -184 102 -223T23 -276T-55 -290Z" />
<glyph unicode="z" glyph-name="z" horiz-adv-x="488" d="M26 -14Q13 -14 4 -5T-5 20Q-5 51 43 71Q65 79 81 93T113 123L362 345Q353 343 343 343Q298 343 266 352T212 371T170 380Q133 380 120 361T105 315L81 316Q85 378 119 416T201 454Q230 454 251 442T291
413T330 385T377 372Q388 372 392 375T401 388Q418 416 430 439T470 462Q481 462 491 455T501 432Q501 411 483 395T442 368T404 351L104 84Q117 90 132 93T164 97Q196 97 224 87T279 66T333 55Q353 55 369 73T386 126Q386 131 386 136T384 148L411 151Q412 143
412 135T413 119Q413 72 398 43T360 0T310 -14Q280 -14 258 -2T219 27T184 55T144 68Q118 68 103 56T77 27T56 -1T26 -14Z" />
<glyph unicode="{" glyph-name="braceleft" horiz-adv-x="376" d="M198 -142Q155 -142 126 -123T82 -73T67 -10Q67 25 82 57T116 120T151 179T166 235Q166 267 144 289T83 311L91 331Q122 331 154 346T211 386T246 438Q258 470 260 495T266 545T280 601Q291 631
316 663T377 722T453 767T532 784L527 766Q497 766 465 752T409 716T376 667Q361 623 354 579T328 483Q314 443 282 407T211 347T136 324L134 318Q175 318 197 289T220 216Q220 172 205 137T170 70T135 10T120 -49Q120 -77 143 -100T206 -124L198 -142Z" />
<glyph unicode="|" glyph-name="bar" horiz-adv-x="213" d="M-21 -135L293 834H328L14 -135H-21Z" />
<glyph unicode="}" glyph-name="braceright" horiz-adv-x="378" d="M241 784Q285 784 314 765T357 716T372 652Q372 617 357 585T323 522T288 463T273 407Q273 376 296 354T356 331L348 311Q317 311 285 296T228 256T193 204Q182 173 179 148T173 97T159 41Q148
11 123 -21T62 -80T-14 -125T-93 -142L-88 -124Q-58 -124 -26 -110T30 -73T63 -25Q78 19 85 63T111 159Q126 199 157 235T228 295T303 318L305 324Q265 324 242 353T219 426Q219 470 234 505T269 572T304 632T319 691Q319 720 296 743T233 766L241 784Z" />
<glyph unicode="~" glyph-name="asciitilde" horiz-adv-x="748" d="M9 230Q14 244 32 272T80 329T149 380T237 401Q277 401 318 383T399 341Q439 319 478 301T549 283Q585 283 615 298T670 336T710 385H733Q713 347 679 312T607 253T532 230Q488 230 448 248T371
288Q334 310 296 328T220 347Q165 347 116 318T30 230H9Z" />
<glyph unicode="&#xa0;" glyph-name="uni00A0" horiz-adv-x="250" />
<glyph unicode="&#xa1;" glyph-name="exclamdown" horiz-adv-x="264" d="M284 606Q259 606 242 623T225 665Q226 690 243 707T284 724Q310 723 326 706T343 665Q343 642 327 624T284 606ZM76 -4Q61 -3 48 8T34 41Q34 54 42 75L226 515L253 505L143 55Q135 21 117
9T76 -4Z" />
<glyph unicode="&#xa2;" glyph-name="cent" horiz-adv-x="438" d="M103 -115L143 -6Q90 9 63 52T36 155Q36 213 59 264T121 357T209 423T310 453L348 558H373L335 454Q383 453 406 440T437 410T444 379Q444 360 433 344T399 327Q380 327 369 338T358 367Q358 399
356 415T327 432L177 19Q195 11 217 11Q241 11 266 22T311 53Q333 74 350 103L368 90Q346 47 305 17T200 -14Q182 -14 166 -11L128 -115H103ZM114 148Q114 111 124 80T156 31L301 429Q264 421 231 393T171 325T129 238T114 148Z" />
<glyph unicode="&#xa3;" glyph-name="sterling" horiz-adv-x="560" d="M-15 -14Q-34 -14 -43 -7T-53 10Q-53 35 -29 53T31 83T99 97Q106 111 113 126T133 170T169 256Q175 271 181 285T195 313H99L112 337H207Q212 346 218 358Q250 417 289 481T374 600T475 689T593
724Q628 724 655 707T682 652Q682 624 664 607T621 590Q605 590 593 599T580 626Q580 643 589 652T607 668Q619 677 619 683Q619 691 610 695T587 699Q551 699 516 672T447 598T379 495T312 378Q306 367 300 356T287 333H452L439 309H274Q260 285 245 257Q221 213
193 172T136 95Q177 94 208 89T265 74Q288 67 311 61T361 55Q404 55 438 79T494 153H516Q500 108 473 70T407 9T317 -14Q282 -14 255 0T202 32Q184 45 161 58T119 75Q83 35 49 11T-15 -14Z" />
<glyph unicode="&#xa4;" glyph-name="currency" horiz-adv-x="559" d="M176 183L150 209L200 259Q183 281 173 308T163 366Q163 397 173 424T200 473L150 523L175 549L226 498Q247 516 274 525T333 535Q364 535 391 526T440 498L490 548L515 523L465 473Q482 451
492 424T502 366Q502 335 492 308T465 259L515 209L490 183L439 234Q418 216 391 207T333 197Q302 197 275 206T226 233L176 183ZM333 237Q370 237 399 254T445 300T462 366Q462 403 445 432T399 478T333 495Q297 495 268 478T221 432T203 366Q203 330 220 301T267
254T333 237Z" />
<glyph unicode="&#xa5;" glyph-name="yen" horiz-adv-x="663" d="M164 281L175 310H599L588 281H164ZM134 167L145 196H569L558 167H134ZM150 -3L159 22L180 24Q211 28 230 32T263 52T288 102L336 275L257 593Q250 622 242 641T216 671T160 686L141 688L150 713L281
710L427 713L418 688L397 686Q331 680 331 626Q331 616 333 605T338 581L406 316L628 595Q654 628 654 648Q654 666 634 674T576 686L557 688L566 713L694 710L820 713L811 688L790 685Q763 681 733 661T670 601L420 287L364 89Q361 79 361 70Q361 44 387 37T458
24L477 22L468 -3L295 0L150 -3Z" />
<glyph unicode="&#xa6;" glyph-name="brokenbar" horiz-adv-x="213" d="M152 400L293 834H328L187 400H152ZM-21 -135L120 299H155L14 -135H-21Z" />
<glyph unicode="&#xa7;" glyph-name="section" horiz-adv-x="529" d="M121 -294Q58 -294 18 -276T-41 -231T-61 -178Q-61 -157 -49 -141T-11 -125Q12 -125 25 -142T38 -191Q38 -238 58 -250T115 -262Q152 -262 186 -247T242 -202T265 -131Q265 -104 254 -75T221
-23L177 24Q137 66 117 104T97 183Q97 226 121 265T192 331T311 364L292 384Q252 426 232 464T212 546Q212 600 242 640T321 702T429 724Q471 724 506 710T562 669T584 608Q584 587 572 571T536 555Q485 555 485 618Q485 654 464 674T408 694Q356 694 326 657T296
563Q296 524 313 493T359 431L390 398Q425 360 445 326T466 244Q466 170 402 131T229 87L275 38Q310 0 330 -34T351 -116Q351 -173 318 -212T233 -273T121 -294ZM275 117Q318 117 349 151T380 237Q380 259 371 281T343 319T291 335Q258 335 234 317T195 269T181
206Q181 163 209 140T275 117Z" />
<glyph unicode="&#xa8;" glyph-name="dieresis" horiz-adv-x="400" d="M245 557Q223 557 209 572T195 607Q195 626 209 640T245 655Q265 655 279 641T293 607Q293 587 279 572T245 557ZM439 557Q417 557 403 572T389 607Q389 626 403 640T439 655Q459 655 473
641T487 607Q487 587 473 572T439 557Z" />
<glyph unicode="&#xa9;" glyph-name="copyright" horiz-adv-x="886" d="M494 -11Q413 -11 346 17T229 96T152 214T125 357Q125 433 152 499T228 616T345 695T494 724Q574 724 640 696T756 617T833 500T860 357Q860 281 834 214T760 97T645 18T494 -11ZM494 28Q568
28 628 54T730 125T795 230T818 357Q818 423 794 482T727 587T624 659T494 685Q422 685 363 659T259 588T191 483T167 357Q167 290 191 231T259 126T362 54T494 28ZM502 167Q411 167 359 220T306 358Q306 413 331 456T401 525T502 550Q534 550 556 544T592 530T612
523Q623 523 626 543H642L640 482L642 421H623Q615 471 584 496T514 521Q473 521 445 499T402 440T387 358Q387 282 422 239T517 196Q553 196 584 218T628 281L652 272Q640 233 615 210T560 177T502 167Z" />
<glyph unicode="&#xaa;" glyph-name="ordfeminine" horiz-adv-x="443" d="M211 290Q152 290 125 323T98 400Q98 449 120 494T179 575T259 632T343 653Q386 653 405 633T428 580L453 644H516L410 367Q406 356 404 347T402 331Q402 318 412 318Q429 318 447 336T477
371L493 358Q477 334 452 312T393 290Q364 290 352 302T340 333Q340 342 342 353Q318 324 287 307T211 290ZM219 312Q271 312 315 359T388 484Q403 526 403 563Q403 594 390 613T348 633Q316 633 284 610T226 548T184 467T168 384Q168 312 219 312ZM56 185V209H408V185H56Z"
/>
<glyph unicode="&#xab;" glyph-name="guillemotleft" horiz-adv-x="466" d="M159 44Q107 59 82 98T56 179Q56 219 73 254T120 319T183 369T249 399L258 374Q221 357 187 325T132 252T110 170Q110 137 123 112T168 69L159 44ZM352 44Q300 59 275 98T249 179Q249
219 266 254T313 319T376 369T442 399L451 374Q414 357 380 325T325 252T303 170Q303 137 316 112T361 69L352 44Z" />
<glyph unicode="&#xac;" glyph-name="logicalnot" horiz-adv-x="574" d="M127 402L141 441H595L581 402V402L525 247H486L542 402H127Z" />
<glyph unicode="&#xad;" glyph-name="uni00AD" horiz-adv-x="388" d="M53 196L65 232H332L320 196H53Z" />
<glyph unicode="&#xae;" glyph-name="registered" horiz-adv-x="885" d="M494 -11Q413 -11 346 17T229 96T152 214T125 357Q125 433 152 499T228 616T345 695T494 724Q574 724 640 696T756 617T833 500T860 357Q860 281 833 214T757 97T641 18T494 -11ZM494 28Q565
28 624 54T726 125T794 230T818 357Q818 423 794 482T727 587T624 659T494 685Q422 685 363 659T259 588T191 483T167 357Q167 290 191 231T259 126T362 54T494 28ZM636 173Q605 173 590 192T571 239Q567 266 557 291T523 333T450 351H440V247Q440 213 450 207T492
197L503 196V177L410 179L319 177V196L330 197Q359 200 368 206T378 247L379 472Q379 506 369 512T330 521L319 523L320 541L402 539H480Q521 539 555 531T611 504T633 451Q633 404 600 383T522 355Q566 352 594 330T629 268Q637 231 647 216T671 202L688 204L691
185Q682 181 667 177T636 173ZM440 372H473Q522 372 541 391T560 448Q560 482 543 500T481 519H440V372Z" />
<glyph unicode="&#xaf;" glyph-name="overscore" horiz-adv-x="322" d="M179 581L193 621H420L406 581H179Z" />
<glyph unicode="&#xb0;" glyph-name="degree" horiz-adv-x="320" d="M289 442Q253 442 223 460T175 508T157 574Q157 610 175 640T223 687T289 705Q325 705 355 688T402 640T420 574Q420 538 403 508T355 460T289 442ZM289 479Q328 479 355 506T383 574Q383 613
356 640T289 668Q249 668 222 641T194 574Q194 534 221 507T289 479Z" />
<glyph unicode="&#xb1;" glyph-name="plusminus" horiz-adv-x="598" d="M280 223L320 332H171L187 368H333L372 476H410L371 368H519L503 332H358L318 223H280ZM89 101L103 137H436L422 101H89Z" />
<glyph unicode="&#xb2;" glyph-name="uni00B2" horiz-adv-x="347" d="M63 297L71 320L231 434Q293 478 335 524T378 625Q378 657 358 674T306 691Q270 691 245 674T219 634Q219 628 224 623T236 612Q248 603 248 586Q248 570 236 559T207 547Q184 547 174 563T164
598Q164 630 187 657T250 700T334 717Q392 717 421 694T450 630Q450 591 422 556T350 488T260 424L154 353L265 355Q291 356 305 359T329 371T352 400H373L345 332L334 297H63Z" />
<glyph unicode="&#xb3;" glyph-name="uni00B3" horiz-adv-x="348" d="M183 290Q134 290 103 307T72 357Q72 377 85 390T119 403Q135 403 144 395T153 373Q153 365 150 360T143 349Q139 345 137 341T134 332Q134 310 182 310Q217 310 250 328T305 376T327 444Q327
471 313 486T266 502Q249 502 235 499T213 494L221 516Q265 528 300 547T357 590T378 642Q378 664 364 679T316 695Q284 695 262 682T239 652Q239 648 247 635Q251 630 252 624T254 614Q254 598 245 588T216 578Q201 578 190 589T179 619Q179 642 197 664T249 702T327
717Q382 717 416 698T450 638Q450 605 427 583T367 545T291 521Q340 520 366 498T393 439Q393 407 374 380T324 333T256 301T183 290Z" />
<glyph unicode="&#xb4;" glyph-name="acute" horiz-adv-x="218" d="M170 520L212 664Q219 688 229 703T259 719Q274 719 281 709T289 684Q289 672 284 657T260 615L192 520H170Z" />
<glyph unicode="&#xb5;" glyph-name="uni00B5" d="M139 -14Q99 -14 77 0L25 -285Q6 -287 -15 -291T-62 -300L29 21Q40 59 47 83T66 137L145 346Q150 357 151 366T153 383Q153 401 142 408T114 415T78 416L85 440L249 443L129 108Q114 65 120 38T158 11Q183 11
211 27T267 69T315 125T348 186L443 440H509L384 85Q374 56 374 39Q374 19 390 19Q412 19 433 42T467 87L485 75Q466 44 436 15T363 -14Q332 -14 320 1T307 41Q307 61 315 91Q283 49 238 18T139 -14Z" />
<glyph unicode="&#xb6;" glyph-name="paragraph" horiz-adv-x="574" d="M147 -186L316 329Q228 329 180 361T132 455Q132 508 155 555T218 638T310 693T419 712L510 710L724 713L716 688Q685 686 659 681T614 659T583 607L320 -186H279L562 676H472L189 -186H147Z" />
<glyph unicode="&#xb7;" glyph-name="middot" horiz-adv-x="227" d="M61 151Q35 151 18 168T1 211Q1 234 18 251T61 269Q85 269 102 252T119 211Q119 186 102 169T61 151Z" />
<glyph unicode="&#xb8;" glyph-name="cedilla" horiz-adv-x="306" d="M-36 -294Q-73 -294 -89 -271T-110 -224L-84 -219Q-79 -238 -67 -252T-31 -266Q-3 -266 22 -246T65 -194T82 -128Q82 -108 71 -95T37 -82Q20 -82 -1 -93T-39 -122L-55 -109Q-31 -83 -3 -70T54
-57L76 0H106L81 -60Q133 -74 133 -133Q133 -169 110 -206T49 -268T-36 -294Z" />
<glyph unicode="&#xb9;" glyph-name="uni00B9" horiz-adv-x="240" d="M55 295L63 317L84 318Q108 319 121 323T142 341T159 380L245 618Q248 626 250 633T252 644Q252 655 244 659T218 665L188 667L197 690Q221 692 234 694T264 701T309 716H344L222 380Q217 366
214 355T210 338Q210 326 220 323T251 318L270 317L262 295L161 297L55 295Z" />
<glyph unicode="&#xba;" glyph-name="ordmasculine" horiz-adv-x="399" d="M240 290Q173 290 139 327T105 414Q105 461 124 504T176 580T252 633T342 653Q410 653 443 616T477 527Q477 481 458 439T406 363T331 310T240 290ZM240 313Q276 313 307 337T360 399T396
477T409 549Q409 633 344 633Q307 633 276 608T222 545T187 466T174 392Q174 313 240 313ZM16 185V209H368V185H16Z" />
<glyph unicode="&#xbb;" glyph-name="guillemotright" horiz-adv-x="466" d="M308 399Q361 384 386 345T411 264Q411 224 394 189T347 124T284 74T218 44L209 69Q247 87 280 119T335 191T357 273Q357 306 344 332T299 374L308 399ZM115 399Q168 384 193 345T218
264Q218 224 201 189T154 124T91 74T25 44L16 69Q54 87 87 119T142 191T164 273Q164 306 151 332T106 374L115 399Z" />
<glyph unicode="&#xbc;" glyph-name="onequarter" horiz-adv-x="828" d="M55 295L63 317L84 318Q108 319 121 323T142 341T159 380L245 618Q248 626 250 633T252 644Q252 655 244 659T218 665L188 667L197 690Q221 692 234 694T264 701T309 716H344L222 380Q217
366 214 355T210 338Q210 326 220 323T251 318L270 317L262 295L161 297L55 295ZM40 0L797 710H836L78 0H40ZM534 -2L542 18L564 19Q589 20 601 24T620 41T636 77L644 99H473L477 110Q508 139 542 178T610 261T673 344T725 414H836L513 121H652L690 224Q714 230
744 251H766L718 121H767L759 99H710L702 77Q698 66 695 56T691 39Q691 27 699 24T724 19L736 18L726 -2L641 0L534 -2Z" />
<glyph unicode="&#xbd;" glyph-name="onehalf" horiz-adv-x="836" d="M55 295L63 317L84 318Q108 319 121 323T142 341T159 380L245 618Q248 626 250 633T252 644Q252 655 244 659T218 665L188 667L197 690Q221 692 234 694T264 701T309 716H344L222 380Q217 366
214 355T210 338Q210 326 220 323T251 318L270 317L262 295L161 297L55 295ZM40 0L797 710H836L78 0H40ZM478 0L486 23L646 137Q708 181 750 227T793 328Q793 360 773 377T721 394Q685 394 660 377T634 337Q634 331 639 326T651 315Q663 306 663 289Q663 273 651
262T622 250Q599 250 589 266T579 301Q579 333 602 360T665 403T749 420Q807 420 836 397T865 333Q865 294 837 259T765 191T675 127L569 56L680 58Q706 59 720 62T744 74T767 103H788L760 35L749 0H478Z" />
<glyph unicode="&#xbe;" glyph-name="threequarters" horiz-adv-x="936" d="M183 290Q134 290 103 307T72 357Q72 377 85 390T119 403Q135 403 144 395T153 373Q153 365 150 360T143 349Q139 345 137 341T134 332Q134 310 182 310Q217 310 250 328T305 376T327
444Q327 471 313 486T266 502Q249 502 235 499T213 494L221 516Q265 528 300 547T357 590T378 642Q378 664 364 679T316 695Q284 695 262 682T239 652Q239 648 247 635Q251 630 252 624T254 614Q254 598 245 588T216 578Q201 578 190 589T179 619Q179 642 197 664T249
702T327 717Q382 717 416 698T450 638Q450 605 427 583T367 545T291 521Q340 520 366 498T393 439Q393 407 374 380T324 333T256 301T183 290ZM148 0L905 710H944L186 0H148ZM642 -2L650 18L672 19Q697 20 709 24T728 41T744 77L752 99H581L585 110Q616 139 650
178T718 261T781 344T833 414H944L621 121H760L798 224Q822 230 852 251H874L826 121H875L867 99H818L810 77Q806 66 803 56T799 39Q799 27 807 24T832 19L844 18L834 -2L749 0L642 -2Z" />
<glyph unicode="&#xbf;" glyph-name="questiondown" horiz-adv-x="454" d="M316 451Q342 451 359 434T376 391Q376 368 359 351T316 333Q292 333 275 350T258 391Q258 416 275 433T316 451ZM171 90Q197 90 217 81T251 58L263 223Q265 245 276 256T304 268Q321
268 328 258T336 233Q336 225 333 214L267 -23L245 -24V-8Q244 25 226 44T172 63Q136 63 104 39T48 -23T9 -103T-5 -180Q-5 -217 15 -235T70 -254Q146 -254 144 -198Q143 -167 158 -154T194 -141Q213 -141 225 -151T237 -180Q237 -210 212 -232T149 -267T70 -280Q9
-280 -34 -248T-77 -157Q-77 -111 -57 -67T-1 12T79 69T171 90Z" />
<glyph unicode="&#xc0;" glyph-name="Agrave" horiz-adv-x="662" d="M-70 -3L-62 22L-41 24Q11 29 37 55T84 112L508 724L530 710V114Q530 87 534 68T553 39T605 24L624 22L616 -3L471 0L326 -3L334 22L355 24Q399 29 423 45T448 116V258H219L117 111Q95 79 95
60Q95 30 160 24L179 22L171 -3L53 0L-70 -3ZM237 284H448V590L237 284ZM532 760H520L479 940H560L532 760Z" />
<glyph unicode="&#xc1;" glyph-name="Aacute" horiz-adv-x="662" d="M-70 -3L-62 22L-41 24Q11 29 37 55T84 112L508 724L530 710V114Q530 87 534 68T553 39T605 24L624 22L616 -3L471 0L326 -3L334 22L355 24Q399 29 423 45T448 116V258H219L117 111Q95 79 95
60Q95 30 160 24L179 22L171 -3L53 0L-70 -3ZM237 284H448V590L237 284ZM511 760L571 940H652L523 760H511Z" />
<glyph unicode="&#xc2;" glyph-name="Acircumflex" horiz-adv-x="662" d="M-70 -3L-62 22L-41 24Q11 29 37 55T84 112L508 724L530 710V114Q530 87 534 68T553 39T605 24L624 22L616 -3L471 0L326 -3L334 22L355 24Q399 29 423 45T448 116V258H219L117 111Q95
79 95 60Q95 30 160 24L179 22L171 -3L53 0L-70 -3ZM237 284H448V590L237 284ZM420 761L562 940H601L617 761H588L559 859L454 761H420Z" />
<glyph unicode="&#xc3;" glyph-name="Atilde" horiz-adv-x="662" d="M-70 -3L-62 22L-41 24Q11 29 37 55T84 112L508 724L530 710V114Q530 87 534 68T553 39T605 24L624 22L616 -3L471 0L326 -3L334 22L355 24Q399 29 423 45T448 116V258H219L117 111Q95 79 95
60Q95 30 160 24L179 22L171 -3L53 0L-70 -3ZM237 284H448V590L237 284ZM602 801Q583 801 568 810T543 826L523 842Q509 853 497 860T471 868Q449 868 426 849T392 812H373Q379 827 396 851T440 896T497 916Q516 916 531 906T554 890L583 868Q589 864 602 857T628
849Q648 849 667 864T700 900H719Q697 855 665 828T602 801Z" />
<glyph unicode="&#xc4;" glyph-name="Adieresis" horiz-adv-x="662" d="M-70 -3L-62 22L-41 24Q11 29 37 55T84 112L508 724L530 710V114Q530 87 534 68T553 39T605 24L624 22L616 -3L471 0L326 -3L334 22L355 24Q399 29 423 45T448 116V258H219L117 111Q95 79
95 60Q95 30 160 24L179 22L171 -3L53 0L-70 -3ZM237 284H448V590L237 284ZM439 806Q417 806 403 821T389 856Q389 875 403 889T439 904Q459 904 473 890T487 856Q487 836 473 821T439 806ZM633 806Q611 806 597 821T583 856Q583 875 597 889T633 904Q653 904 667
890T681 856Q681 836 667 821T633 806Z" />
<glyph unicode="&#xc5;" glyph-name="Aring" horiz-adv-x="662" d="M-70 -3L-62 22L-41 24Q11 29 37 55T84 112L508 724L530 710V114Q530 87 534 68T553 39T605 24L624 22L616 -3L471 0L326 -3L334 22L355 24Q399 29 423 45T448 116V258H219L117 111Q95 79 95
60Q95 30 160 24L179 22L171 -3L53 0L-70 -3ZM237 284H448V590L237 284ZM541 784Q502 784 479 809T455 869Q455 901 477 927T540 954Q570 954 588 941T615 908T624 869Q624 825 598 805T541 784ZM541 810Q562 810 578 825T595 869Q595 898 579 913T540 928Q521
928 503 915T484 869Q484 841 501 826T541 810Z" />
<glyph unicode="&#xc6;" glyph-name="AE" horiz-adv-x="944" d="M-71 -3L-62 22L-41 24Q-5 28 16 40T51 72T80 112L494 710H548V710L923 709L921 649L920 526H894Q894 571 883 607T845 664T770 685H548V388H641Q663 388 680 395T715 428T754 508H780L729 371L680
226H654Q675 285 675 316Q675 341 664 351T632 362H548V114Q548 87 551 67T569 36T621 25H682Q740 25 778 46T845 109T899 210H925L875 74L851 0H484L339 -3L348 22L369 24Q414 29 439 45T465 116L467 258H216L116 111Q94 79 94 61Q94 44 111 36T160 24L179 22L170
-3L52 0L-71 -3ZM234 284H467L472 632L234 284Z" />
<glyph unicode="&#xc7;" glyph-name="Ccedilla" horiz-adv-x="700" d="M325 -11Q264 -11 209 13T120 91T85 228Q85 300 106 371T167 506T260 619T379 696T518 724Q562 724 593 715T645 694T681 672T705 663Q713 663 724 675T742 697H768L730 594L695 485H669Q671
499 672 511T673 535Q673 614 632 654T526 694Q473 694 422 670T326 602T247 503T194 382T174 249Q174 145 217 83T340 20Q379 20 420 38T499 88T569 161T618 247H644L594 106L566 0H540Q541 6 541 12T542 23Q542 44 528 44Q518 44 493 31T426 3T325 -11ZM223 -294Q186
-294 170 -271T149 -224L175 -219Q180 -238 192 -252T228 -266Q256 -266 281 -246T324 -194T341 -128Q341 -108 330 -95T296 -82Q279 -82 258 -93T220 -122L204 -109Q228 -83 256 -70T313 -57L335 0H365L340 -60Q392 -74 392 -133Q392 -169 369 -206T308 -268T223
-294Z" />
<glyph unicode="&#xc8;" glyph-name="Egrave" horiz-adv-x="695" d="M-23 -3L-15 22L6 24Q60 29 81 39T113 81L288 617Q291 628 293 636T295 650Q295 667 279 674T222 686L203 688L211 713L358 710H695V650L698 527H672Q671 572 659 607T618 664T542 685H391L293
388H434Q456 388 473 395T506 428T543 508H569L522 371L479 226H453Q462 254 466 275T470 312Q470 339 458 350T426 362H285L220 165Q213 143 209 123T204 89Q204 54 227 39T295 24L433 25Q491 26 528 47T592 109T643 210H669L624 74L602 0H126L-23 -3ZM521 760H509L468
940H549L521 760Z" />
<glyph unicode="&#xc9;" glyph-name="Eacute" horiz-adv-x="695" d="M-23 -3L-15 22L6 24Q60 29 81 39T113 81L288 617Q291 628 293 636T295 650Q295 667 279 674T222 686L203 688L211 713L358 710H695V650L698 527H672Q671 572 659 607T618 664T542 685H391L293
388H434Q456 388 473 395T506 428T543 508H569L522 371L479 226H453Q462 254 466 275T470 312Q470 339 458 350T426 362H285L220 165Q213 143 209 123T204 89Q204 54 227 39T295 24L433 25Q491 26 528 47T592 109T643 210H669L624 74L602 0H126L-23 -3ZM500 760L560
940H641L512 760H500Z" />
<glyph unicode="&#xca;" glyph-name="Ecircumflex" horiz-adv-x="695" d="M-23 -3L-15 22L6 24Q60 29 81 39T113 81L288 617Q291 628 293 636T295 650Q295 667 279 674T222 686L203 688L211 713L358 710H695V650L698 527H672Q671 572 659 607T618 664T542 685H391L293
388H434Q456 388 473 395T506 428T543 508H569L522 371L479 226H453Q462 254 466 275T470 312Q470 339 458 350T426 362H285L220 165Q213 143 209 123T204 89Q204 54 227 39T295 24L433 25Q491 26 528 47T592 109T643 210H669L624 74L602 0H126L-23 -3ZM409 761L551
940H590L606 761H577L548 859L443 761H409Z" />
<glyph unicode="&#xcb;" glyph-name="Edieresis" horiz-adv-x="695" d="M-23 -3L-15 22L6 24Q60 29 81 39T113 81L288 617Q291 628 293 636T295 650Q295 667 279 674T222 686L203 688L211 713L358 710H695V650L698 527H672Q671 572 659 607T618 664T542 685H391L293
388H434Q456 388 473 395T506 428T543 508H569L522 371L479 226H453Q462 254 466 275T470 312Q470 339 458 350T426 362H285L220 165Q213 143 209 123T204 89Q204 54 227 39T295 24L433 25Q491 26 528 47T592 109T643 210H669L624 74L602 0H126L-23 -3ZM428 806Q406
806 392 821T378 856Q378 875 392 889T428 904Q448 904 462 890T476 856Q476 836 462 821T428 806ZM622 806Q600 806 586 821T572 856Q572 875 586 889T622 904Q642 904 656 890T670 856Q670 836 656 821T622 806Z" />
<glyph unicode="&#xcc;" glyph-name="Igrave" horiz-adv-x="384" d="M-23 -3L-15 22L6 24Q43 28 65 38T102 71T131 136L291 624Q295 637 295 650Q295 668 279 675T222 686L203 688L211 713L360 710L509 713L501 688L480 686Q444 683 422 673T384 640T354 573L198
96Q195 85 193 76T191 60Q191 42 207 35T264 24L283 22L275 -3L126 0L-23 -3ZM376 760H364L323 940H404L376 760Z" />
<glyph unicode="&#xcd;" glyph-name="Iacute" horiz-adv-x="384" d="M-23 -3L-15 22L6 24Q43 28 65 38T102 71T131 136L291 624Q295 637 295 650Q295 668 279 675T222 686L203 688L211 713L360 710L509 713L501 688L480 686Q444 683 422 673T384 640T354 573L198
96Q195 85 193 76T191 60Q191 42 207 35T264 24L283 22L275 -3L126 0L-23 -3ZM355 760L415 940H496L367 760H355Z" />
<glyph unicode="&#xce;" glyph-name="Icircumflex" horiz-adv-x="384" d="M-23 -3L-15 22L6 24Q43 28 65 38T102 71T131 136L291 624Q295 637 295 650Q295 668 279 675T222 686L203 688L211 713L360 710L509 713L501 688L480 686Q444 683 422 673T384 640T354
573L198 96Q195 85 193 76T191 60Q191 42 207 35T264 24L283 22L275 -3L126 0L-23 -3ZM264 761L406 940H445L461 761H432L403 859L298 761H264Z" />
<glyph unicode="&#xcf;" glyph-name="Idieresis" horiz-adv-x="384" d="M-23 -3L-15 22L6 24Q43 28 65 38T102 71T131 136L291 624Q295 637 295 650Q295 668 279 675T222 686L203 688L211 713L360 710L509 713L501 688L480 686Q444 683 422 673T384 640T354 573L198
96Q195 85 193 76T191 60Q191 42 207 35T264 24L283 22L275 -3L126 0L-23 -3ZM539 806Q517 806 503 821T489 856Q489 875 503 889T539 904Q559 904 573 890T587 856Q587 836 573 821T539 806ZM733 806Q711 806 697 821T683 856Q683 875 697 889T733 904Q753 904
767 890T781 856Q781 836 767 821T733 806Z" />
<glyph unicode="&#xd0;" glyph-name="Eth" horiz-adv-x="789" d="M-49 -3L-40 22L-19 24Q20 28 41 33T73 52T93 88L285 617Q293 639 293 651Q293 668 277 675T221 686L202 688L211 713L358 710H359L441 713Q548 717 627 687T751 597T796 450Q796 377 772 311T704
190Q657 131 592 89T448 23T285 0H100L-49 -3ZM252 26H286Q378 26 455 62T588 158T675 295T706 453Q706 521 680 574T592 657T424 684L389 683L189 133Q177 99 177 77Q177 51 189 41T220 28T252 26ZM292 342L302 371H687L677 342H292Z" />
<glyph unicode="&#xd1;" glyph-name="Ntilde" horiz-adv-x="793" d="M-13 -3L-4 22L17 24Q48 27 68 33T101 56T124 103L290 632Q278 657 266 670T233 685L202 688L211 713L328 710H346L612 122L767 624Q770 633 771 640T772 653Q771 670 755 676T701 686L682 688L691
713L808 710L931 713L922 688L901 686Q870 683 850 678T817 656T794 607L604 0H574L308 590L150 81Q146 68 146 57Q147 40 163 34T217 24L236 22L227 -3L110 0L-13 -3ZM644 801Q625 801 610 810T585 826L565 842Q551 853 539 860T513 868Q491 868 468 849T434 812H415Q421
827 438 851T482 896T539 916Q558 916 573 906T596 890L625 868Q631 864 644 857T670 849Q690 849 709 864T742 900H761Q739 855 707 828T644 801Z" />
<glyph unicode="&#xd2;" glyph-name="Ograve" horiz-adv-x="778" d="M342 -14Q272 -14 214 14T121 100T86 241Q86 310 108 379T172 510T269 620T394 696T540 724Q611 724 667 694T757 607T790 469Q790 399 768 330T705 199T608 89T485 14T342 -14ZM345 16Q400
16 452 42T548 113T627 218T681 344T700 481Q700 582 657 638T536 695Q481 695 429 669T331 597T251 491T197 363T177 225Q177 126 221 71T345 16ZM577 760H565L524 940H605L577 760Z" />
<glyph unicode="&#xd3;" glyph-name="Oacute" horiz-adv-x="778" d="M342 -14Q272 -14 214 14T121 100T86 241Q86 310 108 379T172 510T269 620T394 696T540 724Q611 724 667 694T757 607T790 469Q790 399 768 330T705 199T608 89T485 14T342 -14ZM345 16Q400
16 452 42T548 113T627 218T681 344T700 481Q700 582 657 638T536 695Q481 695 429 669T331 597T251 491T197 363T177 225Q177 126 221 71T345 16ZM556 760L616 940H697L568 760H556Z" />
<glyph unicode="&#xd4;" glyph-name="Ocircumflex" horiz-adv-x="778" d="M342 -14Q272 -14 214 14T121 100T86 241Q86 310 108 379T172 510T269 620T394 696T540 724Q611 724 667 694T757 607T790 469Q790 399 768 330T705 199T608 89T485 14T342 -14ZM345 16Q400
16 452 42T548 113T627 218T681 344T700 481Q700 582 657 638T536 695Q481 695 429 669T331 597T251 491T197 363T177 225Q177 126 221 71T345 16ZM465 761L607 940H646L662 761H633L604 859L499 761H465Z" />
<glyph unicode="&#xd5;" glyph-name="Otilde" horiz-adv-x="778" d="M342 -14Q272 -14 214 14T121 100T86 241Q86 310 108 379T172 510T269 620T394 696T540 724Q611 724 667 694T757 607T790 469Q790 399 768 330T705 199T608 89T485 14T342 -14ZM345 16Q400
16 452 42T548 113T627 218T681 344T700 481Q700 582 657 638T536 695Q481 695 429 669T331 597T251 491T197 363T177 225Q177 126 221 71T345 16ZM647 801Q628 801 613 810T588 826L568 842Q554 853 542 860T516 868Q494 868 471 849T437 812H418Q424 827 441
851T485 896T542 916Q561 916 576 906T599 890L628 868Q634 864 647 857T673 849Q693 849 712 864T745 900H764Q742 855 710 828T647 801Z" />
<glyph unicode="&#xd6;" glyph-name="Odieresis" horiz-adv-x="778" d="M342 -14Q272 -14 214 14T121 100T86 241Q86 310 108 379T172 510T269 620T394 696T540 724Q611 724 667 694T757 607T790 469Q790 399 768 330T705 199T608 89T485 14T342 -14ZM345 16Q400
16 452 42T548 113T627 218T681 344T700 481Q700 582 657 638T536 695Q481 695 429 669T331 597T251 491T197 363T177 225Q177 126 221 71T345 16ZM484 806Q462 806 448 821T434 856Q434 875 448 889T484 904Q504 904 518 890T532 856Q532 836 518 821T484 806ZM678
806Q656 806 642 821T628 856Q628 875 642 889T678 904Q698 904 712 890T726 856Q726 836 712 821T678 806Z" />
<glyph unicode="&#xd7;" glyph-name="multiply" horiz-adv-x="505" d="M41 109L21 139L263 317L154 489L182 512L293 338L531 513L551 483L313 308L423 133L395 110L283 286L41 109Z" />
<glyph unicode="&#xd8;" glyph-name="Oslash" horiz-adv-x="778" d="M342 -14Q272 -14 214 14T121 100T86 241Q86 310 108 379T172 510T269 620T394 696T540 724Q611 724 667 694T757 607T790 469Q790 399 768 330T705 199T608 89T485 14T342 -14ZM345 16Q400
16 452 42T548 113T627 218T681 344T700 481Q700 582 657 638T536 695Q481 695 429 669T331 597T251 491T197 363T177 225Q177 126 221 71T345 16ZM85 -15L729 725H785L141 -15H85Z" />
<glyph unicode="&#xd9;" glyph-name="Ugrave" horiz-adv-x="758" d="M366 -14Q243 -14 190 31T137 156Q137 182 143 212T159 275L268 614Q271 625 273 634T275 650Q275 668 259 675T202 686L183 688L191 713L340 710L489 713L481 688L460 686Q424 683 402 674T364
642T335 574L240 275Q231 246 226 219T221 168Q221 101 259 60T377 18Q433 18 478 42T561 122T629 274L742 625Q747 643 747 652Q747 671 731 676T677 686L658 688L666 713L784 710L907 713L899 688L878 686Q846 683 826 678T792 659T769 612L672 308Q637 200 600
129T507 22T366 -14ZM593 760H581L540 940H621L593 760Z" />
<glyph unicode="&#xda;" glyph-name="Uacute" horiz-adv-x="758" d="M366 -14Q243 -14 190 31T137 156Q137 182 143 212T159 275L268 614Q271 625 273 634T275 650Q275 668 259 675T202 686L183 688L191 713L340 710L489 713L481 688L460 686Q424 683 402 674T364
642T335 574L240 275Q231 246 226 219T221 168Q221 101 259 60T377 18Q433 18 478 42T561 122T629 274L742 625Q747 643 747 652Q747 671 731 676T677 686L658 688L666 713L784 710L907 713L899 688L878 686Q846 683 826 678T792 659T769 612L672 308Q637 200 600
129T507 22T366 -14ZM572 760L632 940H713L584 760H572Z" />
<glyph unicode="&#xdb;" glyph-name="Ucircumflex" horiz-adv-x="758" d="M366 -14Q243 -14 190 31T137 156Q137 182 143 212T159 275L268 614Q271 625 273 634T275 650Q275 668 259 675T202 686L183 688L191 713L340 710L489 713L481 688L460 686Q424 683 402
674T364 642T335 574L240 275Q231 246 226 219T221 168Q221 101 259 60T377 18Q433 18 478 42T561 122T629 274L742 625Q747 643 747 652Q747 671 731 676T677 686L658 688L666 713L784 710L907 713L899 688L878 686Q846 683 826 678T792 659T769 612L672 308Q637
200 600 129T507 22T366 -14ZM481 761L623 940H662L678 761H649L620 859L515 761H481Z" />
<glyph unicode="&#xdc;" glyph-name="Udieresis" horiz-adv-x="758" d="M366 -14Q243 -14 190 31T137 156Q137 182 143 212T159 275L268 614Q271 625 273 634T275 650Q275 668 259 675T202 686L183 688L191 713L340 710L489 713L481 688L460 686Q424 683 402 674T364
642T335 574L240 275Q231 246 226 219T221 168Q221 101 259 60T377 18Q433 18 478 42T561 122T629 274L742 625Q747 643 747 652Q747 671 731 676T677 686L658 688L666 713L784 710L907 713L899 688L878 686Q846 683 826 678T792 659T769 612L672 308Q637 200 600
129T507 22T366 -14ZM500 806Q478 806 464 821T450 856Q450 875 464 889T500 904Q520 904 534 890T548 856Q548 836 534 821T500 806ZM694 806Q672 806 658 821T644 856Q644 875 658 889T694 904Q714 904 728 890T742 856Q742 836 728 821T694 806Z" />
<glyph unicode="&#xdd;" glyph-name="Yacute" horiz-adv-x="663" d="M150 -3L159 22L180 24Q211 28 230 32T263 52T288 102L336 275L257 593Q250 622 242 641T216 671T160 686L141 688L150 713L281 710L427 713L418 688L397 686Q331 680 331 626Q331 616 333 605T338
581L406 316L628 595Q654 628 654 648Q654 666 634 674T576 686L557 688L566 713L694 710L820 713L811 688L790 685Q763 681 733 661T670 601L420 287L364 89Q361 79 361 70Q361 44 387 37T458 24L477 22L468 -3L295 0L150 -3ZM518 760L578 940H659L530 760H518Z"
/>
<glyph unicode="&#xde;" glyph-name="Thorn" horiz-adv-x="683" d="M-38 -3L-29 22L-7 24Q29 28 51 38T90 71T120 134L294 614Q302 640 302 651Q302 668 285 675T222 687L203 689L212 713L369 710L518 713L509 688L487 686Q452 683 429 672T391 639T360 576L358
570L427 571Q556 573 620 527T684 403Q684 289 595 226T335 162Q301 162 263 165L212 169L186 96Q178 70 178 59Q178 42 195 35T258 23L277 21L268 -3L111 0L-38 -3ZM288 194Q296 193 304 193T321 193Q401 193 454 213T539 265T584 334T598 407Q598 473 552 508T432
543H348L223 197L288 194Z" />
<glyph unicode="&#xdf;" glyph-name="germandbls" horiz-adv-x="593" d="M342 -14Q276 -14 241 16T205 84Q205 110 216 128T254 147Q270 147 279 138T289 114Q289 95 282 84T274 54Q274 35 292 22T341 8Q404 8 441 46T478 143Q478 180 465 206T430 258Q407 284
384 310T360 373Q360 404 378 427T423 470T475 509Q486 517 501 533T528 571T540 620Q540 666 521 683T470 701Q411 701 371 657T308 550L153 121Q138 79 131 52T119 0H73L-51 -3L-42 20L-26 22Q5 26 22 31T53 56T82 121L190 416H103L111 440H199L220 498Q253 587
294 636T386 704T493 724Q550 724 584 700T618 638Q618 605 601 583T558 542T508 502Q482 483 457 460T431 399Q431 372 444 355T473 317Q490 297 507 275T537 224T550 157Q550 110 524 71T450 9T342 -14Z" />
<glyph unicode="&#xe0;" glyph-name="agrave" d="M162 -14Q115 -14 85 5T41 57T27 127Q27 190 54 249T124 354T219 427T319 454Q365 454 388 424T416 347L450 440H516L391 85Q387 70 384 59T381 39Q381 19 397 19Q419 19 440 42T474 87L492 75Q473 44 443 15T370
-14Q339 -14 327 1T314 41Q314 60 320 84Q287 38 247 12T162 -14ZM172 12Q229 12 279 66T365 210L377 244Q394 294 394 336Q394 377 377 402T325 428Q285 428 246 398T174 318T122 214T102 107Q102 60 121 36T172 12ZM336 520L300 617Q293 636 290 650T286 678Q286
695 295 707T324 720Q338 720 347 706T357 656L360 520H336Z" />
<glyph unicode="&#xe1;" glyph-name="aacute" d="M162 -14Q115 -14 85 5T41 57T27 127Q27 190 54 249T124 354T219 427T319 454Q365 454 388 424T416 347L450 440H516L391 85Q387 70 384 59T381 39Q381 19 397 19Q419 19 440 42T474 87L492 75Q473 44 443 15T370
-14Q339 -14 327 1T314 41Q314 60 320 84Q287 38 247 12T162 -14ZM172 12Q229 12 279 66T365 210L377 244Q394 294 394 336Q394 377 377 402T325 428Q285 428 246 398T174 318T122 214T102 107Q102 60 121 36T172 12ZM328 520L370 664Q377 688 387 703T417 719Q432
719 439 709T447 684Q447 672 442 657T418 615L350 520H328Z" />
<glyph unicode="&#xe2;" glyph-name="acircumflex" d="M162 -14Q115 -14 85 5T41 57T27 127Q27 190 54 249T124 354T219 427T319 454Q365 454 388 424T416 347L450 440H516L391 85Q387 70 384 59T381 39Q381 19 397 19Q419 19 440 42T474 87L492 75Q473 44 443
15T370 -14Q339 -14 327 1T314 41Q314 60 320 84Q287 38 247 12T162 -14ZM172 12Q229 12 279 66T365 210L377 244Q394 294 394 336Q394 377 377 402T325 428Q285 428 246 398T174 318T122 214T102 107Q102 60 121 36T172 12ZM238 521L400 710H439L435 521H406L391
629L272 521H238Z" />
<glyph unicode="&#xe3;" glyph-name="atilde" d="M162 -14Q115 -14 85 5T41 57T27 127Q27 190 54 249T124 354T219 427T319 454Q365 454 388 424T416 347L450 440H516L391 85Q387 70 384 59T381 39Q381 19 397 19Q419 19 440 42T474 87L492 75Q473 44 443 15T370
-14Q339 -14 327 1T314 41Q314 60 320 84Q287 38 247 12T162 -14ZM172 12Q229 12 279 66T365 210L377 244Q394 294 394 336Q394 377 377 402T325 428Q285 428 246 398T174 318T122 214T102 107Q102 60 121 36T172 12ZM433 553Q414 553 399 562T374 578L354 594Q340
605 328 612T302 620Q280 620 257 601T223 564H204Q210 579 227 603T271 648T328 668Q347 668 362 658T385 642L414 620Q420 616 433 609T459 601Q479 601 498 616T531 652H550Q528 607 496 580T433 553Z" />
<glyph unicode="&#xe4;" glyph-name="adieresis" d="M162 -14Q115 -14 85 5T41 57T27 127Q27 190 54 249T124 354T219 427T319 454Q365 454 388 424T416 347L450 440H516L391 85Q387 70 384 59T381 39Q381 19 397 19Q419 19 440 42T474 87L492 75Q473 44 443 15T370
-14Q339 -14 327 1T314 41Q314 60 320 84Q287 38 247 12T162 -14ZM172 12Q229 12 279 66T365 210L377 244Q394 294 394 336Q394 377 377 402T325 428Q285 428 246 398T174 318T122 214T102 107Q102 60 121 36T172 12ZM279 557Q257 557 243 572T229 607Q229 626
243 640T279 655Q299 655 313 641T327 607Q327 587 313 572T279 557ZM473 557Q451 557 437 572T423 607Q423 626 437 640T473 655Q493 655 507 641T521 607Q521 587 507 572T473 557Z" />
<glyph unicode="&#xe5;" glyph-name="aring" d="M162 -14Q115 -14 85 5T41 57T27 127Q27 190 54 249T124 354T219 427T319 454Q365 454 388 424T416 347L450 440H516L391 85Q387 70 384 59T381 39Q381 19 397 19Q419 19 440 42T474 87L492 75Q473 44 443 15T370
-14Q339 -14 327 1T314 41Q314 60 320 84Q287 38 247 12T162 -14ZM172 12Q229 12 279 66T365 210L377 244Q394 294 394 336Q394 377 377 402T325 428Q285 428 246 398T174 318T122 214T102 107Q102 60 121 36T172 12ZM377 528Q338 528 315 553T291 613Q291 645
313 671T376 698Q406 698 424 685T451 652T460 613Q460 569 434 549T377 528ZM377 554Q398 554 414 569T431 613Q431 642 415 657T376 672Q357 672 339 659T320 613Q320 585 337 570T377 554Z" />
<glyph unicode="&#xe6;" glyph-name="ae" horiz-adv-x="652" d="M132 -11Q86 -11 56 7T26 62Q26 100 52 131T120 188T208 231T292 261Q295 269 299 277Q305 299 309 323T314 367Q314 395 301 413T255 432Q213 432 198 408T181 357Q180 338 169 325T136 311Q115
311 106 323T96 354Q96 374 111 397T160 437T251 454Q358 454 373 378Q410 413 454 432T542 452Q589 452 616 429T644 366Q643 307 589 274T442 230L358 222Q346 176 346 134Q346 105 354 77T383 31T435 12Q474 12 506 37T558 90L575 76Q552 44 515 15T422 -14Q367
-14 334 11T284 77Q254 38 213 14T132 -11ZM541 432Q508 432 474 406T411 337T365 243L421 251Q474 259 506 275T556 311T579 349T585 381Q585 404 575 418T541 432ZM101 75Q101 52 117 38T161 24Q188 24 221 48T276 104Q271 128 271 154Q271 195 283 235Q242 221
200 198T130 145T101 75Z" />
<glyph unicode="&#xe7;" glyph-name="ccedilla" horiz-adv-x="438" d="M200 -14Q119 -14 78 33T36 155Q36 216 61 270T130 365T225 430T332 454Q382 454 405 441T436 410T444 379Q444 360 433 344T399 327Q380 327 369 338T358 367Q358 399 356 415T326 432Q285
432 247 406T179 338T132 246T114 148Q114 92 138 52T217 11Q241 11 266 22T311 53Q333 74 350 103L368 90Q346 47 305 17T200 -14ZM77 -294Q40 -294 24 -271T3 -224L29 -219Q34 -238 46 -252T82 -266Q110 -266 135 -246T178 -194T195 -128Q195 -108 184 -95T150
-82Q133 -82 112 -93T74 -122L58 -109Q82 -83 110 -70T167 -57L189 0H219L194 -60Q246 -74 246 -133Q246 -169 223 -206T162 -268T77 -294Z" />
<glyph unicode="&#xe8;" glyph-name="egrave" horiz-adv-x="418" d="M188 -14Q135 -14 102 9T53 71T37 154Q37 216 61 269T125 364T212 429T308 452Q355 452 382 429T410 366Q409 307 355 274T208 230L124 222Q112 176 112 134Q112 105 120 77T149 31T201 12Q240
12 272 37T324 90L341 76Q318 44 281 15T188 -14ZM307 432Q274 432 240 406T177 337T131 243L187 251Q240 259 272 275T322 311T345 349T351 381Q351 404 341 418T307 432ZM308 520L272 617Q265 636 262 650T258 678Q258 695 267 707T296 720Q310 720 319 706T329
656L332 520H308Z" />
<glyph unicode="&#xe9;" glyph-name="eacute" horiz-adv-x="418" d="M188 -14Q135 -14 102 9T53 71T37 154Q37 216 61 269T125 364T212 429T308 452Q355 452 382 429T410 366Q409 307 355 274T208 230L124 222Q112 176 112 134Q112 105 120 77T149 31T201 12Q240
12 272 37T324 90L341 76Q318 44 281 15T188 -14ZM307 432Q274 432 240 406T177 337T131 243L187 251Q240 259 272 275T322 311T345 349T351 381Q351 404 341 418T307 432ZM300 520L342 664Q349 688 359 703T389 719Q404 719 411 709T419 684Q419 672 414 657T390
615L322 520H300Z" />
<glyph unicode="&#xea;" glyph-name="ecircumflex" horiz-adv-x="418" d="M188 -14Q135 -14 102 9T53 71T37 154Q37 216 61 269T125 364T212 429T308 452Q355 452 382 429T410 366Q409 307 355 274T208 230L124 222Q112 176 112 134Q112 105 120 77T149 31T201
12Q240 12 272 37T324 90L341 76Q318 44 281 15T188 -14ZM307 432Q274 432 240 406T177 337T131 243L187 251Q240 259 272 275T322 311T345 349T351 381Q351 404 341 418T307 432ZM210 521L372 710H411L407 521H378L363 629L244 521H210Z" />
<glyph unicode="&#xeb;" glyph-name="edieresis" horiz-adv-x="418" d="M188 -14Q135 -14 102 9T53 71T37 154Q37 216 61 269T125 364T212 429T308 452Q355 452 382 429T410 366Q409 307 355 274T208 230L124 222Q112 176 112 134Q112 105 120 77T149 31T201 12Q240
12 272 37T324 90L341 76Q318 44 281 15T188 -14ZM307 432Q274 432 240 406T177 337T131 243L187 251Q240 259 272 275T322 311T345 349T351 381Q351 404 341 418T307 432ZM251 557Q229 557 215 572T201 607Q201 626 215 640T251 655Q271 655 285 641T299 607Q299
587 285 572T251 557ZM445 557Q423 557 409 572T395 607Q395 626 409 640T445 655Q465 655 479 641T493 607Q493 587 479 572T445 557Z" />
<glyph unicode="&#xec;" glyph-name="igrave" horiz-adv-x="279" d="M100 -14Q69 -14 57 1T44 41Q44 57 48 75T59 113L146 347Q154 369 154 382Q154 400 143 407T115 415T78 416L85 440L247 443L121 85Q117 70 114 59T111 39Q111 19 127 19Q149 19 170 42T204
87L222 75Q203 44 173 15T100 -14ZM468 520L432 617Q425 636 422 650T418 678Q418 695 427 707T456 720Q470 720 479 706T489 656L492 520H468Z" />
<glyph unicode="&#xed;" glyph-name="iacute" horiz-adv-x="279" d="M100 -14Q69 -14 57 1T44 41Q44 57 48 75T59 113L146 347Q154 369 154 382Q154 400 143 407T115 415T78 416L85 440L247 443L121 85Q117 70 114 59T111 39Q111 19 127 19Q149 19 170 42T204
87L222 75Q203 44 173 15T100 -14ZM204 520L246 664Q253 688 263 703T293 719Q308 719 315 709T323 684Q323 672 318 657T294 615L226 520H204Z" />
<glyph unicode="&#xee;" glyph-name="icircumflex" horiz-adv-x="279" d="M100 -14Q69 -14 57 1T44 41Q44 57 48 75T59 113L146 347Q154 369 154 382Q154 400 143 407T115 415T78 416L85 440L247 443L121 85Q117 70 114 59T111 39Q111 19 127 19Q149 19 170 42T204
87L222 75Q203 44 173 15T100 -14ZM370 521L532 710H571L567 521H538L523 629L404 521H370Z" />
<glyph unicode="&#xef;" glyph-name="idieresis" horiz-adv-x="279" d="M100 -14Q69 -14 57 1T44 41Q44 57 48 75T59 113L146 347Q154 369 154 382Q154 400 143 407T115 415T78 416L85 440L247 443L121 85Q117 70 114 59T111 39Q111 19 127 19Q149 19 170 42T204
87L222 75Q203 44 173 15T100 -14ZM401 559Q379 559 365 574T351 609Q351 628 365 642T401 657Q421 657 435 643T449 609Q449 589 435 574T401 559ZM558 559Q536 559 522 574T508 609Q508 628 522 642T558 657Q578 657 592 643T606 609Q606 589 592 574T558 559Z"
/>
<glyph unicode="&#xf0;" glyph-name="eth" horiz-adv-x="518" d="M196 -14Q143 -14 107 8T54 68T36 149Q36 209 58 263T120 361T211 429T318 454Q357 454 387 442T438 408Q436 463 426 507T395 592L270 570V595L383 615Q367 641 347 667T300 724H322Q379 686 424
622L543 643V619L439 600Q468 552 486 497T504 384Q504 316 484 246T424 117T327 22T196 -14ZM195 8Q232 8 264 29T322 86T368 163T397 246T408 322Q408 432 320 432Q283 432 251 411T193 355T147 279T118 196T107 121Q107 8 195 8Z" />
<glyph unicode="&#xf1;" glyph-name="ntilde" horiz-adv-x="536" d="M362 -14Q331 -14 319 1T306 40Q306 55 310 73T321 110L408 356Q419 388 411 408T374 429Q347 429 317 413T259 370T210 314T179 257L86 0H14L138 344Q155 393 141 404T80 416L88 440L235 443L203
336Q225 367 254 393T319 437T396 454Q457 454 475 422T472 331L382 80Q375 59 375 39T391 19Q414 19 433 40T466 84L484 72Q465 41 435 14T362 -14ZM440 553Q421 553 406 562T381 578L361 594Q347 605 335 612T309 620Q287 620 264 601T230 564H211Q217 579 234
603T278 648T335 668Q354 668 369 658T392 642L421 620Q427 616 440 609T466 601Q486 601 505 616T538 652H557Q535 607 503 580T440 553Z" />
<glyph unicode="&#xf2;" glyph-name="ograve" horiz-adv-x="514" d="M196 -14Q143 -14 107 8T54 68T36 149Q36 209 58 263T120 361T211 429T318 454Q372 454 408 432T461 373T479 294Q479 234 457 179T395 80T304 11T196 -14ZM195 8Q232 8 264 29T322 86T368 163T397
246T408 322Q408 432 320 432Q283 432 251 411T193 355T147 279T118 196T107 121Q107 8 195 8ZM343 520L307 617Q300 636 297 650T293 678Q293 695 302 707T331 720Q345 720 354 706T364 656L367 520H343Z" />
<glyph unicode="&#xf3;" glyph-name="oacute" horiz-adv-x="514" d="M196 -14Q143 -14 107 8T54 68T36 149Q36 209 58 263T120 361T211 429T318 454Q372 454 408 432T461 373T479 294Q479 234 457 179T395 80T304 11T196 -14ZM195 8Q232 8 264 29T322 86T368 163T397
246T408 322Q408 432 320 432Q283 432 251 411T193 355T147 279T118 196T107 121Q107 8 195 8ZM335 520L377 664Q384 688 394 703T424 719Q439 719 446 709T454 684Q454 672 449 657T425 615L357 520H335Z" />
<glyph unicode="&#xf4;" glyph-name="ocircumflex" horiz-adv-x="514" d="M196 -14Q143 -14 107 8T54 68T36 149Q36 209 58 263T120 361T211 429T318 454Q372 454 408 432T461 373T479 294Q479 234 457 179T395 80T304 11T196 -14ZM195 8Q232 8 264 29T322 86T368
163T397 246T408 322Q408 432 320 432Q283 432 251 411T193 355T147 279T118 196T107 121Q107 8 195 8ZM245 521L407 710H446L442 521H413L398 629L279 521H245Z" />
<glyph unicode="&#xf5;" glyph-name="otilde" horiz-adv-x="514" d="M196 -14Q143 -14 107 8T54 68T36 149Q36 209 58 263T120 361T211 429T318 454Q372 454 408 432T461 373T479 294Q479 234 457 179T395 80T304 11T196 -14ZM195 8Q232 8 264 29T322 86T368 163T397
246T408 322Q408 432 320 432Q283 432 251 411T193 355T147 279T118 196T107 121Q107 8 195 8ZM440 553Q421 553 406 562T381 578L361 594Q347 605 335 612T309 620Q287 620 264 601T230 564H211Q217 579 234 603T278 648T335 668Q354 668 369 658T392 642L421
620Q427 616 440 609T466 601Q486 601 505 616T538 652H557Q535 607 503 580T440 553Z" />
<glyph unicode="&#xf6;" glyph-name="odieresis" horiz-adv-x="514" d="M196 -14Q143 -14 107 8T54 68T36 149Q36 209 58 263T120 361T211 429T318 454Q372 454 408 432T461 373T479 294Q479 234 457 179T395 80T304 11T196 -14ZM195 8Q232 8 264 29T322 86T368
163T397 246T408 322Q408 432 320 432Q283 432 251 411T193 355T147 279T118 196T107 121Q107 8 195 8ZM286 557Q264 557 250 572T236 607Q236 626 250 640T286 655Q306 655 320 641T334 607Q334 587 320 572T286 557ZM480 557Q458 557 444 572T430 607Q430 626
444 640T480 655Q500 655 514 641T528 607Q528 587 514 572T480 557Z" />
<glyph unicode="&#xf7;" glyph-name="divide" horiz-adv-x="600" d="M364 425Q345 425 332 439T319 472Q319 494 334 510T369 526Q388 526 401 512T414 478Q414 456 399 441T364 425ZM90 300L103 336H539L526 300H90ZM263 81Q244 81 231 95T218 128Q218 150 233
166T268 182Q287 182 300 168T313 134Q313 112 298 97T263 81Z" />
<glyph unicode="&#xf8;" glyph-name="oslash" horiz-adv-x="514" d="M196 -14Q143 -14 107 8T54 68T36 149Q36 209 58 263T120 361T211 429T318 454Q372 454 408 432T461 373T479 294Q479 234 457 179T395 80T304 11T196 -14ZM195 8Q232 8 264 29T322 86T368 163T397
246T408 322Q408 432 320 432Q283 432 251 411T193 355T147 279T118 196T107 121Q107 8 195 8ZM-38 -12L497 453H553L19 -12H-38Z" />
<glyph unicode="&#xf9;" glyph-name="ugrave" d="M139 -14Q8 -14 66 137L145 346Q150 357 151 366T153 383Q153 401 142 408T114 415T78 416L85 440L249 443L129 108Q113 65 119 38T158 11Q183 11 211 27T267 69T315 125T348 186L443 440H509L384 85Q380 70 377
59T374 39Q374 19 390 19Q412 19 433 42T467 87L485 75Q466 44 436 15T363 -14Q332 -14 320 1T307 41Q307 61 315 91Q283 49 238 18T139 -14ZM330 520L294 617Q287 636 284 650T280 678Q280 695 289 707T318 720Q332 720 341 706T351 656L354 520H330Z" />
<glyph unicode="&#xfa;" glyph-name="uacute" d="M139 -14Q8 -14 66 137L145 346Q150 357 151 366T153 383Q153 401 142 408T114 415T78 416L85 440L249 443L129 108Q113 65 119 38T158 11Q183 11 211 27T267 69T315 125T348 186L443 440H509L384 85Q380 70 377
59T374 39Q374 19 390 19Q412 19 433 42T467 87L485 75Q466 44 436 15T363 -14Q332 -14 320 1T307 41Q307 61 315 91Q283 49 238 18T139 -14ZM322 520L364 664Q371 688 381 703T411 719Q426 719 433 709T441 684Q441 672 436 657T412 615L344 520H322Z" />
<glyph unicode="&#xfb;" glyph-name="ucircumflex" d="M139 -14Q8 -14 66 137L145 346Q150 357 151 366T153 383Q153 401 142 408T114 415T78 416L85 440L249 443L129 108Q113 65 119 38T158 11Q183 11 211 27T267 69T315 125T348 186L443 440H509L384 85Q380
70 377 59T374 39Q374 19 390 19Q412 19 433 42T467 87L485 75Q466 44 436 15T363 -14Q332 -14 320 1T307 41Q307 61 315 91Q283 49 238 18T139 -14ZM232 521L394 710H433L429 521H400L385 629L266 521H232Z" />
<glyph unicode="&#xfc;" glyph-name="udieresis" d="M139 -14Q8 -14 66 137L145 346Q150 357 151 366T153 383Q153 401 142 408T114 415T78 416L85 440L249 443L129 108Q113 65 119 38T158 11Q183 11 211 27T267 69T315 125T348 186L443 440H509L384 85Q380 70
377 59T374 39Q374 19 390 19Q412 19 433 42T467 87L485 75Q466 44 436 15T363 -14Q332 -14 320 1T307 41Q307 61 315 91Q283 49 238 18T139 -14ZM273 557Q251 557 237 572T223 607Q223 626 237 640T273 655Q293 655 307 641T321 607Q321 587 307 572T273 557ZM467
557Q445 557 431 572T417 607Q417 626 431 640T467 655Q487 655 501 641T515 607Q515 587 501 572T467 557Z" />
<glyph unicode="&#xfd;" glyph-name="yacute" horiz-adv-x="481" d="M-55 -290Q-87 -290 -106 -275T-126 -238Q-126 -215 -111 -202T-73 -189Q-54 -189 -40 -200T-10 -222T29 -234Q61 -234 93 -199L175 -112Q192 -95 203 -74T215 -31Q215 -1 199 32T160 101Q132
145 108 190T84 278Q84 331 115 363T190 422L87 416L95 440L248 448L253 431Q202 406 184 379T166 316Q166 285 176 249T202 178T229 112L271 9L317 66Q365 126 385 170T410 244T415 290Q415 312 409 329T387 362Q376 373 368 383T359 409Q359 422 372 438T406
454Q426 454 444 431T462 354Q462 296 439 226T345 66L203 -110Q144 -184 102 -223T23 -276T-55 -290ZM301 520L343 664Q350 688 360 703T390 719Q405 719 412 709T420 684Q420 672 415 657T391 615L323 520H301Z" />
<glyph unicode="&#xfe;" glyph-name="thorn" horiz-adv-x="527" d="M-146 -280L-138 -256H-114Q-92 -256 -81 -246T-57 -200L242 615Q247 626 248 635T250 652Q250 671 239 677T211 685T175 686L182 710L348 713L220 379Q237 399 256 413Q285 435 312 444T361
454Q422 454 458 411T494 300Q494 236 470 180T407 80T320 11T224 -14Q184 -14 156 13T121 90L15 -201Q6 -228 6 -239Q6 -249 13 -252T33 -256H67L60 -280H-146ZM223 12Q259 12 294 40T357 114T402 214T419 320Q419 376 399 401T345 427Q316 427 285 406T226 351T183
274L164 221Q142 159 142 112Q142 64 164 38T223 12Z" />
<glyph unicode="&#xff;" glyph-name="ydieresis" horiz-adv-x="481" d="M-55 -290Q-87 -290 -106 -275T-126 -238Q-126 -215 -111 -202T-73 -189Q-54 -189 -40 -200T-10 -222T29 -234Q61 -234 93 -199L175 -112Q192 -95 203 -74T215 -31Q215 -1 199 32T160 101Q132
145 108 190T84 278Q84 331 115 363T190 422L87 416L95 440L248 448L253 431Q202 406 184 379T166 316Q166 285 176 249T202 178T229 112L271 9L317 66Q365 126 385 170T410 244T415 290Q415 312 409 329T387 362Q376 373 368 383T359 409Q359 422 372 438T406
454Q426 454 444 431T462 354Q462 296 439 226T345 66L203 -110Q144 -184 102 -223T23 -276T-55 -290ZM252 557Q230 557 216 572T202 607Q202 626 216 640T252 655Q272 655 286 641T300 607Q300 587 286 572T252 557ZM446 557Q424 557 410 572T396 607Q396 626
410 640T446 655Q466 655 480 641T494 607Q494 587 480 572T446 557Z" />
<glyph unicode="&#x2013;" glyph-name="endash" horiz-adv-x="494" d="M11 196L24 232H478L465 196H11Z" />
<glyph unicode="&#x2014;" glyph-name="emdash" horiz-adv-x="736" d="M14 196L30 232H725L709 196H14Z" />
<glyph unicode="&#x2018;" glyph-name="quoteleft" horiz-adv-x="231" d="M367 724L370 696Q327 693 288 672T226 607Q214 585 214 567Q214 560 216 559T220 557Q223 557 228 568Q239 594 268 594Q293 594 308 578T324 539Q324 510 306 492T259 473Q225 473 207
496T189 553Q189 581 205 615Q232 671 274 694T367 724Z" />
<glyph unicode="&#x2019;" glyph-name="quoteright" horiz-adv-x="234" d="M141 467L138 495Q181 498 220 519T282 584Q294 606 294 624Q294 631 292 632T288 634Q285 634 280 623Q269 597 240 597Q215 597 200 613T184 652Q184 681 202 699T249 718Q284 718 301
695T319 638Q319 610 303 576Q276 520 234 497T141 467Z" />
<glyph unicode="&#x201a;" glyph-name="quotesinglbase" horiz-adv-x="232" d="M-63 -179L-68 -151Q-32 -143 3 -130T67 -93T109 -31Q116 -10 116 13Q116 22 114 31T106 46L103 42Q105 38 105 32Q107 12 95 -3T59 -18Q34 -18 18 1T1 46Q1 71 18 89T63 107Q94 107
118 83T145 20Q149 -29 124 -70T54 -138Q25 -156 -6 -165T-63 -179Z" />
<glyph unicode="&#x201c;" glyph-name="quotedblleft" horiz-adv-x="446" d="M367 724L370 696Q327 693 288 672T226 607Q214 585 214 567Q214 560 216 559T220 557Q223 557 228 568Q239 594 268 594Q293 594 308 578T324 539Q324 510 306 492T259 473Q225 473
207 496T189 553Q189 581 205 615Q232 671 274 694T367 724ZM582 724L585 696Q542 693 503 672T441 607Q429 585 429 567Q429 560 431 559T435 557Q438 557 443 568Q454 594 483 594Q508 594 523 578T539 539Q539 510 521 492T474 473Q440 473 422 496T404 553Q404
581 420 615Q447 671 489 694T582 724Z" />
<glyph unicode="&#x201d;" glyph-name="quotedblright" horiz-adv-x="450" d="M358 471L355 499Q398 502 437 523T499 588Q511 610 511 628Q511 635 509 636T505 638Q502 638 497 627Q486 601 457 601Q432 601 417 617T401 656Q401 685 419 703T466 722Q501 722
518 699T536 642Q536 614 520 580Q493 524 451 501T358 471ZM143 471L140 499Q183 502 222 523T284 588Q296 610 296 628Q296 635 294 636T290 638Q287 638 282 627Q271 601 242 601Q217 601 202 617T186 656Q186 685 204 703T251 722Q286 722 303 699T321 642Q321
614 305 580Q278 524 236 501T143 471Z" />
<glyph unicode="&#x201e;" glyph-name="quotedblbase" horiz-adv-x="430" d="M358 -138L355 -110Q398 -107 437 -86T499 -21Q511 1 511 19Q511 26 509 27T505 29Q502 29 497 18Q486 -8 457 -8Q432 -8 417 8T401 47Q401 76 419 94T466 113Q501 113 518 90T536 33Q536
5 520 -29Q493 -85 451 -108T358 -138ZM143 -138L140 -110Q183 -107 222 -86T284 -21Q296 1 296 19Q296 26 294 27T290 29Q287 29 282 18Q271 -8 242 -8Q217 -8 202 8T186 47Q186 76 204 94T251 113Q286 113 303 90T321 33Q321 5 305 -29Q278 -85 236 -108T143
-138Z" />
<glyph unicode="&#x2022;" glyph-name="bullet" horiz-adv-x="296" d="M186 238Q149 238 126 262T102 321Q102 354 125 378T186 402Q220 402 243 378T267 321Q267 287 244 263T186 238Z" />
<glyph unicode="&#x2039;" glyph-name="guilsinglleft" horiz-adv-x="273" d="M159 44Q107 59 82 98T56 179Q56 219 73 254T120 319T183 369T249 399L258 374Q221 357 187 325T132 252T110 170Q110 137 123 112T168 69L159 44Z" />
<glyph unicode="&#x203a;" glyph-name="guilsinglright" horiz-adv-x="273" d="M115 399Q168 384 193 345T218 264Q218 224 201 189T154 124T91 74T25 44L16 69Q54 87 87 119T142 191T164 273Q164 306 151 332T106 374L115 399Z" />
</font>
</defs>
</svg>
