<svg width="50" height="50" viewBox="0 0 50 50" fill="none" xmlns="http://www.w3.org/2000/svg">
<path d="M11.293 38.707C15.1445 42.4831 19.7135 44.3711 25 44.3711C30.2865 44.3711 34.8177 42.4831 38.5938 38.707C42.4453 34.8555 44.3711 30.2865 44.3711 25C44.3711 19.7135 42.4453 15.1823 38.5938 11.4062C34.8177 7.55469 30.2865 5.62891 25 5.62891C19.7135 5.62891 15.1445 7.55469 11.293 11.4062C7.51693 15.1823 5.62891 19.7135 5.62891 25C5.62891 30.2865 7.51693 34.8555 11.293 38.707ZM7.89453 8.00781C12.6523 3.25 18.3542 0.871094 25 0.871094C31.6458 0.871094 37.3099 3.25 41.9922 8.00781C46.75 12.6901 49.1289 18.3542 49.1289 25C49.1289 31.6458 46.75 37.3477 41.9922 42.1055C37.3099 46.7878 31.6458 49.1289 25 49.1289C18.3542 49.1289 12.6523 46.7878 7.89453 42.1055C3.21224 37.3477 0.871094 31.6458 0.871094 25C0.871094 18.3542 3.21224 12.6901 7.89453 8.00781ZM27.3789 12.8789V22.6211H37.1211V27.3789H27.3789V37.1211H22.6211V27.3789H12.8789V22.6211H22.6211V12.8789H27.3789Z" fill="#32A40A"/>
</svg>
