<svg width="105" height="105" viewBox="0 0 105 105" fill="none" xmlns="http://www.w3.org/2000/svg">
<circle cx="52.5" cy="52.5" r="52.5" fill="#888787" fill-opacity="0.56"/>
<circle cx="52.5" cy="52.5" r="51.5" stroke="black" stroke-opacity="0.22" stroke-width="2"/>
<path d="M70.2273 61.7273H36.25C29.7205 61.7273 24.4318 57.8218 24.4318 53C24.4318 48.1782 29.7205 44.2727 36.25 44.2727H73.1818C77.2591 44.2727 80.5682 46.7164 80.5682 49.7273C80.5682 52.7382 77.2591 55.1818 73.1818 55.1818H42.1591C40.5341 55.1818 39.2045 54.2 39.2045 53C39.2045 51.8 40.5341 50.8182 42.1591 50.8182H70.2273V47.5455H42.1591C38.0818 47.5455 34.7727 49.9891 34.7727 53C34.7727 56.0109 38.0818 58.4545 42.1591 58.4545H73.1818C79.7114 58.4545 85 54.5491 85 49.7273C85 44.9055 79.7114 41 73.1818 41H36.25C27.2682 41 20 46.3673 20 53C20 59.6327 27.2682 65 36.25 65H70.2273V61.7273Z" fill="white"/>
</svg>
