<svg width="105" height="105" viewBox="0 0 105 105" fill="none" xmlns="http://www.w3.org/2000/svg">
<circle cx="52.5" cy="52.5" r="52.5" fill="white"/>
<circle cx="52.5" cy="52.5" r="51.5" stroke="black" stroke-opacity="0.22" stroke-width="2"/>
<path d="M71.985 59.9836H35.4657C28.4477 59.9836 22.7634 56.5951 22.7634 52.4116C22.7634 48.228 28.4477 44.8395 35.4657 44.8395H75.1606C79.5429 44.8395 83.0995 46.9597 83.0995 49.572C83.0995 52.1844 79.5429 54.3046 75.1606 54.3046H41.8169C40.0703 54.3046 38.6413 53.4527 38.6413 52.4116C38.6413 51.3704 40.0703 50.5186 41.8169 50.5186H71.985V47.679H41.8169C37.4346 47.679 33.8779 49.7992 33.8779 52.4116C33.8779 55.0239 37.4346 57.1441 41.8169 57.1441H75.1606C82.1786 57.1441 87.8629 53.7556 87.8629 49.572C87.8629 45.3885 82.1786 42 75.1606 42H35.4657C25.8119 42 18 46.6568 18 52.4116C18 58.1663 25.8119 62.8231 35.4657 62.8231H71.985V59.9836Z" fill="black" fill-opacity="0.53"/>
</svg>
