<svg width="27" height="29" viewBox="0 0 27 29" fill="none" xmlns="http://www.w3.org/2000/svg">
<g filter="url(#filter0_d_155_248)">
<path d="M20.9167 2.24985H19.875V0.166504H17.7917V2.24985H9.45833V0.166504H7.375V2.24985H6.33333C5.17708 2.24985 4.26042 3.18736 4.26042 4.3332L4.25 18.9167C4.25 20.0625 5.17708 21 6.33333 21H20.9167C22.0625 21 23 20.0625 23 18.9167V4.3332C23 3.18736 22.0625 2.24985 20.9167 2.24985ZM20.9167 18.9167H6.33333V8.4999H20.9167V18.9167ZM20.9167 6.41655H6.33333V4.3332H20.9167V6.41655ZM10.5 12.6666H8.41667V10.5833H10.5V12.6666ZM14.6667 12.6666H12.5833V10.5833H14.6667V12.6666ZM18.8333 12.6666H16.75V10.5833H18.8333V12.6666ZM10.5 16.8333H8.41667V14.75H10.5V16.8333ZM14.6667 16.8333H12.5833V14.75H14.6667V16.8333ZM18.8333 16.8333H16.75V14.75H18.8333V16.8333Z" fill="black" fill-opacity="0.61"/>
</g>
<defs>
<filter id="filter0_d_155_248" x="0.25" y="0.166504" width="26.75" height="28.8335" filterUnits="userSpaceOnUse" color-interpolation-filters="sRGB">
<feFlood flood-opacity="0" result="BackgroundImageFix"/>
<feColorMatrix in="SourceAlpha" type="matrix" values="0 0 0 0 0 0 0 0 0 0 0 0 0 0 0 0 0 0 127 0" result="hardAlpha"/>
<feOffset dy="4"/>
<feGaussianBlur stdDeviation="2"/>
<feComposite in2="hardAlpha" operator="out"/>
<feColorMatrix type="matrix" values="0 0 0 0 0 0 0 0 0 0 0 0 0 0 0 0 0 0 0.25 0"/>
<feBlend mode="normal" in2="BackgroundImageFix" result="effect1_dropShadow_155_248"/>
<feBlend mode="normal" in="SourceGraphic" in2="effect1_dropShadow_155_248" result="shape"/>
</filter>
</defs>
</svg>
