<svg width="44" height="50" viewBox="0 0 44 50" fill="none" xmlns="http://www.w3.org/2000/svg">
<path d="M40.125 4.49609L36.5 0.871094L32.875 4.49609L29.25 0.871094L25.625 4.49609L22 0.871094L18.375 4.49609L14.75 0.871094L11.125 4.49609L7.5 0.871094V34.6289H0.25V41.8789C0.25 43.2383 0.552083 44.4844 1.15625 45.6172C1.83594 46.6745 2.70443 47.543 3.76172 48.2227C4.89453 48.8268 6.14062 49.1289 7.5 49.1289H36.5C37.8594 49.1289 39.0677 48.8268 40.125 48.2227C41.2578 47.543 42.1263 46.6745 42.7305 45.6172C43.4102 44.4844 43.75 43.2383 43.75 41.8789V0.871094L40.125 4.49609ZM38.8789 41.8789C38.8789 42.5586 38.6523 43.1628 38.1992 43.6914C37.7461 44.1445 37.1797 44.3711 36.5 44.3711C35.8203 44.3711 35.2539 44.1445 34.8008 43.6914C34.3477 43.1628 34.1211 42.5586 34.1211 41.8789V34.6289H12.3711V8.12109H38.8789V41.8789ZM14.75 12.8789H29.25V17.75H14.75V12.8789ZM31.6289 12.8789H36.5V17.75H31.6289V12.8789ZM14.75 20.1289H29.25V25H14.75V20.1289ZM31.6289 20.1289H36.5V25H31.6289V20.1289Z" fill="#4D64B1"/>
</svg>
