<svg width="105" height="105" viewBox="0 0 105 105" fill="none" xmlns="http://www.w3.org/2000/svg">
<path d="M105 52.5C105 81.4949 81.4949 105 52.5 105C23.505 105 0 81.4949 0 52.5C0 23.5051 23.505 0 52.5 0C81.4949 0 105 23.5051 105 52.5Z" fill="white"/>
<path d="M104 52.5C104 80.9427 80.9427 104 52.5 104C24.0573 104 1 80.9427 1 52.5C1 24.0573 24.0573 1 52.5 1C80.9427 1 104 24.0573 104 52.5Z" stroke="black" stroke-opacity="0.22" stroke-width="2"/>
<path d="M52.899 22.7241L59.5646 44.4052H81.1346L63.6841 57.8048L70.3496 79.4858L52.899 66.0862L35.4485 79.4858L42.114 57.8048L24.6635 44.4052H46.2335L52.899 22.7241Z" fill="black" fill-opacity="0.44"/>
</svg>
