<svg width="388" height="363" viewBox="0 0 388 363" fill="none" xmlns="http://www.w3.org/2000/svg">
<path d="M388 308.847H0V309.083H388V308.847Z" fill="#EBEBEB"/>
<path d="M349.122 324.024H332.299V324.26H349.122V324.024Z" fill="#EBEBEB"/>
<path d="M267.464 319.138H240.995V319.374H267.464V319.138Z" fill="#EBEBEB"/>
<path d="M342.309 315.271H307.754V315.506H342.309V315.271Z" fill="#EBEBEB"/>
<path d="M134.264 320.024H125.619V320.26H134.264V320.024Z" fill="#EBEBEB"/>
<path d="M118.705 320.024H88.9141V320.26H118.705V320.024Z" fill="#EBEBEB"/>
<path d="M72.9517 316.044H51.4565V316.28H72.9517V316.044Z" fill="#EBEBEB"/>
<path d="M183.912 266.774H34.0741C32.9003 266.771 31.7753 266.202 30.946 265.193C30.1167 264.183 29.6509 262.814 29.6509 261.387V5.33924C29.6612 3.9205 30.1314 2.56395 30.9596 1.56425C31.7878 0.564543 32.907 0.00243038 34.0741 0H183.912C185.087 0 186.214 0.567495 187.045 1.57764C187.876 2.58779 188.343 3.95784 188.343 5.38641V261.387C188.343 262.816 187.876 264.186 187.045 265.196C186.214 266.206 185.087 266.774 183.912 266.774ZM34.0741 0.188667C32.9518 0.191165 31.8761 0.734915 31.0832 1.70056C30.2903 2.66621 29.8449 3.97486 29.8449 5.33924V261.387C29.8449 262.751 30.2903 264.06 31.0832 265.026C31.8761 265.991 32.9518 266.535 34.0741 266.538H183.912C185.035 266.535 186.112 265.992 186.906 265.026C187.7 264.061 188.147 262.752 188.149 261.387V5.33924C188.147 3.97399 187.7 2.66537 186.906 1.69999C186.112 0.734609 185.035 0.19116 183.912 0.188667H34.0741Z" fill="#EBEBEB"/>
<path d="M351.769 266.774H201.923C200.748 266.771 199.623 266.203 198.792 265.193C197.962 264.184 197.494 262.815 197.492 261.387V5.33924C197.504 3.91964 197.976 2.5631 198.806 1.56366C199.635 0.564213 200.755 0.00240388 201.923 0H351.769C352.934 0.00490955 354.052 0.568119 354.878 1.56756C355.705 2.56699 356.174 3.92213 356.184 5.33924V261.387C356.184 262.812 355.719 264.18 354.892 265.189C354.064 266.199 352.941 266.769 351.769 266.774ZM201.923 0.188667C200.8 0.19116 199.723 0.734609 198.929 1.69999C198.135 2.66537 197.688 3.97399 197.686 5.33924V261.387C197.688 262.752 198.135 264.061 198.929 265.026C199.723 265.992 200.8 266.535 201.923 266.538H351.769C352.892 266.535 353.968 265.992 354.762 265.026C355.556 264.061 356.003 262.752 356.006 261.387V5.33924C356.003 3.97399 355.556 2.66537 354.762 1.69999C353.968 0.734609 352.892 0.19116 351.769 0.188667H201.923Z" fill="#EBEBEB"/>
<path d="M89.24 112.85C93.5434 112.85 97.6706 110.772 100.714 107.073C103.757 103.374 105.466 98.3568 105.466 93.1254C105.466 87.894 103.757 82.8769 100.714 79.1777C97.6706 75.4786 93.5434 73.4004 89.24 73.4004H87.2457V112.85H89.24Z" fill="#E0E0E0"/>
<path d="M87.2302 112.85C96.1916 112.85 103.456 104.019 103.456 93.1254C103.456 82.2316 96.1916 73.4004 87.2302 73.4004C78.2687 73.4004 71.004 82.2316 71.004 93.1254C71.004 104.019 78.2687 112.85 87.2302 112.85Z" fill="#F5F5F5"/>
<path d="M86.4852 95.5967C80.7226 95.5967 75.196 92.8139 71.1212 87.8604C67.0464 82.907 64.7572 76.1887 64.7572 69.1834V53.4204C64.7572 52.7624 64.9722 52.1314 65.355 51.6661C65.7377 51.2008 66.2568 50.9395 66.7981 50.9395C67.3394 50.9395 67.8585 51.2008 68.2412 51.6661C68.6239 52.1314 68.839 52.7624 68.839 53.4204V69.1929C68.8431 74.879 70.7025 80.3308 74.0092 84.3524C77.316 88.3739 81.8 90.6367 86.4774 90.6442C86.7555 90.6233 87.0342 90.6719 87.2962 90.7869C87.5583 90.9019 87.7982 91.0809 88.0012 91.3129C88.2042 91.5449 88.3659 91.8249 88.4765 92.1358C88.5871 92.4466 88.6441 92.7817 88.6441 93.1204C88.6441 93.4591 88.5871 93.7942 88.4765 94.1051C88.3659 94.4159 88.2042 94.696 88.0012 94.928C87.7982 95.16 87.5583 95.339 87.2962 95.454C87.0342 95.569 86.7555 95.6175 86.4774 95.5967H86.4852Z" fill="#E0E0E0"/>
<path d="M48.7561 67.3069H84.8556C85.4329 67.307 86.0026 67.146 86.5207 66.8363C87.0387 66.5266 87.4914 66.0764 87.8437 65.5205C88.1961 64.9645 88.4388 64.3177 88.553 63.6297C88.6673 62.9418 88.6501 62.2312 88.5028 61.5526L85.36 47.1668C85.1479 46.1895 84.676 45.3249 84.0178 44.7073C83.3597 44.0897 82.552 43.7539 81.7206 43.752H51.8911C51.0587 43.7534 50.2499 44.0889 49.5904 44.7064C48.9309 45.3239 48.4576 46.1888 48.2439 47.1668L45.1399 61.5337C44.9889 62.2106 44.9678 62.9206 45.0784 63.6089C45.189 64.2973 45.4283 64.9455 45.7778 65.5034C46.1274 66.0614 46.5777 66.5143 47.0941 66.827C47.6105 67.1397 48.1792 67.3039 48.7561 67.3069Z" fill="#F5F5F5"/>
<path d="M318.377 112.85C322.681 112.85 326.808 110.772 329.851 107.073C332.894 103.374 334.603 98.3568 334.603 93.1254C334.603 87.894 332.894 82.8769 329.851 79.1777C326.808 75.4786 322.681 73.4004 318.377 73.4004H316.383V112.85H318.377Z" fill="#E0E0E0"/>
<path d="M316.383 112.85C325.344 112.85 332.609 104.019 332.609 93.1254C332.609 82.2316 325.344 73.4004 316.383 73.4004C307.422 73.4004 300.157 82.2316 300.157 93.1254C300.157 104.019 307.422 112.85 316.383 112.85Z" fill="#F5F5F5"/>
<path d="M315.638 95.5967C309.875 95.5967 304.349 92.8139 300.274 87.8604C296.199 82.907 293.91 76.1887 293.91 69.1834V53.4204C293.91 52.7624 294.125 52.1314 294.508 51.6661C294.891 51.2008 295.41 50.9395 295.951 50.9395C296.492 50.9395 297.011 51.2008 297.394 51.6661C297.777 52.1314 297.992 52.7624 297.992 53.4204V69.1929C297.996 74.879 299.855 80.3308 303.162 84.3524C306.469 88.3739 310.953 90.6367 315.63 90.6442C315.908 90.6233 316.187 90.6719 316.449 90.7869C316.711 90.9019 316.951 91.0809 317.154 91.3129C317.357 91.5449 317.519 91.8249 317.629 92.1358C317.74 92.4466 317.797 92.7817 317.797 93.1204C317.797 93.4591 317.74 93.7942 317.629 94.1051C317.519 94.4159 317.357 94.696 317.154 94.928C316.951 95.16 316.711 95.339 316.449 95.454C316.187 95.569 315.908 95.6175 315.63 95.5967H315.638Z" fill="#E0E0E0"/>
<path d="M277.909 67.3066H314.008C314.586 67.3067 315.155 67.1457 315.673 66.836C316.192 66.5262 316.644 66.0761 316.997 65.5201C317.349 64.9642 317.592 64.3173 317.706 63.6294C317.82 62.9415 317.803 62.2309 317.656 61.5523L314.552 47.1854C314.339 46.2081 313.868 45.3434 313.209 44.7258C312.551 44.1083 311.744 43.7724 310.912 43.7705H281.044C280.212 43.7719 279.403 44.1074 278.743 44.7249C278.084 45.3424 277.61 46.2073 277.397 47.1854L274.293 61.5523C274.144 62.2279 274.126 62.9359 274.238 63.6217C274.349 64.3076 274.589 64.9532 274.938 65.5089C275.288 66.0646 275.737 66.5155 276.252 66.8272C276.767 67.1388 277.334 67.3028 277.909 67.3066Z" fill="#F5F5F5"/>
<path d="M103.968 246.077H115.771V190.487H103.968V246.077Z" fill="#E6E6E6"/>
<path d="M71.974 246.067H111.139L117.052 181.006H77.8871L71.974 246.067Z" fill="#F0F0F0"/>
<path d="M67.7293 246.067H108.19L114.103 181.006H73.6502L67.7293 246.067Z" fill="#F5F5F5"/>
<path d="M105.264 240.945L110.246 186.138H76.5679L71.586 240.945H105.264Z" fill="white"/>
<path d="M98.3114 227.654L98.552 225.456C99.8013 211.702 92.7397 199.448 83.5674 199.448L83.3579 201.684C82.1085 215.428 89.1701 227.682 98.3502 227.682L98.3114 227.654Z" fill="#F5F5F5"/>
<path d="M45.8538 308.847H80.6497V246.068H45.8538L45.8538 308.847Z" fill="#E6E6E6"/>
<path d="M49.3459 308.846H45.8461V296.743H53.0163L49.3459 308.846Z" fill="#F0F0F0"/>
<path d="M143.374 308.847H178.17V246.068H143.374V308.847Z" fill="#E6E6E6"/>
<path d="M45.8461 301.422H146.423V246.077H45.8461V301.422Z" fill="#F0F0F0"/>
<path d="M142.924 308.846H146.423V296.743H139.253L142.924 308.846Z" fill="#F0F0F0"/>
<path d="M48.5621 271.868H143.707V249.53H48.5621V271.868Z" fill="#E6E6E6"/>
<path d="M89.791 264.132H102.479C105.206 264.133 107.906 263.458 110.412 262.147C112.917 260.837 115.177 258.918 117.052 256.51H75.2177C77.0934 258.917 79.3531 260.835 81.8587 262.145C84.3643 263.456 87.0633 264.132 89.791 264.132Z" fill="#F0F0F0"/>
<path d="M48.5621 297.81H143.707V275.472H48.5621V297.81Z" fill="#E6E6E6"/>
<path d="M89.791 290.036H102.479C105.206 290.038 107.906 289.362 110.412 288.052C112.917 286.741 115.177 284.823 117.052 282.414H75.2177C77.0934 284.821 79.3531 286.739 81.8587 288.049C84.3643 289.36 87.0633 290.036 89.791 290.036Z" fill="#F0F0F0"/>
<path d="M140.052 243.512H140.953C140.953 241.257 140.953 235.55 141.046 222.466C141.209 198.741 141.519 197.298 141.519 197.298L139.377 208.25C138.019 220.372 139.773 232.56 140.052 243.512Z" fill="#E6E6E6"/>
<path d="M138.275 206.589C135.171 202.127 128.614 200.825 121.879 199.712C119.232 199.278 128.824 206.626 133.519 211.843C137.166 215.899 139.494 217.022 140.503 221.059C141.015 216.022 140.929 210.466 138.275 206.589Z" fill="#E6E6E6"/>
<path d="M142.365 214.589C145.469 210.127 152.026 208.835 158.762 207.721C161.408 207.288 151.778 214.636 147.122 219.853C143.475 223.909 141.147 225.032 140.138 229.069C139.626 224.032 139.68 218.438 142.365 214.589Z" fill="#E6E6E6"/>
<path d="M141.046 196.213C143.374 190.873 149.163 185.836 155.689 183.949C158.25 183.204 149.752 193.798 146.524 200.637C144.018 205.938 140.697 212.183 140.177 216.673C139.401 207.825 138.733 201.58 141.046 196.213Z" fill="#E6E6E6"/>
<path d="M140.766 246.068C138.019 246.068 135.746 244.398 135.583 242.247L135.125 238.587H146.416L145.95 242.247C145.795 244.398 143.56 246.068 140.766 246.068Z" fill="#F0F0F0"/>
<path d="M147.145 239.993H134.395L134.031 235.908H147.51L147.145 239.993Z" fill="#F0F0F0"/>
<path d="M131.563 161.988L255.886 161.988V24.1396L131.563 24.1396V161.988Z" fill="#E6E6E6"/>
<path d="M128.769 161.988L254.668 161.988V24.1396L128.769 24.1396V161.988Z" fill="#F5F5F5"/>
<path d="M249.639 155.819V30.3184L133.782 30.3184V155.819H249.639Z" fill="#FAFAFA"/>
<path d="M235.431 155.819L189.833 30.3184H174.344L219.942 155.819H235.431Z" fill="white"/>
<path d="M215.55 155.819L169.952 30.3184H159.29L204.887 155.819H215.55Z" fill="white"/>
<path d="M176.804 155.809V30.3086H170.813V155.809H176.804Z" fill="#E6E6E6"/>
<path d="M216.628 155.809V30.3086H210.637V155.809H216.628Z" fill="#E6E6E6"/>
<path d="M175.725 159.734V25.7246H168.151V159.734H175.725Z" fill="#F5F5F5"/>
<path d="M215.55 159.734V25.7246H207.976V159.734H215.55Z" fill="#F5F5F5"/>
<path d="M134.326 155.819V30.3184H133.79V155.819H134.326Z" fill="#E6E6E6"/>
<path d="M126.659 16.1973H261.341C261.514 16.1997 261.678 16.284 261.8 16.4321C261.922 16.5801 261.991 16.7803 261.993 16.9897C261.991 17.1982 261.922 17.3973 261.799 17.5439C261.677 17.6905 261.513 17.7726 261.341 17.7726H126.659C126.487 17.7726 126.323 17.6905 126.201 17.5439C126.079 17.3973 126.009 17.1982 126.007 16.9897C126.009 16.7803 126.078 16.5801 126.2 16.4321C126.322 16.284 126.486 16.1997 126.659 16.1973Z" fill="#E6E6E6"/>
<path d="M255.886 21.3943C256.117 21.3918 256.338 21.2784 256.501 21.0787C256.664 20.8791 256.755 20.6094 256.755 20.3283V18.0455C256.756 17.9059 256.734 17.7675 256.691 17.6382C256.648 17.509 256.584 17.3914 256.503 17.2923C256.422 17.1932 256.326 17.1145 256.22 17.0608C256.114 17.0071 256.001 16.9795 255.886 16.9795C255.655 16.9795 255.433 17.0905 255.269 17.2884C255.104 17.4862 255.011 17.755 255.009 18.036V20.3189C255.009 20.6025 255.101 20.8746 255.265 21.076C255.43 21.2774 255.653 21.3918 255.886 21.3943Z" fill="#E6E6E6"/>
<path d="M136.421 21.3943C136.653 21.3918 136.875 21.2787 137.039 21.0793C137.203 20.88 137.296 20.6103 137.298 20.3283V18.0455C137.298 17.7627 137.205 17.4916 137.041 17.2917C136.876 17.0918 136.653 16.9795 136.421 16.9795C136.19 16.9795 135.969 17.0908 135.806 17.2889C135.643 17.4871 135.552 17.7558 135.552 18.036V20.3189C135.551 20.4589 135.572 20.5977 135.615 20.7275C135.659 20.8573 135.722 20.9755 135.803 21.0754C135.884 21.1753 135.98 21.2548 136.086 21.3095C136.192 21.3642 136.306 21.393 136.421 21.3943Z" fill="#E6E6E6"/>
<path opacity="0.6" d="M126.86 124.935L252.673 124.935V16.98L126.86 16.98L126.86 124.935Z" fill="#E0E0E0"/>
<path d="M264.065 193.354H242.368C240.062 193.354 238.193 195.626 238.193 198.429V210.635C238.193 213.438 240.062 215.71 242.368 215.71H264.065C266.371 215.71 268.24 213.438 268.24 210.635V198.429C268.24 195.626 266.371 193.354 264.065 193.354Z" fill="#FAFAFA"/>
<path d="M266.835 189.223H239.598C238.822 189.223 238.193 189.987 238.193 190.93V192.307C238.193 193.25 238.822 194.015 239.598 194.015H266.835C267.611 194.015 268.24 193.25 268.24 192.307V190.93C268.24 189.987 267.611 189.223 266.835 189.223Z" fill="#E6E6E6"/>
<path d="M238.635 240.549C238.635 240.549 239.031 256.274 254.101 256.274C269.171 256.274 269.567 240.549 269.567 240.549H238.635Z" fill="#F0F0F0"/>
<path d="M272.997 240.549C272.997 240.549 273.393 256.274 288.463 256.274C303.532 256.274 303.928 240.549 303.928 240.549H272.997Z" fill="#F0F0F0"/>
<path d="M296.463 183.232H266.665C263.493 183.232 260.922 186.358 260.922 190.213V208.74C260.922 212.595 263.493 215.721 266.665 215.721H296.463C299.634 215.721 302.205 212.595 302.205 208.74V190.213C302.205 186.358 299.634 183.232 296.463 183.232Z" fill="#F0F0F0"/>
<path d="M300.281 177.553H262.847C261.784 177.553 260.922 178.6 260.922 179.892V181.798C260.922 183.09 261.784 184.137 262.847 184.137H300.281C301.344 184.137 302.205 183.09 302.205 181.798V179.892C302.205 178.6 301.344 177.553 300.281 177.553Z" fill="#F5F5F5"/>
<path d="M227.283 308.847H231.194V230.89H227.283V308.847Z" fill="#E6E6E6"/>
<path d="M340.214 215.711H319.037V230.88H340.214V215.711Z" fill="#E6E6E6"/>
<path d="M213.741 230.889L319.029 230.889V215.72L213.741 215.72V230.889Z" fill="#F5F5F5"/>
<path d="M340.214 256.228H319.037V271.396H340.214V256.228Z" fill="#E6E6E6"/>
<path d="M213.741 271.396H319.029V256.228H213.741V271.396Z" fill="#F5F5F5"/>
<path d="M332.57 308.847H336.481V230.89H332.57V308.847Z" fill="#E6E6E6"/>
<path d="M315.126 308.847H319.037V230.89H315.126V308.847Z" fill="#F5F5F5"/>
<path d="M213.741 308.847H217.652V230.89H213.741V308.847Z" fill="#F5F5F5"/>
<path d="M194 362.82C301.082 362.82 387.89 357.752 387.89 351.5C387.89 345.248 301.082 340.18 194 340.18C86.9175 340.18 0.109985 345.248 0.109985 351.5C0.109985 357.752 86.9175 362.82 194 362.82Z" fill="#F5F5F5"/>
<path d="M204.41 300.76H76.84C74.7886 300.731 72.824 299.927 71.3403 298.51C69.8566 297.093 68.9634 295.168 68.84 293.12L57.4 71.57C57.3366 70.5845 57.4774 69.5965 57.8136 68.668C58.1499 67.7395 58.6743 66.8905 59.3541 66.1742C60.0338 65.4578 60.8542 64.8896 61.7638 64.5052C62.6733 64.1207 63.6526 63.9283 64.64 63.94H192.21C194.261 63.9665 196.225 64.768 197.709 66.1833C199.193 67.5986 200.086 69.523 200.21 71.57L211.63 293.12C211.693 294.104 211.553 295.091 211.218 296.019C210.883 296.946 210.361 297.795 209.683 298.512C209.006 299.229 208.188 299.798 207.281 300.185C206.373 300.572 205.396 300.767 204.41 300.76Z" fill="#2A356A"/>
<path opacity="0.8" d="M204.41 300.76H76.84C74.7886 300.731 72.824 299.927 71.3403 298.51C69.8566 297.093 68.9634 295.168 68.84 293.12L57.4 71.57C57.3366 70.5845 57.4774 69.5965 57.8136 68.668C58.1499 67.7395 58.6743 66.8905 59.3541 66.1742C60.0338 65.4578 60.8542 64.8896 61.7638 64.5052C62.6733 64.1207 63.6526 63.9283 64.64 63.94H192.21C194.261 63.9665 196.225 64.768 197.709 66.1833C199.193 67.5986 200.086 69.523 200.21 71.57L211.63 293.12C211.693 294.104 211.553 295.091 211.218 296.019C210.883 296.946 210.361 297.795 209.683 298.512C209.006 299.229 208.188 299.798 207.281 300.185C206.373 300.572 205.396 300.767 204.41 300.76Z" fill="white"/>
<path d="M179.62 56.7197H165.51V57.7197H179.62V56.7197Z" fill="#2A356A"/>
<path d="M160.62 56.7197H155.45V57.7197H160.62V56.7197Z" fill="#2A356A"/>
<path d="M209.9 286.7H87.9C85.9354 286.68 84.0509 285.918 82.6259 284.565C81.2009 283.213 80.3413 281.37 80.22 279.41L69.3 67.5095C69.2393 66.5664 69.3741 65.6209 69.696 64.7324C70.0179 63.8438 70.52 63.0314 71.1706 62.346C71.8213 61.6606 72.6066 61.117 73.4772 60.7493C74.3478 60.3817 75.285 60.1979 76.23 60.2095H198.23C200.194 60.2312 202.078 60.9963 203.501 62.3507C204.924 63.7052 205.781 65.5485 205.9 67.5095L216.82 279.41C216.881 280.351 216.746 281.295 216.425 282.183C216.103 283.07 215.602 283.882 214.952 284.566C214.303 285.25 213.518 285.793 212.649 286.16C211.78 286.528 210.844 286.711 209.9 286.7Z" fill="#2A356A"/>
<path d="M209.9 281.83H87.9C87.1845 281.806 86.503 281.519 85.9849 281.025C85.4669 280.531 85.1484 279.864 85.09 279.15L74.16 67.2601C74.1352 66.9783 74.1706 66.6944 74.2636 66.4272C74.3567 66.16 74.5054 65.9156 74.7 65.7101C74.8951 65.5051 75.1314 65.3439 75.3934 65.237C75.6555 65.1301 75.9372 65.0801 76.22 65.0901H198.22C198.934 65.1171 199.613 65.4047 200.129 65.8986C200.645 66.3924 200.962 67.0583 201.02 67.7701L212 279.66C212.024 279.941 211.989 280.224 211.896 280.49C211.803 280.756 211.655 281 211.461 281.204C211.268 281.409 211.033 281.571 210.772 281.679C210.512 281.787 210.232 281.838 209.95 281.83H209.9ZM76.22 65.3401C75.9714 65.3321 75.7238 65.376 75.4931 65.4689C75.2624 65.5619 75.0536 65.702 74.88 65.8801C74.713 66.0648 74.5853 66.2815 74.5045 66.5169C74.4237 66.7524 74.3916 67.0019 74.41 67.2501L85.33 279.14C85.3856 279.789 85.6766 280.395 86.1481 280.845C86.6196 281.294 87.2391 281.556 87.89 281.58H209.89C210.137 281.59 210.384 281.547 210.613 281.454C210.843 281.361 211.049 281.22 211.22 281.04C211.391 280.858 211.521 280.642 211.602 280.406C211.683 280.17 211.713 279.919 211.69 279.67L200.78 67.7801C200.727 67.132 200.438 66.5259 199.968 66.0763C199.498 65.6267 198.88 65.3648 198.23 65.3401H76.22Z" fill="white"/>
<path opacity="0.3" d="M167.227 142.316C181.103 128.077 180.199 104.691 165.208 90.0823C150.218 75.4738 126.816 75.1745 112.94 89.4138C99.0642 103.653 99.9678 127.039 114.959 141.647C129.949 156.256 153.351 156.555 167.227 142.316Z" fill="white"/>
<path d="M170 115.87C170.28 120.784 169.292 125.688 167.13 130.11C164.79 134.853 161.158 138.839 156.652 141.608C152.145 144.376 146.949 145.816 141.66 145.76C136.179 145.711 130.805 144.243 126.059 141.501C121.314 138.758 117.359 134.834 114.58 130.11C111.99 125.79 110.5 120.9 110.24 115.87C109.993 112.012 110.546 108.145 111.862 104.511C113.179 100.876 115.232 97.5525 117.892 94.7478C120.552 91.9431 123.763 89.7176 127.322 88.2106C130.882 86.7037 134.715 85.9477 138.58 85.99C146.625 86.0738 154.339 89.203 160.17 94.7474C166 100.292 169.512 107.839 170 115.87Z" fill="white"/>
<path d="M167.1 130.11C164.76 134.853 161.128 138.839 156.622 141.607C152.115 144.376 146.919 145.816 141.63 145.76C136.149 145.71 130.775 144.243 126.029 141.501C121.284 138.758 117.329 134.834 114.55 130.11C122.149 124.862 131.175 122.07 140.41 122.11C149.892 122.146 159.162 124.924 167.1 130.11Z" fill="#2A356A"/>
<path d="M149.347 115.175C154.347 110.045 154.019 101.618 148.616 96.3523C143.213 91.0871 134.781 90.9775 129.781 96.1076C124.782 101.238 125.109 109.665 130.512 114.93C135.915 120.195 144.348 120.305 149.347 115.175Z" fill="#2A356A"/>
<path d="M192.41 204.26H96.88C96.0479 204.251 95.25 203.928 94.647 203.355C94.0439 202.781 93.6805 202.001 93.63 201.17L92.91 187.17C92.8852 186.772 92.9428 186.373 93.0793 185.998C93.2158 185.623 93.4282 185.28 93.7033 184.991C93.9783 184.702 94.31 184.473 94.6776 184.318C95.0453 184.163 95.441 184.085 95.84 184.09H191.37C192.2 184.098 192.997 184.421 193.6 184.992C194.203 185.563 194.567 186.341 194.62 187.17L195.34 201.17C195.366 201.569 195.31 201.969 195.174 202.345C195.038 202.722 194.826 203.066 194.551 203.356C194.275 203.646 193.943 203.876 193.575 204.032C193.206 204.187 192.81 204.265 192.41 204.26Z" fill="white"/>
<path opacity="0.3" d="M163.16 176.36H123.26C122.425 176.354 121.623 176.03 121.017 175.454C120.412 174.879 120.048 174.094 120 173.26L119.85 170.26C119.824 169.861 119.88 169.461 120.016 169.085C120.152 168.709 120.364 168.365 120.639 168.075C120.915 167.784 121.247 167.554 121.615 167.399C121.984 167.243 122.38 167.165 122.78 167.17H162.67C163.502 167.179 164.3 167.502 164.903 168.076C165.506 168.649 165.869 169.43 165.92 170.26L166.08 173.26C166.105 173.658 166.047 174.058 165.912 174.433C165.776 174.808 165.565 175.152 165.291 175.442C165.017 175.733 164.687 175.964 164.321 176.122C163.954 176.28 163.559 176.361 163.16 176.36Z" fill="black"/>
<path opacity="0.3" d="M178 271.569H118.23C116.815 271.552 115.458 271 114.433 270.025C113.407 269.049 112.788 267.722 112.7 266.309L112.35 259.409C112.315 258.731 112.418 258.053 112.653 257.416C112.889 256.779 113.251 256.197 113.719 255.705C114.187 255.212 114.75 254.821 115.375 254.553C115.999 254.286 116.671 254.148 117.35 254.149H177.1C178.515 254.167 179.872 254.719 180.897 255.694C181.923 256.67 182.542 257.997 182.63 259.409L182.98 266.309C183.015 266.986 182.913 267.662 182.678 268.298C182.444 268.934 182.083 269.515 181.618 270.007C181.152 270.499 180.591 270.891 179.969 271.16C179.347 271.428 178.677 271.568 178 271.569Z" fill="black"/>
<path d="M194.16 238.12H98.62C97.7886 238.109 96.992 237.784 96.3895 237.211C95.7869 236.639 95.4228 235.859 95.37 235.03L94.65 221.03C94.6253 220.631 94.6829 220.231 94.8193 219.856C94.9557 219.48 95.1679 219.137 95.4428 218.847C95.7177 218.557 96.0493 218.327 96.4169 218.171C96.7846 218.015 97.1805 217.936 97.58 217.94H193.11C193.942 217.948 194.74 218.272 195.343 218.845C195.946 219.418 196.309 220.199 196.36 221.03L197.09 235.03C197.113 235.428 197.055 235.827 196.918 236.202C196.781 236.576 196.568 236.919 196.294 237.209C196.019 237.498 195.688 237.729 195.321 237.885C194.954 238.042 194.559 238.122 194.16 238.12Z" fill="white"/>
<path d="M109 194.17C109.028 194.612 108.964 195.055 108.812 195.471C108.661 195.887 108.425 196.268 108.12 196.589C107.815 196.91 107.447 197.164 107.04 197.336C106.632 197.509 106.193 197.595 105.75 197.59C104.83 197.579 103.949 197.22 103.283 196.586C102.617 195.952 102.216 195.088 102.16 194.17C102.131 193.729 102.194 193.286 102.344 192.87C102.494 192.454 102.729 192.073 103.033 191.752C103.337 191.431 103.704 191.176 104.112 191.004C104.519 190.832 104.958 190.745 105.4 190.75C106.321 190.761 107.204 191.119 107.871 191.754C108.539 192.388 108.942 193.251 109 194.17Z" fill="#263238"/>
<path d="M119.53 194.17C119.559 194.612 119.496 195.054 119.346 195.47C119.196 195.886 118.961 196.267 118.657 196.588C118.353 196.909 117.986 197.164 117.578 197.336C117.171 197.509 116.732 197.595 116.29 197.59C115.369 197.582 114.487 197.224 113.82 196.589C113.154 195.954 112.753 195.089 112.7 194.17C112.671 193.729 112.734 193.286 112.884 192.87C113.034 192.454 113.269 192.073 113.573 191.752C113.877 191.431 114.244 191.176 114.652 191.004C115.059 190.832 115.498 190.745 115.94 190.75C116.86 190.759 117.743 191.117 118.41 191.752C119.076 192.387 119.477 193.251 119.53 194.17Z" fill="#263238"/>
<path d="M130 194.17C130.029 194.612 129.966 195.054 129.816 195.47C129.666 195.886 129.431 196.267 129.127 196.588C128.823 196.909 128.456 197.164 128.048 197.336C127.641 197.509 127.202 197.595 126.76 197.59C125.839 197.579 124.956 197.221 124.289 196.587C123.621 195.952 123.218 195.089 123.16 194.17C123.132 193.728 123.196 193.285 123.348 192.869C123.499 192.453 123.735 192.073 124.04 191.752C124.345 191.431 124.713 191.176 125.12 191.004C125.528 190.832 125.967 190.745 126.41 190.75C127.33 190.761 128.211 191.12 128.877 191.754C129.543 192.389 129.944 193.252 130 194.17Z" fill="#263238"/>
<path d="M140.55 194.17C140.577 194.611 140.514 195.053 140.363 195.469C140.212 195.884 139.978 196.264 139.674 196.585C139.37 196.906 139.003 197.16 138.596 197.333C138.19 197.506 137.752 197.594 137.31 197.59C136.389 197.579 135.506 197.221 134.839 196.587C134.171 195.952 133.768 195.089 133.71 194.17C133.683 193.729 133.746 193.287 133.897 192.872C134.048 192.456 134.282 192.076 134.586 191.755C134.89 191.435 135.257 191.18 135.663 191.007C136.07 190.834 136.508 190.747 136.95 190.75C137.871 190.761 138.754 191.119 139.421 191.754C140.089 192.388 140.492 193.251 140.55 194.17Z" fill="#263238"/>
<path d="M110.77 228.01C110.799 228.451 110.736 228.894 110.586 229.31C110.436 229.726 110.201 230.107 109.897 230.428C109.593 230.749 109.226 231.004 108.818 231.176C108.411 231.349 107.972 231.435 107.53 231.43C106.609 231.419 105.726 231.061 105.059 230.427C104.391 229.792 103.988 228.929 103.93 228.01C103.902 227.568 103.966 227.125 104.118 226.709C104.269 226.293 104.505 225.913 104.81 225.592C105.115 225.271 105.483 225.016 105.89 224.844C106.298 224.671 106.737 224.585 107.18 224.59C108.1 224.601 108.981 224.96 109.647 225.594C110.313 226.229 110.714 227.092 110.77 228.01Z" fill="#263238"/>
<path d="M121.28 228.01C121.307 228.451 121.244 228.893 121.093 229.309C120.942 229.724 120.708 230.104 120.404 230.425C120.1 230.746 119.733 231 119.326 231.173C118.92 231.346 118.482 231.434 118.04 231.43C117.119 231.419 116.236 231.061 115.569 230.427C114.901 229.792 114.498 228.929 114.44 228.01C114.411 227.569 114.474 227.126 114.624 226.71C114.774 226.294 115.009 225.913 115.313 225.592C115.617 225.271 115.984 225.016 116.392 224.844C116.799 224.671 117.238 224.585 117.68 224.59C118.601 224.601 119.484 224.959 120.151 225.594C120.819 226.228 121.222 227.091 121.28 228.01Z" fill="#263238"/>
<path d="M131.79 228.01C131.818 228.452 131.754 228.895 131.602 229.311C131.451 229.727 131.215 230.107 130.91 230.428C130.605 230.749 130.237 231.004 129.83 231.176C129.422 231.349 128.983 231.435 128.54 231.43C127.619 231.421 126.737 231.063 126.07 230.428C125.404 229.794 125.003 228.929 124.95 228.01C124.921 227.569 124.984 227.126 125.134 226.71C125.284 226.294 125.519 225.913 125.823 225.592C126.127 225.271 126.494 225.016 126.902 224.844C127.309 224.671 127.748 224.585 128.19 224.59C129.111 224.601 129.994 224.959 130.661 225.594C131.329 226.228 131.732 227.091 131.79 228.01Z" fill="#263238"/>
<path d="M142.29 228.01C142.319 228.451 142.256 228.894 142.106 229.31C141.956 229.726 141.721 230.107 141.417 230.428C141.113 230.749 140.746 231.004 140.338 231.176C139.931 231.349 139.492 231.435 139.05 231.43C138.129 231.419 137.246 231.061 136.579 230.427C135.911 229.792 135.508 228.929 135.45 228.01C135.422 227.568 135.486 227.125 135.638 226.709C135.789 226.293 136.025 225.913 136.33 225.592C136.635 225.271 137.003 225.016 137.41 224.844C137.818 224.671 138.257 224.585 138.7 224.59C139.62 224.599 140.503 224.957 141.17 225.592C141.836 226.227 142.237 227.091 142.29 228.01Z" fill="#263238"/>
<path d="M152.8 228.01C152.829 228.451 152.766 228.894 152.616 229.31C152.466 229.726 152.231 230.107 151.927 230.428C151.623 230.749 151.256 231.004 150.848 231.176C150.441 231.349 150.002 231.435 149.56 231.43C148.639 231.419 147.756 231.061 147.089 230.426C146.421 229.792 146.018 228.929 145.96 228.01C145.933 227.569 145.996 227.127 146.147 226.711C146.298 226.296 146.532 225.916 146.836 225.595C147.14 225.275 147.507 225.02 147.913 224.847C148.32 224.674 148.758 224.586 149.2 224.59C150.121 224.601 151.004 224.959 151.671 225.593C152.339 226.228 152.742 227.091 152.8 228.01Z" fill="#263238"/>
<path d="M163.31 228.01C163.338 228.452 163.274 228.895 163.122 229.311C162.971 229.727 162.735 230.107 162.43 230.428C162.125 230.749 161.757 231.004 161.35 231.176C160.942 231.349 160.503 231.435 160.06 231.43C159.14 231.419 158.259 231.06 157.593 230.426C156.927 229.791 156.526 228.928 156.47 228.01C156.441 227.569 156.504 227.126 156.654 226.71C156.804 226.294 157.039 225.913 157.343 225.592C157.647 225.271 158.014 225.016 158.422 224.844C158.829 224.671 159.268 224.585 159.71 224.59C160.631 224.601 161.514 224.959 162.181 225.594C162.849 226.228 163.252 227.091 163.31 228.01Z" fill="#263238"/>
<path d="M277 111.88C277.25 112.26 277.38 112.46 277.54 112.73L277.99 113.47C278.28 113.97 278.54 114.47 278.79 114.96C279.29 115.96 279.79 116.96 280.19 117.96C281.028 119.946 281.75 121.979 282.35 124.05C283.561 128.14 284.358 132.341 284.73 136.59L284.8 137.38C284.808 137.54 284.808 137.7 284.8 137.86V138.39C284.817 139.085 284.777 139.781 284.68 140.47C284.488 141.747 284.153 142.998 283.68 144.2C282.801 146.346 281.638 148.364 280.22 150.2C277.576 153.586 274.437 156.556 270.91 159.01L268.15 155.78C270.661 152.943 272.886 149.865 274.79 146.59C275.647 145.104 276.319 143.519 276.79 141.87C276.981 141.171 277.092 140.453 277.12 139.73C277.151 139.421 277.151 139.109 277.12 138.8V138.59C277.13 138.497 277.13 138.403 277.12 138.31L277 137.61C276.357 133.883 275.448 130.207 274.28 126.61C273.7 124.82 272.99 123.09 272.28 121.4C271.93 120.55 271.53 119.72 271.13 118.92L270.51 117.74L270.2 117.19L269.94 116.75L277 111.88Z" fill="#803E3C"/>
<path d="M267.7 159.03L271.32 166.68L274.19 160.21C274.19 160.21 271.64 154.61 268.19 155.13L267.7 159.03Z" fill="#7F3E3B"/>
<path d="M273.91 167.06L276.79 162.34L274.19 160.21L271.32 166.68L273.91 167.06Z" fill="#7F3E3B"/>
<path d="M257.63 343.48C258.379 343.461 259.123 343.361 259.85 343.18C259.887 343.169 259.92 343.148 259.946 343.12C259.973 343.092 259.991 343.058 260 343.02C260.006 342.982 260.001 342.942 259.985 342.907C259.969 342.871 259.943 342.841 259.91 342.82C259.62 342.63 257.08 340.99 256.1 341.43C255.991 341.481 255.898 341.559 255.83 341.658C255.761 341.756 255.72 341.871 255.71 341.99C255.68 342.171 255.694 342.357 255.751 342.531C255.809 342.705 255.908 342.863 256.04 342.99C256.493 343.34 257.058 343.514 257.63 343.48ZM259.28 342.89C257.83 343.19 256.73 343.14 256.28 342.75C256.188 342.659 256.121 342.546 256.084 342.422C256.047 342.298 256.043 342.167 256.07 342.04C256.07 341.87 256.17 341.82 256.24 341.79C256.78 341.55 258.25 342.26 259.28 342.89Z" fill="#2A356A"/>
<path d="M259.8 343.18H259.9C259.93 343.161 259.955 343.134 259.972 343.103C259.99 343.071 259.999 343.036 260 343C260 342.9 260 340.49 259.08 339.68C258.967 339.579 258.834 339.503 258.689 339.458C258.544 339.413 258.39 339.4 258.24 339.42C258.082 339.422 257.93 339.477 257.808 339.577C257.686 339.677 257.602 339.816 257.57 339.97C257.38 340.92 258.9 342.72 259.7 343.18H259.8ZM258.37 339.79C258.451 339.788 258.532 339.802 258.607 339.831C258.683 339.86 258.752 339.904 258.81 339.96C259.338 340.738 259.61 341.661 259.59 342.6C258.79 341.96 257.84 340.6 257.96 340.03C257.96 339.94 258.03 339.82 258.28 339.79H258.37Z" fill="#2A356A"/>
<path d="M248.19 339.4C248.213 339.371 248.229 339.336 248.234 339.299C248.239 339.261 248.235 339.223 248.22 339.189C248.206 339.154 248.183 339.124 248.153 339.101C248.123 339.079 248.087 339.064 248.05 339.06C247.64 339.06 244.05 338.89 243.23 339.77V339.83C243.162 339.917 243.118 340.019 243.102 340.128C243.087 340.237 243.1 340.348 243.14 340.45C243.193 340.622 243.288 340.778 243.415 340.905C243.542 341.032 243.698 341.127 243.87 341.18C245.03 341.54 247.08 340.23 248.2 339.42L248.19 339.4ZM243.53 340.03C243.98 339.55 245.96 339.42 247.44 339.44C245.89 340.5 244.6 341 243.95 340.8C243.837 340.766 243.734 340.704 243.65 340.62C243.566 340.536 243.504 340.433 243.47 340.32C243.45 340.281 243.439 340.239 243.439 340.195C243.439 340.152 243.45 340.109 243.47 340.07L243.53 340.03Z" fill="#2A356A"/>
<path d="M248.19 339.4C248.205 339.369 248.213 339.334 248.213 339.3C248.213 339.265 248.205 339.231 248.19 339.2C248.14 339.12 247.02 337.2 245.7 336.8C245.511 336.744 245.312 336.728 245.116 336.752C244.92 336.776 244.73 336.84 244.56 336.94C244.08 337.22 244.05 337.55 244.11 337.76C244.37 338.69 246.92 339.51 248.02 339.5C248.055 339.499 248.088 339.49 248.118 339.472C248.148 339.455 248.173 339.43 248.19 339.4ZM244.6 337.4C244.656 337.344 244.72 337.297 244.79 337.26C244.913 337.181 245.053 337.13 245.198 337.111C245.343 337.092 245.491 337.105 245.63 337.15C246.5 337.38 247.31 338.5 247.68 339.05C246.49 338.92 244.68 338.19 244.53 337.63C244.517 337.587 244.517 337.542 244.53 337.499C244.542 337.457 244.566 337.419 244.6 337.39V337.4Z" fill="#2A356A"/>
<path d="M259.2 82.5898C258.2 87.5898 256.04 98.3998 259.51 101.72C259.51 101.72 258.15 106.72 248.92 106.72C238.76 106.72 244.07 101.72 244.07 101.72C249.61 100.4 249.47 96.2798 248.5 92.4198L259.2 82.5898Z" fill="#7F3E3B"/>
<path d="M242.28 70.8694C242.336 70.8785 242.394 70.8785 242.45 70.8694C242.498 70.846 242.54 70.8134 242.575 70.7735C242.61 70.7336 242.636 70.6872 242.653 70.637C242.67 70.5867 242.676 70.5337 242.672 70.4809C242.668 70.4281 242.654 70.3766 242.63 70.3294C242.361 69.7589 241.959 69.2614 241.458 68.8786C240.957 68.4957 240.371 68.2388 239.75 68.1294C239.646 68.1206 239.542 68.152 239.461 68.2171C239.379 68.2821 239.325 68.3759 239.31 68.4794C239.299 68.584 239.329 68.6889 239.395 68.7712C239.46 68.8536 239.556 68.9068 239.66 68.9194C240.15 69.0135 240.611 69.2232 241.004 69.531C241.397 69.8388 241.711 70.2359 241.92 70.6894C241.959 70.7485 242.013 70.7963 242.076 70.8279C242.139 70.8596 242.209 70.8739 242.28 70.8694Z" fill="#263238"/>
<path d="M239.25 75.2598C238.463 76.7195 237.48 78.0652 236.33 79.2598C236.641 79.5447 237.011 79.7585 237.413 79.8863C237.816 80.0141 238.241 80.0528 238.66 79.9998L239.25 75.2598Z" fill="#630F0F"/>
<path d="M240 74.1298C239.92 74.7998 239.49 75.2999 239.06 75.2499C238.63 75.1999 238.33 74.6098 238.41 73.9398C238.49 73.2698 238.92 72.7699 239.41 72.8199C239.9 72.8699 240.07 73.4598 240 74.1298Z" fill="#263238"/>
<path d="M239.54 72.8798L238 72.2598C238 72.2598 238.65 73.5798 239.54 72.8798Z" fill="#263238"/>
<path d="M257.02 337.5L248.86 339.4L243.9 320.64L252.06 318.74L257.02 337.5Z" fill="#7F3E3B"/>
<path d="M269.54 342.98H261.17L261.82 323.59H270.2L269.54 342.98Z" fill="#7F3E3B"/>
<path d="M260.5 342.01H269.91C270.073 342.008 270.231 342.066 270.355 342.173C270.478 342.28 270.558 342.428 270.58 342.59L271.65 350.03C271.671 350.218 271.652 350.408 271.595 350.589C271.537 350.769 271.441 350.935 271.315 351.076C271.188 351.217 271.033 351.329 270.86 351.406C270.687 351.482 270.499 351.521 270.31 351.52C267.03 351.47 265.45 351.27 261.31 351.27C258.76 351.27 255.04 351.54 251.53 351.54C248.02 351.54 247.82 348.06 249.29 347.75C255.85 346.33 256.89 344.39 259.1 342.53C259.49 342.196 259.987 342.012 260.5 342.01Z" fill="#263238"/>
<path d="M248.14 338.15L256.69 334.22C256.835 334.15 257.001 334.136 257.155 334.181C257.31 334.225 257.443 334.324 257.53 334.46L261.62 340.78C261.716 340.942 261.776 341.123 261.797 341.31C261.819 341.498 261.8 341.688 261.744 341.868C261.687 342.048 261.594 342.214 261.469 342.355C261.344 342.497 261.191 342.611 261.02 342.69C258.02 344.01 256.5 344.5 252.74 346.23C250.43 347.29 245.74 349.73 242.56 351.23C239.38 352.73 237.74 349.62 238.94 348.72C244.31 344.72 245.85 341.85 247.08 339.24C247.288 338.759 247.665 338.371 248.14 338.15Z" fill="#263238"/>
<path opacity="0.2" d="M243.9 320.64L246.56 330.7L254.62 328.41L252.07 318.74L243.9 320.64Z" fill="black"/>
<path opacity="0.2" d="M270.2 323.59H261.82L261.49 333.59H269.87L270.2 323.59Z" fill="black"/>
<path d="M274 103.62C277.48 104.39 281.2 116.9 281.2 116.9L271.36 127.37C271.36 127.37 263.19 115.61 264.86 111.29C266.55 106.78 269.85 102.72 274 103.62Z" fill="#263238"/>
<path opacity="0.4" d="M268.44 111.59C266.68 109.98 265.49 110.46 264.68 111.74C263.88 115.46 268.62 123.25 270.53 126.2C271.41 122.68 272.42 115.26 268.44 111.59Z" fill="black"/>
<path d="M229.91 103.87C229.91 103.87 225.91 105.27 233.91 154.42H267.91C267.34 140.58 267.32 132.04 273.91 103.62C269.146 102.637 264.316 102.002 259.46 101.72C254.32 101.35 249.16 101.35 244.02 101.72C237.43 102.33 229.91 103.87 229.91 103.87Z" fill="#263238"/>
<path opacity="0.4" d="M229.6 122.73C229.82 125.12 230.11 127.81 230.49 130.85C233.28 128.34 235.56 121.2 234.72 117.04C232.727 118.658 230.999 120.578 229.6 122.73Z" fill="black"/>
<path d="M233.24 115.26C231.405 119.878 229.339 124.4 227.05 128.81C224.787 133.379 222.109 137.731 219.05 141.81L218.41 142.6L218.09 142.99C217.98 143.12 217.89 143.24 217.72 143.42C217.118 144.077 216.448 144.667 215.72 145.18C214.434 146.071 213.026 146.771 211.54 147.26C208.949 148.088 206.258 148.565 203.54 148.68C198.45 148.883 193.354 148.429 188.38 147.33L188.93 143.13C191.23 143.13 193.64 143.13 195.93 142.94C198.23 142.827 200.521 142.573 202.79 142.18C204.897 141.851 206.958 141.274 208.93 140.46C209.726 140.12 210.47 139.669 211.14 139.12C211.396 138.906 211.627 138.665 211.83 138.4C211.83 138.4 211.95 138.24 212.03 138.13L212.26 137.8L212.73 137.14C215.239 133.264 217.475 129.218 219.42 125.03C221.42 120.78 223.42 116.37 225.25 112.03L233.24 115.26Z" fill="#803E3C"/>
<path d="M229.91 103.87C225.74 104.87 220.62 116.31 220.62 116.31L229.26 129.01C229.26 129.01 240.77 114.52 239.4 110.1C238 105.49 235 102.63 229.91 103.87Z" fill="#263238"/>
<path d="M191.33 143.769L184.12 140.439L183.4 147.609C183.4 147.609 189.4 149.379 192.4 147.609L191.33 143.769Z" fill="#7F3E3B"/>
<path d="M179.81 139.72L179.12 145.18L183.4 147.61L184.12 140.44L179.81 139.72Z" fill="#7F3E3B"/>
<path d="M262.82 74.6198C261.29 82.7898 260.82 86.2898 256.14 89.9998C249.14 95.5798 239.39 91.9198 238.45 83.4598C237.59 75.8398 240.23 63.7598 248.7 61.4598C250.566 60.945 252.532 60.9169 254.412 61.3779C256.292 61.8389 258.022 62.7738 259.438 64.0934C260.854 65.4131 261.908 67.0734 262.5 68.9161C263.092 70.7588 263.202 72.7225 262.82 74.6198Z" fill="#7F3E3B"/>
<path d="M244.87 76.3399C244.4 80.5099 244.22 91.3399 253.38 91.6799C264.59 92.0899 267.95 82.5099 266.95 78.6799C272.79 73.9299 273.63 65.7599 267.07 59.5099C260.51 53.2599 246.07 56.7499 242.07 62.8399C237 70.3899 244.87 76.3399 244.87 76.3399Z" fill="#263238"/>
<path d="M256.1 61.9398C255.56 57.5398 255.98 54.5098 260.1 54.5098C264.22 54.5098 269.84 55.9998 271.9 60.2098C273.96 64.4198 274.13 71.0098 268.38 70.3398C262.63 69.6698 256.75 67.1998 256.1 61.9398Z" fill="#2A356A"/>
<path d="M262.48 60.8798C261.48 55.6398 266.17 40.8798 277.56 39.8798C282.84 39.4298 285.28 45.1098 282.56 46.0498C287.56 45.9898 290.76 52.5998 286.1 53.5898C289.78 55.9498 288.87 60.7898 283.62 63.1698C279.71 64.9698 263.83 68.1398 262.48 60.8798Z" fill="#263238"/>
<path d="M274.65 66.5098C270.98 66.5098 267.15 65.9698 264.77 64.3798C264.105 63.9786 263.544 63.4247 263.136 62.7639C262.727 62.103 262.482 61.3543 262.42 60.5798C262.417 60.514 262.439 60.4496 262.482 60.3995C262.524 60.3494 262.585 60.3173 262.65 60.3098C262.683 60.3056 262.717 60.3084 262.749 60.3179C262.781 60.3274 262.81 60.3435 262.836 60.3652C262.861 60.3868 262.882 60.4135 262.896 60.4436C262.911 60.4737 262.919 60.5064 262.92 60.5398C262.98 61.2387 263.205 61.9136 263.575 62.5096C263.945 63.1056 264.45 63.6059 265.05 63.9698C269.58 66.9698 280.05 65.9698 283.31 64.9698C286.13 64.0498 288.04 62.2598 288.42 60.1998C288.538 59.4438 288.445 58.6699 288.15 57.9638C287.856 57.2577 287.371 56.6471 286.75 56.1998C286.726 56.1773 286.707 56.1502 286.694 56.1201C286.681 56.09 286.674 56.0576 286.674 56.0248C286.674 55.992 286.681 55.9595 286.694 55.9294C286.707 55.8993 286.726 55.8722 286.75 55.8498C286.797 55.804 286.86 55.7783 286.925 55.7783C286.99 55.7783 287.053 55.804 287.1 55.8498C287.798 56.3591 288.341 57.0525 288.667 57.8524C288.994 58.6524 289.092 59.5274 288.95 60.3798C288.54 62.6298 286.51 64.5498 283.51 65.5298C280.615 66.2595 277.634 66.5892 274.65 66.5098Z" fill="#263238"/>
<path d="M242.32 75.2594C241.389 76.5657 241.005 78.1841 241.25 79.7694C241.58 81.8694 243.62 82.0094 245.1 80.6694C246.58 79.3294 247.87 76.9094 246.78 75.1694C246.538 74.7936 246.203 74.486 245.809 74.2759C245.414 74.0658 244.972 73.9603 244.525 73.9693C244.078 73.9783 243.641 74.1016 243.255 74.3274C242.869 74.5533 242.547 74.8741 242.32 75.2594Z" fill="#7F3E3B"/>
<path d="M242.89 154.42C242.89 154.42 247.75 211.91 252.8 244.31C256.87 270.48 260.09 331.65 260.09 331.65H271.51C271.51 331.65 275.57 272.31 273.51 246.43C268.28 180.93 279.95 175.59 267.94 154.43L242.89 154.42Z" fill="#2A356A"/>
<path opacity="0.4" d="M257.27 176.149C252.744 180.9 249.092 186.411 246.48 192.429C247.81 205.349 249.39 219.689 251.07 232.249C257.964 214.403 260.1 195.071 257.27 176.149Z" fill="black"/>
<path d="M234.9 154.06C234.9 154.06 224.35 216.85 222.69 245.15C226.83 271.32 243.77 326.64 243.77 326.64L254.16 322.87C254.16 322.87 248.41 262.55 242.16 246.04C256.23 198.67 266.57 186.69 263.56 154.42C256.35 154.42 234.9 154.06 234.9 154.06Z" fill="#2A356A"/>
<path d="M242.38 329.4L256.42 325.59L255.62 319.99L240.59 324.06L242.38 329.4Z" fill="#263238"/>
<path d="M258.52 331.88H273.07L273.83 326.78L258.44 326.26L258.52 331.88Z" fill="#263238"/>
<path d="M268.44 152.42L269.97 155.47C270.09 155.71 269.81 155.95 269.42 155.95H233.74C233.44 155.95 233.18 155.8 233.16 155.6L232.85 152.6C232.85 152.39 233.1 152.21 233.43 152.21H267.88C267.983 152.196 268.089 152.208 268.186 152.244C268.284 152.281 268.371 152.341 268.44 152.42Z" fill="#2A356A"/>
<path opacity="0.5" d="M268.44 152.42L269.97 155.47C270.09 155.71 269.81 155.95 269.42 155.95H233.74C233.44 155.95 233.18 155.8 233.16 155.6L232.85 152.6C232.85 152.39 233.1 152.21 233.43 152.21H267.88C267.983 152.196 268.089 152.208 268.186 152.244C268.284 152.281 268.371 152.341 268.44 152.42Z" fill="black"/>
<path d="M263.81 156.26H264.73C264.92 156.26 265.06 156.16 265.05 156.05L264.61 152.05C264.61 151.93 264.44 151.84 264.26 151.84H263.33C263.15 151.84 263.01 151.93 263.02 152.05L263.45 156.05C263.47 156.18 263.63 156.26 263.81 156.26Z" fill="#2A356A"/>
<path d="M251.43 127.14C251.32 127.138 251.213 127.101 251.125 127.035C251.037 126.968 250.972 126.876 250.94 126.77C247.68 114.71 240.94 104.77 237.67 103.27C237.416 103.114 237.111 103.064 236.82 103.13C236.76 103.162 236.693 103.181 236.625 103.186C236.557 103.191 236.489 103.183 236.424 103.16C236.36 103.138 236.3 103.103 236.25 103.057C236.2 103.011 236.159 102.955 236.131 102.893C236.103 102.831 236.088 102.763 236.087 102.695C236.086 102.627 236.099 102.559 236.125 102.496C236.151 102.433 236.19 102.376 236.239 102.329C236.288 102.281 236.346 102.244 236.41 102.22C236.683 102.12 236.975 102.08 237.265 102.104C237.556 102.128 237.837 102.216 238.09 102.36C241.55 104 248.39 113.8 251.81 126.13C254.26 126.13 258.04 125.8 258.96 125.72C260.1 124.36 268.48 113.88 265.35 102.41C265.332 102.347 265.327 102.281 265.335 102.216C265.342 102.151 265.363 102.088 265.396 102.031C265.429 101.974 265.472 101.924 265.525 101.885C265.577 101.845 265.636 101.816 265.7 101.8C265.827 101.766 265.963 101.784 266.077 101.85C266.191 101.915 266.275 102.023 266.31 102.15C269.8 114.91 259.68 126.42 259.57 126.53C259.531 126.578 259.482 126.619 259.427 126.648C259.372 126.677 259.312 126.695 259.25 126.7C259.2 126.7 254.21 127.14 251.43 127.14Z" fill="#2A356A"/>
<path d="M268 134.2C262.55 123.99 260.32 123.27 259.35 119.99C260.085 118.156 261.134 116.464 262.45 114.99C261.79 114.8 260.37 114.52 259.45 114.35C259.55 113.9 259.66 113.46 259.76 113.03C258.759 112.918 257.746 112.965 256.76 113.17V112.17C255.49 111.894 254.185 111.81 252.89 111.92C253.003 112.394 253.113 112.874 253.22 113.36C252.22 113.55 250.7 113.86 249.97 114.07C251.389 115.677 252.431 117.58 253.02 119.64C250.08 124.69 238.66 157.15 257.24 159.64C275.82 162.13 273.44 144.42 268 134.2Z" fill="#2A356A"/>
<path opacity="0.4" d="M268 134.2C262.55 123.99 260.32 123.27 259.35 119.99C260.085 118.156 261.134 116.464 262.45 114.99C261.79 114.8 260.37 114.52 259.45 114.35C259.55 113.9 259.66 113.46 259.76 113.03C258.759 112.918 257.746 112.965 256.76 113.17V112.17C255.49 111.894 254.185 111.81 252.89 111.92C253.003 112.394 253.113 112.874 253.22 113.36C252.22 113.55 250.7 113.86 249.97 114.07C251.389 115.677 252.431 117.58 253.02 119.64C250.08 124.69 238.66 157.15 257.24 159.64C275.82 162.13 273.44 144.42 268 134.2Z" fill="white"/>
<path d="M252.26 118.67C252.144 119.185 252.094 119.712 252.11 120.24C252.11 120.61 253.11 120.86 254.22 120.97C255.33 121.08 259.99 121.26 259.84 120.74C259.69 120.22 260.07 119.51 260.09 119.07C260.11 118.63 258.24 118.61 256.67 118.67C255.1 118.73 252.57 118.11 252.26 118.67Z" fill="#2A356A"/>
<path d="M241.45 156.26H242.37C242.55 156.26 242.69 156.16 242.68 156.05L242.25 152.05C242.25 151.93 242.08 151.84 241.89 151.84H241C240.82 151.84 240.68 151.93 240.69 152.05L241.12 156.05C241.1 156.18 241.26 156.26 241.45 156.26Z" fill="#2A356A"/>
</svg>
