<svg width="494" height="500" viewBox="0 0 494 500" fill="none" xmlns="http://www.w3.org/2000/svg">
<path d="M494 382.4H-6V382.65H494V382.4Z" fill="#EBEBEB"/>
<path d="M443.9 398.49H422.22V398.74H443.9V398.49Z" fill="#EBEBEB"/>
<path d="M338.67 393.31H304.56V393.56H338.67V393.31Z" fill="#EBEBEB"/>
<path d="M435.12 389.21H390.59V389.46H435.12V389.21Z" fill="#EBEBEB"/>
<path d="M167.02 394.25H155.88V394.5H167.02V394.25Z" fill="#EBEBEB"/>
<path d="M146.97 394.25H108.58V394.5H146.97V394.25Z" fill="#EBEBEB"/>
<path d="M88.01 390.03H60.31V390.28H88.01V390.03Z" fill="#EBEBEB"/>
<path d="M231 337.8H37.91C36.3973 337.797 34.9475 337.195 33.8789 336.124C32.8102 335.053 32.21 333.603 32.21 332.09V60.66C32.2232 59.156 32.8292 57.718 33.8964 56.6582C34.9637 55.5985 36.406 55.0026 37.91 55H231C232.514 55 233.967 55.6016 235.038 56.6724C236.108 57.7433 236.71 59.1956 236.71 60.71V332.09C236.71 333.604 236.108 335.057 235.038 336.128C233.967 337.198 232.514 337.8 231 337.8ZM37.91 55.2C36.4636 55.2026 35.0774 55.7791 34.0557 56.8027C33.0339 57.8264 32.46 59.2136 32.46 60.66V332.09C32.46 333.536 33.0339 334.924 34.0557 335.947C35.0774 336.971 36.4636 337.547 37.91 337.55H231C232.447 337.547 233.835 336.971 234.858 335.948C235.881 334.924 236.457 333.537 236.46 332.09V60.66C236.457 59.2127 235.881 57.8255 234.858 56.8021C233.835 55.7787 232.447 55.2026 231 55.2H37.91Z" fill="#EBEBEB"/>
<path d="M447.31 337.8H254.21C252.696 337.797 251.246 337.195 250.175 336.125C249.105 335.054 248.503 333.604 248.5 332.09V60.66C248.516 59.1551 249.124 57.7171 250.193 56.6576C251.262 55.5981 252.705 55.0025 254.21 55H447.31C448.812 55.0052 450.252 55.6022 451.317 56.6617C452.382 57.7212 452.987 59.1578 453 60.66V332.09C453 333.601 452.401 335.05 451.335 336.121C450.268 337.191 448.821 337.795 447.31 337.8ZM254.21 55.2C252.763 55.2026 251.375 55.7787 250.352 56.8021C249.329 57.8255 248.753 59.2127 248.75 60.66V332.09C248.753 333.537 249.329 334.924 250.352 335.948C251.375 336.971 252.763 337.547 254.21 337.55H447.31C448.757 337.547 450.145 336.971 451.168 335.948C452.191 334.924 452.767 333.537 452.77 332.09V60.66C452.767 59.2127 452.191 57.8255 451.168 56.8021C450.145 55.7787 448.757 55.2026 447.31 55.2H254.21Z" fill="#EBEBEB"/>
<path d="M109 174.63C114.546 174.63 119.864 172.427 123.786 168.505C127.707 164.584 129.91 159.265 129.91 153.72C129.91 148.174 127.707 142.855 123.786 138.934C119.864 135.013 114.546 132.81 109 132.81H106.43V174.63H109Z" fill="#E0E0E0"/>
<path d="M106.41 174.63C117.958 174.63 127.32 165.268 127.32 153.72C127.32 142.171 117.958 132.81 106.41 132.81C94.8617 132.81 85.5 142.171 85.5 153.72C85.5 165.268 94.8617 174.63 106.41 174.63Z" fill="#F5F5F5"/>
<path d="M105.45 156.34C98.024 156.34 90.902 153.39 85.651 148.139C80.4 142.888 77.45 135.766 77.45 128.34V111.63C77.45 110.932 77.7271 110.264 78.2203 109.77C78.7135 109.277 79.3825 109 80.08 109C80.7775 109 81.4465 109.277 81.9397 109.77C82.4329 110.264 82.71 110.932 82.71 111.63V128.35C82.7153 134.378 85.1115 140.157 89.3727 144.42C93.634 148.683 99.4124 151.082 105.44 151.09C105.798 151.068 106.157 151.119 106.495 151.241C106.833 151.363 107.142 151.553 107.404 151.799C107.665 152.045 107.874 152.342 108.016 152.671C108.159 153.001 108.232 153.356 108.232 153.715C108.232 154.074 108.159 154.429 108.016 154.759C107.874 155.088 107.665 155.385 107.404 155.631C107.142 155.877 106.833 156.067 106.495 156.189C106.157 156.311 105.798 156.362 105.44 156.34H105.45Z" fill="#E0E0E0"/>
<path d="M56.83 126.35H103.35C104.094 126.35 104.828 126.179 105.496 125.851C106.163 125.523 106.747 125.045 107.201 124.456C107.655 123.867 107.967 123.181 108.115 122.452C108.262 121.723 108.24 120.969 108.05 120.25L104 105C103.727 103.964 103.119 103.047 102.27 102.393C101.422 101.738 100.381 101.382 99.31 101.38H60.87C59.7973 101.381 58.7551 101.737 57.9052 102.392C57.0553 103.046 56.4453 103.963 56.17 105L52.17 120.23C51.9753 120.947 51.9482 121.7 52.0907 122.43C52.2333 123.159 52.5417 123.847 52.9921 124.438C53.4425 125.03 54.0228 125.51 54.6883 125.841C55.3538 126.173 56.0865 126.347 56.83 126.35Z" fill="#F5F5F5"/>
<path d="M404.28 174.63C409.826 174.63 415.144 172.427 419.066 168.505C422.987 164.584 425.19 159.265 425.19 153.72C425.19 148.174 422.987 142.855 419.066 138.934C415.144 135.013 409.826 132.81 404.28 132.81H401.71V174.63H404.28Z" fill="#E0E0E0"/>
<path d="M401.71 174.63C413.258 174.63 422.62 165.268 422.62 153.72C422.62 142.171 413.258 132.81 401.71 132.81C390.162 132.81 380.8 142.171 380.8 153.72C380.8 165.268 390.162 174.63 401.71 174.63Z" fill="#F5F5F5"/>
<path d="M400.75 156.34C393.324 156.34 386.202 153.39 380.951 148.139C375.7 142.888 372.75 135.766 372.75 128.34V111.63C372.75 110.932 373.027 110.264 373.52 109.77C374.014 109.277 374.682 109 375.38 109C376.078 109 376.746 109.277 377.24 109.77C377.733 110.264 378.01 110.932 378.01 111.63V128.35C378.015 134.378 380.411 140.157 384.673 144.42C388.934 148.683 394.712 151.082 400.74 151.09C401.098 151.068 401.457 151.119 401.795 151.241C402.133 151.363 402.442 151.553 402.704 151.799C402.965 152.045 403.174 152.342 403.316 152.671C403.459 153.001 403.532 153.356 403.532 153.715C403.532 154.074 403.459 154.429 403.316 154.759C403.174 155.088 402.965 155.385 402.704 155.631C402.442 155.877 402.133 156.067 401.795 156.189C401.457 156.311 401.098 156.362 400.74 156.34H400.75Z" fill="#E0E0E0"/>
<path d="M352.13 126.35H398.65C399.394 126.351 400.128 126.18 400.796 125.852C401.463 125.523 402.047 125.046 402.501 124.457C402.955 123.867 403.267 123.182 403.415 122.452C403.562 121.723 403.54 120.97 403.35 120.25L399.35 105.02C399.077 103.984 398.469 103.068 397.62 102.413C396.772 101.758 395.731 101.402 394.66 101.4H356.17C355.097 101.402 354.055 101.758 353.205 102.412C352.355 103.067 351.745 103.984 351.47 105.02L347.47 120.25C347.279 120.967 347.255 121.717 347.399 122.444C347.543 123.171 347.852 123.856 348.302 124.445C348.752 125.034 349.331 125.512 349.995 125.842C350.658 126.173 351.389 126.346 352.13 126.35Z" fill="#F5F5F5"/>
<path d="M127.98 315.86H143.19V256.93H127.98V315.86Z" fill="#E6E6E6"/>
<path d="M86.75 315.85H137.22L144.84 246.88H94.37L86.75 315.85Z" fill="#F0F0F0"/>
<path d="M81.28 315.85H133.42L141.04 246.88H88.91L81.28 315.85Z" fill="#F5F5F5"/>
<path d="M129.65 310.42L136.07 252.32H92.67L86.25 310.42H129.65Z" fill="white"/>
<path d="M120.69 296.33L121 294C122.61 279.42 113.51 266.43 101.69 266.43L101.42 268.8C99.81 283.37 108.91 296.36 120.74 296.36L120.69 296.33Z" fill="#F5F5F5"/>
<path d="M53.09 382.4H97.93L97.93 315.85H53.09L53.09 382.4Z" fill="#E6E6E6"/>
<path d="M57.59 382.4H53.08V369.57H62.32L57.59 382.4Z" fill="#F0F0F0"/>
<path d="M178.76 382.4H223.6V315.85H178.76V382.4Z" fill="#E6E6E6"/>
<path d="M53.08 374.53H182.69V315.86H53.08V374.53Z" fill="#F0F0F0"/>
<path d="M178.18 382.4H182.69V369.57H173.45L178.18 382.4Z" fill="#F0F0F0"/>
<path d="M56.58 343.2H179.19V319.52H56.58V343.2Z" fill="#E6E6E6"/>
<path d="M109.71 335H126.06C129.575 335.001 133.054 334.286 136.283 332.896C139.512 331.507 142.424 329.473 144.84 326.92H90.93C93.3472 329.472 96.2591 331.505 99.488 332.894C102.717 334.283 106.195 335 109.71 335Z" fill="#F0F0F0"/>
<path d="M56.58 370.7H179.19V347.02H56.58V370.7Z" fill="#E6E6E6"/>
<path d="M109.71 362.46H126.06C129.575 362.461 133.054 361.745 136.283 360.356C139.512 358.967 142.424 356.933 144.84 354.38H90.93C93.3472 356.932 96.2591 358.965 99.488 360.354C102.717 361.743 106.195 362.46 109.71 362.46Z" fill="#F0F0F0"/>
<path d="M174.48 313.14H175.64C175.64 310.75 175.64 304.7 175.76 290.83C175.97 265.68 176.37 264.15 176.37 264.15L173.61 275.76C171.86 288.61 174.12 301.53 174.48 313.14Z" fill="#E6E6E6"/>
<path d="M172.19 274C168.19 269.27 159.74 267.89 151.06 266.71C147.65 266.25 160.01 274.04 166.06 279.57C170.76 283.87 173.76 285.06 175.06 289.34C175.72 284 175.61 278.11 172.19 274Z" fill="#E6E6E6"/>
<path d="M177.46 282.48C181.46 277.75 189.91 276.38 198.59 275.2C202 274.74 189.59 282.53 183.59 288.06C178.89 292.36 175.89 293.55 174.59 297.83C173.93 292.49 174 286.56 177.46 282.48Z" fill="#E6E6E6"/>
<path d="M175.76 263C178.76 257.34 186.22 252 194.63 250C197.93 249.21 186.98 260.44 182.82 267.69C179.59 273.31 175.31 279.93 174.64 284.69C173.64 275.31 172.78 268.69 175.76 263Z" fill="#E6E6E6"/>
<path d="M175.4 315.85C171.86 315.85 168.93 314.08 168.72 311.8L168.13 307.92H182.68L182.08 311.8C181.88 314.08 179 315.85 175.4 315.85Z" fill="#F0F0F0"/>
<path d="M183.62 309.41H167.19L166.72 305.08H184.09L183.62 309.41Z" fill="#F0F0F0"/>
<path d="M163.54 226.72L323.75 226.72V80.5897L163.54 80.5897L163.54 226.72Z" fill="#E6E6E6"/>
<path d="M159.94 226.72L322.18 226.72V80.5897L159.94 80.5897L159.94 226.72Z" fill="#F5F5F5"/>
<path d="M315.7 220.18V87.1396L166.4 87.1396V220.18H315.7Z" fill="#FAFAFA"/>
<path d="M297.39 220.18L238.63 87.1396H218.67L277.43 220.18H297.39Z" fill="white"/>
<path d="M271.77 220.18L213.01 87.1396H199.27L258.03 220.18H271.77Z" fill="white"/>
<path d="M221.84 220.17V87.1299H214.12V220.17H221.84Z" fill="#E6E6E6"/>
<path d="M273.16 220.17V87.1299H265.44V220.17H273.16Z" fill="#E6E6E6"/>
<path d="M220.45 224.33V82.2695H210.69V224.33H220.45Z" fill="#F5F5F5"/>
<path d="M271.77 224.33V82.2695H262.01V224.33H271.77Z" fill="#F5F5F5"/>
<path d="M167.1 220.18V87.1396H166.41V220.18H167.1Z" fill="#E6E6E6"/>
<path d="M157.22 72.1699H330.78C331.002 72.1725 331.214 72.2619 331.371 72.4188C331.528 72.5758 331.617 72.788 331.62 73.0099C331.617 73.231 331.528 73.4421 331.37 73.5974C331.213 73.7528 331.001 73.8399 330.78 73.8399H157.22C156.999 73.8399 156.787 73.7528 156.63 73.5974C156.472 73.4421 156.383 73.231 156.38 73.0099C156.383 72.788 156.472 72.5758 156.629 72.4188C156.786 72.2619 156.998 72.1725 157.22 72.1699Z" fill="#E6E6E6"/>
<path d="M323.75 77.68C324.048 77.6774 324.333 77.5571 324.543 77.3455C324.752 77.1339 324.87 76.848 324.87 76.55V74.13C324.871 73.9821 324.843 73.8354 324.788 73.6983C324.732 73.5613 324.65 73.4366 324.546 73.3316C324.441 73.2265 324.317 73.1431 324.181 73.0862C324.044 73.0293 323.898 73 323.75 73C323.452 73 323.166 73.1177 322.954 73.3274C322.743 73.5372 322.623 73.822 322.62 74.12V76.54C322.62 76.8406 322.739 77.1291 322.95 77.3426C323.162 77.5561 323.449 77.6774 323.75 77.68Z" fill="#E6E6E6"/>
<path d="M169.8 77.68C170.099 77.6774 170.385 77.5575 170.596 77.3461C170.807 77.1348 170.927 76.8489 170.93 76.55V74.13C170.93 73.8303 170.811 73.5429 170.599 73.331C170.387 73.1191 170.1 73 169.8 73C169.503 73 169.218 73.118 169.008 73.328C168.798 73.5381 168.68 73.823 168.68 74.12V76.54C168.679 76.6884 168.707 76.8356 168.762 76.9732C168.818 77.1108 168.9 77.2361 169.004 77.342C169.108 77.4478 169.232 77.5322 169.368 77.5902C169.505 77.6482 169.652 77.6787 169.8 77.68Z" fill="#E6E6E6"/>
<path opacity="0.6" d="M157.48 187.44L319.61 187.44V73.0004L157.48 73.0004V187.44Z" fill="#E0E0E0"/>
<path d="M334.29 259.97H306.33C303.359 259.97 300.95 262.378 300.95 265.35V278.29C300.95 281.261 303.359 283.67 306.33 283.67H334.29C337.261 283.67 339.67 281.261 339.67 278.29V265.35C339.67 262.378 337.261 259.97 334.29 259.97Z" fill="#FAFAFA"/>
<path d="M337.86 255.59H302.76C301.76 255.59 300.95 256.4 300.95 257.4V258.86C300.95 259.859 301.76 260.67 302.76 260.67H337.86C338.86 260.67 339.67 259.859 339.67 258.86V257.4C339.67 256.4 338.86 255.59 337.86 255.59Z" fill="#E6E6E6"/>
<path d="M301.52 310C301.52 310 302.03 326.67 321.45 326.67C340.87 326.67 341.38 310 341.38 310H301.52Z" fill="#F0F0F0"/>
<path d="M345.8 310C345.8 310 346.31 326.67 365.73 326.67C385.15 326.67 385.66 310 385.66 310H345.8Z" fill="#F0F0F0"/>
<path d="M376.04 249.24H337.64C333.553 249.24 330.24 252.553 330.24 256.64V276.28C330.24 280.367 333.553 283.68 337.64 283.68H376.04C380.127 283.68 383.44 280.367 383.44 276.28V256.64C383.44 252.553 380.127 249.24 376.04 249.24Z" fill="#F0F0F0"/>
<path d="M380.96 243.22H332.72C331.35 243.22 330.24 244.33 330.24 245.7V247.72C330.24 249.089 331.35 250.2 332.72 250.2H380.96C382.33 250.2 383.44 249.089 383.44 247.72V245.7C383.44 244.33 382.33 243.22 380.96 243.22Z" fill="#F5F5F5"/>
<path d="M286.89 382.4H291.93V299.76H286.89V382.4Z" fill="#E6E6E6"/>
<path d="M432.42 283.67H405.13V299.75H432.42V283.67Z" fill="#E6E6E6"/>
<path d="M269.44 299.76H405.12V283.68H269.44V299.76Z" fill="#F5F5F5"/>
<path d="M432.42 326.62H405.13V342.7H432.42V326.62Z" fill="#E6E6E6"/>
<path d="M269.44 342.7H405.12V326.62H269.44V342.7Z" fill="#F5F5F5"/>
<path d="M422.57 382.4H427.61V299.76H422.57V382.4Z" fill="#E6E6E6"/>
<path d="M400.09 382.4H405.13V299.76H400.09V382.4Z" fill="#F5F5F5"/>
<path d="M269.44 382.4H274.48V299.76H269.44V382.4Z" fill="#F5F5F5"/>
<path d="M244 427.56C351.082 427.56 437.89 422.492 437.89 416.24C437.89 409.988 351.082 404.92 244 404.92C136.917 404.92 50.11 409.988 50.11 416.24C50.11 422.492 136.917 427.56 244 427.56Z" fill="#F5F5F5"/>
<path d="M254.41 365.5H126.84C124.789 365.471 122.824 364.668 121.34 363.251C119.857 361.834 118.963 359.908 118.84 357.86L107.4 136.31C107.337 135.325 107.477 134.337 107.814 133.408C108.15 132.48 108.674 131.631 109.354 130.914C110.034 130.198 110.854 129.63 111.764 129.245C112.673 128.861 113.653 128.669 114.64 128.68H242.21C244.261 128.707 246.225 129.508 247.709 130.924C249.193 132.339 250.086 134.263 250.21 136.31L261.63 357.86C261.693 358.844 261.553 359.831 261.218 360.759C260.883 361.686 260.361 362.535 259.683 363.252C259.006 363.969 258.188 364.538 257.281 364.925C256.373 365.312 255.396 365.508 254.41 365.5Z" fill="#2A356A"/>
<path opacity="0.8" d="M254.41 365.5H126.84C124.789 365.471 122.824 364.668 121.34 363.251C119.857 361.834 118.963 359.908 118.84 357.86L107.4 136.31C107.337 135.325 107.477 134.337 107.814 133.408C108.15 132.48 108.674 131.631 109.354 130.914C110.034 130.198 110.854 129.63 111.764 129.245C112.673 128.861 113.653 128.669 114.64 128.68H242.21C244.261 128.707 246.225 129.508 247.709 130.924C249.193 132.339 250.086 134.263 250.21 136.31L261.63 357.86C261.693 358.844 261.553 359.831 261.218 360.759C260.883 361.686 260.361 362.535 259.683 363.252C259.006 363.969 258.188 364.538 257.281 364.925C256.373 365.312 255.396 365.508 254.41 365.5Z" fill="white"/>
<path d="M229.62 121.46H215.51V122.46H229.62V121.46Z" fill="#2A356A"/>
<path d="M210.62 121.46H205.45V122.46H210.62V121.46Z" fill="#2A356A"/>
<path d="M259.9 351.44H137.9C135.935 351.421 134.051 350.658 132.626 349.306C131.201 347.953 130.341 346.111 130.22 344.15L119.3 132.25C119.239 131.307 119.374 130.361 119.696 129.473C120.018 128.584 120.52 127.772 121.171 127.086C121.821 126.401 122.607 125.857 123.477 125.49C124.348 125.122 125.285 124.938 126.23 124.95H248.23C250.194 124.971 252.078 125.737 253.501 127.091C254.924 128.445 255.781 130.289 255.9 132.25L266.82 344.15C266.881 345.092 266.746 346.036 266.425 346.923C266.103 347.81 265.602 348.622 264.952 349.306C264.303 349.991 263.518 350.534 262.649 350.901C261.78 351.268 260.844 351.451 259.9 351.44Z" fill="#2A356A"/>
<path d="M259.9 346.57H137.9C137.185 346.546 136.503 346.259 135.985 345.765C135.467 345.271 135.148 344.604 135.09 343.89L124.16 132C124.135 131.719 124.171 131.435 124.264 131.167C124.357 130.9 124.505 130.656 124.7 130.45C124.895 130.245 125.131 130.084 125.393 129.977C125.655 129.87 125.937 129.82 126.22 129.83H248.22C248.934 129.857 249.613 130.145 250.129 130.639C250.645 131.133 250.962 131.799 251.02 132.51L262 344.4C262.024 344.681 261.989 344.964 261.896 345.23C261.803 345.496 261.655 345.74 261.461 345.945C261.268 346.15 261.033 346.311 260.772 346.419C260.512 346.527 260.232 346.578 259.95 346.57H259.9ZM126.22 130.08C125.971 130.072 125.724 130.116 125.493 130.209C125.262 130.302 125.054 130.442 124.88 130.62C124.713 130.805 124.585 131.022 124.505 131.257C124.424 131.493 124.392 131.742 124.41 131.99L135.33 343.88C135.386 344.529 135.677 345.136 136.148 345.585C136.62 346.034 137.239 346.296 137.89 346.32H259.89C260.137 346.33 260.384 346.287 260.613 346.194C260.843 346.101 261.049 345.96 261.22 345.78C261.391 345.598 261.521 345.382 261.602 345.146C261.683 344.91 261.713 344.659 261.69 344.41L250.78 132.52C250.727 131.872 250.438 131.266 249.968 130.817C249.498 130.367 248.88 130.105 248.23 130.08H126.22Z" fill="white"/>
<path opacity="0.3" d="M217.227 207.056C231.103 192.817 230.199 169.431 215.208 154.823C200.218 140.214 176.816 139.915 162.94 154.154C149.064 168.393 149.968 191.779 164.959 206.388C179.949 220.996 203.351 221.295 217.227 207.056Z" fill="white"/>
<path d="M220 180.61C220.28 185.524 219.292 190.428 217.13 194.85C214.79 199.593 211.158 203.579 206.652 206.348C202.145 209.117 196.949 210.556 191.66 210.5C186.179 210.451 180.805 208.984 176.059 206.241C171.314 203.499 167.359 199.574 164.58 194.85C161.99 190.53 160.5 185.64 160.24 180.61C159.993 176.752 160.546 172.885 161.862 169.251C163.179 165.616 165.232 162.293 167.892 159.488C170.552 156.683 173.763 154.458 177.322 152.951C180.882 151.444 184.715 150.688 188.58 150.73C196.625 150.814 204.339 153.943 210.17 159.488C216 165.032 219.512 172.58 220 180.61Z" fill="white"/>
<path d="M217.1 194.85C214.76 199.593 211.128 203.579 206.622 206.348C202.115 209.116 196.919 210.556 191.63 210.5C186.149 210.451 180.775 208.983 176.029 206.241C171.284 203.498 167.329 199.574 164.55 194.85C172.149 189.602 181.175 186.81 190.41 186.85C199.892 186.886 209.162 189.664 217.1 194.85Z" fill="#2A356A"/>
<path d="M199.347 179.915C204.347 174.785 204.019 166.358 198.616 161.093C193.213 155.827 184.781 155.718 179.781 160.848C174.782 165.978 175.109 174.405 180.512 179.67C185.915 184.935 194.348 185.045 199.347 179.915Z" fill="#2A356A"/>
<path d="M242.41 269H146.88C146.048 268.992 145.25 268.668 144.647 268.095C144.044 267.521 143.681 266.741 143.63 265.91L142.91 251.91C142.885 251.512 142.943 251.113 143.079 250.738C143.216 250.363 143.428 250.02 143.703 249.731C143.978 249.442 144.31 249.213 144.678 249.058C145.045 248.903 145.441 248.825 145.84 248.83H241.37C242.2 248.839 242.997 249.161 243.6 249.732C244.203 250.303 244.567 251.082 244.62 251.91L245.34 265.91C245.366 266.309 245.31 266.709 245.174 267.086C245.038 267.462 244.826 267.806 244.551 268.096C244.275 268.386 243.943 268.616 243.575 268.772C243.206 268.928 242.81 269.005 242.41 269Z" fill="white"/>
<path opacity="0.3" d="M213.16 241.1H173.26C172.425 241.094 171.623 240.77 171.017 240.195C170.412 239.619 170.048 238.834 170 238L169.85 235C169.824 234.601 169.88 234.201 170.016 233.825C170.152 233.449 170.364 233.105 170.639 232.815C170.915 232.525 171.247 232.294 171.615 232.139C171.984 231.983 172.38 231.905 172.78 231.91H212.67C213.502 231.919 214.3 232.243 214.903 232.816C215.506 233.389 215.869 234.17 215.92 235L216.08 238C216.105 238.399 216.047 238.798 215.912 239.173C215.776 239.548 215.565 239.892 215.291 240.183C215.017 240.473 214.687 240.704 214.321 240.862C213.954 241.02 213.559 241.101 213.16 241.1Z" fill="black"/>
<path opacity="0.3" d="M228 336.31H168.23C166.815 336.292 165.458 335.74 164.433 334.765C163.407 333.789 162.788 332.462 162.7 331.05L162.35 324.15C162.315 323.471 162.418 322.793 162.653 322.156C162.889 321.519 163.251 320.937 163.719 320.445C164.187 319.953 164.75 319.561 165.375 319.294C165.999 319.026 166.671 318.889 167.35 318.89H227.1C228.515 318.907 229.872 319.459 230.897 320.434C231.923 321.41 232.542 322.737 232.63 324.15L232.98 331.05C233.015 331.726 232.913 332.403 232.678 333.038C232.444 333.674 232.083 334.255 231.618 334.747C231.152 335.239 230.591 335.631 229.969 335.9C229.347 336.168 228.677 336.308 228 336.31Z" fill="black"/>
<path d="M244.16 302.86H148.62C147.789 302.849 146.992 302.525 146.389 301.952C145.787 301.379 145.423 300.6 145.37 299.77L144.65 285.77C144.625 285.371 144.683 284.972 144.819 284.596C144.956 284.221 145.168 283.877 145.443 283.587C145.718 283.298 146.049 283.067 146.417 282.911C146.785 282.755 147.181 282.676 147.58 282.68H243.11C243.942 282.688 244.74 283.012 245.343 283.585C245.946 284.159 246.309 284.939 246.36 285.77L247.09 299.77C247.113 300.168 247.055 300.567 246.918 300.942C246.781 301.317 246.568 301.659 246.294 301.949C246.019 302.239 245.688 302.469 245.321 302.625C244.954 302.782 244.559 302.862 244.16 302.86Z" fill="white"/>
<path d="M159 258.91C159.028 259.352 158.964 259.795 158.812 260.211C158.661 260.627 158.425 261.008 158.12 261.329C157.815 261.65 157.447 261.904 157.04 262.077C156.632 262.249 156.193 262.335 155.75 262.33C154.83 262.319 153.949 261.961 153.283 261.326C152.617 260.692 152.216 259.829 152.16 258.91C152.131 258.469 152.194 258.026 152.344 257.61C152.494 257.194 152.729 256.814 153.033 256.493C153.337 256.171 153.704 255.917 154.112 255.744C154.519 255.572 154.958 255.485 155.4 255.49C156.321 255.501 157.204 255.86 157.871 256.494C158.539 257.128 158.942 257.991 159 258.91Z" fill="#263238"/>
<path d="M169.53 258.91C169.559 259.352 169.496 259.794 169.346 260.211C169.196 260.627 168.961 261.007 168.657 261.328C168.353 261.649 167.986 261.904 167.578 262.077C167.171 262.249 166.732 262.336 166.29 262.33C165.369 262.322 164.487 261.964 163.82 261.329C163.154 260.694 162.753 259.829 162.7 258.91C162.671 258.469 162.734 258.026 162.884 257.61C163.034 257.194 163.269 256.814 163.573 256.493C163.877 256.171 164.244 255.917 164.652 255.744C165.059 255.572 165.498 255.485 165.94 255.49C166.86 255.499 167.743 255.857 168.41 256.492C169.076 257.127 169.477 257.991 169.53 258.91Z" fill="#263238"/>
<path d="M180 258.91C180.029 259.352 179.966 259.794 179.816 260.211C179.666 260.627 179.431 261.007 179.127 261.328C178.823 261.649 178.456 261.904 178.048 262.077C177.641 262.249 177.202 262.336 176.76 262.33C175.839 262.32 174.956 261.961 174.289 261.327C173.621 260.693 173.218 259.829 173.16 258.91C173.132 258.469 173.196 258.026 173.348 257.61C173.499 257.193 173.735 256.813 174.04 256.492C174.345 256.171 174.713 255.917 175.12 255.744C175.528 255.572 175.967 255.485 176.41 255.49C177.33 255.501 178.211 255.86 178.877 256.495C179.543 257.129 179.944 257.992 180 258.91Z" fill="#263238"/>
<path d="M190.55 258.91C190.577 259.351 190.514 259.793 190.363 260.209C190.212 260.624 189.978 261.004 189.674 261.325C189.37 261.646 189.003 261.901 188.596 262.074C188.19 262.247 187.752 262.334 187.31 262.33C186.389 262.32 185.506 261.961 184.839 261.327C184.171 260.693 183.768 259.829 183.71 258.91C183.683 258.469 183.746 258.027 183.897 257.612C184.048 257.196 184.282 256.817 184.586 256.496C184.89 256.175 185.257 255.92 185.663 255.747C186.07 255.574 186.508 255.487 186.95 255.49C187.871 255.501 188.754 255.86 189.421 256.494C190.089 257.128 190.492 257.991 190.55 258.91Z" fill="#263238"/>
<path d="M160.77 292.75C160.799 293.192 160.736 293.634 160.586 294.05C160.436 294.466 160.201 294.847 159.897 295.168C159.593 295.489 159.226 295.744 158.818 295.917C158.411 296.089 157.972 296.175 157.53 296.17C156.609 296.16 155.726 295.801 155.059 295.167C154.391 294.533 153.988 293.669 153.93 292.75C153.902 292.308 153.966 291.866 154.118 291.449C154.269 291.033 154.505 290.653 154.81 290.332C155.115 290.011 155.483 289.756 155.89 289.584C156.298 289.412 156.737 289.325 157.18 289.33C158.1 289.341 158.981 289.7 159.647 290.335C160.313 290.969 160.714 291.832 160.77 292.75Z" fill="#263238"/>
<path d="M171.28 292.75C171.307 293.191 171.244 293.633 171.093 294.049C170.942 294.464 170.708 294.844 170.404 295.165C170.1 295.486 169.733 295.741 169.326 295.914C168.92 296.087 168.482 296.174 168.04 296.17C167.119 296.16 166.236 295.801 165.569 295.167C164.901 294.533 164.498 293.669 164.44 292.75C164.411 292.309 164.474 291.866 164.624 291.45C164.774 291.034 165.009 290.654 165.313 290.332C165.617 290.011 165.984 289.757 166.392 289.584C166.799 289.412 167.238 289.325 167.68 289.33C168.601 289.341 169.484 289.7 170.151 290.334C170.819 290.968 171.222 291.831 171.28 292.75Z" fill="#263238"/>
<path d="M181.79 292.75C181.818 293.192 181.754 293.635 181.602 294.051C181.451 294.467 181.215 294.848 180.91 295.169C180.605 295.49 180.237 295.744 179.83 295.917C179.422 296.089 178.983 296.175 178.54 296.17C177.619 296.162 176.737 295.804 176.07 295.169C175.404 294.534 175.003 293.669 174.95 292.75C174.921 292.309 174.984 291.866 175.134 291.45C175.284 291.034 175.519 290.654 175.823 290.332C176.127 290.011 176.494 289.757 176.902 289.584C177.309 289.412 177.748 289.325 178.19 289.33C179.111 289.341 179.994 289.7 180.661 290.334C181.329 290.968 181.732 291.831 181.79 292.75Z" fill="#263238"/>
<path d="M192.29 292.75C192.319 293.192 192.256 293.634 192.106 294.05C191.956 294.466 191.721 294.847 191.417 295.168C191.113 295.489 190.746 295.744 190.338 295.917C189.931 296.089 189.492 296.175 189.05 296.17C188.129 296.16 187.246 295.801 186.579 295.167C185.911 294.533 185.508 293.669 185.45 292.75C185.422 292.308 185.486 291.866 185.638 291.449C185.789 291.033 186.025 290.653 186.33 290.332C186.635 290.011 187.003 289.756 187.41 289.584C187.818 289.412 188.257 289.325 188.7 289.33C189.62 289.339 190.503 289.697 191.17 290.332C191.836 290.967 192.237 291.831 192.29 292.75Z" fill="#263238"/>
<path d="M202.8 292.75C202.829 293.192 202.766 293.634 202.616 294.05C202.466 294.466 202.231 294.847 201.927 295.168C201.623 295.489 201.256 295.744 200.848 295.916C200.441 296.089 200.002 296.175 199.56 296.17C198.639 296.159 197.756 295.801 197.089 295.167C196.421 294.532 196.018 293.669 195.96 292.75C195.933 292.309 195.996 291.867 196.147 291.452C196.298 291.036 196.532 290.656 196.836 290.336C197.14 290.015 197.507 289.76 197.913 289.587C198.32 289.414 198.758 289.327 199.2 289.33C200.121 289.341 201.004 289.699 201.671 290.334C202.339 290.968 202.742 291.831 202.8 292.75Z" fill="#263238"/>
<path d="M213.31 292.75C213.338 293.192 213.274 293.635 213.122 294.051C212.971 294.467 212.735 294.848 212.43 295.169C212.125 295.49 211.757 295.744 211.35 295.917C210.942 296.089 210.503 296.175 210.06 296.17C209.14 296.159 208.259 295.801 207.593 295.166C206.927 294.532 206.526 293.668 206.47 292.75C206.441 292.309 206.504 291.866 206.654 291.45C206.804 291.034 207.039 290.654 207.343 290.332C207.647 290.011 208.014 289.757 208.422 289.584C208.829 289.412 209.268 289.325 209.71 289.33C210.631 289.341 211.514 289.7 212.181 290.334C212.849 290.968 213.252 291.831 213.31 292.75Z" fill="#263238"/>
<path d="M327 176.62C327.25 177 327.38 177.2 327.54 177.47L327.99 178.21C328.28 178.71 328.54 179.21 328.79 179.7C329.29 180.7 329.79 181.7 330.19 182.7C331.028 184.686 331.75 186.72 332.35 188.79C333.561 192.88 334.358 197.081 334.73 201.33L334.8 202.12C334.808 202.28 334.808 202.44 334.8 202.6V203.13C334.817 203.826 334.777 204.521 334.68 205.21C334.488 206.487 334.153 207.738 333.68 208.94C332.801 211.086 331.638 213.105 330.22 214.94C327.576 218.327 324.437 221.296 320.91 223.75L318.15 220.52C320.661 217.684 322.886 214.605 324.79 211.33C325.647 209.844 326.319 208.259 326.79 206.61C326.981 205.912 327.092 205.194 327.12 204.47C327.151 204.161 327.151 203.849 327.12 203.54V203.33C327.13 203.237 327.13 203.143 327.12 203.05L327 202.35C326.357 198.623 325.448 194.947 324.28 191.35C323.7 189.56 322.99 187.83 322.28 186.14C321.93 185.29 321.53 184.46 321.13 183.66L320.51 182.48L320.2 181.93L319.94 181.49L327 176.62Z" fill="#803E3C"/>
<path d="M317.7 223.77L321.32 231.42L324.19 224.95C324.19 224.95 321.64 219.35 318.19 219.87L317.7 223.77Z" fill="#7F3E3B"/>
<path d="M323.91 231.8L326.79 227.08L324.19 224.95L321.32 231.42L323.91 231.8Z" fill="#7F3E3B"/>
<path d="M307.63 408.22C308.379 408.202 309.123 408.101 309.85 407.92C309.887 407.909 309.92 407.888 309.946 407.86C309.973 407.832 309.991 407.798 310 407.76C310.006 407.722 310.001 407.682 309.985 407.647C309.969 407.611 309.943 407.581 309.91 407.56C309.62 407.37 307.08 405.73 306.1 406.17C305.991 406.221 305.898 406.3 305.83 406.398C305.761 406.496 305.72 406.611 305.71 406.73C305.68 406.911 305.694 407.097 305.751 407.271C305.809 407.445 305.908 407.603 306.04 407.73C306.493 408.08 307.058 408.255 307.63 408.22ZM309.28 407.63C307.83 407.93 306.73 407.88 306.28 407.49C306.188 407.399 306.121 407.286 306.084 407.162C306.047 407.038 306.043 406.907 306.07 406.78C306.07 406.61 306.17 406.56 306.24 406.53C306.78 406.29 308.25 407 309.28 407.63Z" fill="#2A356A"/>
<path d="M309.8 407.92H309.9C309.93 407.901 309.955 407.874 309.972 407.843C309.99 407.812 309.999 407.776 310 407.74C310 407.64 310 405.23 309.08 404.42C308.967 404.319 308.834 404.243 308.689 404.198C308.544 404.153 308.39 404.141 308.24 404.16C308.082 404.162 307.93 404.217 307.808 404.317C307.686 404.417 307.602 404.556 307.57 404.71C307.38 405.66 308.9 407.46 309.7 407.92H309.8ZM308.37 404.53C308.451 404.528 308.532 404.542 308.607 404.571C308.683 404.6 308.752 404.644 308.81 404.7C309.338 405.478 309.61 406.401 309.59 407.34C308.79 406.7 307.84 405.34 307.96 404.77C307.96 404.68 308.03 404.56 308.28 404.53H308.37Z" fill="#2A356A"/>
<path d="M298.19 404.14C298.213 404.111 298.229 404.076 298.234 404.039C298.239 404.002 298.235 403.964 298.22 403.929C298.206 403.894 298.183 403.864 298.153 403.841C298.123 403.819 298.087 403.805 298.05 403.8C297.64 403.8 294.05 403.63 293.23 404.51V404.57C293.162 404.657 293.118 404.76 293.102 404.868C293.087 404.977 293.1 405.088 293.14 405.19C293.193 405.362 293.288 405.518 293.415 405.645C293.542 405.773 293.698 405.867 293.87 405.92C295.03 406.28 297.08 404.97 298.2 404.16L298.19 404.14ZM293.53 404.77C293.98 404.29 295.96 404.16 297.44 404.18C295.89 405.24 294.6 405.74 293.95 405.54C293.837 405.506 293.734 405.444 293.65 405.36C293.566 405.277 293.504 405.174 293.47 405.06C293.45 405.022 293.439 404.979 293.439 404.935C293.439 404.892 293.45 404.849 293.47 404.81L293.53 404.77Z" fill="#2A356A"/>
<path d="M298.19 404.14C298.205 404.109 298.213 404.075 298.213 404.04C298.213 404.005 298.205 403.971 298.19 403.94C298.14 403.86 297.02 401.94 295.7 401.54C295.511 401.484 295.312 401.468 295.116 401.492C294.92 401.516 294.73 401.58 294.56 401.68C294.08 401.96 294.05 402.29 294.11 402.5C294.37 403.43 296.92 404.25 298.02 404.24C298.055 404.239 298.088 404.23 298.118 404.212C298.148 404.195 298.173 404.17 298.19 404.14ZM294.6 402.14C294.656 402.085 294.72 402.037 294.79 402C294.913 401.921 295.053 401.871 295.198 401.852C295.343 401.833 295.491 401.846 295.63 401.89C296.5 402.12 297.31 403.24 297.68 403.79C296.49 403.66 294.68 402.93 294.53 402.37C294.517 402.327 294.517 402.282 294.53 402.24C294.542 402.197 294.566 402.159 294.6 402.13V402.14Z" fill="#2A356A"/>
<path d="M309.2 147.33C308.2 152.33 306.04 163.14 309.51 166.46C309.51 166.46 308.15 171.46 298.92 171.46C288.76 171.46 294.07 166.46 294.07 166.46C299.61 165.14 299.47 161.02 298.5 157.16L309.2 147.33Z" fill="#7F3E3B"/>
<path d="M292.28 135.61C292.336 135.619 292.394 135.619 292.45 135.61C292.498 135.586 292.54 135.554 292.575 135.514C292.61 135.474 292.636 135.427 292.653 135.377C292.67 135.327 292.676 135.274 292.672 135.221C292.668 135.168 292.654 135.117 292.63 135.07C292.361 134.499 291.959 134.002 291.458 133.619C290.957 133.236 290.371 132.979 289.75 132.87C289.646 132.861 289.542 132.892 289.461 132.957C289.379 133.022 289.325 133.116 289.31 133.22C289.299 133.324 289.329 133.429 289.395 133.511C289.46 133.594 289.556 133.647 289.66 133.66C290.15 133.754 290.611 133.963 291.004 134.271C291.397 134.579 291.711 134.976 291.92 135.43C291.959 135.489 292.013 135.537 292.076 135.568C292.139 135.6 292.209 135.614 292.28 135.61Z" fill="#263238"/>
<path d="M289.25 140C288.463 141.46 287.48 142.805 286.33 144C286.641 144.285 287.011 144.499 287.413 144.627C287.816 144.754 288.241 144.793 288.66 144.74L289.25 140Z" fill="#630F0F"/>
<path d="M290 138.87C289.92 139.54 289.49 140.04 289.06 139.99C288.63 139.94 288.33 139.35 288.41 138.68C288.49 138.01 288.92 137.51 289.41 137.56C289.9 137.61 290.07 138.2 290 138.87Z" fill="#263238"/>
<path d="M289.54 137.62L288 137C288 137 288.65 138.32 289.54 137.62Z" fill="#263238"/>
<path d="M307.02 402.24L298.86 404.14L293.9 385.38L302.06 383.48L307.02 402.24Z" fill="#7F3E3B"/>
<path d="M319.54 407.72H311.17L311.82 388.33H320.2L319.54 407.72Z" fill="#7F3E3B"/>
<path d="M310.5 406.75H319.91C320.073 406.749 320.231 406.807 320.355 406.913C320.478 407.02 320.558 407.168 320.58 407.33L321.65 414.77C321.671 414.958 321.652 415.149 321.595 415.329C321.537 415.509 321.441 415.675 321.315 415.816C321.188 415.957 321.033 416.069 320.86 416.146C320.687 416.222 320.499 416.261 320.31 416.26C317.03 416.21 315.45 416.01 311.31 416.01C308.76 416.01 305.04 416.28 301.53 416.28C298.02 416.28 297.82 412.8 299.29 412.49C305.85 411.07 306.89 409.13 309.1 407.27C309.49 406.936 309.987 406.752 310.5 406.75Z" fill="#263238"/>
<path d="M298.14 402.89L306.69 398.96C306.835 398.891 307.001 398.877 307.155 398.921C307.31 398.965 307.443 399.064 307.53 399.2L311.62 405.52C311.716 405.682 311.776 405.863 311.797 406.051C311.819 406.238 311.8 406.428 311.744 406.608C311.687 406.788 311.594 406.954 311.469 407.096C311.344 407.237 311.191 407.351 311.02 407.43C308.02 408.75 306.5 409.24 302.74 410.97C300.43 412.03 295.74 414.47 292.56 415.97C289.38 417.47 287.74 414.36 288.94 413.46C294.31 409.46 295.85 406.59 297.08 403.98C297.288 403.499 297.665 403.111 298.14 402.89Z" fill="#263238"/>
<path opacity="0.2" d="M293.9 385.38L296.56 395.44L304.62 393.15L302.07 383.48L293.9 385.38Z" fill="black"/>
<path opacity="0.2" d="M320.2 388.33H311.82L311.49 398.33H319.87L320.2 388.33Z" fill="black"/>
<path d="M324 168.36C327.48 169.13 331.2 181.64 331.2 181.64L321.36 192.11C321.36 192.11 313.19 180.35 314.86 176.03C316.55 171.52 319.85 167.46 324 168.36Z" fill="#263238"/>
<path opacity="0.4" d="M318.44 176.33C316.68 174.72 315.49 175.2 314.68 176.48C313.88 180.2 318.62 187.99 320.53 190.94C321.41 187.42 322.42 180 318.44 176.33Z" fill="black"/>
<path d="M279.91 168.61C279.91 168.61 275.91 170.01 283.91 219.16H317.91C317.34 205.32 317.32 196.78 323.91 168.36C319.146 167.377 314.316 166.742 309.46 166.46C304.32 166.09 299.16 166.09 294.02 166.46C287.43 167.07 279.91 168.61 279.91 168.61Z" fill="#263238"/>
<path opacity="0.4" d="M279.6 187.47C279.82 189.86 280.11 192.55 280.49 195.59C283.28 193.08 285.56 185.94 284.72 181.78C282.727 183.398 280.999 185.318 279.6 187.47Z" fill="black"/>
<path d="M283.24 180.001C281.405 184.618 279.339 189.141 277.05 193.551C274.787 198.12 272.109 202.471 269.05 206.551L268.41 207.34L268.09 207.73C267.98 207.86 267.89 207.981 267.72 208.161C267.118 208.817 266.448 209.407 265.72 209.921C264.434 210.811 263.026 211.511 261.54 212.001C258.949 212.828 256.258 213.306 253.54 213.421C248.45 213.623 243.354 213.169 238.38 212.071L238.93 207.87C241.23 207.87 243.64 207.87 245.93 207.68C248.23 207.567 250.521 207.314 252.79 206.921C254.897 206.592 256.958 206.014 258.93 205.201C259.726 204.86 260.47 204.409 261.14 203.861C261.396 203.646 261.627 203.405 261.83 203.141C261.83 203.141 261.95 202.98 262.03 202.87L262.26 202.54L262.73 201.881C265.239 198.005 267.475 193.958 269.42 189.771C271.42 185.521 273.42 181.111 275.25 176.771L283.24 180.001Z" fill="#803E3C"/>
<path d="M279.91 168.61C275.74 169.61 270.62 181.05 270.62 181.05L279.26 193.75C279.26 193.75 290.77 179.26 289.4 174.84C288 170.23 285 167.37 279.91 168.61Z" fill="#263238"/>
<path d="M241.33 208.51L234.12 205.18L233.4 212.35C233.4 212.35 239.4 214.12 242.4 212.35L241.33 208.51Z" fill="#7F3E3B"/>
<path d="M229.81 204.46L229.12 209.92L233.4 212.35L234.12 205.18L229.81 204.46Z" fill="#7F3E3B"/>
<path d="M312.82 139.36C311.29 147.53 310.82 151.03 306.14 154.74C299.14 160.32 289.39 156.66 288.45 148.2C287.59 140.58 290.23 128.5 298.7 126.2C300.566 125.685 302.532 125.657 304.412 126.118C306.292 126.579 308.022 127.514 309.438 128.834C310.854 130.153 311.908 131.814 312.5 133.656C313.092 135.499 313.202 137.463 312.82 139.36Z" fill="#7F3E3B"/>
<path d="M294.87 141.08C294.4 145.25 294.22 156.08 303.38 156.42C314.59 156.83 317.95 147.25 316.95 143.42C322.79 138.67 323.63 130.5 317.07 124.25C310.51 118 296.07 121.49 292.07 127.58C287 135.13 294.87 141.08 294.87 141.08Z" fill="#263238"/>
<path d="M306.1 126.68C305.56 122.28 305.98 119.25 310.1 119.25C314.22 119.25 319.84 120.74 321.9 124.95C323.96 129.16 324.13 135.75 318.38 135.08C312.63 134.41 306.75 131.94 306.1 126.68Z" fill="#2A356A"/>
<path d="M312.48 125.62C311.48 120.38 316.17 105.62 327.56 104.62C332.84 104.17 335.28 109.85 332.56 110.79C337.56 110.73 340.76 117.34 336.1 118.33C339.78 120.69 338.87 125.53 333.62 127.91C329.71 129.71 313.83 132.88 312.48 125.62Z" fill="#263238"/>
<path d="M324.65 131.25C320.98 131.25 317.15 130.71 314.77 129.12C314.105 128.719 313.544 128.165 313.136 127.504C312.727 126.843 312.482 126.095 312.42 125.32C312.417 125.254 312.439 125.19 312.482 125.14C312.524 125.09 312.585 125.058 312.65 125.05C312.683 125.046 312.717 125.049 312.749 125.058C312.781 125.068 312.81 125.084 312.836 125.105C312.861 125.127 312.882 125.154 312.896 125.184C312.911 125.214 312.919 125.247 312.92 125.28C312.98 125.979 313.205 126.654 313.575 127.25C313.945 127.846 314.45 128.346 315.05 128.71C319.58 131.71 330.05 130.71 333.31 129.71C336.13 128.79 338.04 127 338.42 124.94C338.538 124.184 338.445 123.41 338.15 122.704C337.856 121.998 337.371 121.387 336.75 120.94C336.726 120.918 336.707 120.89 336.694 120.86C336.681 120.83 336.674 120.798 336.674 120.765C336.674 120.732 336.681 120.7 336.694 120.67C336.707 120.64 336.726 120.612 336.75 120.59C336.797 120.544 336.86 120.519 336.925 120.519C336.99 120.519 337.053 120.544 337.1 120.59C337.798 121.099 338.341 121.793 338.667 122.593C338.994 123.393 339.092 124.268 338.95 125.12C338.54 127.37 336.51 129.29 333.51 130.27C330.615 131 327.634 131.329 324.65 131.25Z" fill="#263238"/>
<path d="M292.32 140C291.389 141.306 291.005 142.924 291.25 144.51C291.58 146.61 293.62 146.75 295.1 145.41C296.58 144.07 297.87 141.65 296.78 139.91C296.538 139.534 296.203 139.226 295.809 139.016C295.414 138.806 294.972 138.7 294.525 138.71C294.078 138.719 293.641 138.842 293.255 139.068C292.869 139.293 292.547 139.614 292.32 140Z" fill="#7F3E3B"/>
<path d="M292.89 219.16C292.89 219.16 297.75 276.65 302.8 309.05C306.87 335.22 310.09 396.39 310.09 396.39H321.51C321.51 396.39 325.57 337.05 323.51 311.17C318.28 245.67 329.95 240.33 317.94 219.17L292.89 219.16Z" fill="#2A356A"/>
<path opacity="0.4" d="M307.27 240.89C302.744 245.64 299.092 251.151 296.48 257.17C297.81 270.09 299.39 284.43 301.07 296.99C307.964 279.143 310.1 259.811 307.27 240.89Z" fill="black"/>
<path d="M284.9 218.8C284.9 218.8 274.35 281.59 272.69 309.89C276.83 336.06 293.77 391.38 293.77 391.38L304.16 387.61C304.16 387.61 298.41 327.29 292.16 310.78C306.23 263.41 316.57 251.43 313.56 219.16C306.35 219.16 284.9 218.8 284.9 218.8Z" fill="#2A356A"/>
<path d="M292.38 394.14L306.42 390.33L305.62 384.73L290.59 388.8L292.38 394.14Z" fill="#263238"/>
<path d="M308.52 396.62H323.07L323.83 391.52L308.44 391L308.52 396.62Z" fill="#263238"/>
<path d="M318.44 217.16L319.97 220.21C320.09 220.45 319.81 220.69 319.42 220.69H283.74C283.44 220.69 283.18 220.54 283.16 220.34L282.85 217.34C282.85 217.13 283.1 216.95 283.43 216.95H317.88C317.983 216.936 318.089 216.948 318.186 216.984C318.284 217.021 318.371 217.081 318.44 217.16Z" fill="#2A356A"/>
<path opacity="0.5" d="M318.44 217.16L319.97 220.21C320.09 220.45 319.81 220.69 319.42 220.69H283.74C283.44 220.69 283.18 220.54 283.16 220.34L282.85 217.34C282.85 217.13 283.1 216.95 283.43 216.95H317.88C317.983 216.936 318.089 216.948 318.186 216.984C318.284 217.021 318.371 217.081 318.44 217.16Z" fill="black"/>
<path d="M313.81 221H314.73C314.92 221 315.06 220.9 315.05 220.79L314.61 216.79C314.61 216.67 314.44 216.58 314.26 216.58H313.33C313.15 216.58 313.01 216.67 313.02 216.79L313.45 220.79C313.47 220.92 313.63 221 313.81 221Z" fill="#2A356A"/>
<path d="M301.43 191.88C301.32 191.878 301.213 191.842 301.125 191.775C301.037 191.709 300.972 191.616 300.94 191.51C297.68 179.45 290.94 169.51 287.67 168.01C287.416 167.854 287.111 167.804 286.82 167.87C286.76 167.902 286.693 167.921 286.625 167.926C286.557 167.932 286.489 167.923 286.424 167.901C286.36 167.878 286.3 167.843 286.25 167.797C286.2 167.751 286.159 167.695 286.131 167.633C286.103 167.571 286.088 167.504 286.087 167.435C286.086 167.367 286.099 167.299 286.125 167.236C286.151 167.173 286.19 167.116 286.239 167.069C286.288 167.021 286.346 166.984 286.41 166.96C286.683 166.86 286.975 166.82 287.265 166.844C287.556 166.869 287.837 166.956 288.09 167.1C291.55 168.74 298.39 178.54 301.81 190.87C304.26 190.87 308.04 190.54 308.96 190.46C310.1 189.1 318.48 178.62 315.35 167.15C315.332 167.087 315.327 167.021 315.335 166.956C315.342 166.891 315.363 166.828 315.396 166.771C315.429 166.714 315.472 166.664 315.525 166.625C315.577 166.585 315.636 166.556 315.7 166.54C315.827 166.506 315.963 166.524 316.077 166.59C316.191 166.655 316.275 166.763 316.31 166.89C319.8 179.65 309.68 191.16 309.57 191.27C309.531 191.319 309.482 191.359 309.427 191.388C309.372 191.417 309.312 191.435 309.25 191.44C309.2 191.44 304.21 191.88 301.43 191.88Z" fill="#2A356A"/>
<path d="M318 198.94C312.55 188.73 310.32 188.01 309.35 184.73C310.085 182.896 311.134 181.204 312.45 179.73C311.79 179.54 310.37 179.26 309.45 179.09C309.55 178.64 309.66 178.2 309.76 177.77C308.759 177.658 307.746 177.706 306.76 177.91V176.91C305.49 176.634 304.185 176.55 302.89 176.66C303.003 177.134 303.113 177.614 303.22 178.1C302.22 178.29 300.7 178.6 299.97 178.81C301.389 180.417 302.431 182.32 303.02 184.38C300.08 189.43 288.66 221.89 307.24 224.38C325.82 226.87 323.44 209.16 318 198.94Z" fill="#2A356A"/>
<path opacity="0.4" d="M318 198.94C312.55 188.73 310.32 188.01 309.35 184.73C310.085 182.896 311.134 181.204 312.45 179.73C311.79 179.54 310.37 179.26 309.45 179.09C309.55 178.64 309.66 178.2 309.76 177.77C308.759 177.658 307.746 177.706 306.76 177.91V176.91C305.49 176.634 304.185 176.55 302.89 176.66C303.003 177.134 303.113 177.614 303.22 178.1C302.22 178.29 300.7 178.6 299.97 178.81C301.389 180.417 302.431 182.32 303.02 184.38C300.08 189.43 288.66 221.89 307.24 224.38C325.82 226.87 323.44 209.16 318 198.94Z" fill="white"/>
<path d="M302.26 183.41C302.144 183.925 302.094 184.452 302.11 184.98C302.11 185.35 303.11 185.6 304.22 185.71C305.33 185.82 309.99 186 309.84 185.48C309.69 184.96 310.07 184.25 310.09 183.81C310.11 183.37 308.24 183.35 306.67 183.41C305.1 183.47 302.57 182.85 302.26 183.41Z" fill="#2A356A"/>
<path d="M291.45 221H292.37C292.55 221 292.69 220.9 292.68 220.79L292.25 216.79C292.25 216.67 292.08 216.58 291.89 216.58H291C290.82 216.58 290.68 216.67 290.69 216.79L291.12 220.79C291.1 220.92 291.26 221 291.45 221Z" fill="#2A356A"/>
</svg>
