<svg width="465" height="324" viewBox="0 0 465 324" fill="none" xmlns="http://www.w3.org/2000/svg">
<path d="M92.6482 324C143.816 324 185.296 320.845 185.296 316.953C185.296 313.061 143.816 309.906 92.6482 309.906C41.48 309.906 0 313.061 0 316.953C0 320.845 41.48 324 92.6482 324Z" fill="#E6E6E6"/>
<path d="M70.8186 71.8904C86.9422 65.0224 107.024 69.3739 126.637 72.394C126.819 68.7366 129.031 64.2855 126.714 61.7339C123.899 58.6339 124.158 55.3768 125.852 52.1009C130.184 43.7239 123.978 34.8103 117.711 27.3987C116.298 25.732 114.513 24.4224 112.5 23.5763C110.487 22.7303 108.304 22.3716 106.126 22.5295L94.5176 23.3599C91.6927 23.5619 88.9968 24.6232 86.7906 26.4016C84.5844 28.18 82.9732 30.5908 82.1725 33.3114C79.4006 37.0868 77.917 40.8519 78.851 44.5973C74.6991 47.4389 74.0015 50.8689 75.8672 54.7357C77.4493 57.1703 77.4325 59.5403 75.7953 61.8446C73.6452 64.7824 71.9983 68.0582 70.9224 71.5377L70.8186 71.8904Z" fill="#2F2E41"/>
<path d="M453.981 280.093H125.363C122.441 280.093 119.638 278.93 117.572 276.861C115.505 274.791 114.344 271.984 114.344 269.058C233.468 255.193 350.354 255.193 465 269.058C465 271.984 463.839 274.791 461.773 276.861C459.706 278.93 456.904 280.093 453.981 280.093Z" fill="#2F2E41"/>
<path d="M465 269.707L114.344 269.058L154.984 200.577L155.178 200.252V49.3264C155.178 47.4945 155.538 45.6805 156.238 43.988C156.938 42.2955 157.964 40.7577 159.258 39.4623C160.551 38.167 162.087 37.1395 163.777 36.4385C165.467 35.7375 167.278 35.3768 169.107 35.377H408.292C410.121 35.3768 411.933 35.7375 413.623 36.4385C415.313 37.1395 416.848 38.167 418.142 39.4623C419.435 40.7577 420.461 42.2955 421.161 43.988C421.861 45.6805 422.221 47.4945 422.221 49.3264V201.291L465 269.707Z" fill="#3F3D56"/>
<path d="M168.79 45.1133C167.587 45.1146 166.434 45.5938 165.583 46.4456C164.732 47.2975 164.254 48.4524 164.253 49.6571V187.269C164.254 188.474 164.733 189.629 165.583 190.481C166.434 191.333 167.587 191.812 168.79 191.813H410.554C411.757 191.812 412.91 191.332 413.761 190.481C414.612 189.629 415.09 188.474 415.091 187.269V49.6571C415.09 48.4524 414.612 47.2975 413.761 46.4457C412.91 45.5939 411.757 45.1147 410.554 45.1133H168.79Z" fill="white"/>
<path d="M169.803 209.988C169.431 209.989 169.067 210.096 168.754 210.297C168.441 210.498 168.192 210.784 168.036 211.122L155.514 238.385C155.378 238.681 155.318 239.007 155.341 239.333C155.363 239.659 155.467 239.974 155.643 240.249C155.819 240.524 156.061 240.75 156.347 240.907C156.633 241.064 156.954 241.146 157.28 241.146H420.619C420.951 241.146 421.277 241.061 421.566 240.899C421.856 240.738 422.099 240.504 422.273 240.222C422.447 239.94 422.547 239.617 422.562 239.286C422.576 238.954 422.506 238.624 422.358 238.327L408.747 211.065C408.586 210.741 408.338 210.468 408.031 210.278C407.723 210.087 407.369 209.987 407.008 209.988H169.803Z" fill="#2F2E41"/>
<path d="M288.7 42.842C290.311 42.842 291.617 41.5342 291.617 39.921C291.617 38.3078 290.311 37 288.7 37C287.089 37 285.783 38.3078 285.783 39.921C285.783 41.5342 287.089 42.842 288.7 42.842Z" fill="white"/>
<path d="M262.816 246.339C262.389 246.339 261.973 246.481 261.634 246.741C261.295 247.002 261.05 247.367 260.939 247.78L257.797 259.464C257.72 259.752 257.71 260.055 257.767 260.348C257.825 260.641 257.95 260.917 258.131 261.155C258.313 261.392 258.547 261.584 258.814 261.717C259.082 261.849 259.376 261.918 259.675 261.918H319.412C319.722 261.918 320.027 261.843 320.303 261.701C320.578 261.559 320.816 261.353 320.996 261.1C321.175 260.847 321.292 260.554 321.336 260.247C321.38 259.94 321.35 259.627 321.249 259.333L317.21 247.649C317.078 247.267 316.83 246.935 316.501 246.7C316.171 246.465 315.777 246.339 315.373 246.339H262.816Z" fill="#2F2E41"/>
<path d="M422.221 197.979V200.576H154.984L155.185 200.252V197.979H422.221Z" fill="#2F2E41"/>
<path d="M414.767 90.876C439.825 90.876 460.139 70.5327 460.139 45.438C460.139 20.3433 439.825 0 414.767 0C389.709 0 369.396 20.3433 369.396 45.438C369.396 70.5327 389.709 90.876 414.767 90.876Z" fill="#2A356A"/>
<path d="M433.564 65.2361H395.971C395.283 65.2355 394.624 64.9617 394.138 64.4749C393.652 63.9881 393.379 63.3281 393.378 62.6397V39.9207C393.379 39.2323 393.652 38.5723 394.138 38.0855C394.624 37.5987 395.283 37.325 395.971 37.3242H433.564C434.252 37.325 434.911 37.5987 435.397 38.0855C435.883 38.5723 436.156 39.2323 436.157 39.9207V62.6397C436.156 63.3281 435.883 63.9881 435.397 64.4749C434.911 64.9617 434.252 65.2355 433.564 65.2361ZM395.971 39.9207V62.6397H433.566L433.564 39.9207L395.971 39.9207Z" fill="white"/>
<path d="M426.434 39.9209H403.101V29.535C403.101 22.0125 408.007 16.5527 414.768 16.5527C421.528 16.5527 426.434 22.0125 426.434 29.535L426.434 39.9209ZM405.693 37.3244H423.842V29.535C423.842 23.4201 420.11 19.1492 414.768 19.1492C409.425 19.1492 405.693 23.4201 405.693 29.535L405.693 37.3244Z" fill="white"/>
<path d="M414.767 53.2271C416.199 53.2271 417.36 52.0646 417.36 50.6306C417.36 49.1967 416.199 48.0342 414.767 48.0342C413.336 48.0342 412.175 49.1967 412.175 50.6306C412.175 52.0646 413.336 53.2271 414.767 53.2271Z" fill="white"/>
<path d="M383.094 145.137H196.25C195.333 145.135 194.453 144.77 193.804 144.12C193.156 143.471 192.791 142.59 192.79 141.671V95.2552C192.791 94.3365 193.156 93.4558 193.804 92.8062C194.453 92.1565 195.333 91.7911 196.25 91.79H383.094C384.012 91.7911 384.891 92.1565 385.54 92.8062C386.188 93.4558 386.553 94.3365 386.554 95.2552V141.671C386.553 142.59 386.188 143.471 385.54 144.12C384.891 144.77 384.012 145.135 383.094 145.137ZM196.25 93.1761C195.699 93.1767 195.172 93.396 194.783 93.7857C194.393 94.1755 194.174 94.704 194.174 95.2552V141.671C194.174 142.223 194.393 142.751 194.783 143.141C195.172 143.531 195.699 143.75 196.25 143.75H383.094C383.645 143.75 384.172 143.531 384.562 143.141C384.951 142.751 385.17 142.223 385.17 141.671V95.2552C385.17 94.704 384.951 94.1755 384.562 93.7857C384.172 93.3959 383.645 93.1767 383.094 93.1761L196.25 93.1761Z" fill="#E6E6E6"/>
<path d="M225.282 130.798C233.066 130.798 239.376 124.478 239.376 116.683C239.376 108.887 233.066 102.567 225.282 102.567C217.498 102.567 211.187 108.887 211.187 116.683C211.187 124.478 217.498 130.798 225.282 130.798Z" fill="#E6E6E6"/>
<path d="M257.834 107.272C257.525 107.272 257.219 107.332 256.933 107.45C256.648 107.568 256.389 107.742 256.17 107.96C255.952 108.179 255.778 108.438 255.66 108.724C255.542 109.01 255.481 109.316 255.481 109.625C255.481 109.934 255.542 110.24 255.66 110.526C255.778 110.812 255.952 111.071 256.17 111.29C256.389 111.508 256.648 111.682 256.933 111.8C257.219 111.918 257.525 111.978 257.834 111.978H368.576C369.199 111.978 369.797 111.73 370.237 111.288C370.678 110.847 370.925 110.249 370.925 109.625C370.925 109.001 370.678 108.403 370.237 107.961C369.797 107.52 369.199 107.272 368.576 107.272H257.834Z" fill="#E6E6E6"/>
<path d="M257.833 121.388C257.21 121.388 256.613 121.636 256.172 122.077C255.732 122.518 255.484 123.116 255.484 123.74C255.484 124.364 255.732 124.963 256.172 125.404C256.613 125.845 257.21 126.093 257.833 126.093H305.486C306.109 126.093 306.707 125.845 307.147 125.404C307.588 124.963 307.835 124.364 307.835 123.74C307.835 123.116 307.588 122.518 307.147 122.077C306.707 121.636 306.109 121.388 305.486 121.388H257.833Z" fill="#E6E6E6"/>
<path d="M154.524 122.339L119.985 140.729L119.547 125.404C130.821 123.519 141.546 120.238 151.464 114.895L155.076 105.958C155.47 104.984 156.11 104.129 156.933 103.477C157.756 102.826 158.734 102.4 159.771 102.241C160.808 102.083 161.868 102.197 162.848 102.573C163.828 102.949 164.693 103.573 165.359 104.385C166.333 105.573 166.821 107.087 166.722 108.621C166.623 110.155 165.945 111.594 164.826 112.647L154.524 122.339Z" fill="#FFB8B8"/>
<path d="M70.1301 228.515C69.8782 227.59 69.8247 226.622 69.9732 225.674C70.1217 224.726 70.4688 223.821 70.9917 223.017L78.5791 211.356C80.3737 208.598 83.1273 206.605 86.3058 205.766C89.4842 204.926 92.8609 205.298 95.7805 206.811C92.5918 212.247 93.0363 217.015 96.8818 221.159C90.9121 224.078 85.3948 227.845 80.5006 232.343C79.6072 232.953 78.5811 233.341 77.5079 233.473C76.4347 233.606 75.3454 233.479 74.3308 233.105C73.3161 232.73 72.4056 232.118 71.6749 231.32C70.9442 230.522 70.4146 229.56 70.1301 228.515Z" fill="#2F2E41"/>
<path d="M156.097 213.268C154.949 215.184 153.329 216.773 151.391 217.881C149.453 218.99 147.263 219.581 145.032 219.598L94.6265 219.98L92.4404 207.282L114.738 200.715L95.9381 186.265L116.487 162.184L153.81 197.021C155.992 199.057 157.409 201.782 157.825 204.739C158.242 207.696 157.632 210.707 156.097 213.268Z" fill="#2F2E41"/>
<path d="M86.7567 300.107H74.952C64.3531 227.349 53.5645 154.388 85.4451 127.155L123.045 133.285L118.236 165.248L97.2498 189.33L86.7567 300.107Z" fill="#2F2E41"/>
<path d="M97.1334 316.589C96.2093 316.841 95.2423 316.895 94.296 316.746C93.3497 316.598 92.4455 316.25 91.643 315.726L78.8256 314.001C76.0713 312.204 74.0818 309.446 73.2431 306.263C72.4044 303.08 72.7762 299.699 74.2864 296.775C79.7144 299.968 84.476 299.522 88.6137 295.671C91.5374 301.583 96.3545 301.222 100.955 306.203C101.564 307.098 101.951 308.125 102.083 309.2C102.216 310.275 102.09 311.366 101.716 312.382C101.342 313.398 100.731 314.31 99.9338 315.042C99.1368 315.774 98.1766 316.304 97.1334 316.589Z" fill="#2F2E41"/>
<path d="M114.738 78.5536L92.8774 73.2994C96.5081 65.8568 96.8071 57.5753 95.0635 48.7796L109.929 48.3418C110.394 59.2794 111.804 69.4979 114.738 78.5536Z" fill="#FFB8B8"/>
<path d="M120.746 146.469C104.833 157.329 93.5884 146.84 85.0078 130.658C86.2002 120.756 84.2696 108.906 80.694 96.0307C79.1038 90.3516 79.6975 84.2818 82.3578 79.0196C85.0181 73.7575 89.5518 69.6855 95.0636 67.6074L113.864 75.4888C129.827 88.5199 132.969 102.635 126.98 117.523L120.746 146.469Z" fill="#2A356A"/>
<path d="M74.9519 89.4998L57.4635 98.6947L88.5055 117.085L92.8247 127.754C93.113 128.467 93.2535 129.23 93.2375 129.998C93.2215 130.767 93.0495 131.524 92.7318 132.223C92.4142 132.923 91.9576 133.55 91.39 134.067C90.8223 134.584 90.1555 134.98 89.43 135.231C88.6054 135.515 87.7262 135.605 86.8612 135.493C85.9962 135.38 85.1689 135.069 84.4441 134.583C83.7193 134.097 83.1167 133.45 82.6835 132.691C82.2502 131.933 81.9981 131.085 81.9469 130.213L81.5101 122.777L42.0562 109.738C40.7269 109.298 39.5148 108.562 38.5118 107.584C37.5088 106.606 36.7412 105.412 36.267 104.093C35.5759 102.171 35.5407 100.073 36.167 98.1281C36.7933 96.1834 38.0457 94.5014 39.7282 93.3454L71.4543 71.5479L74.9519 89.4998Z" fill="#FFB8B8"/>
<path d="M92.4404 91.2517C85.1466 88.0506 78.5142 91.5279 70.1427 94.3167L68.8311 71.1105C77.1437 66.6734 85.0692 65.4772 92.4404 68.9212L92.4404 91.2517Z" fill="#2A356A"/>
<path d="M101.165 59.837C108.874 59.837 115.122 53.5791 115.122 45.8594C115.122 38.1398 108.874 31.8818 101.165 31.8818C93.4571 31.8818 87.2083 38.1398 87.2083 45.8594C87.2083 53.5791 93.4571 59.837 101.165 59.837Z" fill="#FFB8B8"/>
<path d="M117.863 44.0959C104.044 45.4513 93.5141 43.188 86.7844 36.7436V31.5537H116.69L117.863 44.0959Z" fill="#2F2E41"/>
</svg>
