<svg width="459" height="342" viewBox="0 0 459 342" fill="none" xmlns="http://www.w3.org/2000/svg">
<path d="M410.953 153.421C410.953 153.421 413.323 146.101 421.033 138.301C424.433 134.861 426.653 132.461 425.943 130.411C425.303 128.601 423.143 127.661 420.053 129.121C415.663 131.201 412.703 135.061 410.953 142.811V153.421Z" fill="#2A356A"/>
<path opacity="0.1" d="M410.953 153.421C410.953 153.421 413.323 146.101 421.033 138.301C424.433 134.861 426.653 132.461 425.943 130.411C425.303 128.601 423.143 127.661 420.053 129.121C415.663 131.201 412.703 135.061 410.953 142.811V153.421Z" fill="black"/>
<path d="M410.953 162.511C410.953 162.511 414.242 156.061 418.212 152.631C422.182 149.201 427.282 145.701 422.962 143.021C418.642 140.341 411.532 145.601 410.962 150.791L410.953 162.511Z" fill="#2A356A"/>
<path d="M67.1025 304.761C156.562 351.501 301.622 351.501 391.103 304.761C480.583 258.021 480.573 182.241 391.103 135.501C301.633 88.7613 156.583 88.7613 67.1025 135.501C-22.3775 182.241 -22.3575 258.061 67.1025 304.761Z" fill="#F5F5F5"/>
<path d="M60.0225 226.571C72.714 226.571 83.0025 221.668 83.0025 215.621C83.0025 209.573 72.714 204.671 60.0225 204.671C47.331 204.671 37.0425 209.573 37.0425 215.621C37.0425 221.668 47.331 226.571 60.0225 226.571Z" fill="#EBEBEB"/>
<path d="M322.263 241.191C339.201 241.191 352.933 234.646 352.933 226.571C352.933 218.497 339.201 211.951 322.263 211.951C305.324 211.951 291.593 218.497 291.593 226.571C291.593 234.646 305.324 241.191 322.263 241.191Z" fill="#EBEBEB"/>
<path d="M413.953 166.421C413.953 166.421 416.323 159.101 424.033 151.301C427.433 147.861 429.653 145.461 428.943 143.411C428.303 141.601 426.143 140.661 423.053 142.121C418.663 144.201 415.703 148.061 413.953 155.811V166.421Z" fill="#2A356A"/>
<path opacity="0.1" d="M413.953 166.421C413.953 166.421 416.323 159.101 424.033 151.301C427.433 147.861 429.653 145.461 428.943 143.411C428.303 141.601 426.143 140.661 423.053 142.121C418.663 144.201 415.703 148.061 413.953 155.811V166.421Z" fill="black"/>
<path d="M413.462 161.82H413.372C413.276 161.795 413.194 161.732 413.143 161.646C413.093 161.56 413.078 161.457 413.102 161.36C415.852 150.74 422.962 144.16 425.972 142.64C426.063 142.598 426.167 142.592 426.261 142.624C426.356 142.655 426.436 142.722 426.482 142.81C426.525 142.9 426.53 143.002 426.499 143.095C426.467 143.188 426.4 143.265 426.312 143.31C423.402 144.78 416.513 151.18 413.833 161.55C413.809 161.63 413.76 161.699 413.693 161.747C413.626 161.796 413.545 161.822 413.462 161.82Z" fill="white"/>
<path d="M413.953 175.511C413.953 175.511 417.242 169.061 421.212 165.631C425.182 162.201 430.282 158.701 425.962 156.021C421.642 153.341 414.532 158.601 413.962 163.791L413.953 175.511Z" fill="#2A356A"/>
<path d="M413.462 170.921H413.383C413.286 170.898 413.203 170.837 413.151 170.753C413.099 170.669 413.081 170.568 413.103 170.471C414.973 162.471 421.683 157.951 423.913 157.201C424.004 157.182 424.1 157.198 424.181 157.245C424.262 157.293 424.323 157.368 424.352 157.458C424.38 157.547 424.375 157.644 424.336 157.73C424.297 157.815 424.229 157.884 424.143 157.921C422.143 158.601 415.603 163.051 413.833 170.641C413.81 170.722 413.762 170.794 413.695 170.844C413.628 170.895 413.546 170.922 413.462 170.921Z" fill="white"/>
<path d="M121.493 240.341C121.493 240.341 119.973 236.961 113.623 235.531C107.443 234.141 104.373 235.531 100.203 234.811C96.0325 234.091 97.1225 226.301 108.343 227.111C118.613 227.851 121.493 235.931 121.493 235.931V240.341Z" fill="#2A356A"/>
<path d="M122.102 238.481C122.03 238.479 121.959 238.456 121.899 238.416C121.838 238.375 121.791 238.318 121.763 238.251C120.763 235.861 117.062 231.961 111.852 230.771C105.382 229.301 101.942 230.771 101.912 230.771C101.823 230.801 101.726 230.797 101.639 230.759C101.552 230.721 101.483 230.653 101.444 230.567C101.406 230.48 101.4 230.383 101.43 230.293C101.459 230.203 101.521 230.128 101.602 230.081C101.752 230.021 105.313 228.471 112.013 230.001C117.803 231.321 121.493 235.561 122.453 237.931C122.472 237.976 122.483 238.025 122.483 238.074C122.484 238.123 122.474 238.172 122.456 238.218C122.437 238.264 122.409 238.305 122.375 238.34C122.34 238.375 122.298 238.402 122.252 238.421L122.102 238.481Z" fill="white"/>
<path d="M121.493 236.491C120.227 234.224 118.606 232.175 116.693 230.421C110.693 224.601 102.693 222.771 98.6925 219.591C94.2925 216.161 99.6225 212.201 105.283 212.451C108.523 212.601 111.943 214.741 113.823 216.281C120.443 221.691 121.533 230.421 121.533 230.421L121.493 236.491Z" fill="#2A356A"/>
<path opacity="0.5" d="M121.493 236.491C120.227 234.224 118.606 232.175 116.693 230.421C110.693 224.601 102.693 222.771 98.6925 219.591C94.2925 216.161 99.6225 212.201 105.283 212.451C108.523 212.601 111.943 214.741 113.823 216.281C120.443 221.691 121.533 230.421 121.533 230.421L121.493 236.491Z" fill="white"/>
<path d="M122.103 235.901C122.013 235.9 121.927 235.867 121.859 235.809C121.792 235.75 121.747 235.67 121.733 235.581C120.945 231.377 119.038 227.463 116.213 224.251C111.493 218.881 103.423 216.001 103.333 215.971C103.241 215.937 103.167 215.87 103.124 215.782C103.081 215.695 103.073 215.594 103.103 215.501C103.118 215.454 103.143 215.411 103.176 215.373C103.209 215.336 103.249 215.306 103.294 215.284C103.339 215.263 103.387 215.251 103.437 215.248C103.486 215.246 103.536 215.254 103.583 215.271C103.923 215.381 111.923 218.271 116.773 223.751C119.714 227.065 121.689 231.122 122.483 235.481C122.49 235.531 122.486 235.581 122.473 235.629C122.461 235.677 122.438 235.722 122.407 235.762C122.376 235.801 122.338 235.833 122.294 235.857C122.25 235.881 122.202 235.896 122.153 235.901H122.103Z" fill="white"/>
<path d="M258.733 298.641C258.733 298.641 260.433 295.341 266.853 294.251C273.093 293.191 276.083 294.701 280.293 294.251C284.503 293.801 283.823 285.911 272.573 286.121C262.283 286.311 258.973 294.221 258.973 294.221L258.733 298.641Z" fill="#2A356A"/>
<path opacity="0.1" d="M258.733 298.641C258.733 298.641 260.433 295.341 266.853 294.251C273.093 293.191 276.083 294.701 280.293 294.251C284.503 293.801 283.823 285.911 272.573 286.121C262.283 286.311 258.973 294.221 258.973 294.221L258.733 298.641Z" fill="black"/>
<path d="M258.243 297.061C258.164 297.058 258.088 297.034 258.023 296.991C257.982 296.963 257.948 296.927 257.921 296.886C257.895 296.845 257.877 296.798 257.869 296.75C257.86 296.702 257.861 296.652 257.872 296.604C257.883 296.556 257.904 296.511 257.933 296.471C260.323 293.051 264.673 290.471 269.583 289.611C275.893 288.481 279.583 290.481 279.743 290.611C279.785 290.635 279.823 290.667 279.853 290.705C279.884 290.743 279.906 290.787 279.92 290.834C279.933 290.881 279.937 290.93 279.932 290.978C279.926 291.027 279.911 291.074 279.888 291.116C279.864 291.159 279.832 291.196 279.794 291.227C279.756 291.257 279.712 291.28 279.665 291.293C279.618 291.307 279.569 291.311 279.521 291.305C279.472 291.3 279.425 291.285 279.383 291.261C279.383 291.261 275.753 289.311 269.713 290.391C265.003 291.231 260.823 293.681 258.553 296.941C258.512 296.982 258.464 297.014 258.411 297.035C258.357 297.056 258.3 297.065 258.243 297.061Z" fill="white"/>
<path d="M259.183 294.011C260.635 292.184 262.285 290.524 264.103 289.061C270.433 283.581 278.443 282.691 282.683 279.731C287.263 276.541 282.153 272.301 276.483 272.251C273.243 272.251 269.713 274.181 267.743 275.621C263.545 278.766 260.405 283.116 258.743 288.091L259.183 294.011Z" fill="#2A356A"/>
<path opacity="0.5" d="M259.183 294.011C260.635 292.184 262.285 290.524 264.103 289.061C270.433 283.581 278.443 282.691 282.683 279.731C287.263 276.541 282.153 272.301 276.483 272.251C273.243 272.251 269.713 274.181 267.743 275.621C263.545 278.766 260.405 283.116 258.743 288.091L259.183 294.011Z" fill="white"/>
<path d="M258.243 293.93H258.102C258.011 293.896 257.935 293.829 257.891 293.742C257.846 293.655 257.836 293.555 257.863 293.46C259.425 289.168 261.895 285.263 265.102 282.01C268.582 278.422 273.102 276.019 278.023 275.14C278.071 275.133 278.12 275.136 278.167 275.149C278.214 275.161 278.258 275.183 278.296 275.213C278.334 275.243 278.366 275.28 278.389 275.323C278.413 275.365 278.428 275.412 278.432 275.46C278.439 275.51 278.436 275.56 278.423 275.608C278.41 275.657 278.388 275.702 278.357 275.741C278.326 275.78 278.288 275.813 278.244 275.837C278.2 275.861 278.152 275.876 278.102 275.88C273.365 276.78 269.014 279.103 265.632 282.54C262.526 285.704 260.138 289.5 258.632 293.67C258.606 293.751 258.553 293.821 258.482 293.868C258.412 293.915 258.327 293.937 258.243 293.93Z" fill="white"/>
<path d="M162.102 241.181V165.631H121.492V241.191C121.492 244.191 123.492 247.191 127.492 249.471C135.422 254.051 148.282 254.051 156.212 249.471C160.212 247.181 162.152 244.191 162.162 241.191L162.102 241.181Z" fill="#37474F"/>
<path d="M127.442 174.431C119.502 169.851 119.502 162.431 127.442 157.841C135.382 153.251 148.232 153.261 156.162 157.841C164.092 162.421 164.092 169.841 156.162 174.431C148.232 179.021 135.372 179.001 127.442 174.431Z" fill="#455A64"/>
<path d="M210.853 269.331V214.331H170.233V269.331C170.233 272.331 172.233 275.331 176.233 277.611C184.163 282.191 197.023 282.191 204.953 277.611C208.953 275.331 210.903 272.331 210.903 269.331H210.853Z" fill="#37474F"/>
<path d="M176.183 223.141C168.253 218.561 168.253 211.141 176.183 206.551C184.113 201.961 196.973 201.971 204.903 206.551C212.833 211.131 212.843 218.551 204.903 223.141C196.963 227.731 184.103 227.761 176.183 223.141Z" fill="#455A64"/>
<path d="M259.603 297.471V254.761H218.983V297.481C218.983 300.481 220.983 303.481 224.983 305.771C232.913 310.351 245.773 310.351 253.703 305.771C257.703 303.481 259.643 300.481 259.653 297.481L259.603 297.471Z" fill="#37474F"/>
<path d="M239.293 266.981C250.509 266.981 259.603 261.73 259.603 255.251C259.603 248.773 250.509 243.521 239.293 243.521C228.076 243.521 218.983 248.773 218.983 255.251C218.983 261.73 228.076 266.981 239.293 266.981Z" fill="#455A64"/>
<path d="M118.893 267.821L109.303 262.291L114.613 255.411C115.293 254.531 114.973 254.051 113.903 254.321L101.183 257.601L91.5925 252.061C90.7869 251.652 89.8961 251.438 88.9925 251.438C88.0889 251.438 87.1981 251.652 86.3925 252.061L71.2825 260.761C69.8425 261.591 69.8425 262.931 71.2825 263.761L98.5825 279.521C99.3881 279.93 100.279 280.144 101.183 280.144C102.086 280.144 102.977 279.93 103.783 279.521L118.893 270.791C120.323 269.991 120.323 268.651 118.893 267.821Z" fill="#2A356A"/>
<path d="M103.553 264.431C103.709 264.416 103.866 264.416 104.023 264.431C104.178 264.451 104.328 264.502 104.463 264.581L105.833 265.371C105.925 265.416 105.997 265.495 106.033 265.591C106.033 265.671 106.033 265.741 105.893 265.791C105.86 265.8 105.825 265.8 105.793 265.791C105.743 265.803 105.692 265.803 105.643 265.791L86.6425 267.291H86.1025C85.9467 267.268 85.797 267.213 85.6625 267.131L84.2925 266.341C84.2001 266.296 84.1285 266.217 84.0925 266.121C84.0925 266.041 84.0925 265.971 84.2325 265.921C84.2653 265.912 84.2998 265.912 84.3325 265.921H84.4825L103.553 264.431ZM97.4325 263.161C97.026 263.433 96.6018 263.677 96.1625 263.891C95.8079 264.071 95.436 264.215 95.0525 264.321C94.6505 264.423 94.2372 264.473 93.8225 264.471C92.8969 264.473 91.988 264.224 91.1925 263.751C90.8129 263.565 90.4733 263.307 90.1925 262.991C90.0103 262.783 89.9076 262.518 89.9025 262.241C89.9062 261.98 90.0018 261.729 90.1725 261.531C90.3715 261.273 90.6154 261.053 90.8925 260.881C91.0822 260.744 91.2792 260.617 91.4825 260.501C91.6725 260.391 91.9025 260.271 92.1525 260.151C92.5125 259.97 92.8915 259.829 93.2825 259.731C94.1132 259.525 94.9819 259.525 95.8125 259.731C96.2745 259.856 96.7182 260.041 97.1325 260.281C97.4933 260.469 97.8129 260.728 98.0725 261.041C98.2569 261.249 98.363 261.514 98.3725 261.791C98.3597 262.05 98.2652 262.299 98.1025 262.501C97.9194 262.759 97.6926 262.982 97.4325 263.161ZM99.3225 270.981C98.9352 271.27 98.5275 271.531 98.1025 271.761C97.7453 271.941 97.3698 272.082 96.9825 272.181C96.582 272.292 96.168 272.345 95.7525 272.341C95.3098 272.339 94.8693 272.279 94.4425 272.161C93.9794 272.044 93.5351 271.862 93.1225 271.621C92.7657 271.427 92.4472 271.169 92.1825 270.861C91.9981 270.651 91.8952 270.381 91.8925 270.101C91.9004 269.843 91.9916 269.594 92.1525 269.391C92.3561 269.136 92.6033 268.92 92.8825 268.751C93.0683 268.608 93.2656 268.481 93.4725 268.371C93.6881 268.24 93.9119 268.123 94.1425 268.021C94.4991 267.84 94.8748 267.699 95.2625 267.601C95.6653 267.502 96.0779 267.449 96.4925 267.441C97.4148 267.441 98.32 267.69 99.1125 268.161C99.4939 268.344 99.8342 268.603 100.113 268.921C100.289 269.123 100.386 269.383 100.386 269.651C100.386 269.92 100.289 270.179 100.113 270.381C99.8851 270.624 99.618 270.827 99.3225 270.981ZM92.9525 261.981C92.7537 262.094 92.5907 262.26 92.4825 262.461C92.4825 262.601 92.4825 262.741 92.7725 262.881C92.9886 263.012 93.2406 263.072 93.4925 263.051C93.783 263.005 94.0636 262.911 94.3225 262.771C94.7015 262.589 95.0659 262.379 95.4125 262.141C95.6161 262.032 95.783 261.865 95.8925 261.661C95.8925 261.521 95.8425 261.381 95.6025 261.241C95.3835 261.109 95.1268 261.053 94.8725 261.081C94.5853 261.122 94.3076 261.213 94.0525 261.351C93.6705 261.518 93.3027 261.715 92.9525 261.941V261.981ZM94.8525 269.801C94.649 269.911 94.4821 270.078 94.3725 270.281C94.3725 270.411 94.3725 270.551 94.6625 270.691C94.8788 270.831 95.1368 270.891 95.3925 270.861C95.6786 270.816 95.9555 270.725 96.2125 270.591C96.5958 270.412 96.9638 270.201 97.3125 269.961C97.5139 269.852 97.6776 269.685 97.7825 269.481C97.7825 269.341 97.7825 269.201 97.4925 269.061C97.2764 268.93 97.0244 268.871 96.7725 268.891C96.4849 268.936 96.2074 269.031 95.9525 269.171C95.5705 269.338 95.2027 269.535 94.8525 269.761V269.801Z" fill="white"/>
<path d="M171.713 298.3L162.103 292.76L167.413 285.89C168.083 285.01 167.763 284.52 166.693 284.8L153.973 288.07L144.383 282.54C143.579 282.131 142.69 281.918 141.788 281.918C140.886 281.918 139.996 282.131 139.193 282.54L124.103 291.26C122.673 292.09 122.673 293.44 124.103 294.26L151.403 310.03C152.209 310.435 153.1 310.646 154.003 310.646C154.905 310.646 155.796 310.435 156.603 310.03L171.713 301.3C173.153 300.47 173.153 299.13 171.713 298.3Z" fill="#2A356A"/>
<path d="M156.373 294.911H156.853C157.008 294.936 157.157 294.991 157.293 295.071L158.653 295.861C158.773 295.931 158.843 296.001 158.853 296.081C158.863 296.161 158.853 296.221 158.723 296.281C158.69 296.289 158.655 296.289 158.623 296.281H158.473L139.473 297.781C139.313 297.797 139.152 297.797 138.993 297.781C138.836 297.759 138.686 297.705 138.553 297.621L137.193 296.841C137.073 296.771 137.003 296.691 136.993 296.621C136.989 296.577 137 296.533 137.023 296.495C137.047 296.458 137.081 296.428 137.123 296.411H137.223H137.373L156.373 294.911ZM150.253 293.641C149.851 293.915 149.43 294.159 148.993 294.371C148.635 294.551 148.26 294.692 147.873 294.791C147.472 294.901 147.058 294.955 146.643 294.951C146.2 294.95 145.759 294.889 145.333 294.771C144.869 294.654 144.425 294.472 144.013 294.231C143.653 294.037 143.331 293.78 143.063 293.471C142.881 293.27 142.781 293.008 142.781 292.736C142.781 292.465 142.881 292.203 143.063 292.001C143.265 291.749 143.508 291.533 143.783 291.361C143.971 291.223 144.168 291.096 144.373 290.981C144.593 290.853 144.82 290.736 145.053 290.631C145.409 290.45 145.785 290.309 146.173 290.211C146.82 290.047 147.493 290.011 148.153 290.107C148.814 290.204 149.449 290.429 150.023 290.771C150.384 290.963 150.707 291.221 150.973 291.531C151.156 291.738 151.259 292.005 151.263 292.281C151.255 292.542 151.16 292.792 150.993 292.991C150.788 293.252 150.537 293.472 150.253 293.641ZM152.153 301.461C151.746 301.734 151.322 301.977 150.883 302.191C150.529 302.373 150.157 302.514 149.773 302.611C149.37 302.713 148.957 302.763 148.543 302.761C147.617 302.764 146.708 302.515 145.913 302.041C145.552 301.853 145.229 301.599 144.963 301.291C144.778 301.081 144.675 300.811 144.673 300.531C144.684 300.272 144.779 300.023 144.943 299.821C145.144 299.566 145.388 299.346 145.663 299.171C145.863 299.031 146.063 298.911 146.253 298.791C146.443 298.671 146.673 298.561 146.923 298.441C147.283 298.26 147.662 298.119 148.053 298.021C148.456 297.93 148.868 297.88 149.283 297.871C149.721 297.87 150.159 297.927 150.583 298.041C151.047 298.161 151.491 298.346 151.903 298.591C152.264 298.783 152.587 299.041 152.853 299.351C153.033 299.552 153.133 299.812 153.133 300.081C153.133 300.351 153.033 300.611 152.853 300.811C152.657 301.065 152.42 301.285 152.153 301.461ZM145.783 292.461C145.579 292.571 145.412 292.738 145.303 292.941C145.303 293.071 145.353 293.211 145.593 293.351C145.809 293.491 146.067 293.551 146.323 293.521C146.608 293.475 146.885 293.384 147.143 293.251C147.528 293.072 147.896 292.858 148.243 292.611C148.442 292.505 148.606 292.341 148.713 292.141C148.713 292.001 148.663 291.861 148.423 291.721C148.208 291.586 147.955 291.526 147.703 291.551C147.412 291.596 147.131 291.691 146.873 291.831C146.494 291.998 146.129 292.195 145.783 292.421V292.461ZM147.673 300.281C147.477 300.394 147.315 300.556 147.203 300.751C147.203 300.891 147.253 301.031 147.493 301.171C147.707 301.307 147.96 301.367 148.213 301.341C148.502 301.296 148.782 301.205 149.043 301.071C149.421 300.885 149.785 300.671 150.133 300.431C150.333 300.322 150.499 300.159 150.613 299.961C150.663 299.821 150.613 299.681 150.323 299.541C150.104 299.406 149.848 299.347 149.593 299.371C149.307 299.418 149.03 299.509 148.773 299.641C148.393 299.817 148.026 300.018 147.673 300.241V300.281Z" fill="white"/>
<path d="M224.492 328.761L214.903 323.231L220.222 316.341C220.892 315.471 220.572 314.981 219.502 315.261L206.782 318.531L197.192 313.001C196.387 312.591 195.496 312.378 194.593 312.378C193.689 312.378 192.798 312.591 191.992 313.001L176.882 321.761C175.452 322.591 175.452 323.941 176.882 324.761L204.183 340.531C204.989 340.935 205.88 341.146 206.782 341.146C207.685 341.146 208.576 340.935 209.382 340.531L224.492 331.761C225.932 330.961 225.932 329.621 224.492 328.761Z" fill="#2A356A"/>
<path d="M209.153 325.401H209.623C209.778 325.424 209.928 325.479 210.063 325.561L211.433 326.351C211.553 326.421 211.623 326.491 211.633 326.571C211.643 326.651 211.633 326.711 211.503 326.771H211.403H211.253L192.253 328.271C192.096 328.286 191.939 328.286 191.783 328.271C191.626 328.251 191.476 328.196 191.343 328.111L189.983 327.331C189.863 327.261 189.793 327.181 189.783 327.111C189.779 327.067 189.79 327.023 189.813 326.985C189.837 326.947 189.871 326.918 189.913 326.901H190.013C190.062 326.89 190.113 326.89 190.163 326.901L209.153 325.401ZM203.033 324.131C202.629 324.407 202.204 324.651 201.763 324.861C201.409 325.042 201.037 325.183 200.653 325.281C200.252 325.391 199.838 325.445 199.423 325.441C198.977 325.439 198.533 325.378 198.103 325.261C197.642 325.144 197.201 324.962 196.793 324.721C196.433 324.526 196.111 324.269 195.843 323.961C195.658 323.751 195.555 323.481 195.553 323.201C195.564 322.942 195.659 322.693 195.823 322.491C196.027 322.238 196.27 322.019 196.543 321.841C196.743 321.701 196.943 321.581 197.133 321.471C197.323 321.361 197.553 321.241 197.803 321.111C198.538 320.751 199.344 320.556 200.163 320.541C201.084 320.544 201.989 320.793 202.783 321.261C203.144 321.452 203.467 321.71 203.733 322.021C203.913 322.23 204.016 322.495 204.023 322.771C204.01 323.03 203.915 323.279 203.753 323.481C203.554 323.739 203.31 323.959 203.033 324.131ZM204.923 331.951C204.518 332.221 204.098 332.465 203.663 332.681C203.309 332.861 202.937 333.001 202.553 333.101C201.716 333.314 200.839 333.314 200.003 333.101C199.542 332.98 199.101 332.795 198.693 332.551C198.311 332.368 197.971 332.11 197.693 331.791C197.507 331.585 197.404 331.318 197.403 331.041C197.408 330.782 197.5 330.532 197.663 330.331C197.871 330.078 198.117 329.858 198.393 329.681C198.582 329.544 198.779 329.417 198.983 329.301C199.173 329.191 199.403 329.071 199.653 328.951C200.382 328.575 201.192 328.38 202.013 328.381C202.451 328.38 202.889 328.437 203.313 328.551C203.773 328.672 204.214 328.857 204.623 329.101C205.004 329.284 205.344 329.543 205.623 329.861C205.808 330.067 205.911 330.334 205.913 330.611C205.907 330.87 205.815 331.12 205.653 331.321C205.448 331.572 205.201 331.785 204.923 331.951ZM198.553 322.951C198.354 323.063 198.191 323.23 198.083 323.431C198.083 323.561 198.133 323.701 198.373 323.841C198.587 323.975 198.84 324.035 199.093 324.011C199.382 323.966 199.662 323.875 199.923 323.741C200.307 323.56 200.675 323.346 201.023 323.101C201.222 322.995 201.386 322.831 201.493 322.631C201.543 322.491 201.493 322.351 201.203 322.211C200.984 322.076 200.728 322.016 200.473 322.041C200.185 322.087 199.908 322.182 199.653 322.321C199.272 322.49 198.904 322.687 198.553 322.911V322.951ZM200.453 330.771C200.255 330.884 200.089 331.046 199.973 331.241C199.973 331.381 199.973 331.521 200.273 331.661C200.487 331.797 200.74 331.857 200.993 331.831C201.279 331.786 201.556 331.695 201.813 331.561C202.194 331.374 202.562 331.161 202.913 330.921C203.113 330.812 203.279 330.649 203.393 330.451C203.446 330.311 203.346 330.171 203.093 330.031C202.878 329.895 202.625 329.835 202.373 329.861C202.086 329.906 201.81 329.997 201.553 330.131C201.171 330.314 200.804 330.525 200.453 330.761V330.771Z" fill="white"/>
<path d="M361.152 163.791L344.902 154.411V107.501L361.152 116.881V163.791Z" fill="#37474F"/>
<path d="M361.152 163.791L377.402 154.411V107.501L361.152 116.881V163.791Z" fill="#455A64"/>
<path d="M344.902 107.501L361.152 116.881L377.402 107.501L361.152 98.1211L344.902 107.501Z" fill="#455A64"/>
<path d="M324.593 142.681L308.343 133.301V39.4912L324.593 48.8712V142.681Z" fill="#37474F"/>
<path d="M324.593 142.681L340.843 133.301V39.4912L324.593 48.8712V142.681Z" fill="#455A64"/>
<path d="M308.343 39.4913L324.593 48.8713L340.843 39.4913L324.593 30.1113L308.343 39.4913Z" fill="#455A64"/>
<path d="M288.032 121.571L271.782 112.191V79.3613L288.032 88.7413V121.571Z" fill="#37474F"/>
<path d="M288.032 121.571L304.282 112.191V79.3613L288.032 88.7413V121.571Z" fill="#455A64"/>
<path d="M271.782 79.3605L288.032 88.7405L304.282 79.3605L288.032 69.9805L271.782 79.3605Z" fill="#455A64"/>
<path d="M397.713 184.901L381.463 175.511V86.4014L397.703 95.7814L397.713 184.901Z" fill="#37474F"/>
<path d="M397.703 184.901L413.953 175.511V86.4014L397.703 95.7814V184.901Z" fill="#455A64"/>
<path d="M381.463 86.4007L397.703 95.7807L413.953 86.4007L397.713 77.0107L381.463 86.4007Z" fill="#455A64"/>
<path opacity="0.3" d="M284.103 178.091L283.933 74.2111C283.897 73.6098 283.722 73.0251 283.419 72.5041C283.117 71.983 282.697 71.5402 282.193 71.2111L159.633 0.761104C158.633 0.211104 157.903 0.661104 157.903 1.7611L158.103 105.601C158.135 106.203 158.31 106.789 158.612 107.31C158.915 107.831 159.336 108.274 159.843 108.601L282.413 179.101C283.343 179.651 284.103 179.201 284.103 178.091Z" fill="white"/>
<path d="M283.163 179.831C282.809 179.817 282.465 179.714 282.163 179.531L159.593 109.031C159.007 108.663 158.52 108.158 158.172 107.561C157.824 106.964 157.625 106.292 157.593 105.601L157.403 1.76095C157.361 1.45642 157.41 1.14632 157.545 0.870081C157.68 0.593841 157.894 0.363935 158.16 0.209582C158.426 0.0552287 158.731 -0.0166015 159.038 0.00322951C159.345 0.0230605 159.639 0.133652 159.883 0.320948L282.453 70.7609C283.036 71.1305 283.523 71.635 283.871 72.2319C284.219 72.8289 284.419 73.5008 284.453 74.1909L284.623 178.071C284.647 178.374 284.59 178.678 284.458 178.952C284.326 179.226 284.124 179.46 283.873 179.631C283.658 179.76 283.413 179.829 283.163 179.831ZM158.863 0.980952C158.797 0.963567 158.728 0.963567 158.663 0.980952C158.565 1.06503 158.49 1.17226 158.445 1.2928C158.399 1.41335 158.385 1.54337 158.403 1.67095L158.573 105.551C158.601 106.076 158.755 106.588 159.021 107.042C159.287 107.496 159.658 107.879 160.103 108.161L282.673 178.661C282.973 178.831 283.233 178.881 283.393 178.781C283.553 178.681 283.653 178.441 283.653 178.091L283.483 74.2109C283.45 73.6989 283.3 73.2012 283.043 72.7571C282.786 72.3129 282.43 71.9343 282.003 71.6509L159.383 1.15095C159.226 1.051 159.048 0.992491 158.863 0.980952Z" fill="#2A356A"/>
<path d="M272.463 155.171C269.213 152.861 267.313 150.771 266.023 134.711L265.913 133.341C264.703 118.251 263.913 108.291 257.033 104.181C253.733 102.181 251.093 104.181 248.303 106.351C245.773 108.281 243.173 110.261 240.243 108.591C235.093 105.591 234.243 99.651 232.643 88.811C232.443 87.471 232.243 86.061 232.013 84.581C231.663 82.271 231.363 80.121 231.083 78.101C229.503 66.721 228.543 59.841 222.723 56.331C222.149 55.9248 221.489 55.6581 220.795 55.5522C220.1 55.4463 219.391 55.5041 218.723 55.721C214.313 57.261 210.863 66.591 207.213 76.481C206.933 77.211 206.663 77.981 206.373 78.751C203.723 86.041 200.723 94.311 196.573 95.841C195.986 96.0558 195.358 96.135 194.736 96.0726C194.115 96.0103 193.515 95.808 192.983 95.481C188.853 93.141 188.113 86.741 187.403 80.541C186.693 74.341 186.003 68.111 182.103 65.761C181.772 65.5471 181.394 65.418 181.001 65.3848C180.609 65.3517 180.214 65.4156 179.853 65.571C175.013 67.451 170.723 81.771 170.683 81.911L169.683 81.631C169.863 81.021 174.153 66.701 179.443 64.631C179.948 64.4217 180.496 64.3371 181.04 64.384C181.585 64.431 182.111 64.6083 182.573 64.901C186.883 67.481 187.633 74.051 188.363 80.401C189.093 86.751 189.753 92.501 193.453 94.591C193.856 94.8473 194.313 95.0068 194.789 95.0571C195.264 95.1074 195.744 95.0471 196.193 94.881C199.903 93.511 202.953 85.131 205.403 78.391C205.693 77.611 205.963 76.851 206.243 76.111C210.143 65.561 213.513 56.451 218.363 54.751C219.166 54.4904 220.02 54.4189 220.856 54.542C221.692 54.6652 222.488 54.9796 223.183 55.461C229.403 59.221 230.393 66.271 232.013 77.951C232.293 79.951 232.593 82.111 232.943 84.411C233.173 85.901 233.373 87.311 233.573 88.641C235.103 99.181 235.953 104.981 240.683 107.701C243.033 109.051 245.163 107.421 247.633 105.541C250.433 103.401 253.633 100.991 257.483 103.301C264.793 107.681 265.613 117.851 266.843 133.241L266.953 134.611C268.273 150.991 270.253 152.391 272.953 154.341L272.463 155.171Z" fill="#2A356A"/>
<path opacity="0.4" d="M272.463 155.171C269.213 152.861 267.313 150.771 266.023 134.711L265.913 133.341C264.703 118.251 263.913 108.291 257.033 104.181C253.733 102.181 251.093 104.181 248.303 106.351C245.773 108.281 243.173 110.261 240.243 108.591C235.093 105.591 234.243 99.651 232.643 88.811C232.443 87.471 232.243 86.061 232.013 84.581C231.663 82.271 231.363 80.121 231.083 78.101C229.503 66.721 228.543 59.841 222.723 56.331C222.149 55.9248 221.489 55.6581 220.795 55.5522C220.1 55.4463 219.391 55.5041 218.723 55.721C214.313 57.261 210.863 66.591 207.213 76.481C206.933 77.211 206.663 77.981 206.373 78.751C203.723 86.041 200.723 94.311 196.573 95.841C195.986 96.0558 195.358 96.135 194.736 96.0726C194.115 96.0103 193.515 95.808 192.983 95.481C188.853 93.141 188.113 86.741 187.403 80.541C186.693 74.341 186.003 68.111 182.103 65.761C181.772 65.5471 181.394 65.418 181.001 65.3848C180.609 65.3517 180.214 65.4156 179.853 65.571C175.013 67.451 170.723 81.771 170.683 81.911L169.683 81.631C169.863 81.021 174.153 66.701 179.443 64.631C179.948 64.4217 180.496 64.3371 181.04 64.384C181.585 64.431 182.111 64.6083 182.573 64.901C186.883 67.481 187.633 74.051 188.363 80.401C189.093 86.751 189.753 92.501 193.453 94.591C193.856 94.8473 194.313 95.0068 194.789 95.0571C195.264 95.1074 195.744 95.0471 196.193 94.881C199.903 93.511 202.953 85.131 205.403 78.391C205.693 77.611 205.963 76.851 206.243 76.111C210.143 65.561 213.513 56.451 218.363 54.751C219.166 54.4904 220.02 54.4189 220.856 54.542C221.692 54.6652 222.488 54.9796 223.183 55.461C229.403 59.221 230.393 66.271 232.013 77.951C232.293 79.951 232.593 82.111 232.943 84.411C233.173 85.901 233.373 87.311 233.573 88.641C235.103 99.181 235.953 104.981 240.683 107.701C243.033 109.051 245.163 107.421 247.633 105.541C250.433 103.401 253.633 100.991 257.483 103.301C264.793 107.681 265.613 117.851 266.843 133.241L266.953 134.611C268.273 150.991 270.253 152.391 272.953 154.341L272.463 155.171Z" fill="black"/>
<path d="M255.553 99.7609C256.296 100.248 256.916 100.903 257.362 101.672C257.808 102.441 258.069 103.303 258.123 104.191C258.123 105.821 256.973 106.481 255.563 105.671C254.816 105.187 254.193 104.534 253.747 103.764C253.3 102.994 253.042 102.13 252.993 101.241C252.993 99.6509 254.103 98.9909 255.553 99.7609Z" fill="#2A356A"/>
<path opacity="0.2" d="M255.553 99.7609C256.296 100.248 256.916 100.903 257.362 101.672C257.808 102.441 258.069 103.303 258.123 104.191C258.123 105.821 256.973 106.481 255.563 105.671C254.816 105.187 254.193 104.534 253.747 103.764C253.3 102.994 253.042 102.13 252.993 101.241C252.993 99.6509 254.103 98.9909 255.553 99.7609Z" fill="black"/>
<path d="M222.983 52.9509C223.727 53.4364 224.347 54.0905 224.792 54.8601C225.236 55.6298 225.494 56.4934 225.543 57.3809C225.543 59.0109 224.403 59.6709 222.993 58.8609C222.245 58.3777 221.622 57.7244 221.176 56.9545C220.729 56.1845 220.471 55.3197 220.423 54.4309C220.423 52.7609 221.563 52.1409 222.983 52.9509Z" fill="#2A356A"/>
<path opacity="0.5" d="M222.983 52.9509C223.727 53.4364 224.347 54.0905 224.792 54.8601C225.236 55.6298 225.494 56.4934 225.543 57.3809C225.543 59.0109 224.403 59.6709 222.993 58.8609C222.245 58.3777 221.622 57.7244 221.176 56.9545C220.729 56.1845 220.471 55.3197 220.423 54.4309C220.423 52.7609 221.563 52.1409 222.983 52.9509Z" fill="white"/>
<path d="M182.373 62.4012C183.12 62.8822 183.743 63.5336 184.189 64.302C184.636 65.0703 184.894 65.9337 184.943 66.8212C184.943 68.4612 183.803 69.1212 182.383 68.3112C181.639 67.8251 181.019 67.1709 180.574 66.4014C180.13 65.6318 179.872 64.7686 179.823 63.8812C179.813 62.2512 180.963 61.5812 182.373 62.4012Z" fill="#2A356A"/>
<path opacity="0.65" d="M218.973 173.511V69.6309C218.939 69.0303 218.765 68.4459 218.465 67.9248C218.164 67.4037 217.746 66.9605 217.243 66.6309L111.033 5.31091C110.033 4.76091 109.303 5.21091 109.303 6.31091V110.191C109.335 110.792 109.509 111.376 109.809 111.898C110.11 112.419 110.529 112.862 111.033 113.191L217.243 174.511C218.203 175.071 218.973 174.621 218.973 173.511Z" fill="white"/>
<path d="M218.023 175.251C217.669 175.238 217.325 175.134 217.023 174.951L110.783 113.631C110.199 113.259 109.713 112.752 109.365 112.154C109.017 111.556 108.817 110.883 108.783 110.191V6.31133C108.743 6.00761 108.794 5.699 108.93 5.42446C109.066 5.14991 109.28 4.92175 109.545 4.76876C109.811 4.61576 110.115 4.54481 110.421 4.56484C110.727 4.58488 111.019 4.69501 111.263 4.88133L217.473 66.2013C218.056 66.5715 218.542 67.0761 218.89 67.673C219.238 68.2698 219.438 68.9413 219.473 69.6313V173.511C219.497 173.814 219.44 174.119 219.308 174.393C219.176 174.667 218.974 174.901 218.723 175.071C218.509 175.192 218.268 175.254 218.023 175.251ZM110.263 5.58133C110.197 5.5644 110.128 5.5644 110.063 5.58133C109.965 5.66541 109.89 5.77264 109.845 5.89318C109.799 6.01373 109.785 6.14375 109.803 6.27133V110.191C109.834 110.705 109.984 111.204 110.241 111.65C110.497 112.096 110.854 112.476 111.283 112.761L217.493 174.081C217.594 174.161 217.715 174.214 217.842 174.235C217.97 174.256 218.101 174.244 218.223 174.201C218.383 174.111 218.473 173.861 218.473 173.511V69.6313C218.442 69.1189 218.292 68.6207 218.035 68.1763C217.778 67.7319 217.421 67.3535 216.993 67.0713L110.783 5.76133C110.629 5.65388 110.449 5.59152 110.263 5.58133Z" fill="#2A356A"/>
<path d="M200.703 149.901V81.5413C200.685 81.2405 200.598 80.9481 200.447 80.6875C200.295 80.4269 200.085 80.2055 199.833 80.0413L189.383 74.0413C188.903 73.7613 188.513 73.9813 188.513 74.5413V142.861C188.527 143.163 188.614 143.456 188.765 143.717C188.917 143.978 189.128 144.199 189.383 144.361L199.833 150.361C200.313 150.681 200.703 150.451 200.703 149.901Z" fill="#2A356A"/>
<path opacity="0.3" d="M200.703 149.901V81.5413C200.685 81.2405 200.598 80.9481 200.447 80.6875C200.295 80.4269 200.085 80.2055 199.833 80.0413L189.383 74.0413C188.903 73.7613 188.513 73.9813 188.513 74.5413V142.861C188.527 143.163 188.614 143.456 188.765 143.717C188.917 143.978 189.128 144.199 189.383 144.361L199.833 150.361C200.313 150.681 200.703 150.451 200.703 149.901Z" fill="black"/>
<path d="M180.393 138.171V102.651C180.375 102.35 180.288 102.057 180.136 101.797C179.985 101.536 179.775 101.315 179.523 101.151L169.063 95.1507C168.593 94.8807 168.203 95.1507 168.203 95.6507V131.181C168.22 131.48 168.307 131.771 168.456 132.032C168.605 132.292 168.813 132.514 169.063 132.681L179.523 138.681C180.003 138.951 180.393 138.761 180.393 138.171Z" fill="#2A356A"/>
<path opacity="0.2" d="M180.393 138.171V102.651C180.375 102.35 180.288 102.057 180.136 101.797C179.985 101.536 179.775 101.315 179.523 101.151L169.063 95.1507C168.593 94.8807 168.203 95.1507 168.203 95.6507V131.181C168.22 131.48 168.307 131.771 168.456 132.032C168.605 132.292 168.813 132.514 169.063 132.681L179.523 138.681C180.003 138.951 180.393 138.761 180.393 138.171Z" fill="white"/>
<path d="M160.103 126.45V72.1604C160.085 71.8597 159.998 71.5672 159.847 71.3066C159.695 71.0461 159.485 70.8247 159.233 70.6604L148.773 64.6604C148.303 64.3804 147.913 64.6004 147.913 65.1604V119.44C147.929 119.74 148.015 120.032 148.164 120.293C148.313 120.553 148.522 120.775 148.773 120.94L159.233 126.94C159.693 127.22 160.103 127 160.103 126.45Z" fill="#2A356A"/>
<path opacity="0.2" d="M160.103 126.45V72.1604C160.085 71.8597 159.998 71.5672 159.847 71.3066C159.695 71.0461 159.485 70.8247 159.233 70.6604L148.773 64.6604C148.303 64.3804 147.913 64.6004 147.913 65.1604V119.44C147.929 119.74 148.015 120.032 148.164 120.293C148.313 120.553 148.522 120.775 148.773 120.94L159.233 126.94C159.693 127.22 160.103 127 160.103 126.45Z" fill="black"/>
<path d="M139.763 114.761V36.9811C139.747 36.6811 139.661 36.3889 139.512 36.1283C139.363 35.8676 139.154 35.6459 138.903 35.4811L128.443 29.4811C127.973 29.2011 127.583 29.4811 127.583 29.9811V107.721C127.6 108.021 127.687 108.312 127.836 108.572C127.985 108.833 128.193 109.055 128.443 109.221L138.903 115.221C139.383 115.501 139.763 115.271 139.763 114.761Z" fill="#2A356A"/>
<path d="M355.733 127.191C355.593 126.441 351.923 117.901 350.413 114.541L342.763 118.121L345.693 124.831L353.613 130.961C354.383 130.726 355.034 130.203 355.428 129.501C355.823 128.799 355.932 127.971 355.733 127.191Z" fill="#FFA8A7"/>
<path d="M340.493 216.641H334.593V225.241H340.493V216.641Z" fill="#FFA8A7"/>
<path d="M319.709 206.019L313.812 206.222L314.108 214.817L320.005 214.614L319.709 206.019Z" fill="#FFA8A7"/>
<path d="M321.183 93.4805C319.047 93.5301 316.959 94.119 315.113 95.1926C313.267 96.2661 311.722 97.7894 310.623 99.6205C307.363 104.47 301.623 112.76 301.623 112.76L312.373 116.17L321.183 93.4805Z" fill="#2A356A"/>
<path opacity="0.7" d="M321.183 93.4805C319.047 93.5301 316.959 94.119 315.113 95.1926C313.267 96.2661 311.722 97.7894 310.623 99.6205C307.363 104.47 301.623 112.76 301.623 112.76L312.373 116.17L321.183 93.4805Z" fill="white"/>
<path d="M340.103 132.761C340.103 138.401 340.833 174.871 340.833 174.871C340.973 176.491 342.493 179.481 342.163 185.711C341.713 194.181 340.983 217.711 340.983 217.711C340.983 217.711 338.213 220.461 334.303 217.711C334.303 217.711 328.953 185.761 327.903 177.371C326.973 170.051 325.413 150.171 325.413 150.171L319.943 173.581C319.943 173.581 320.943 179.081 321.113 182.961C321.283 186.841 320.113 209.281 320.113 209.281C319.155 209.879 318.059 210.216 316.931 210.26C315.803 210.304 314.683 210.053 313.683 209.531C313.683 209.531 308.943 176.751 308.333 173.241C307.723 169.731 312.493 132.761 312.493 132.761H340.103Z" fill="#2A356A"/>
<path opacity="0.2" d="M340.103 132.761C340.103 138.401 340.833 174.871 340.833 174.871C340.973 176.491 342.493 179.481 342.163 185.711C341.713 194.181 340.983 217.711 340.983 217.711C340.983 217.711 338.213 220.461 334.303 217.711C334.303 217.711 328.953 185.761 327.903 177.371C326.973 170.051 325.413 150.171 325.413 150.171L319.943 173.581C319.943 173.581 320.943 179.081 321.113 182.961C321.283 186.841 320.113 209.281 320.113 209.281C319.155 209.879 318.059 210.216 316.931 210.26C315.803 210.304 314.683 210.053 313.683 209.531C313.683 209.531 308.943 176.751 308.333 173.241C307.723 169.731 312.493 132.761 312.493 132.761H340.103Z" fill="black"/>
<path d="M331.223 93.6606C336.513 94.9306 343.223 97.0706 345.583 101.951C347.943 106.831 351.583 114.741 351.583 114.741L342.823 119.921L340.103 115.241V132.761C335.963 137.261 321.523 139.361 312.483 132.761V103.921C312.483 99.3306 315.043 93.8006 322.093 93.3906L331.223 93.6606Z" fill="#2A356A"/>
<path opacity="0.7" d="M331.223 93.6606C336.513 94.9306 343.223 97.0706 345.583 101.951C347.943 106.831 351.583 114.741 351.583 114.741L342.823 119.921L340.103 115.241V132.761C335.963 137.261 321.523 139.361 312.483 132.761V103.921C312.483 99.3306 315.043 93.8006 322.093 93.3906L331.223 93.6606Z" fill="white"/>
<path d="M333.213 70.1212C333.687 70.0665 334.168 70.121 334.619 70.2804C335.07 70.4399 335.478 70.7001 335.813 71.0412C336.933 72.1812 336.703 74.3012 335.813 79.1612L332.353 79.5612L333.213 70.1212Z" fill="#263238"/>
<path d="M313.103 68.7612C312.36 68.7704 311.625 68.6239 310.943 68.3312C309.883 67.7212 309.602 68.9212 310.182 69.9712C310.567 70.7201 311.136 71.3585 311.836 71.8258C312.536 72.2931 313.344 72.5737 314.182 72.6412C314.182 72.4912 315.182 69.9411 315.182 69.9411L313.103 68.7612Z" fill="#263238"/>
<path d="M331.593 79.561C332.103 79.871 332.833 78.881 333.463 78.221C333.711 77.9371 334.028 77.7211 334.384 77.5931C334.739 77.4651 335.121 77.4295 335.493 77.4894C335.866 77.5494 336.218 77.703 336.515 77.9359C336.812 78.1688 337.045 78.4734 337.193 78.821C338.243 81.031 335.863 83.981 334.463 84.951C334.071 85.2891 333.583 85.4952 333.068 85.5401C332.553 85.5849 332.036 85.4663 331.593 85.201L331.223 93.661C330.605 95.0167 329.66 96.1979 328.473 97.0985C327.286 97.9991 325.895 98.5909 324.423 98.821C319.423 99.491 320.473 95.401 322.103 93.391V90.311C320.861 90.5799 319.585 90.6475 318.323 90.511C317.673 90.341 316.133 88.511 315.133 86.381C314.013 84.031 312.133 79.861 313.813 72.811C315.593 65.241 323.723 65.011 328.583 68.061C333.443 71.111 331.593 79.561 331.593 79.561Z" fill="#FFA8A7"/>
<path d="M331.593 80.4211C331.843 80.4211 332.833 78.8011 333.463 78.2211C334.353 77.4111 333.213 70.1211 333.213 70.1211C333.213 70.1211 334.103 67.3611 332.353 65.5211C330.603 63.6811 327.223 64.0011 324.743 63.9111C321.699 63.9264 318.684 63.3207 315.883 62.1311C312.363 60.6011 312.103 60.4211 311.663 61.9711C311.223 63.5211 311.063 67.0511 313.163 69.4211L314.913 70.0711C314.913 70.0711 315.853 70.9011 319.133 71.3011C322.164 71.5314 325.211 71.4745 328.233 71.1311C329.183 71.0011 329.383 71.9211 329.893 74.4411C330.353 76.6611 330.723 80.4111 331.593 80.4211Z" fill="#263238"/>
<path d="M333.203 70.6908L336.303 69.0208C336.204 68.8126 336.064 68.6267 335.891 68.4742C335.718 68.3218 335.516 68.206 335.298 68.134C335.079 68.062 334.848 68.0352 334.618 68.0553C334.389 68.0754 334.165 68.1419 333.962 68.2508C333.546 68.4817 333.235 68.8641 333.093 69.3185C332.952 69.7729 332.991 70.2644 333.203 70.6908Z" fill="#263238"/>
<path d="M322.103 90.3111C324.223 89.9114 326.302 89.3155 328.313 88.5311C329.259 88.0411 330.034 87.2735 330.533 86.3311C330.291 87.2735 329.863 88.1577 329.273 88.931C328.093 90.431 322.103 91.541 322.103 91.541V90.3111Z" fill="#F28F8F"/>
<path d="M323.223 78.4111C323.219 78.5345 323.239 78.6573 323.284 78.7724C323.328 78.8875 323.395 78.9925 323.481 79.0812C323.567 79.1698 323.67 79.2402 323.783 79.2883C323.897 79.3364 324.019 79.3612 324.143 79.3611C324.345 79.3772 324.548 79.3311 324.723 79.2292C324.899 79.1272 325.04 78.9742 325.126 78.7904C325.213 78.6066 325.241 78.4008 325.208 78.2004C325.175 78 325.081 77.8145 324.94 77.6686C324.798 77.5226 324.616 77.4232 324.417 77.3835C324.218 77.3438 324.011 77.3658 323.825 77.4464C323.638 77.527 323.481 77.6625 323.373 77.8349C323.266 78.0072 323.213 78.2082 323.223 78.4111Z" fill="#263238"/>
<path d="M324.193 74.9306L326.193 76.0206C326.331 75.7497 326.361 75.436 326.275 75.144C326.19 74.852 325.995 74.6038 325.733 74.4506C325.601 74.3752 325.456 74.3278 325.305 74.3113C325.155 74.2947 325.002 74.3095 324.858 74.3545C324.713 74.3996 324.579 74.474 324.465 74.5731C324.351 74.6722 324.258 74.7939 324.193 74.9306Z" fill="#263238"/>
<path d="M323.293 84.6611L321.182 85.4511C321.23 85.5915 321.304 85.721 321.402 85.8323C321.5 85.9436 321.618 86.0344 321.751 86.0995C321.884 86.1646 322.029 86.2027 322.177 86.2115C322.325 86.2204 322.473 86.1999 322.613 86.1511C322.895 86.0371 323.123 85.8189 323.25 85.5417C323.376 85.2645 323.391 84.9493 323.293 84.6611Z" fill="#F28F8F"/>
<path d="M315.003 75.7006L316.793 74.3106C316.708 74.1895 316.6 74.0868 316.475 74.0088C316.35 73.9307 316.21 73.8789 316.064 73.8564C315.918 73.834 315.769 73.8414 315.626 73.8782C315.483 73.915 315.349 73.9805 315.233 74.0706C314.992 74.2603 314.833 74.5357 314.79 74.8394C314.747 75.1431 314.823 75.4517 315.003 75.7006Z" fill="#263238"/>
<path d="M315.553 78.1512C315.553 78.272 315.576 78.3916 315.623 78.5032C315.669 78.6149 315.737 78.7163 315.822 78.8017C315.907 78.8871 316.009 78.9549 316.12 79.0011C316.232 79.0474 316.352 79.0712 316.473 79.0712C316.593 79.0712 316.713 79.0474 316.825 79.0011C316.936 78.9549 317.038 78.8871 317.123 78.8017C317.209 78.7163 317.276 78.6149 317.323 78.5032C317.369 78.3916 317.393 78.272 317.393 78.1512C317.397 78.0279 317.376 77.905 317.331 77.7899C317.287 77.6748 317.22 77.5698 317.134 77.4812C317.048 77.3925 316.945 77.3221 316.832 77.274C316.718 77.2259 316.596 77.2011 316.473 77.2012C316.225 77.2064 315.989 77.3092 315.817 77.487C315.645 77.6649 315.55 77.9036 315.553 78.1512Z" fill="#263238"/>
<path d="M320.243 77.2715L319.943 82.8215L317.053 81.8315L320.243 77.2715Z" fill="#F28F8F"/>
<path d="M296.163 110.671L319.743 116.881L326.703 146.151L304.283 139.641L296.163 110.671Z" fill="#2A356A"/>
<path d="M306.443 130.041C306.027 130.782 305.399 131.381 304.64 131.761C303.88 132.14 303.024 132.283 302.183 132.171L301.843 130.961L306.443 130.041Z" fill="#2A356A"/>
<path d="M311.713 130.961C311.813 131.741 313.423 133.181 316.133 134.081C319.213 135.081 323.943 134.571 323.943 134.571L323.523 133.111L311.713 130.961Z" fill="#2A356A"/>
<path opacity="0.43" d="M303.103 114.911L302.903 114.011C302.803 113.511 304.183 113.491 306.003 113.961L309.473 114.861C311.293 115.341 312.843 116.121 312.953 116.621L313.153 117.521L303.103 114.911Z" fill="#455A64"/>
<path d="M301.423 111.521C301.363 111.211 301.923 111.131 302.683 111.341L304.103 111.761C304.103 111.761 303.693 109.761 306.753 110.491C307.569 110.612 308.341 110.941 308.992 111.447C309.644 111.954 310.154 112.62 310.473 113.381L311.943 113.801C312.753 114.031 313.483 114.461 313.583 114.801L313.753 115.361L301.603 112.161L301.423 111.521Z" fill="#37474F"/>
<path d="M303.103 112.491C304.213 112.761 304.673 112.911 304.843 113.671C305.013 114.431 305.113 115.191 305.113 115.191L310.483 116.611C310.483 116.611 310.223 115.501 310.143 115.071C310.063 114.641 310.243 114.381 311.143 114.601L311.213 114.261L302.783 112.121L303.103 112.491Z" fill="#37474F"/>
<path d="M302.913 115.001L302.723 114.101C302.613 113.601 303.993 113.581 305.813 114.051L309.283 114.951C311.103 115.421 312.663 116.201 312.773 116.701L312.963 117.601L302.913 115.001Z" fill="#37474F"/>
<path d="M353.613 130.961L345.693 124.831C345.693 124.831 329.093 127.951 327.223 128.101C325.353 128.251 323.873 126.401 323.163 124.561C322.453 122.721 321.013 122.951 321.013 122.951C321.013 122.951 321.563 125.291 321.743 126.031C321.923 126.771 317.593 127.381 315.103 126.541C312.613 125.701 309.003 126.921 311.233 130.321C313.463 133.721 317.823 134.101 320.843 134.111C322.107 134.098 323.369 134.011 324.623 133.851C325.623 133.731 326.623 133.631 327.553 133.561C333.733 133.121 350.803 131.841 353.613 130.961Z" fill="#FFA8A7"/>
<path d="M298.553 119.231L299.603 122.961C299.803 123.681 302.543 124.961 304.283 125.461C306.023 125.961 307.912 126.461 307.092 128.931C306.332 131.161 303.483 131.671 302.033 131.611C301.056 131.446 300.144 131.014 299.397 130.362C298.65 129.711 298.099 128.866 297.803 127.921C296.803 125.071 297.343 122.021 296.943 120.351C296.543 118.681 297.693 118.241 298.553 119.231Z" fill="#F28F8F"/>
<path d="M334.593 222.331V221.481C334.033 221.731 332.713 226.741 330.373 228.871C328.513 230.571 325.973 232.541 325.373 234.431C324.773 236.321 328.913 237.491 330.653 237.181C332.653 236.821 336.183 235.401 337.063 234.081C337.943 232.761 338.353 230.811 339.063 229.841C339.773 228.871 341.423 227.841 341.813 226.681C341.929 225.635 341.813 224.576 341.473 223.581C341.203 222.531 340.903 221.391 340.553 221.481C340.553 221.611 340.553 222.131 340.553 222.131C339.695 222.795 338.637 223.147 337.553 223.131C336.683 223.161 334.583 222.991 334.593 222.331Z" fill="#37474F"/>
<path d="M314.103 212.981C313.793 212.981 313.543 213.421 312.873 214.151C311.861 215.173 310.684 216.018 309.393 216.651C307.183 217.761 302.893 219.461 300.943 220.341C299.723 220.891 299.783 222.341 301.043 223.191C302.303 224.041 305.333 224.631 308.973 223.811C310.973 223.371 313.543 221.541 315.173 221.631C316.803 221.721 319.863 221.711 321.073 220.881C322.283 220.051 321.793 218.271 321.453 216.741C321.113 215.211 320.553 212.531 320.003 212.641V213.171C319.293 214.241 315.673 214.681 314.113 213.891L314.103 212.981Z" fill="#37474F"/>
<path d="M58.4125 209.39L62.1025 214.52C60.4203 215.297 58.5852 215.687 56.7325 215.66C53.4325 215.79 52.5225 214.66 52.4025 214.44C51.8425 213.25 52.7125 211.09 52.9525 209.23L58.4125 209.39Z" fill="#37474F"/>
<path d="M52.4025 204.231C52.4025 204.231 52.9625 208.891 53.0025 209.891C53.0425 210.891 57.5525 211.221 58.4125 209.391L58.5425 203.691L52.4025 204.231Z" fill="#F28F8F"/>
<path d="M52.4026 112.421C49.3226 117.221 46.4026 121.421 45.7626 126.841C44.4426 138.231 48.7625 151.251 49.6925 159.671C47.9439 162.073 46.9328 164.933 46.7825 167.901C46.7825 171.381 52.4026 204.231 52.4026 204.231C52.4026 204.231 56.4826 205.481 58.5426 203.691L62.4026 143.261L60.4026 135.901L52.4026 112.421Z" fill="#2A356A"/>
<path opacity="0.5" d="M52.4026 112.421C49.3226 117.221 46.4026 121.421 45.7626 126.841C44.4426 138.231 48.7625 151.251 49.6925 159.671C47.9439 162.073 46.9328 164.933 46.7825 167.901C46.7825 171.381 52.4026 204.231 52.4026 204.231C52.4026 204.231 56.4826 205.481 58.5426 203.691L62.4026 143.261L60.4026 135.901L52.4026 112.421Z" fill="white"/>
<path d="M80.8726 89.9111L101.183 99.6611L88.9926 127.071L70.0526 116.141L80.8726 89.9111Z" fill="#2A356A"/>
<path d="M98.7925 100.161L88.2725 123.521L73.6925 115.121L81.9625 92.1309L98.7925 100.161Z" fill="#2A356A"/>
<path d="M81.9625 92.1309L98.7925 100.161L87.4325 123.771L71.5125 114.681L81.9625 92.1309Z" fill="white"/>
<path d="M85.6225 95.5111L86.0125 94.6711C86.2325 94.2111 87.6225 94.4011 89.1225 95.1111L91.9925 96.4711C93.4925 97.1711 94.5225 98.1311 94.3125 98.5911L93.9125 99.4311L85.6225 95.5111Z" fill="#E0E0E0"/>
<path d="M45.5125 99.761C44.0325 103.981 41.1025 110.681 42.0425 112.031C42.9825 113.381 48.6225 113.091 51.7625 112.971C55.7625 112.821 59.0825 112.661 59.0825 112.661L58.4125 105.661H52.7325L55.2325 98.5811L45.5125 99.761Z" fill="#F28F8F"/>
<path d="M51.2025 84.7607C49.1325 88.1607 44.9525 100.161 44.9525 100.161C46.1139 101.478 47.6543 102.404 49.3625 102.811C50.8543 103.269 52.4395 103.331 53.9625 102.991L58.5825 91.4907L51.2025 84.7607Z" fill="#2A356A"/>
<path opacity="0.4" d="M51.2025 84.7607C49.1325 88.1607 44.9525 100.161 44.9525 100.161C46.1139 101.478 47.6543 102.404 49.3625 102.811C50.8543 103.269 52.4395 103.331 53.9625 102.991L58.5825 91.4907L51.2025 84.7607Z" fill="black"/>
<path d="M71.8725 86.9014C75.5025 87.9914 77.7125 88.1814 81.7225 94.3514C85.7325 100.521 94.5125 112.761 95.3825 114.231C96.5925 116.231 97.1125 118.711 96.0725 120.591C95.0325 122.471 92.2625 121.591 88.2825 118.081C84.3025 114.571 76.8025 105.161 76.8025 105.161C76.8025 105.161 68.9825 96.3514 71.8725 86.9014Z" fill="#FFA8A7"/>
<path d="M68.9726 78.9008L67.9926 87.5708L59.4326 88.5608L60.6726 77.0508L68.9726 78.9008Z" fill="#FFA8A7"/>
<path d="M50.6625 66.231C51.3725 58.231 55.6625 54.921 59.0725 54.131C65.8425 52.531 71.8825 54.991 74.6225 59.741C75.3425 60.991 76.5525 65.671 74.1425 68.431C71.7325 71.191 50.6625 66.231 50.6625 66.231Z" fill="#263238"/>
<path d="M75.2925 69.0508C75.2925 69.0508 77.0725 72.0508 76.8025 72.3908C76.3293 72.6657 75.8114 72.8552 75.2725 72.9508L75.2925 69.0508Z" fill="#F28F8F"/>
<path d="M69.8925 59.401C71.7325 60.491 74.8925 62.481 75.3225 69.481C75.7725 76.671 74.4025 78.881 73.3225 79.761C72.6325 80.361 69.0925 80.161 67.3225 79.511C65.1525 78.691 60.3225 76.461 58.2425 72.641C55.8425 68.151 55.6325 62.341 58.8125 60.251C60.4339 59.1767 62.3029 58.5347 64.2421 58.386C66.1813 58.2372 68.1263 58.5866 69.8925 59.401Z" fill="#FFA8A7"/>
<path d="M70.4325 59.7613C70.4325 59.7613 71.7025 66.3713 69.5025 70.3713C69.5025 70.3713 68.5025 67.7613 66.2625 68.3713C64.0225 68.9813 64.0525 71.9212 65.7025 73.5212C66.1205 73.9765 66.6586 74.3044 67.2548 74.4672C67.8511 74.63 68.4812 74.621 69.0725 74.4412C68.7615 76.5 67.8016 78.4058 66.3325 79.8812C64.0004 80.4208 61.5632 80.2903 59.3021 79.5047C57.0409 78.7191 55.0478 77.3105 53.5525 75.4412C48.5525 69.5012 49.8625 59.4413 57.7925 57.2813C65.7225 55.1213 70.4325 59.7613 70.4325 59.7613Z" fill="#263238"/>
<path d="M61.8925 212.061C61.8925 212.061 66.3725 211.771 69.4625 211.381C72.5525 210.991 75.0025 212.501 74.2725 213.781C73.5425 215.061 71.8425 216.111 69.1925 217.001C66.9225 217.771 64.1925 218.321 61.8325 219.001C59.4725 219.681 57.8325 220.561 56.4625 220.091C54.9325 219.561 54.2725 218.951 54.4025 217.831C54.7365 216.238 55.1503 214.662 55.6425 213.111L61.8925 212.061Z" fill="#37474F"/>
<path d="M56.9425 207.102L55.3325 214.172C55.3325 214.172 55.1825 215.032 58.8625 215.582C62.5425 216.132 68.3225 213.662 69.3125 213.152C70.3025 212.642 70.4125 211.652 66.7925 211.852C63.1725 212.052 61.8925 212.062 61.8925 212.062L63.1025 208.922L56.9425 207.102Z" fill="#FFA8A7"/>
<path d="M62.4025 143.261L60.4025 135.901C56.5731 134.893 52.8797 133.426 49.4025 131.531C49.4025 131.531 51.4825 135.321 57.4025 137.391L60.5125 146.851L60.7825 168.491L62.4025 143.261Z" fill="#2A356A"/>
<path d="M52.4025 112.421C50.7525 115.111 46.8125 119.721 47.6425 124.141C48.6425 129.511 51.5525 133.271 60.3725 135.901L68.6525 165.901C68.6525 165.901 64.3425 169.901 63.0225 173.771C61.7025 177.641 56.9425 207.131 56.9425 207.131C56.9425 207.131 58.4125 209.531 63.0625 208.951C63.0625 208.951 79.2725 171.951 80.4225 169.541C81.7945 167.114 82.2789 164.286 81.7925 161.541C81.2825 157.651 75.7925 115.181 75.7925 115.181L52.4025 112.421Z" fill="#2A356A"/>
<path opacity="0.5" d="M52.4025 112.421C50.7525 115.111 46.8125 119.721 47.6425 124.141C48.6425 129.511 51.5525 133.271 60.3725 135.901L68.6525 165.901C68.6525 165.901 64.3425 169.901 63.0225 173.771C61.7025 177.641 56.9425 207.131 56.9425 207.131C56.9425 207.131 58.4125 209.531 63.0625 208.951C63.0625 208.951 79.2725 171.951 80.4225 169.541C81.7945 167.114 82.2789 164.286 81.7925 161.541C81.2825 157.651 75.7925 115.181 75.7925 115.181L52.4025 112.421Z" fill="white"/>
<path d="M50.9026 85.3808C51.5426 83.6808 53.5825 82.2608 55.4225 82.7608C61.1925 84.3308 70.1625 86.4008 71.8725 86.9008C71.8725 86.9008 71.1126 99.9008 77.7526 103.781C77.4426 106.251 75.7526 115.111 75.7526 115.111C75.7526 115.111 67.7525 118.991 61.1925 117.111C54.6325 115.231 52.4026 112.451 52.4026 112.451L55.6925 107.091C54.9925 105.341 52.2725 99.4308 50.5225 93.9308C49.879 91.0984 50.0103 88.1449 50.9026 85.3808Z" fill="#2A356A"/>
<path opacity="0.2" d="M50.9026 85.3808C51.5426 83.6808 53.5825 82.2608 55.4225 82.7608C61.1925 84.3308 70.1625 86.4008 71.8725 86.9008C71.8725 86.9008 71.1126 99.9008 77.7526 103.781C77.4426 106.251 75.7526 115.111 75.7526 115.111C75.7526 115.111 67.7525 118.991 61.1925 117.111C54.6325 115.231 52.4026 112.451 52.4026 112.451L55.6925 107.091C54.9925 105.341 52.2725 99.4308 50.5225 93.9308C49.879 91.0984 50.0103 88.1449 50.9026 85.3808Z" fill="black"/>
<path opacity="0.25" d="M54.7925 104.951C57.5272 106.596 60.3937 108.011 63.3625 109.181C60.6685 109.129 58.0309 108.4 55.6925 107.061L54.7925 104.951Z" fill="#2A356A"/>
<path d="M56.4925 55.9112C56.4925 55.9112 53.7525 51.2412 47.0425 52.4512C40.3325 53.6612 37.6125 60.7812 37.7125 65.2912C37.8125 69.8012 39.3225 72.9512 35.2825 78.2912C34.4862 79.3443 33.9251 80.5559 33.6371 81.8443C33.349 83.1328 33.3408 84.468 33.6128 85.7599C33.8848 87.0518 34.4308 88.2704 35.214 89.3332C35.9971 90.3961 36.9992 91.2786 38.1525 91.9212C43.5425 94.9212 44.8525 89.7012 43.6025 85.2412C42.1625 80.1312 47.5125 79.2412 48.9425 75.3712C50.3725 71.5012 47.5625 63.3712 49.3625 60.6112C51.3625 57.6112 54.0625 58.0312 55.3625 59.0512L56.4925 55.9112Z" fill="#263238"/>
<path d="M71.8725 86.9014C73.6659 87.2824 75.4176 87.8384 77.1025 88.5614C79.3025 89.6414 87.8825 103.111 87.8825 103.111C87.8825 103.111 87.2725 108.181 80.2525 110.191L76.1025 104.951C76.1025 104.951 70.0025 95.8414 71.8725 86.9014Z" fill="#2A356A"/>
<path opacity="0.1" d="M71.8725 86.9014C73.6659 87.2824 75.4176 87.8384 77.1025 88.5614C79.3025 89.6414 87.8825 103.111 87.8825 103.111C87.8825 103.111 87.2725 108.181 80.2525 110.191L76.1025 104.951C76.1025 104.951 70.0025 95.8414 71.8725 86.9014Z" fill="black"/>
<path d="M77.3225 106.531C75.4787 104.385 74.0875 101.889 73.2325 99.1914C73.2325 99.1914 73.2325 105.011 77.0625 108.021L77.3225 106.531Z" fill="#2A356A"/>
<path opacity="0.4" d="M77.3225 106.531C75.4787 104.385 74.0875 101.889 73.2325 99.1914C73.2325 99.1914 73.2325 105.011 77.0625 108.021L77.3225 106.531Z" fill="black"/>
<path d="M86.3525 91.8913C86.4825 91.6013 87.0925 91.6213 87.7125 91.8913L88.8325 92.4412C88.8325 92.4412 89.7025 90.6313 92.3025 91.7213C94.9025 92.8113 94.1025 94.9013 94.1025 94.9013L95.2925 95.5113C95.9525 95.8413 96.3925 96.3513 96.2925 96.6513L96.0925 97.1813L86.0925 92.3812L86.3525 91.8913Z" fill="#455A64"/>
<path d="M87.3725 93.0306C88.3125 93.4506 88.6725 93.6506 88.3725 94.3706C88.0725 95.0906 87.6425 95.7806 87.6425 95.7806L92.0625 97.9006C92.0625 97.9006 92.5325 96.9006 92.7325 96.4606C92.9325 96.0206 93.2925 95.8506 93.9925 96.1906L94.2925 95.8906L87.2925 92.6406L87.3725 93.0306Z" fill="#455A64"/>
<path d="M85.5425 95.2607L85.9425 94.4207C86.1625 93.9507 87.5525 94.1507 89.0525 94.8607L91.9225 96.2207C93.4125 96.9207 94.4525 97.8707 94.2325 98.3407L93.8325 99.1807L85.5425 95.2607Z" fill="#455A64"/>
</svg>
