<svg width="40" height="41" viewBox="0 0 40 41" fill="none" xmlns="http://www.w3.org/2000/svg">
<path d="M26.6406 22.1406C28.099 22.1406 29.6875 22.349 31.4062 22.7656C33.125 23.1823 34.7135 23.8594 36.1719 24.7969C37.6302 25.7344 38.3594 26.8021 38.3594 28V32.1406H28.3594V28C28.3594 25.7083 27.2656 23.7812 25.0781 22.2188C25.4427 22.1667 25.9635 22.1406 26.6406 22.1406ZM8.59375 22.7656C10.3125 22.349 11.901 22.1406 13.3594 22.1406C14.8177 22.1406 16.4062 22.349 18.125 22.7656C19.8438 23.1823 21.4062 23.8594 22.8125 24.7969C24.2708 25.7344 25 26.8021 25 28V32.1406H1.64062V28C1.64062 26.8021 2.36979 25.7344 3.82812 24.7969C5.28646 23.8594 6.875 23.1823 8.59375 22.7656ZM16.7969 17.375C15.8594 18.3646 14.7135 18.8594 13.3594 18.8594C12.0052 18.8594 10.8333 18.3646 9.84375 17.375C8.85417 16.3854 8.35938 15.2135 8.35938 13.8594C8.35938 12.5052 8.85417 11.3333 9.84375 10.3438C10.8333 9.35417 12.0052 8.85938 13.3594 8.85938C14.7135 8.85938 15.8594 9.35417 16.7969 10.3438C17.7865 11.3333 18.2812 12.5052 18.2812 13.8594C18.2812 15.2135 17.7865 16.3854 16.7969 17.375ZM30.1562 17.375C29.1667 18.3646 27.9948 18.8594 26.6406 18.8594C25.2865 18.8594 24.1146 18.3646 23.125 17.375C22.1354 16.3854 21.6406 15.2135 21.6406 13.8594C21.6406 12.5052 22.1354 11.3333 23.125 10.3438C24.1146 9.35417 25.2865 8.85938 26.6406 8.85938C27.9948 8.85938 29.1667 9.35417 30.1562 10.3438C31.1458 11.3333 31.6406 12.5052 31.6406 13.8594C31.6406 15.2135 31.1458 16.3854 30.1562 17.375Z" fill="white"/>
</svg>
