<svg width="30" height="35" viewBox="0 0 30 35" fill="none" xmlns="http://www.w3.org/2000/svg">
<path d="M0 34.1406V0.859375L2.5 3.35938L5 0.859375L7.5 3.35938L10 0.859375L12.5 3.35938L15 0.859375L17.5 3.35938L20 0.859375L22.5 3.35938L25 0.859375L27.5 3.35938L30 0.859375V34.1406L27.5 31.6406L25 34.1406L22.5 31.6406L20 34.1406L17.5 31.6406L15 34.1406L12.5 31.6406L10 34.1406L7.5 31.6406L5 34.1406L2.5 31.6406L0 34.1406ZM25 12.5V9.14062H5V12.5H25ZM25 19.1406V15.8594H5V19.1406H25ZM25 25.8594V22.5H5V25.8594H25Z" fill="white"/>
</svg>
