<svg width="40" height="41" viewBox="0 0 40 41" fill="none" xmlns="http://www.w3.org/2000/svg">
<path d="M5 37.1406V3.85938L7.5 6.35938L10 3.85938L12.5 6.35938L15 3.85938L17.5 6.35938L20 3.85938L22.5 6.35938L25 3.85938L27.5 6.35938L30 3.85938L32.5 6.35938L35 3.85938V37.1406L32.5 34.6406L30 37.1406L27.5 34.6406L25 37.1406L22.5 34.6406L20 37.1406L17.5 34.6406L15 37.1406L12.5 34.6406L10 37.1406L7.5 34.6406L5 37.1406ZM30 15.5V12.1406H10V15.5H30ZM30 22.1406V18.8594H10V22.1406H30ZM30 28.8594V25.5H10V28.8594H30Z" fill="white"/>
</svg>
