<svg width="40" height="41" viewBox="0 0 40 41" fill="none" xmlns="http://www.w3.org/2000/svg">
<path d="M32.5 6.35938L30 3.85938L27.5 6.35938L25 3.85938L22.5 6.35938L20 3.85938L17.5 6.35938L15 3.85938L12.5 6.35938L10 3.85938V27.1406H5V32.1406C5 33.0781 5.20833 33.9375 5.625 34.7188C6.09375 35.4479 6.69271 36.0469 7.42188 36.5156C8.20312 36.9323 9.0625 37.1406 10 37.1406H30C30.9375 37.1406 31.7708 36.9323 32.5 36.5156C33.2812 36.0469 33.8802 35.4479 34.2969 34.7188C34.7656 33.9375 35 33.0781 35 32.1406V3.85938L32.5 6.35938ZM31.6406 32.1406C31.6406 32.6094 31.4844 33.026 31.1719 33.3906C30.8594 33.7031 30.4688 33.8594 30 33.8594C29.5312 33.8594 29.1406 33.7031 28.8281 33.3906C28.5156 33.026 28.3594 32.6094 28.3594 32.1406V27.1406H13.3594V8.85938H31.6406V32.1406ZM15 12.1406H25V15.5H15V12.1406ZM26.6406 12.1406H30V15.5H26.6406V12.1406ZM15 17.1406H25V20.5H15V17.1406ZM26.6406 17.1406H30V20.5H26.6406V17.1406Z" fill="white"/>
</svg>
