<svg width="38" height="24" viewBox="0 0 38 24" fill="none" xmlns="http://www.w3.org/2000/svg">
<path d="M25.6406 13.6406C27.099 13.6406 28.6875 13.849 30.4062 14.2656C32.125 14.6823 33.7135 15.3594 35.1719 16.2969C36.6302 17.2344 37.3594 18.3021 37.3594 19.5V23.6406H27.3594V19.5C27.3594 17.2083 26.2656 15.2812 24.0781 13.7188C24.4427 13.6667 24.9635 13.6406 25.6406 13.6406ZM7.59375 14.2656C9.3125 13.849 10.901 13.6406 12.3594 13.6406C13.8177 13.6406 15.4062 13.849 17.125 14.2656C18.8438 14.6823 20.4062 15.3594 21.8125 16.2969C23.2708 17.2344 24 18.3021 24 19.5V23.6406H0.640625V19.5C0.640625 18.3021 1.36979 17.2344 2.82812 16.2969C4.28646 15.3594 5.875 14.6823 7.59375 14.2656ZM15.7969 8.875C14.8594 9.86458 13.7135 10.3594 12.3594 10.3594C11.0052 10.3594 9.83333 9.86458 8.84375 8.875C7.85417 7.88542 7.35938 6.71354 7.35938 5.35938C7.35938 4.00521 7.85417 2.83333 8.84375 1.84375C9.83333 0.854167 11.0052 0.359375 12.3594 0.359375C13.7135 0.359375 14.8594 0.854167 15.7969 1.84375C16.7865 2.83333 17.2812 4.00521 17.2812 5.35938C17.2812 6.71354 16.7865 7.88542 15.7969 8.875ZM29.1562 8.875C28.1667 9.86458 26.9948 10.3594 25.6406 10.3594C24.2865 10.3594 23.1146 9.86458 22.125 8.875C21.1354 7.88542 20.6406 6.71354 20.6406 5.35938C20.6406 4.00521 21.1354 2.83333 22.125 1.84375C23.1146 0.854167 24.2865 0.359375 25.6406 0.359375C26.9948 0.359375 28.1667 0.854167 29.1562 1.84375C30.1458 2.83333 30.6406 4.00521 30.6406 5.35938C30.6406 6.71354 30.1458 7.88542 29.1562 8.875Z" fill="#444444"/>
</svg>
