<svg width="32" height="31" viewBox="0 0 32 31" fill="none" xmlns="http://www.w3.org/2000/svg">
<path d="M28.5 0.5C29.3854 0.5 30.1667 0.838542 30.8438 1.51562C31.5208 2.19271 31.8594 2.97396 31.8594 3.85938V27.1406C31.8594 28.026 31.5208 28.8073 30.8438 29.4844C30.1667 30.1615 29.3854 30.5 28.5 30.5H3.5C2.61458 30.5 1.83333 30.1615 1.15625 29.4844C0.479167 28.8073 0.140625 28.026 0.140625 27.1406V3.85938C0.140625 2.97396 0.479167 2.19271 1.15625 1.51562C1.83333 0.838542 2.61458 0.5 3.5 0.5H28.5ZM28.5 27.2969V3.85938H3.5V27.2969H28.5ZM24.3594 23.8594H21V17.1406H24.3594V23.8594ZM17.6406 23.8594H14.3594V7.14062H17.6406V23.8594ZM11 23.8594H7.64062V12.1406H11V23.8594Z" fill="white"/>
</svg>
