<svg width="49" height="34" viewBox="0 0 49 34" fill="none" xmlns="http://www.w3.org/2000/svg">
<path d="M44.4688 11V6.96875H40.5312V11H36.5V15.0312H40.5312V18.9688H44.4688V15.0312H48.5V11H44.4688ZM16.5312 17C17.9688 17 19.2812 16.6562 20.4688 15.9688C21.7188 15.2188 22.6875 14.25 23.375 13.0625C24.125 11.8125 24.5 10.4688 24.5 9.03125C24.5 7.53125 24.125 6.1875 23.375 5C22.6875 3.75 21.7188 2.78125 20.4688 2.09375C19.2812 1.34375 17.9688 0.96875 16.5312 0.96875C15.0312 0.96875 13.6562 1.34375 12.4062 2.09375C11.2188 2.78125 10.25 3.75 9.5 5C8.8125 6.1875 8.46875 7.53125 8.46875 9.03125C8.46875 10.4688 8.8125 11.8125 9.5 13.0625C10.25 14.25 11.2188 15.2188 12.4062 15.9688C13.6562 16.6562 15.0312 17 16.5312 17ZM16.5312 18.9688C15.4688 18.9688 14.2188 19.0938 12.7812 19.3438C11.4062 19.5312 10 19.8438 8.5625 20.2812C7.125 20.7188 5.78125 21.25 4.53125 21.875C3.34375 22.5 2.375 23.25 1.625 24.125C0.875 25 0.5 25.9688 0.5 27.0312V33.0312H32.4688V27.0312C32.4688 25.9688 32.0938 25 31.3438 24.125C30.5938 23.25 29.5938 22.5 28.3438 21.875C27.1562 21.25 25.8438 20.7188 24.4062 20.2812C22.9688 19.8438 21.5625 19.5312 20.1875 19.3438C18.8125 19.0938 17.5938 18.9688 16.5312 18.9688ZM25.5312 1.0625C26.4688 2.125 27.1875 3.34375 27.6875 4.71875C28.25 6.09375 28.5312 7.53125 28.5312 9.03125C28.5312 10.5312 28.25 11.9688 27.6875 13.3438C27.1875 14.6562 26.4688 15.8438 25.5312 16.9062C26.8438 16.7188 28.0312 16.2812 29.0938 15.5938C30.1562 14.8438 30.9688 13.9062 31.5312 12.7812C32.1562 11.5938 32.4688 10.3438 32.4688 9.03125C32.4688 7.65625 32.1562 6.40625 31.5312 5.28125C30.9688 4.15625 30.1562 3.21875 29.0938 2.46875C28.0312 1.71875 26.8438 1.25 25.5312 1.0625ZM33.5938 20.6562C34.4688 21.4688 35.1562 22.4062 35.6562 23.4688C36.2188 24.5312 36.5 25.7188 36.5 27.0312V33.0312H40.5312V27.0312C40.5312 26.0312 40.1875 25.1562 39.5 24.4062C38.875 23.5938 38.0312 22.875 36.9688 22.25C35.9688 21.625 34.8438 21.0938 33.5938 20.6562Z" fill="#444444"/>
</svg>
