<svg width="40" height="41" viewBox="0 0 40 41" fill="none" xmlns="http://www.w3.org/2000/svg">
<path d="M32.5 5.5C33.3854 5.5 34.1667 5.83854 34.8438 6.51562C35.5208 7.19271 35.8594 7.97396 35.8594 8.85938V32.1406C35.8594 33.026 35.5208 33.8073 34.8438 34.4844C34.1667 35.1615 33.3854 35.5 32.5 35.5H7.5C6.61458 35.5 5.83333 35.1615 5.15625 34.4844C4.47917 33.8073 4.14062 33.026 4.14062 32.1406V8.85938C4.14062 7.97396 4.47917 7.19271 5.15625 6.51562C5.83333 5.83854 6.61458 5.5 7.5 5.5H32.5ZM32.5 32.2969V8.85938H7.5V32.2969H32.5ZM28.3594 28.8594H25V22.1406H28.3594V28.8594ZM21.6406 28.8594H18.3594V12.1406H21.6406V28.8594ZM15 28.8594H11.6406V17.1406H15V28.8594Z" fill="white"/>
</svg>
