<?xml version="1.0" encoding="utf-8"?>
<!-- Generator: Adobe Illustrator 25.0.0, SVG Export Plug-In . SVG Version: 6.00 Build 0)  -->
<svg version="1.1" id="Camada_1" xmlns="http://www.w3.org/2000/svg" xmlns:xlink="http://www.w3.org/1999/xlink" x="0px" y="0px"
	 viewBox="0 0 16 16" style="enable-background:new 0 0 16 16;" xml:space="preserve">
<g>
	<g>
		<g>
			<path d="M2.5,6.7C2.48,6.91,2.56,7.04,2.56,7.04h0.06L2.58,6.61C1.95,6.18,1.87,5.36,1.87,5.36S1.73,5.58,1.73,5.6
				C1.73,6.15,2.5,6.7,2.5,6.7z"/>
		</g>
		<g>
			<path d="M3.98,9.36C3.95,9.34,3.92,9.32,3.9,9.31C3.87,9.29,3.85,9.28,3.83,9.26C3.81,9.24,3.8,9.21,3.79,9.19
				C3.76,9.13,3.76,9.07,3.75,9C3.72,9.06,3.71,9.13,3.73,9.2c0.01,0.04,0.02,0.07,0.04,0.1c0.01,0.02,0.03,0.03,0.04,0.04
				c0.01,0.01,0.03,0.02,0.05,0.03C3.89,9.4,3.92,9.41,3.94,9.42c0.01,0.01,0.02,0.01,0.03,0.02C3.98,9.46,3.99,9.46,4,9.48
				c0.03,0.05,0.05,0.11,0.06,0.18c0.03-0.06,0.03-0.14,0-0.21C4.04,9.41,4.01,9.38,3.98,9.36z"/>
		</g>
		<g>
			<path d="M3.02,9.37c-0.04,0-0.09,0-0.13,0.01c0.03,0.03,0.06,0.08,0.08,0.15C2.99,9.57,3,9.62,3.01,9.66c0.04,0,0.08,0,0.12,0
				c0-0.04,0-0.12-0.04-0.21C3.06,9.41,3.04,9.39,3.02,9.37z"/>
		</g>
		<g>
			<path d="M1.56,8.37C1.58,8.34,1.59,8.32,1.6,8.29C1.6,8.26,1.6,8.23,1.6,8.2c0-0.06-0.03-0.11-0.06-0.15
				c-0.03-0.04-0.07-0.08-0.11-0.1C1.49,8.04,1.53,8.12,1.52,8.2c0,0.04-0.02,0.07-0.04,0.11C1.45,8.35,1.42,8.38,1.39,8.42
				C1.33,8.5,1.29,8.6,1.27,8.7C1.25,8.8,1.25,8.9,1.28,8.99C1.3,8.9,1.32,8.81,1.35,8.72c0.03-0.09,0.08-0.16,0.13-0.23
				C1.51,8.45,1.54,8.41,1.56,8.37z"/>
		</g>
		<g>
			<path d="M1.19,7.91c-0.06,0.01-0.12,0.04-0.16,0.1C0.99,8.06,0.97,8.13,0.98,8.19c0.01,0.06,0.03,0.12,0.08,0.15
				c-0.01-0.06,0-0.11,0-0.15c0.01-0.04,0.03-0.08,0.05-0.12c0.02-0.03,0.06-0.06,0.1-0.08C1.25,7.97,1.3,7.96,1.36,7.95
				C1.31,7.92,1.25,7.9,1.19,7.91z"/>
		</g>
		<g>
			<g>
				<path d="M3.82,5.74c-0.01,0-0.02,0-0.02,0c-0.04,0-0.07,0.03-0.07,0.07c0,0.01,0,0.02,0,0.02c-0.04,0-0.06,0.03-0.06,0.07
					c0,0.04,0.03,0.07,0.07,0.07c0.01,0,0.02,0,0.02,0C3.75,6.01,3.72,6.1,3.61,6.1c-0.15,0-0.16-0.18-0.16-0.18l0,0
					c0.01,0,0.02,0.01,0.03,0.01c0.04,0,0.07-0.03,0.07-0.07c0-0.04-0.03-0.07-0.06-0.07c0-0.01,0-0.02,0-0.02
					c0-0.04-0.03-0.07-0.07-0.07c-0.04,0-0.07,0.03-0.07,0.07c0,0.01,0,0.02,0,0.02c-0.04,0-0.06,0.03-0.06,0.07
					c0,0.04,0.03,0.07,0.07,0.07c0.01,0,0.02,0,0.03-0.01l0,0c0,0-0.01,0.18-0.16,0.18c-0.11,0-0.14-0.09-0.15-0.13
					c0.01,0,0.02,0,0.02,0c0.04,0,0.07-0.03,0.07-0.07c0-0.04-0.03-0.07-0.06-0.07c0-0.01,0-0.02,0-0.02c0-0.04-0.03-0.07-0.07-0.07
					c-0.01,0-0.02,0-0.02,0c0,0,0,0,0,0l0.03,0.19l0.03,0.2h0.35h0.35l0.03-0.2L3.82,5.74C3.82,5.74,3.82,5.74,3.82,5.74z"/>
				<rect x="3.07" y="6.14" width="0.69" height="0.06"/>
				<path d="M3.76,6.21H3.07c-0.01,0-0.01,0.01-0.01,0.01c0,0.01,0.01,0.01,0.01,0.01h0.68c0.01,0,0.01-0.01,0.01-0.01
					C3.77,6.21,3.76,6.21,3.76,6.21z"/>
			</g>
		</g>
		<g>
			<path d="M4.13,7.12C4.14,7.05,4.2,7.02,4.2,6.98c-0.01-0.13-0.24-0.2-0.24-0.2C3.9,6.63,3.59,6.55,3.59,6.55h0.17
				C3.71,6.27,3.24,6.29,3.24,6.29c0.06,0.06,0.11,0.12,0.1,0.13C3.33,6.43,3.25,6.34,3.17,6.34c-0.08,0-0.19,0.06-0.33,0.32
				c0.18,0.01,0.21,0.02,0.22,0.03c0,0.02-0.14,0.02-0.23,0.1C2.65,6.95,2.7,7.23,2.7,7.23C2.92,7.44,2.96,7.5,2.95,7.52
				c-0.02,0.03-0.3-0.1-0.45-0.37C2.4,6.96,2.42,6.78,2.42,6.78C1.81,6.36,1.49,5.36,1.49,5.36S1.3,5.93,1.29,5.94L1.45,6.2
				c0.16,0.23,0.23,0.34,0.22,0.36C1.65,6.58,1.52,6.46,1.28,6.2v0.4c0.19,0.15,0.28,0.23,0.27,0.24C1.54,6.85,1.45,6.82,1.29,6.73
				l0.03,0.29c0.15,0.08,0.23,0.12,0.22,0.14C1.54,7.18,1.48,7.17,1.37,7.15l0.12,0.27c0.1,0.03,0.14,0.05,0.14,0.05
				c0,0-0.01,0-0.04,0C1.56,7.83,2.02,7.86,2.02,7.86c0.21,0.04,0.31,0.07,0.31,0.09c0,0.01-0.09,0.01-0.27,0
				c-0.67,0.6-0.59,1.47-0.59,1.47C1.61,9.39,1.65,9.39,1.65,9.4c0,0.01-0.07,0.03-0.13,0.1C1.47,9.55,1.44,9.61,1.43,9.66h1.48
				c0-0.04,0-0.12-0.04-0.21C2.85,9.42,2.82,9.39,2.8,9.37C2.64,9.39,2.48,9.4,2.31,9.41c0.23-0.02,0.38-0.54,0.38-0.54
				c0.04-0.1,0.07-0.14,0.08-0.14c0.01,0,0,0.06-0.03,0.18l0.32-0.11c0-0.05,0.01-0.11,0.02-0.18C3.1,8.52,3.14,8.44,3.17,8.37
				C3.14,8.5,3.14,8.6,3.15,8.67C3.16,8.75,3.18,8.8,3.21,8.92C3.24,9.04,3.25,9.14,3.26,9.2l0,0.47h0.62c0,0,0-0.06,0-0.09
				c-0.01-0.17-0.26-0.2-0.26-0.2L3.62,8.57l0.06,0.09c0.03-0.03,0.43-0.38,0.34-0.75C4,7.87,3.98,7.81,3.94,7.76l0.13,0.11
				C4.1,7.65,3.92,7.38,3.92,7.38c0.24,0.11,0.23-0.17,0.23-0.17C4.14,7.19,4.13,7.15,4.13,7.12z M3.84,6.91
				C3.83,6.9,3.81,6.88,3.8,6.87C3.79,6.86,3.78,6.85,3.77,6.84L3.73,6.8C3.72,6.79,3.71,6.78,3.69,6.76
				c0.02-0.01,0.05-0.02,0.07-0.01c0.02,0,0.04,0.02,0.06,0.03C3.84,6.8,3.85,6.82,3.86,6.84C3.86,6.87,3.86,6.89,3.84,6.91z"/>
		</g>
	</g>
	<g>
		<g>
			<g>
				<path d="M5.19,6.67V6.18c0-0.33,0-0.53-0.01-0.59C5.18,5.49,5.14,5.44,5.06,5.42C5.03,5.42,5,5.42,4.95,5.42
					c-0.03,0-0.05-0.01-0.05-0.03c0-0.02,0.02-0.03,0.06-0.03c0.06,0,0.13,0,0.23,0c0.09,0,0.15,0,0.16,0c0.03,0,0.1,0,0.2,0
					c0.1,0,0.17,0,0.19,0c0.23,0,0.4,0.04,0.52,0.12c0.05,0.03,0.09,0.08,0.12,0.14C6.43,5.7,6.45,5.78,6.45,5.87
					c0,0.22-0.12,0.43-0.37,0.63c0.2,0.26,0.32,0.4,0.34,0.42c0.11,0.14,0.2,0.24,0.27,0.32C6.79,7.34,6.89,7.4,7,7.42
					c0.02,0,0.04,0,0.06,0.01c0.03,0,0.05,0.01,0.05,0.03c0,0.02-0.02,0.03-0.05,0.03H6.79c-0.13,0-0.23-0.02-0.3-0.05
					C6.4,7.38,6.27,7.24,6.11,7.02C6.03,6.9,5.94,6.77,5.83,6.63C5.82,6.62,5.81,6.61,5.78,6.61H5.54c-0.01,0-0.02,0.01-0.02,0.02
					v0.04c0,0.32,0,0.51,0.01,0.59c0.01,0.09,0.05,0.15,0.11,0.15c0.06,0.01,0.1,0.01,0.14,0.01c0.02,0,0.03,0.01,0.03,0.02
					c0,0.02-0.02,0.03-0.06,0.03c-0.06,0-0.15,0-0.25,0c-0.1,0-0.16,0-0.16,0c-0.01,0-0.06,0-0.15,0c-0.09,0-0.15,0-0.19,0
					c-0.04,0-0.06-0.01-0.06-0.03c0-0.01,0.02-0.02,0.06-0.03c0.03,0,0.06-0.01,0.08-0.01c0.04-0.01,0.07-0.06,0.08-0.15
					C5.18,7.19,5.19,6.99,5.19,6.67z M5.52,5.55V6.4c0,0.03,0.01,0.04,0.03,0.05c0.05,0.02,0.12,0.03,0.21,0.03s0.16-0.02,0.2-0.05
					c0.11-0.08,0.17-0.22,0.17-0.42c0-0.18-0.05-0.31-0.15-0.41C5.89,5.53,5.79,5.5,5.69,5.5C5.6,5.5,5.55,5.5,5.53,5.51
					C5.52,5.52,5.52,5.53,5.52,5.55z"/>
			</g>
			<g>
				<path d="M7.76,7.53c-0.28,0-0.5-0.09-0.66-0.28C6.97,7.09,6.9,6.9,6.9,6.69c0-0.22,0.07-0.4,0.2-0.56
					c0.16-0.19,0.39-0.28,0.68-0.28c0.27,0,0.48,0.07,0.63,0.22C8.57,6.21,8.65,6.4,8.65,6.65c0,0.25-0.08,0.46-0.24,0.62
					C8.25,7.44,8.03,7.53,7.76,7.53z M7.85,7.42c0.12,0,0.22-0.04,0.3-0.11C8.29,7.19,8.35,7,8.35,6.73c0-0.23-0.06-0.42-0.18-0.57
					C8.05,6.02,7.9,5.95,7.72,5.95c-0.15,0-0.27,0.04-0.36,0.13C7.25,6.2,7.2,6.38,7.2,6.62c0,0.23,0.06,0.42,0.18,0.57
					C7.49,7.34,7.65,7.42,7.85,7.42z"/>
				<path d="M9.36,7.12V6.94c0-0.08-0.02-0.15-0.05-0.22C9.3,6.7,9.25,6.61,9.14,6.44C9.04,6.27,8.97,6.15,8.93,6.1
					c-0.05-0.08-0.1-0.13-0.15-0.16C8.75,5.92,8.72,5.91,8.7,5.91c-0.02,0-0.03-0.01-0.03-0.02c0-0.01,0.01-0.02,0.04-0.02
					c0.01,0,0.05,0,0.12,0c0.07,0,0.12,0,0.15,0c0.01,0,0.04,0,0.1,0c0.05,0,0.1,0,0.13,0c0.02,0,0.03,0.01,0.03,0.02
					c0,0.01-0.02,0.01-0.05,0.02c-0.02,0-0.03,0.02-0.03,0.04c0,0.01,0.01,0.04,0.03,0.07c0.01,0.01,0.13,0.23,0.36,0.64
					c0.1-0.17,0.2-0.37,0.32-0.59C9.89,6.04,9.9,6,9.9,5.97c0-0.03-0.01-0.05-0.04-0.05C9.83,5.91,9.82,5.9,9.82,5.9
					c0-0.01,0.01-0.02,0.04-0.02c0.02,0,0.06,0,0.1,0c0.04,0,0.08,0,0.1,0c0.02,0,0.05,0,0.12,0c0.06,0,0.1,0,0.11,0
					c0.03,0,0.04,0.01,0.04,0.02c0,0.01-0.01,0.02-0.04,0.02c-0.03,0-0.06,0.01-0.09,0.03c-0.03,0.02-0.07,0.05-0.12,0.1
					C10.04,6.09,9.96,6.2,9.85,6.38c-0.11,0.18-0.17,0.3-0.19,0.34C9.64,6.78,9.63,6.85,9.63,6.94v0.18c0,0.13,0,0.21,0.01,0.24
					c0.01,0.05,0.04,0.08,0.08,0.09C9.76,7.45,9.8,7.46,9.83,7.46c0.02,0,0.03,0.01,0.03,0.02c0,0.01-0.01,0.02-0.04,0.02
					c-0.05,0-0.12,0-0.19,0c-0.08,0-0.12,0-0.13,0c-0.02,0-0.06,0-0.12,0c-0.07,0-0.11,0-0.14,0c-0.03,0-0.05-0.01-0.05-0.02
					c0-0.01,0.02-0.01,0.05-0.02c0.02,0,0.04,0,0.06-0.01C9.33,7.44,9.35,7.4,9.35,7.33C9.36,7.27,9.36,7.2,9.36,7.12z"/>
				<path d="M11.12,6.94h-0.48c-0.01,0-0.01,0.01-0.02,0.02l-0.12,0.31c-0.02,0.06-0.03,0.1-0.03,0.13c0,0.04,0.03,0.07,0.09,0.07
					h0.03c0.02,0,0.03,0.01,0.03,0.02c0,0.01-0.01,0.02-0.04,0.02c-0.02,0-0.06,0-0.11,0c-0.05,0-0.09,0-0.11,0
					c-0.12,0-0.21,0.01-0.25,0.01c-0.03,0-0.04-0.01-0.04-0.02c0-0.01,0.01-0.02,0.03-0.02c0.02,0,0.04,0,0.07,0
					c0.05-0.01,0.08-0.03,0.11-0.06c0.02-0.03,0.05-0.07,0.07-0.13l0.54-1.35c0.02-0.06,0.04-0.09,0.06-0.09
					c0.02,0,0.03,0.02,0.05,0.07c0.13,0.33,0.31,0.77,0.53,1.32c0.06,0.14,0.12,0.22,0.19,0.23c0.03,0.01,0.06,0.01,0.09,0.01
					c0.02,0,0.03,0.01,0.03,0.02c0,0.01-0.01,0.01-0.02,0.02c-0.01,0-0.04,0-0.08,0c-0.18,0-0.31,0-0.4,0
					c-0.04,0-0.06-0.01-0.06-0.02c0-0.01,0.01-0.02,0.03-0.02c0.02-0.01,0.03-0.02,0.02-0.05l-0.17-0.45
					C11.14,6.94,11.13,6.94,11.12,6.94z M10.69,6.83h0.39c0.01,0,0.01,0,0.01-0.01L10.9,6.29c0-0.01-0.01-0.02-0.01-0.02
					c-0.01,0-0.01,0.01-0.01,0.02l-0.2,0.53C10.67,6.82,10.68,6.83,10.69,6.83z"/>
				<path d="M12.32,6.5v0.38c0,0.16,0,0.27,0.01,0.32c0.01,0.08,0.02,0.12,0.04,0.14c0.04,0.03,0.12,0.05,0.26,0.05
					c0.13,0,0.21-0.02,0.25-0.06c0.03-0.03,0.05-0.08,0.06-0.13c0-0.02,0.01-0.03,0.02-0.03c0.01,0,0.02,0.01,0.02,0.04
					c0,0.09-0.01,0.17-0.03,0.25c-0.01,0.03-0.03,0.05-0.05,0.05c-0.01,0-0.04,0-0.08,0c-0.11,0-0.23,0-0.36-0.01
					s-0.21-0.01-0.26-0.01c-0.01,0-0.05,0-0.12,0c-0.07,0-0.12,0-0.15,0c-0.03,0-0.04-0.01-0.04-0.02c0-0.01,0.02-0.02,0.05-0.02
					c0.02,0,0.04,0,0.06-0.01c0.03-0.01,0.05-0.05,0.06-0.12c0.01-0.06,0.01-0.21,0.01-0.46V6.5c0-0.26,0-0.41,0-0.45
					c0-0.05-0.02-0.09-0.05-0.11c-0.02-0.01-0.06-0.02-0.12-0.02c-0.02,0-0.04-0.01-0.04-0.02c0-0.01,0.02-0.02,0.05-0.02
					c0.04,0,0.09,0,0.16,0c0.07,0,0.11,0,0.13,0c0.01,0,0.06,0,0.13,0c0.07,0,0.13,0,0.16,0c0.03,0,0.04,0.01,0.04,0.02
					c0,0.01-0.01,0.02-0.04,0.02c-0.03,0-0.06,0-0.08,0.01c-0.05,0.01-0.07,0.05-0.08,0.12C12.32,6.09,12.32,6.24,12.32,6.5z"/>
			</g>
		</g>
	</g>
	<g>
		<g>
			<g>
				<path d="M5.58,8.99v0.22c0,0.3,0,0.49,0.01,0.57C5.61,9.87,5.64,9.92,5.7,9.93c0.05,0.01,0.1,0.01,0.13,0.01
					c0.03,0,0.05,0.01,0.05,0.02c0,0.02-0.02,0.03-0.06,0.03c-0.06,0-0.14,0-0.24,0c-0.1,0-0.15,0-0.17,0c-0.02,0-0.07,0-0.16,0
					c-0.08,0-0.15,0-0.18,0c-0.04,0-0.06-0.01-0.06-0.03c0-0.01,0.02-0.02,0.06-0.02c0.02,0,0.05-0.01,0.08-0.01
					C5.2,9.92,5.23,9.87,5.24,9.78c0.01-0.07,0.01-0.26,0.01-0.57V8.74c0-0.32,0-0.51-0.01-0.57C5.24,8.09,5.2,8.04,5.13,8.02
					c-0.02-0.01-0.06-0.01-0.1-0.01C5,8.01,4.98,8.01,4.98,7.99c0-0.02,0.02-0.03,0.06-0.03c0.05,0,0.12,0,0.22,0
					c0.09,0,0.15,0,0.17,0c0.43,0,0.67,0,0.71,0c0.03,0,0.06,0,0.11-0.01c0.03-0.01,0.05-0.02,0.04-0.02c0.01,0,0.02,0.01,0.02,0.02
					c0,0.01,0,0.02-0.01,0.04C6.29,8.04,6.29,8.06,6.28,8.09c0,0.06-0.01,0.13-0.01,0.22c0,0.02-0.01,0.04-0.03,0.04
					c-0.02,0-0.02-0.01-0.03-0.04c0-0.04-0.01-0.08-0.02-0.1C6.18,8.15,6.12,8.12,6.02,8.12L5.61,8.11c-0.02,0-0.02,0.01-0.02,0.04
					v0.66c0,0.02,0.01,0.02,0.02,0.02h0.34c0.08,0,0.12,0,0.13,0c0.05-0.01,0.09-0.02,0.11-0.05C6.2,8.77,6.21,8.76,6.22,8.76
					c0.01,0,0.02,0.01,0.02,0.02c0,0,0,0.02-0.01,0.06C6.22,8.88,6.22,8.92,6.21,8.95C6.21,9.02,6.2,9.09,6.2,9.14
					c0,0.03-0.01,0.05-0.03,0.05c-0.01,0-0.02-0.02-0.02-0.05C6.15,9.12,6.14,9.1,6.14,9.07C6.12,9.02,6.07,8.99,6,8.98
					C5.96,8.97,5.83,8.97,5.6,8.97C5.59,8.97,5.58,8.98,5.58,8.99z"/>
			</g>
			<g>
				<path d="M6.65,9.39V9.05c0-0.23,0-0.37,0-0.42c0-0.06-0.03-0.1-0.07-0.11C6.56,8.52,6.54,8.51,6.51,8.51
					c-0.02,0-0.03-0.01-0.03-0.02c0-0.01,0.02-0.02,0.05-0.02c0.03,0,0.07,0,0.13,0c0.06,0,0.1,0,0.12,0c0.01,0,0.05,0,0.11,0
					c0.06,0,0.1,0,0.13,0s0.04,0.01,0.04,0.02c0,0.01-0.01,0.02-0.03,0.02c-0.02,0-0.04,0-0.06,0.01C6.93,8.53,6.91,8.56,6.9,8.63
					c0,0.04,0,0.18,0,0.42v0.35c0,0.24,0,0.38,0.01,0.43c0.01,0.06,0.03,0.09,0.08,0.1c0.04,0.01,0.07,0.01,0.1,0.01
					c0.02,0,0.03,0.01,0.03,0.02c0,0.01-0.01,0.02-0.04,0.02c-0.05,0-0.11,0-0.18,0c-0.07,0-0.11,0-0.13,0s-0.05,0-0.11,0
					c-0.06,0-0.11,0-0.14,0c-0.03,0-0.04-0.01-0.04-0.02c0-0.01,0.01-0.02,0.04-0.02c0.02,0,0.04,0,0.06-0.01
					c0.03-0.01,0.05-0.04,0.06-0.1C6.65,9.77,6.65,9.62,6.65,9.39z"/>
				<path d="M7.63,8.87L7.66,9.7c0,0.13,0.03,0.2,0.07,0.22c0,0,0.03,0,0.08,0.01c0.04,0.01,0.06,0.01,0.06,0.02
					c0,0.01-0.02,0.02-0.05,0.02c-0.05,0-0.1,0-0.16,0c-0.05,0-0.08,0-0.09,0c0,0-0.02,0-0.07,0c-0.05,0-0.1,0-0.14,0
					c-0.03,0-0.04-0.01-0.04-0.02c0-0.01,0.02-0.02,0.05-0.02c0.02,0,0.05-0.01,0.07-0.01c0.02-0.01,0.04-0.03,0.05-0.06
					C7.49,9.83,7.49,9.77,7.5,9.68l0.02-1.17c0-0.04,0.01-0.07,0.03-0.07c0.01,0,0.03,0.02,0.07,0.06c0.11,0.12,0.31,0.33,0.61,0.63
					C8.36,9.28,8.5,9.43,8.66,9.59h0.01L8.65,8.7c0-0.05,0-0.08-0.01-0.1C8.63,8.56,8.61,8.54,8.58,8.52
					c-0.02-0.01-0.05-0.01-0.1-0.01c-0.02,0-0.03-0.01-0.03-0.02s0.02-0.02,0.05-0.02c0.04,0,0.09,0,0.14,0c0.06,0,0.09,0,0.1,0
					c0,0,0.02,0,0.07,0c0.04,0,0.09,0,0.12,0c0.03,0,0.05,0.01,0.05,0.02S8.96,8.51,8.94,8.51c-0.07,0-0.11,0.02-0.12,0.06
					C8.81,8.6,8.8,8.64,8.8,8.69L8.78,9.93c0,0.04-0.01,0.06-0.03,0.06c-0.01,0-0.04-0.01-0.07-0.04C8.56,9.82,8.37,9.63,8.11,9.37
					c-0.09-0.09-0.19-0.19-0.3-0.31C7.75,8.99,7.69,8.93,7.63,8.87L7.63,8.87z"/>
				<path d="M9.93,9.45H9.49c-0.01,0-0.01,0.01-0.02,0.02L9.36,9.75C9.35,9.8,9.34,9.84,9.34,9.87c0,0.04,0.03,0.06,0.08,0.06h0.03
					c0.02,0,0.03,0.01,0.03,0.02c0,0.01-0.01,0.02-0.03,0.02c-0.02,0-0.06,0-0.11,0c-0.05,0-0.08,0-0.1,0
					C9.12,9.96,9.04,9.97,9,9.97c-0.02,0-0.04-0.01-0.04-0.02c0-0.01,0.01-0.02,0.02-0.02c0.02,0,0.04,0,0.06,0
					c0.04-0.01,0.08-0.02,0.1-0.06c0.02-0.02,0.04-0.07,0.06-0.12l0.49-1.24c0.02-0.05,0.04-0.08,0.06-0.08
					c0.01,0,0.03,0.02,0.05,0.06c0.12,0.3,0.28,0.71,0.49,1.21c0.06,0.13,0.11,0.2,0.17,0.21c0.02,0.01,0.05,0.01,0.08,0.01
					c0.02,0,0.03,0.01,0.03,0.02c0,0.01-0.01,0.01-0.02,0.02c-0.01,0-0.04,0-0.07,0c-0.16,0-0.29,0-0.37,0
					c-0.04,0-0.06-0.01-0.06-0.02c0-0.01,0.01-0.02,0.03-0.02c0.02-0.01,0.03-0.02,0.02-0.05L9.95,9.47
					C9.94,9.46,9.94,9.45,9.93,9.45z M9.53,9.35h0.36c0.01,0,0.01,0,0.01-0.01L9.72,8.86c0-0.01-0.01-0.02-0.01-0.02
					c-0.01,0-0.01,0.01-0.01,0.02L9.52,9.34C9.52,9.35,9.52,9.35,9.53,9.35z"/>
				<g>
					<g>
						<path d="M10.88,8.87L10.9,9.7c0,0.13,0.03,0.2,0.07,0.22c0,0,0.03,0,0.08,0.01c0.04,0.01,0.06,0.01,0.06,0.02
							c0,0.01-0.02,0.02-0.05,0.02c-0.05,0-0.1,0-0.16,0c-0.05,0-0.08,0-0.09,0c0,0-0.02,0-0.07,0c-0.05,0-0.1,0-0.14,0
							c-0.03,0-0.04-0.01-0.04-0.02c0-0.01,0.02-0.02,0.05-0.02c0.02,0,0.05-0.01,0.07-0.01c0.02-0.01,0.04-0.03,0.05-0.06
							c0.01-0.03,0.01-0.09,0.01-0.18l0.02-1.17c0-0.04,0.01-0.07,0.03-0.07c0.01,0,0.03,0.02,0.07,0.06
							c0.11,0.12,0.31,0.33,0.61,0.63c0.13,0.14,0.28,0.29,0.43,0.45h0.01L11.89,8.7c0-0.05,0-0.08-0.01-0.1
							c-0.01-0.04-0.03-0.06-0.06-0.08c-0.02-0.01-0.05-0.01-0.1-0.01c-0.02,0-0.03-0.01-0.03-0.02s0.02-0.02,0.05-0.02
							c0.04,0,0.09,0,0.14,0c0.06,0,0.09,0,0.1,0c0,0,0.02,0,0.07,0c0.04,0,0.09,0,0.12,0c0.03,0,0.05,0.01,0.05,0.02
							s-0.01,0.02-0.04,0.02c-0.07,0-0.11,0.02-0.12,0.06c-0.01,0.02-0.01,0.06-0.01,0.11l-0.02,1.24c0,0.04-0.01,0.06-0.03,0.06
							c-0.01,0-0.04-0.01-0.07-0.04c-0.13-0.12-0.32-0.32-0.58-0.58c-0.09-0.09-0.19-0.19-0.3-0.31
							C10.99,8.99,10.94,8.93,10.88,8.87L10.88,8.87z"/>
					</g>
				</g>
				<path d="M13.36,9.99c-0.29,0-0.51-0.07-0.67-0.21c-0.16-0.14-0.25-0.34-0.25-0.58c0-0.22,0.08-0.4,0.23-0.54
					c0.15-0.14,0.36-0.21,0.63-0.21c0.09,0,0.19,0.01,0.29,0.02c0.05,0.01,0.11,0.02,0.2,0.03c0.02,0,0.03,0.01,0.03,0.02
					c0,0,0,0.02,0,0.03c0,0.02-0.01,0.05-0.01,0.07c0,0.06,0,0.13-0.01,0.21c0,0.03-0.01,0.05-0.02,0.05
					c-0.01,0-0.02-0.01-0.02-0.04c0-0.07-0.03-0.13-0.08-0.18c-0.03-0.04-0.09-0.06-0.16-0.09c-0.07-0.02-0.16-0.04-0.24-0.04
					c-0.16,0-0.28,0.04-0.37,0.12c-0.12,0.11-0.18,0.28-0.18,0.51c0,0.22,0.07,0.39,0.21,0.53c0.12,0.12,0.26,0.18,0.41,0.18
					c0.08,0,0.15-0.01,0.19-0.02c0.07-0.02,0.12-0.05,0.17-0.09c0.04-0.04,0.06-0.08,0.07-0.13c0.01-0.03,0.01-0.04,0.03-0.04
					c0.01,0,0.02,0.01,0.02,0.03c0,0.01,0,0.05-0.01,0.11c-0.01,0.07-0.02,0.12-0.03,0.15c-0.01,0.03-0.03,0.05-0.05,0.06
					C13.64,9.98,13.52,9.99,13.36,9.99z"/>
				<path d="M14.23,9.39V9.05c0-0.23,0-0.37,0-0.42c0-0.06-0.03-0.1-0.08-0.11c-0.02,0-0.04-0.01-0.08-0.01
					c-0.02,0-0.03-0.01-0.03-0.02s0.01-0.02,0.04-0.02c0.04,0,0.09,0,0.16,0c0.07,0,0.11,0,0.12,0c0.31,0,0.48,0,0.49,0
					c0.03,0,0.06-0.01,0.08-0.01c0.02-0.01,0.03-0.01,0.03-0.01c0.01,0,0.01,0.01,0.01,0.02c0,0,0,0.01-0.01,0.04
					c0,0.03-0.01,0.06-0.01,0.09c0,0.04-0.01,0.08-0.01,0.13c0,0.01-0.01,0.02-0.02,0.02c-0.01,0-0.01-0.01-0.02-0.02
					c0-0.01,0-0.03,0-0.04c0-0.01,0-0.02-0.01-0.04c-0.02-0.04-0.06-0.06-0.13-0.07c-0.04-0.01-0.14-0.01-0.28-0.01
					c-0.01,0-0.01,0.01-0.01,0.02v0.5c0,0.01,0,0.02,0.01,0.02c0.18,0,0.29,0,0.32,0c0.02,0,0.04,0,0.05-0.01
					c0.02-0.01,0.03-0.01,0.04-0.02c0.02-0.02,0.03-0.03,0.03-0.03c0.01,0,0.01,0.01,0.01,0.02c0,0,0,0.01-0.01,0.04
					c0,0.03-0.01,0.06-0.01,0.1c-0.01,0.07-0.01,0.12-0.01,0.13c0,0.02-0.01,0.04-0.02,0.04c-0.01,0-0.02-0.01-0.02-0.02
					c0-0.01,0-0.04-0.01-0.07c-0.01-0.04-0.05-0.07-0.11-0.08c-0.04,0-0.13-0.01-0.28-0.01c-0.01,0-0.01,0.01-0.01,0.02V9.7
					c0,0.07,0.02,0.11,0.05,0.13c0.03,0.02,0.09,0.03,0.19,0.03c0.09,0,0.15-0.01,0.19-0.02c0.05-0.02,0.08-0.07,0.09-0.15
					c0-0.02,0.01-0.03,0.02-0.03c0.01,0,0.02,0.01,0.02,0.04c0,0.08-0.01,0.15-0.03,0.22c-0.01,0.02-0.02,0.04-0.03,0.04
					c-0.01,0.01-0.04,0.01-0.08,0.01c-0.11,0-0.23,0-0.34-0.01c-0.11,0-0.18-0.01-0.2-0.01c-0.01,0-0.05,0-0.11,0
					c-0.06,0-0.11,0-0.14,0c-0.03,0-0.04-0.01-0.04-0.02c0-0.01,0.01-0.02,0.04-0.02c0.02,0,0.04,0,0.06-0.01
					c0.03-0.01,0.05-0.04,0.06-0.11C14.22,9.76,14.23,9.62,14.23,9.39z"/>
			</g>
		</g>
	</g>
</g>
</svg>
