<?xml version="1.0" encoding="utf-8"?>
<!-- Generator: Adobe Illustrator 25.0.0, SVG Export Plug-In . SVG Version: 6.00 Build 0)  -->
<svg version="1.1" id="Camada_1" xmlns="http://www.w3.org/2000/svg" xmlns:xlink="http://www.w3.org/1999/xlink" x="0px" y="0px"
	 viewBox="0 0 16 16" style="enable-background:new 0 0 16 16;" xml:space="preserve">
<g>
	<g>
		<path d="M7.31,5.09C7.27,5.73,7.49,6.11,7.49,6.11h0.19L7.56,4.84C5.67,3.53,5.43,1.08,5.43,1.08S5.02,1.74,5.02,1.8
			C5.02,3.44,7.31,5.09,7.31,5.09z"/>
	</g>
	<g>
		<path d="M11.77,13.07c-0.09-0.06-0.19-0.1-0.26-0.15c-0.08-0.04-0.14-0.09-0.2-0.15c-0.05-0.06-0.1-0.13-0.13-0.22
			c-0.07-0.17-0.09-0.36-0.12-0.56c-0.07,0.19-0.11,0.4-0.07,0.61c0.02,0.11,0.06,0.22,0.13,0.31c0.03,0.05,0.08,0.09,0.12,0.13
			c0.04,0.04,0.09,0.07,0.14,0.09c0.1,0.05,0.18,0.09,0.26,0.13c0.04,0.02,0.07,0.04,0.1,0.07c0.03,0.03,0.06,0.06,0.08,0.09
			c0.1,0.14,0.15,0.32,0.17,0.53c0.08-0.19,0.1-0.41,0-0.62C11.95,13.23,11.86,13.14,11.77,13.07z"/>
	</g>
	<g>
		<path d="M8.88,13.1c-0.13,0.01-0.27,0.01-0.4,0.02c0.08,0.1,0.17,0.25,0.25,0.44c0.06,0.16,0.1,0.3,0.11,0.41
			c0.12,0,0.23,0,0.35,0c0.01-0.12,0.01-0.36-0.13-0.62C9.01,13.24,8.94,13.16,8.88,13.1z"/>
	</g>
	<g>
		<path d="M4.51,10.09c0.04-0.07,0.07-0.15,0.09-0.23c0.02-0.08,0.03-0.17,0.02-0.25C4.61,9.44,4.55,9.28,4.46,9.16
			c-0.09-0.12-0.2-0.23-0.33-0.3c0.15,0.25,0.27,0.51,0.24,0.75C4.35,9.73,4.31,9.83,4.24,9.93c-0.07,0.1-0.16,0.21-0.25,0.33
			c-0.18,0.24-0.31,0.53-0.37,0.82c-0.06,0.3-0.05,0.6,0.02,0.88c0.06-0.29,0.13-0.56,0.23-0.81c0.1-0.26,0.23-0.48,0.39-0.7
			C4.34,10.35,4.43,10.23,4.51,10.09z"/>
	</g>
	<g>
		<path d="M3.38,8.73C3.19,8.76,3.02,8.87,2.9,9.03C2.78,9.18,2.73,9.38,2.75,9.56c0.02,0.18,0.1,0.36,0.24,0.46
			C2.97,9.85,2.98,9.7,3.01,9.57c0.03-0.13,0.08-0.25,0.16-0.35c0.07-0.1,0.17-0.18,0.29-0.24c0.12-0.06,0.26-0.1,0.43-0.12
			C3.75,8.75,3.56,8.71,3.38,8.73z"/>
	</g>
	<g>
		<g>
			<path d="M11.27,2.22C11.24,2.21,11.22,2.2,11.2,2.2c-0.12,0-0.21,0.09-0.21,0.21c0,0.02,0,0.05,0.01,0.07
				c-0.11,0.01-0.19,0.1-0.19,0.21c0,0.12,0.09,0.21,0.21,0.21c0.03,0,0.05,0,0.07-0.01c-0.02,0.14-0.1,0.4-0.44,0.4
				c-0.47,0-0.49-0.55-0.49-0.55l0,0c0.03,0.01,0.05,0.02,0.08,0.02c0.12,0,0.21-0.09,0.21-0.21c0-0.11-0.08-0.2-0.19-0.21
				c0.01-0.02,0.01-0.05,0.01-0.07c0-0.12-0.09-0.21-0.21-0.21S9.85,2.16,9.85,2.27c0,0.02,0,0.05,0.01,0.07
				c-0.11,0.01-0.19,0.1-0.19,0.21c0,0.12,0.09,0.21,0.21,0.21c0.03,0,0.06-0.01,0.08-0.02l0,0c0,0-0.03,0.55-0.49,0.55
				c-0.34,0-0.42-0.26-0.44-0.4C9.05,2.9,9.08,2.9,9.1,2.9c0.12,0,0.21-0.09,0.21-0.21c0-0.11-0.08-0.2-0.19-0.21
				c0.01-0.02,0.01-0.05,0.01-0.07c0-0.12-0.09-0.21-0.21-0.21c-0.02,0-0.05,0-0.07,0.01c0,0-0.01,0-0.01,0L8.92,2.8l0.08,0.59h1.05
				h1.05L11.2,2.8l0.08-0.58C11.27,2.22,11.27,2.22,11.27,2.22z"/>
			<rect x="9.03" y="3.42" width="2.07" height="0.17"/>
			<path d="M11.09,3.61H9.03c-0.02,0-0.04,0.02-0.04,0.04c0,0.02,0.02,0.04,0.04,0.04h2.05c0.02,0,0.04-0.02,0.04-0.04
				C11.13,3.63,11.11,3.61,11.09,3.61z"/>
		</g>
	</g>
	<g>
		<path d="M12.21,6.35c0.02-0.21,0.22-0.29,0.21-0.42c-0.03-0.38-0.71-0.59-0.71-0.59c-0.17-0.45-1.13-0.69-1.13-0.69h0.52
			c-0.13-0.85-1.55-0.8-1.55-0.8c0.17,0.18,0.33,0.36,0.31,0.39C9.82,4.29,9.58,4.03,9.32,4.01C9.07,4,8.74,4.2,8.33,4.98
			C8.88,5,8.98,5.04,8.98,5.07c0.01,0.07-0.42,0.05-0.69,0.3C7.78,5.84,7.93,6.68,7.93,6.68c0.64,0.63,0.78,0.82,0.75,0.86
			C8.61,7.62,7.76,7.24,7.33,6.43c-0.3-0.57-0.25-1.08-0.25-1.08c-1.84-1.26-2.8-4.26-2.8-4.26S3.7,2.78,3.68,2.81L4.16,3.6
			c0.48,0.68,0.69,1.04,0.65,1.07C4.76,4.72,4.37,4.36,3.64,3.6v1.2c0.57,0.44,0.84,0.68,0.81,0.72C4.43,5.56,4.17,5.44,3.68,5.18
			l0.1,0.87c0.46,0.23,0.68,0.37,0.66,0.43C4.43,6.52,4.26,6.52,3.93,6.46l0.35,0.81c0.29,0.09,0.43,0.14,0.42,0.16
			c0,0.01-0.04,0.01-0.11,0.01C4.5,8.49,5.86,8.59,5.86,8.59C6.49,8.72,6.81,8.81,6.8,8.85c-0.01,0.04-0.27,0.04-0.8,0
			c-2,1.81-1.77,4.41-1.77,4.41c0.43-0.1,0.53-0.09,0.54-0.07c0.01,0.04-0.21,0.1-0.4,0.29c-0.16,0.16-0.24,0.36-0.27,0.51h4.43
			c0.01-0.12,0.01-0.36-0.13-0.62c-0.06-0.11-0.12-0.19-0.18-0.25c-0.49,0.04-0.98,0.07-1.47,0.11c0.7-0.07,1.14-1.61,1.14-1.61
			c0.13-0.29,0.2-0.43,0.23-0.42c0.03,0.01,0,0.19-0.08,0.55L9,11.43c0.01-0.16,0.03-0.34,0.07-0.54c0.06-0.32,0.16-0.58,0.26-0.78
			c-0.08,0.39-0.07,0.7-0.04,0.91c0.03,0.24,0.08,0.37,0.17,0.74c0.08,0.36,0.14,0.65,0.17,0.83l-0.01,1.4h1.87c0,0,0-0.19,0-0.26
			c-0.03-0.52-0.77-0.61-0.77-0.61l-0.03-2.42l0.17,0.27c0.1-0.08,1.29-1.13,1.01-2.24c-0.03-0.14-0.1-0.3-0.21-0.47l0.38,0.33
			c0.1-0.66-0.46-1.46-0.46-1.46c0.72,0.34,0.7-0.52,0.7-0.52C12.23,6.55,12.2,6.46,12.21,6.35z M11.35,5.73
			c-0.06-0.05-0.1-0.09-0.14-0.13c-0.04-0.04-0.07-0.07-0.1-0.1l-0.1-0.1c-0.03-0.04-0.07-0.08-0.12-0.14
			c0.07-0.04,0.14-0.05,0.21-0.03c0.07,0.01,0.13,0.05,0.18,0.1c0.05,0.05,0.09,0.12,0.1,0.19C11.4,5.6,11.4,5.67,11.35,5.73z"/>
	</g>
</g>
</svg>
