<?xml version="1.0" encoding="utf-8"?>
<!-- Generator: Adobe Illustrator 25.0.0, SVG Export Plug-In . SVG Version: 6.00 Build 0)  -->
<svg version="1.1" xmlns="http://www.w3.org/2000/svg" xmlns:xlink="http://www.w3.org/1999/xlink" x="0px" y="0px"
	 viewBox="0 0 16 16" style="enable-background:new 0 0 16 16;" xml:space="preserve">
<style type="text/css">
	.st0{fill:#FFFFFF;}
	.st1{fill:#2A356A;}
</style>
<g id="fundo">
	<g>
		<g>
			<path class="st0" d="M8.24,10.55c0,0.14-0.08,0.23-0.13,0.22C8.06,10.78,8,10.69,8,10.57L7.97,9.5c0,0,0-0.59-0.83-0.85
				c0,0,0.7-0.07,0.83-0.82C7.98,7.72,7.99,7.6,7.99,7.46c0-0.12-0.01-0.22-0.02-0.32C7.94,7.03,7.9,6.88,7.79,6.75
				C7.63,6.55,7.33,6.34,6.77,6.3H5.74v0.08H6l0,4.49H5.74v0.08h1.08v-0.1l-0.26,0l0-2.16l0.25,0c0,0,0.55-0.02,0.63,0.84
				c0.06,0.65-0.12,1.15,0.18,1.39c0.12,0.1,0.33,0.13,0.49,0.04c0.21-0.12,0.23-0.39,0.23-0.41L8.24,10.55z M6.56,8.59V6.41
				c0.52,0,0.93,0.42,0.93,0.93v0.32C7.49,8.17,7.07,8.59,6.56,8.59z"/>
			<path class="st0" d="M8.58,11.18c0,0-0.25-0.02-0.25,0c0,0.02,0,0.1,0,0.1h1.08v-0.11H9.14l0-2.17h0.4c0,0,0.23,0.01,0.24,0.53
				l0.09,0V8.4h-0.1c0,0,0,0.45-0.23,0.51L9.14,8.9V6.73h0.68C9.88,6.76,9.94,6.81,10,6.88c0.23,0.27,0.18,0.63,0.17,0.7
				c0.03,0,0.06,0,0.09,0V6.64H8.33v0.08h0.26L8.58,11.18z"/>
			<path class="st0" d="M8.39,5.85H7.58c-0.05,0-0.1-0.04-0.1-0.1v0c0-0.05,0.04-0.1,0.1-0.1h0.81c0.05,0,0.1,0.04,0.1,0.1v0
				C8.49,5.81,8.44,5.85,8.39,5.85z"/>
			<path class="st0" d="M7.52,5.63"/>
			<path class="st0" d="M7.41,5.1l0.11,0.53h0.93L8.54,5.1L8.48,5.08c0,0-0.28,0.57-0.46-0.08H7.94c0,0-0.15,0.62-0.45,0.09
				L7.41,5.1z"/>
			<circle class="st0" cx="7.44" cy="5" r="0.12"/>
			<circle class="st0" cx="8.54" cy="5" r="0.12"/>
			<circle class="st0" cx="7.98" cy="4.87" r="0.15"/>
		</g>
	</g>
	<rect class="st1" width="16" height="16"/>
</g>
<g id="vetor">
	<path class="st0" d="M8.59,12.35c0,0.26-0.14,0.43-0.24,0.43c-0.1,0-0.22-0.17-0.22-0.4l-0.06-2.02c0,0-0.01-1.12-1.58-1.62
		c0,0,1.32-0.12,1.58-1.55c0.03-0.21,0.05-0.45,0.05-0.71c0-0.22-0.02-0.42-0.05-0.6C8.01,5.65,7.93,5.38,7.73,5.13
		c-0.3-0.38-0.87-0.78-1.95-0.85H3.84v0.15h0.49l0,8.53H3.84v0.16h2.04v-0.19l-0.5-0.01l0-4.1l0.47,0c0,0,1.05-0.03,1.2,1.59
		c0.12,1.24-0.22,2.19,0.35,2.64c0.23,0.19,0.63,0.25,0.92,0.09c0.4-0.22,0.43-0.74,0.43-0.79L8.59,12.35z M5.38,8.62V4.47
		c0.98,0,1.77,0.79,1.77,1.77v0.6C7.15,7.83,6.36,8.62,5.38,8.62z"/>
	<path class="st0" d="M9.23,13.54c0,0-0.48-0.03-0.48,0c0,0.03,0,0.19,0,0.19h2.05v-0.21h-0.51L10.3,9.4h0.77c0,0,0.43,0.02,0.45,1
		l0.17,0.01V8.25h-0.19c0,0,0,0.85-0.44,0.98l-0.76-0.02V5.08h1.29c0.11,0.06,0.23,0.15,0.35,0.28c0.45,0.51,0.35,1.2,0.32,1.34
		c0.06,0,0.11,0,0.17,0V4.92H8.75v0.15h0.49L9.23,13.54z"/>
	<g>
		<path class="st0" d="M8.87,3.05H7.34c-0.1,0-0.18,0.08-0.18,0.18c0,0.1,0.08,0.18,0.18,0.18h1.53c0.1,0,0.18-0.08,0.18-0.18
			C9.05,3.14,8.97,3.05,8.87,3.05z"/>
		<path class="st0" d="M9.16,1.58c-0.12,0-0.22,0.1-0.22,0.22c0,0.07,0.03,0.12,0.08,0.16C8.95,2.11,8.48,2.93,8.16,1.8l0,0
			c0.11-0.04,0.21-0.13,0.21-0.25c0-0.16-0.13-0.28-0.28-0.28S7.8,1.39,7.8,1.55c0,0.13,0.1,0.22,0.22,0.26
			C8.01,1.83,7.73,2.96,7.17,1.98c0.07-0.04,0.12-0.1,0.12-0.18c0-0.12-0.1-0.22-0.22-0.22c-0.12,0-0.22,0.1-0.22,0.22
			C6.85,1.9,6.92,1.97,7,2L7.22,3h1.76l0.17-0.98c0,0,0,0,0.01,0c0.12,0,0.22-0.1,0.22-0.22C9.38,1.68,9.28,1.58,9.16,1.58z"/>
	</g>
</g>
</svg>
