<svg width="24" height="24" viewBox="0 0 24 24" fill="none" xmlns="http://www.w3.org/2000/svg">
<path d="M6.32812 12.7031C7.20312 13.5781 8.26562 14.0156 9.51562 14.0156C10.7656 14.0156 11.8281 13.5781 12.7031 12.7031C13.5781 11.8281 14.0156 10.7656 14.0156 9.51562C14.0156 8.26562 13.5781 7.20313 12.7031 6.32812C11.8281 5.45312 10.7656 5.01562 9.51562 5.01562C8.26562 5.01562 7.20312 5.45312 6.32812 6.32812C5.45312 7.20313 5.01562 8.26562 5.01562 9.51562C5.01562 10.7656 5.45312 11.8281 6.32812 12.7031ZM15.5156 14.0156L20.4844 18.9844L18.9844 20.4844L14.0156 15.5156V14.7188L13.7344 14.4375C12.5469 15.4688 11.1406 15.9844 9.51562 15.9844C7.70312 15.9844 6.15625 15.3594 4.875 14.1094C3.625 12.8594 3 11.3281 3 9.51562C3 7.70312 3.625 6.17188 4.875 4.92188C6.15625 3.64063 7.70312 3 9.51562 3C11.3281 3 12.8594 3.64063 14.1094 4.92188C15.3594 6.17188 15.9844 7.70312 15.9844 9.51562C15.9844 10.1719 15.8281 10.9219 15.5156 11.7656C15.2031 12.5781 14.8438 13.2344 14.4375 13.7344L14.7188 14.0156H15.5156Z" fill="#4D64B1"/>
</svg>
