<svg width="105" height="105" viewBox="0 0 105 105" fill="none" xmlns="http://www.w3.org/2000/svg">
<circle cx="52.5" cy="52.5" r="52.5" fill="white"/>
<circle cx="52.5" cy="52.5" r="51.5" stroke="black" stroke-opacity="0.22" stroke-width="2"/>
<path d="M31.1287 34.1249H79.4473V67.0567H34.662L31.1287 70.2675V34.1249ZM31.1287 28.6362C27.8068 28.6362 25.1191 31.1061 25.1191 34.1249L25.0889 83.5226L37.1685 72.5453H79.4473C82.7692 72.5453 85.4871 70.0754 85.4871 67.0567V34.1249C85.4871 31.1061 82.7692 28.6362 79.4473 28.6362H31.1287ZM37.1685 56.0794H61.3278V61.5681H37.1685V56.0794ZM37.1685 47.8465H73.4074V53.3351H37.1685V47.8465ZM37.1685 39.6135H73.4074V45.1021H37.1685V39.6135Z" fill="black" fill-opacity="0.47"/>
</svg>
