<svg width="105" height="105" viewBox="0 0 105 105" fill="none" xmlns="http://www.w3.org/2000/svg">
<circle cx="52.5" cy="52.5" r="52.5" fill="#888787" fill-opacity="0.56"/>
<circle cx="52.5" cy="52.5" r="51.5" stroke="black" stroke-opacity="0.22" stroke-width="2"/>
<path d="M31.1282 34.1249H79.4468V67.0567H34.6615L31.1282 70.2675V34.1249ZM31.1282 28.6362C27.8063 28.6362 25.1186 31.1061 25.1186 34.1249L25.0884 83.5226L37.168 72.5453H79.4468C82.7687 72.5453 85.4866 70.0754 85.4866 67.0567V34.1249C85.4866 31.1061 82.7687 28.6362 79.4468 28.6362H31.1282ZM37.168 56.0794H61.3273V61.5681H37.168V56.0794ZM37.168 47.8465H73.407V53.3351H37.168V47.8465ZM37.168 39.6135H73.407V45.1021H37.168V39.6135Z" fill="white"/>
</svg>
