<?xml version="1.0" encoding="utf-8"?>
<!-- Generator: Adobe Illustrator 25.0.0, SVG Export Plug-In . SVG Version: 6.00 Build 0)  -->
<svg version="1.1" id="vetor" xmlns="http://www.w3.org/2000/svg" xmlns:xlink="http://www.w3.org/1999/xlink" x="0px" y="0px"
	 viewBox="0 0 16 16" style="enable-background:new 0 0 16 16;" xml:space="preserve">
<path d="M8.59,12.35c0,0.26-0.14,0.43-0.24,0.43c-0.1,0-0.22-0.17-0.22-0.4l-0.06-2.02c0,0-0.01-1.12-1.58-1.62
	c0,0,1.32-0.12,1.58-1.55c0.03-0.21,0.05-0.45,0.05-0.71c0-0.22-0.02-0.42-0.05-0.6C8.01,5.65,7.93,5.38,7.73,5.13
	c-0.3-0.38-0.87-0.78-1.95-0.85H3.84v0.15h0.49l0,8.53H3.84v0.16h2.04v-0.19l-0.5-0.01l0-4.1l0.47,0c0,0,1.05-0.03,1.2,1.59
	c0.12,1.24-0.22,2.19,0.35,2.64c0.23,0.19,0.63,0.25,0.92,0.09c0.4-0.22,0.43-0.74,0.43-0.79L8.59,12.35z M5.38,8.62V4.47
	c0.98,0,1.77,0.79,1.77,1.77v0.6C7.15,7.83,6.36,8.62,5.38,8.62z"/>
<path d="M9.23,13.54c0,0-0.48-0.03-0.48,0c0,0.03,0,0.19,0,0.19h2.05v-0.21h-0.51L10.3,9.4h0.77c0,0,0.43,0.02,0.45,1l0.17,0.01
	V8.25h-0.19c0,0,0,0.85-0.44,0.98l-0.76-0.02V5.08h1.29c0.11,0.06,0.23,0.15,0.35,0.28c0.45,0.51,0.35,1.2,0.32,1.34
	c0.06,0,0.11,0,0.17,0V4.92H8.75v0.15h0.49L9.23,13.54z"/>
<g>
	<path d="M8.87,3.05H7.34c-0.1,0-0.18,0.08-0.18,0.18c0,0.1,0.08,0.18,0.18,0.18h1.53c0.1,0,0.18-0.08,0.18-0.18
		C9.05,3.14,8.97,3.05,8.87,3.05z"/>
	<path d="M9.16,1.58c-0.12,0-0.22,0.1-0.22,0.22c0,0.07,0.03,0.12,0.08,0.16C8.95,2.11,8.48,2.93,8.16,1.8l0,0
		c0.11-0.04,0.21-0.13,0.21-0.25c0-0.16-0.13-0.28-0.28-0.28S7.8,1.39,7.8,1.55c0,0.13,0.1,0.22,0.22,0.26
		C8.01,1.83,7.73,2.96,7.17,1.98c0.07-0.04,0.12-0.1,0.12-0.18c0-0.12-0.1-0.22-0.22-0.22c-0.12,0-0.22,0.1-0.22,0.22
		C6.85,1.9,6.92,1.97,7,2L7.22,3h1.76l0.17-0.98c0,0,0,0,0.01,0c0.12,0,0.22-0.1,0.22-0.22C9.38,1.68,9.28,1.58,9.16,1.58z"/>
</g>
</svg>
