<svg width="80" height="80" viewBox="0 0 80 80" fill="none" xmlns="http://www.w3.org/2000/svg">
<path d="M0 40C0 17.9086 17.9086 0 40 0C62.0914 0 80 17.9086 80 40C80 62.0914 62.0914 80 40 80C17.9086 80 0 62.0914 0 40Z" fill="#4D64B1"/>
<path d="M38.8398 15.2148L60.25 26.5V31.0352H17.5352V26.5L38.8398 15.2148ZM48.9648 35.4648H55.7148V51.2852H48.9648V35.4648ZM17.5352 62.4648V55.7148H60.25V62.4648H17.5352ZM35.4648 35.4648H42.2148V51.2852H35.4648V35.4648ZM21.9648 35.4648H28.7148V51.2852H21.9648V35.4648Z" fill="white"/>
</svg>
