<svg width="386" height="386" viewBox="0 0 386 386" fill="none" xmlns="http://www.w3.org/2000/svg">
<path d="M281.587 109.331H242.871V165.448H281.587V109.331Z" fill="#E0E0E0"/>
<path d="M279.649 109.331H240.934V165.448H279.649V109.331Z" fill="#F5F5F5"/>
<path d="M274.84 115.406H245.743V159.372H274.84V115.406Z" fill="white"/>
<path d="M274.832 159.364C274.832 159.364 274.832 159.295 274.832 159.156V158.531C274.832 157.975 274.832 157.172 274.832 156.122C274.832 154.014 274.832 150.942 274.832 147.059C274.832 139.339 274.832 128.33 274.786 115.407L274.879 115.499H245.79L245.898 115.391C245.898 131.974 245.898 147.267 245.898 159.349L245.813 159.272H266.996H272.84H274.832H274.323H272.779H266.942H245.712H245.627V159.187C245.627 147.105 245.627 131.812 245.627 115.229V115.121H274.925V115.221C274.925 128.176 274.886 139.153 274.879 146.943C274.879 150.803 274.879 153.891 274.879 155.975C274.879 157.018 274.879 157.82 274.879 158.369V158.978C274.877 159.108 274.861 159.238 274.832 159.364Z" fill="#E0E0E0"/>
<path d="M279.757 109.331C279.559 109.685 279.329 110.021 279.07 110.335C278.622 110.929 277.982 111.747 277.256 112.651C276.53 113.554 275.843 114.318 275.341 114.874C275.08 115.188 274.794 115.48 274.484 115.746C274.717 115.406 274.975 115.083 275.256 114.781L277.125 112.519L278.985 110.257C279.215 109.927 279.473 109.617 279.757 109.331Z" fill="#E0E0E0"/>
<path d="M274.986 159.226C276.437 161.524 278.14 163.653 280.066 165.571L274.986 159.226Z" fill="white"/>
<path d="M280.066 165.571C279.743 165.347 279.445 165.088 279.178 164.799C278.504 164.111 277.865 163.39 277.264 162.637C276.662 161.896 276.1 161.123 275.581 160.321C275.346 159.996 275.147 159.647 274.986 159.279C275.253 159.577 275.494 159.897 275.704 160.237C276.129 160.839 276.731 161.657 277.426 162.553C278.121 163.448 278.8 164.197 279.286 164.745C279.566 165.001 279.827 165.277 280.066 165.571Z" fill="#E0E0E0"/>
<path d="M240.934 165.402L245.998 159.148L240.934 165.402Z" fill="white"/>
<path d="M245.998 159.148C245.238 160.253 244.421 161.317 243.551 162.337C242.146 164.066 240.972 165.425 240.934 165.425C241.692 164.317 242.509 163.25 243.381 162.229C244.201 161.159 245.074 160.13 245.998 159.148Z" fill="#E0E0E0"/>
<path d="M240.934 109.331C241.809 110.264 242.631 111.246 243.396 112.272C244.221 113.261 244.994 114.292 245.712 115.36C244.837 114.427 244.015 113.445 243.25 112.419C242.421 111.434 241.648 110.403 240.934 109.331Z" fill="#E0E0E0"/>
<path d="M265.776 124.331H256.034V151.992H265.776V124.331Z" fill="#E0E0E0"/>
<path d="M204.58 266.34C202.819 266.921 201.194 267.852 199.801 269.076C198.408 270.301 197.277 271.794 196.474 273.465C194.892 276.824 194.1 280.5 194.158 284.212C194.065 291.368 197.161 298.995 200.759 305.179C207.359 300.748 209.876 291.885 210.872 287.307C212.416 280.066 210.872 266.039 204.588 266.34" fill="#F5F5F5"/>
<path d="M192.375 315.957C193.038 313.99 193.169 311.882 192.754 309.848C192.339 307.814 191.393 305.927 190.012 304.377C188.61 302.854 186.918 301.626 185.036 300.765C183.154 299.903 181.119 299.425 179.05 299.359C177.143 299.258 175.028 299.552 173.746 300.972C173.188 301.672 172.828 302.509 172.702 303.395C172.575 304.281 172.688 305.185 173.028 306.013C173.733 307.665 174.862 309.101 176.302 310.174C181.034 314.034 186.338 316.945 192.375 315.941" fill="#F5F5F5"/>
<path d="M197.323 333.157C197.412 331.578 197.339 329.995 197.107 328.432C196.919 326.713 196.525 325.023 195.934 323.398C195.272 321.401 194.48 319.449 193.563 317.554C191.873 314.075 189.348 311.068 186.214 308.8C185.244 308.138 184.21 307.576 183.126 307.125C182.739 306.939 182.325 306.819 181.899 306.77C181.837 306.901 183.558 307.542 185.851 309.255C188.782 311.591 191.155 314.55 192.799 317.917C193.698 319.782 194.494 321.694 195.185 323.646C195.788 325.217 196.228 326.847 196.497 328.509C196.976 331.373 197.2 333.172 197.323 333.157Z" fill="#E0E0E0"/>
<path d="M204.819 277.148C204.572 277.903 204.391 278.678 204.279 279.464C203.985 281.008 203.592 283.17 203.129 285.88C202.194 291.284 200.998 298.803 199.871 307.125C198.744 315.447 197.949 323.005 197.485 328.494C197.254 331.235 197.092 333.45 197.007 334.987C196.915 335.781 196.9 336.582 196.96 337.38C197.147 336.604 197.266 335.814 197.315 335.018C197.508 333.342 197.756 331.158 198.087 328.548C198.697 323.082 199.585 315.54 200.705 307.233C201.824 298.927 202.936 291.546 203.723 285.965C204.094 283.355 204.395 281.178 204.626 279.518C204.758 278.735 204.823 277.943 204.819 277.148Z" fill="#E0E0E0"/>
<path d="M200.99 319.801C202.814 315.831 205.557 312.353 208.993 309.654C212.428 306.956 216.457 305.115 220.746 304.284C222.923 303.882 225.609 303.959 226.806 305.828C228.003 307.696 226.953 310.182 225.633 312.004C222.807 315.677 218.959 318.432 214.571 319.923C210.183 321.413 205.453 321.572 200.975 320.38" fill="#F5F5F5"/>
<path d="M217.704 310.035C217.283 310.055 216.869 310.144 216.477 310.298C215.705 310.514 214.585 310.892 213.234 311.394C209.661 312.692 206.358 314.64 203.491 317.138C201.946 318.565 200.643 320.234 199.631 322.078C198.823 323.592 198.228 325.211 197.864 326.888C197.616 328.01 197.471 329.152 197.431 330.3C197.36 330.717 197.36 331.142 197.431 331.559C197.593 331.559 197.655 329.775 198.373 327.027C199.316 323.448 201.273 320.217 204.009 317.724C206.818 315.299 209.998 313.339 213.427 311.919C216.091 310.769 217.766 310.159 217.704 310.035Z" fill="#E0E0E0"/>
<path d="M351.715 131.055C351.715 131.055 343.625 128.669 340.352 147.267C337.078 165.864 336.816 176.108 336.816 176.108C336.816 176.108 335.681 180.146 332.686 178.648C329.69 177.151 324.603 171.878 321.013 174.209C317.284 176.626 317.338 181.597 320.172 188.051C323.005 194.505 328.664 208.895 329.188 210.192C329.713 211.489 329.528 213.628 327.328 212.941C325.128 212.253 311.116 203.808 307.488 210.756C303.859 217.704 314.713 234.348 315.864 236.232C317.014 238.115 316.883 239.057 316.08 239.845C315.277 240.632 310.83 237.351 306.739 235.112C302.647 232.874 297.513 230.998 295.769 235.151C294.024 239.304 297.313 253.308 317.246 271.613L327.019 279.487L338.854 275.133C363.612 264.263 371.278 252.096 370.985 247.596C370.691 243.095 365.21 243.18 360.617 243.952C356.023 244.724 350.75 246.414 350.241 245.403C349.731 244.392 349.932 243.427 351.623 242.053C353.313 240.679 368.977 228.388 367.796 220.691C366.615 212.995 350.604 216.445 348.295 216.384C345.987 216.322 346.543 214.23 347.423 213.188C348.303 212.145 358.362 200.357 363.133 195.161C367.904 189.966 369.564 185.288 366.823 181.79C364.183 178.417 357.652 181.79 354.34 182.207C351.028 182.624 351.252 178.471 351.252 178.471C351.252 178.471 354.34 168.697 357.251 150.03C360.161 131.363 351.538 131.039 351.538 131.039" fill="#F5F5F5"/>
<path d="M348.759 147.723C348.759 147.723 348.759 147.854 348.72 148.116L348.558 149.267C348.404 150.293 348.18 151.783 347.902 153.682C347.323 157.542 346.451 163.07 345.347 169.894C343.139 183.597 339.943 202.496 336.322 223.363C332.701 244.23 329.451 263.121 327.174 276.809C326.039 283.641 325.12 289.161 324.487 293.021C324.171 294.92 323.924 296.402 323.715 297.429C323.63 297.915 323.569 298.294 323.515 298.571C323.461 298.849 323.43 298.957 323.43 298.957C323.43 298.957 323.43 298.826 323.476 298.564C323.522 298.301 323.569 297.908 323.63 297.413C323.785 296.387 324.009 294.897 324.287 292.998C324.866 289.138 325.738 283.61 326.842 276.786C329.05 263.083 332.246 244.176 335.874 223.309C339.503 202.442 342.768 183.559 345.084 169.84C346.211 163.008 347.13 157.488 347.771 153.628L348.504 149.22L348.705 148.078C348.717 147.959 348.735 147.84 348.759 147.723Z" fill="#E0E0E0"/>
<path d="M327.837 181.898C328.049 182.116 328.235 182.357 328.393 182.616C328.733 183.095 329.165 183.798 329.767 184.67C330.902 186.422 332.408 188.877 334.013 191.618L338.097 198.666L339.34 200.789C339.517 201.026 339.659 201.286 339.765 201.561C339.55 201.347 339.361 201.109 339.201 200.851C338.869 200.372 338.429 199.67 337.843 198.79C336.723 197.022 335.249 194.544 333.643 191.803L329.513 184.786C329.019 183.952 328.594 183.242 328.254 182.663C328.082 182.427 327.942 182.17 327.837 181.898Z" fill="#E0E0E0"/>
<path d="M340.938 201.492C340.869 201.392 345.802 198.072 351.955 194.066C358.108 190.059 363.133 186.902 363.203 186.994C363.272 187.087 358.331 190.422 352.186 194.421C346.041 198.42 341 201.577 340.938 201.492Z" fill="#E0E0E0"/>
<path d="M333.944 233.268C334.223 233.131 334.515 233.024 334.817 232.951L337.225 232.218C339.256 231.593 342.066 230.728 345.123 229.655C348.18 228.582 350.928 227.54 352.912 226.76L355.228 225.841C355.51 225.704 355.808 225.605 356.116 225.548C355.86 225.724 355.586 225.871 355.298 225.988C354.757 226.25 353.978 226.613 352.982 227.038C351.036 227.887 348.304 228.991 345.262 230.056C342.22 231.122 339.364 231.955 337.31 232.504C336.276 232.774 335.442 232.982 334.855 233.113C334.559 233.201 334.253 233.253 333.944 233.268Z" fill="#E0E0E0"/>
<path d="M318.195 218.167C318.442 218.314 318.67 218.49 318.875 218.692C319.292 219.047 319.894 219.572 320.619 220.236C322.086 221.556 324.086 223.393 326.278 225.439C328.471 227.485 330.439 229.361 331.852 230.735C332.555 231.415 333.118 231.978 333.504 232.372C333.717 232.564 333.909 232.779 334.075 233.013C333.826 232.873 333.597 232.699 333.396 232.495C332.971 232.14 332.377 231.608 331.644 230.951C330.185 229.639 328.177 227.802 325.985 225.748C323.792 223.695 321.824 221.826 320.419 220.46C319.708 219.773 319.145 219.217 318.759 218.815C318.544 218.625 318.354 218.407 318.195 218.167Z" fill="#E0E0E0"/>
<path d="M308.453 245.45C308.765 245.645 309.054 245.873 309.317 246.13L311.564 248.098C313.447 249.773 316.026 252.105 318.867 254.706C321.708 257.308 324.271 259.678 326.085 261.407L328.239 263.476C328.521 263.707 328.78 263.966 329.011 264.248C328.703 264.048 328.414 263.821 328.146 263.569L325.9 261.6C324.016 259.925 321.438 257.586 318.597 254.992C315.756 252.398 313.193 250.02 311.386 248.291L309.209 246.269C308.929 246.023 308.675 245.749 308.453 245.45Z" fill="#E0E0E0"/>
<path d="M328.625 263.684C328.975 263.511 329.339 263.369 329.714 263.259L332.74 262.217C335.287 261.337 338.808 260.11 342.66 258.651C346.512 257.192 349.963 255.786 352.449 254.752L355.406 253.524C355.761 253.357 356.13 253.223 356.51 253.123C356.185 253.344 355.839 253.531 355.475 253.679C354.796 254.011 353.808 254.451 352.572 255.022C350.11 256.134 346.667 257.585 342.807 259.044C338.947 260.503 335.411 261.708 332.832 262.48C331.543 262.881 330.516 263.19 329.744 263.391C329.382 263.525 329.007 263.623 328.625 263.684Z" fill="#E0E0E0"/>
<path d="M80.1645 295.947C97.99 285.772 103.78 264.403 104.868 244.817C105.054 241.544 105.725 238.147 104.436 235.144C103.147 232.141 99.7115 229.856 96.6699 230.96C94.1454 231.878 92.8099 234.596 91.2659 236.804C89.1707 239.743 86.2888 242.03 82.9514 243.404C80.7744 244.292 78.1496 244.709 76.2041 243.404C73.533 241.59 73.5562 237.676 73.8881 234.441C74.5006 228.389 75.0899 222.347 75.656 216.315C75.9725 213.08 76.2891 209.768 75.5634 206.603C74.8377 203.438 72.8691 200.365 69.866 199.223C66.8629 198.08 62.8794 199.501 61.9376 202.62C61.5516 203.917 61.6905 205.306 61.4821 206.642C61.2737 207.977 60.5017 209.413 59.1661 209.676C57.8305 209.938 56.6262 208.904 55.7461 207.862C52.6581 204.279 50.8131 199.856 49.0761 195.463C47.3391 191.071 45.6715 186.601 42.9618 182.748C40.2521 178.896 36.3149 175.692 31.6983 175.028C27.0818 174.364 21.8708 176.758 20.2805 181.204C18.6901 185.651 20.9212 190.546 23.4843 194.514C27.3072 200.386 31.9561 205.677 37.2876 210.224C38.2449 211.042 39.2794 211.93 39.6036 213.165C40.1054 215.389 37.8589 217.349 35.6664 217.867C33.1729 218.446 30.5712 217.952 28.0236 218.021C25.476 218.091 22.6196 218.947 21.4539 221.256C19.8173 224.444 22.2722 228.204 24.7889 230.697C29.8327 235.756 35.7115 239.906 42.1667 242.964C44.4827 244.053 46.9067 245.049 48.6746 246.902C50.4425 248.754 51.338 251.773 49.9716 253.95C48.6051 256.127 45.548 256.59 43.0931 255.895C40.6381 255.201 38.5305 253.641 36.23 252.529C31.9299 250.437 26.1477 250.213 22.9439 253.803C20.8363 256.166 20.3499 259.67 21.0216 262.774C21.6932 265.877 23.3762 268.657 25.1981 271.266C31.5671 280.298 40.09 287.879 50.1028 292.411C60.1157 296.943 69.5881 298.788 80.2108 295.978" fill="#F5F5F5"/>
<path d="M79.0992 310.445C79.0176 301.307 78.0637 292.197 76.2506 283.24C73.98 272.303 71.0855 261.506 67.581 250.901L64.8481 242.555C63.9526 239.815 63.0648 237.097 62.0303 234.488C60.0414 229.489 57.7759 224.605 55.2444 219.859C52.859 215.311 50.4349 211.081 48.1343 207.144C45.8338 203.206 43.6027 199.578 41.4411 196.336C38.0486 191.248 34.2591 186.436 30.1081 181.946C28.6413 180.355 27.4679 179.159 26.6573 178.356L25.7309 177.453C25.6284 177.346 25.5174 177.248 25.3989 177.159C25.4859 177.277 25.5814 177.388 25.6846 177.491L26.5724 178.441C27.3444 179.267 28.5024 180.494 29.9383 182.108C34.0144 186.654 37.7434 191.501 41.0937 196.606C43.2321 199.825 45.4246 203.461 47.7097 207.414C49.9948 211.367 52.4035 215.597 54.7658 220.136C57.2782 224.862 59.5332 229.72 61.5208 234.689C62.5398 237.283 63.4199 239.977 64.3077 242.725C65.1955 245.473 66.0988 248.253 67.0174 251.078C70.5097 261.658 73.4118 272.423 75.7102 283.325C77.5408 292.245 78.5333 301.317 78.6746 310.422" fill="#E0E0E0"/>
<path d="M61.8914 234.449C62.0963 234.019 62.2468 233.565 62.3391 233.098C62.5939 232.218 62.9104 230.936 63.2887 229.338C64.0607 226.15 64.933 221.719 65.898 216.824C66.863 211.93 67.8126 207.522 68.6155 204.356C69.0092 202.812 69.3411 201.492 69.5882 200.612C69.7389 200.161 69.8424 199.695 69.897 199.223C69.6682 199.64 69.4894 200.083 69.3643 200.543C69.0555 201.407 68.6541 202.674 68.2063 204.248C67.2954 207.39 66.2763 211.806 65.3113 216.708L62.8718 229.284C62.5707 230.79 62.316 232.064 62.0998 233.083C61.9874 233.531 61.9176 233.988 61.8914 234.449Z" fill="#E0E0E0"/>
<path d="M20.929 222.845C21.466 223.008 22.0162 223.124 22.5733 223.193C23.6387 223.386 25.175 223.656 27.0586 224.057C30.8414 224.829 36.0216 226.049 41.6803 227.663C47.3391 229.276 52.3957 230.974 56.0241 232.295C57.8383 232.943 59.2974 233.507 60.301 233.893C60.8119 234.127 61.3446 234.31 61.8913 234.441C61.4187 234.135 60.9171 233.876 60.3936 233.669C59.4132 233.213 57.9772 232.588 56.1708 231.885C52.5732 230.449 47.5244 228.697 41.8424 227.068C37.0029 225.666 32.0941 224.514 27.1358 223.617C25.2367 223.278 23.685 223.069 22.6119 222.946C22.0558 222.855 21.4919 222.822 20.929 222.845Z" fill="#E0E0E0"/>
<path d="M75.8027 282.429C75.937 282.284 76.0488 282.12 76.1347 281.943L76.9916 280.499C77.7636 279.248 78.7363 277.411 79.9561 275.095C82.4033 270.509 85.5917 264.063 89.0039 256.899C92.4162 249.735 95.5351 243.266 97.8897 238.634L100.684 233.152L101.456 231.655C101.551 231.484 101.626 231.302 101.68 231.114C101.55 231.259 101.438 231.42 101.348 231.593L100.499 233.037C99.7656 234.295 98.7543 236.125 97.5268 238.441C95.0796 243.034 91.8989 249.48 88.479 256.644C85.059 263.808 81.9479 270.27 79.601 274.91L76.7986 280.391L76.0266 281.889C75.9273 282.058 75.852 282.239 75.8027 282.429Z" fill="#E0E0E0"/>
<path d="M22.0562 259.5C22.2194 259.618 22.3988 259.711 22.5888 259.778L24.1328 260.465L29.8842 262.935C34.7478 265.012 41.4642 267.969 48.7982 271.242C56.1322 274.515 62.8795 277.418 67.7894 279.394C70.2367 280.39 72.2284 281.17 73.618 281.71L75.2161 282.297C75.3997 282.373 75.5913 282.427 75.7873 282.459C75.6278 282.34 75.4507 282.246 75.2624 282.181L73.7184 281.494L67.9361 279.001C63.0725 276.916 56.3561 273.96 49.0221 270.686C41.6881 267.413 34.9331 264.51 30.0309 262.534C27.5837 261.546 25.5919 260.758 24.2023 260.218L22.6043 259.639C22.4276 259.571 22.2437 259.525 22.0562 259.5Z" fill="#E0E0E0"/>
<path d="M134.976 63.0723V126.793H43.4636L40.1594 63.52L134.976 63.0723Z" fill="#E0E0E0"/>
<path d="M40.1594 63.528L40.1594 126.662H131.672V63.528L40.1594 63.528Z" fill="white"/>
<path d="M132.112 127.094H39.7271V63.0879H132.112V127.094ZM40.5994 126.222H131.24V63.9525H40.5994V126.222Z" fill="#E0E0E0"/>
<path d="M121.76 71.3643H50.072V118.811H121.76V71.3643Z" fill="white"/>
<path d="M121.768 71.364H121.413H120.432H116.495L101.719 71.4181L50.1106 71.5184L50.3191 71.31C50.3191 85.8082 50.3191 101.873 50.3191 118.757L50.0875 118.533L121.783 118.58L121.598 118.757C121.644 104.321 121.675 92.5091 121.698 84.241C121.698 80.1185 121.698 76.8993 121.745 74.6914C121.745 73.6028 121.745 72.7614 121.745 72.1824C121.745 71.6034 121.745 71.31 121.745 71.31C121.745 71.31 121.745 71.5879 121.745 72.1438C121.745 72.6996 121.745 73.5411 121.745 74.6219C121.745 76.8144 121.744 80.0259 121.791 84.1252C121.791 92.3933 121.845 104.274 121.883 118.757V118.942H121.706L50.0103 118.989H49.7864V118.757C49.7864 101.873 49.7864 85.8082 49.7864 71.31V71.1016H49.9871L101.711 71.2096L116.441 71.2637H120.301H121.297L121.768 71.364Z" fill="#E0E0E0"/>
<path d="M40.1441 63.3428C40.6964 63.6217 41.2145 63.9637 41.6881 64.3618C42.6299 65.0412 43.9037 65.9984 45.2779 67.1024C46.6521 68.2064 47.8641 69.2408 48.721 70.0206C49.2116 70.4107 49.6501 70.8621 50.0257 71.3639C49.9408 71.4642 47.7097 69.65 44.9923 67.4498C42.2748 65.2496 40.0823 63.4509 40.1441 63.3428Z" fill="#E0E0E0"/>
<path d="M131.68 63.5205C130.174 65.0005 128.565 66.3704 126.863 67.6198C125.257 68.9887 123.554 70.24 121.768 71.364C123.283 69.886 124.901 68.5162 126.608 67.2647C128.208 65.8977 129.903 64.6464 131.68 63.5205Z" fill="#E0E0E0"/>
<path d="M131.603 126.67L121.405 118.395L131.603 126.67Z" fill="white"/>
<path d="M121.405 118.395C123.237 119.598 124.988 120.921 126.647 122.355C128.397 123.677 130.053 125.118 131.603 126.67C129.768 125.47 128.017 124.147 126.361 122.71C123.52 120.433 121.32 118.495 121.405 118.395Z" fill="#E0E0E0"/>
<path d="M40.144 126.662C41.6353 125.196 43.2297 123.839 44.915 122.601C46.5059 121.249 48.1905 120.01 49.9562 118.896C48.4687 120.363 46.8768 121.72 45.1929 122.956C43.5995 124.309 41.9123 125.547 40.144 126.662Z" fill="#E0E0E0"/>
<path d="M64.6318 86.1552V102.043H109.74V86.1552H64.6318Z" fill="#E0E0E0"/>
<path d="M346.288 48.2656H297.359V119.189H346.288V48.2656Z" fill="#E0E0E0"/>
<path d="M343.841 48.2656H294.912V119.189H343.841V48.2656Z" fill="#F5F5F5"/>
<path d="M337.758 55.9473H300.987V111.508H337.758V55.9473Z" fill="white"/>
<path d="M337.766 111.508C337.766 111.508 337.766 111.415 337.766 111.237V110.465C337.766 109.763 337.766 108.744 337.766 107.416C337.766 104.753 337.766 100.877 337.766 95.9749C337.766 86.1782 337.727 72.2976 337.704 55.9621L337.827 56.0856H300.987L301.126 55.9544C301.126 76.9142 301.126 96.2373 301.126 111.538L301.018 111.43L327.784 111.492H335.179H337.125H337.796H337.148H335.226H327.853L301.018 111.546H300.918V111.438C300.918 96.1601 300.918 76.837 300.918 55.854V55.8154H337.974V55.9389C337.974 72.3131 337.935 86.2091 337.92 96.0289C337.92 100.916 337.92 104.791 337.881 107.447C337.881 108.759 337.881 109.763 337.881 110.465V111.237C337.766 111.423 337.766 111.508 337.766 111.508Z" fill="#E0E0E0"/>
<path d="M343.98 48.2656C343.732 48.7153 343.44 49.1394 343.108 49.5317C342.537 50.3037 341.734 51.3305 340.792 52.4499C339.85 53.5693 339.009 54.5574 338.368 55.2599C338.051 55.6555 337.699 56.0224 337.318 56.3562C337.593 55.923 337.905 55.5148 338.252 55.1364L340.607 52.28C341.494 51.1915 342.305 50.2111 342.961 49.4159C343.268 49.0043 343.609 48.6194 343.98 48.2656Z" fill="#E0E0E0"/>
<path d="M337.951 111.33C339.782 114.236 341.934 116.926 344.366 119.351L337.951 111.33Z" fill="white"/>
<path d="M344.366 119.351C343.959 119.051 343.584 118.709 343.247 118.332C342.591 117.668 341.703 116.719 340.823 115.607C340.066 114.655 339.357 113.665 338.7 112.642C338.398 112.232 338.14 111.793 337.928 111.33C338.26 111.71 338.562 112.115 338.831 112.542C339.371 113.314 340.128 114.333 341.008 115.437C341.888 116.541 342.737 117.514 343.363 118.201C343.724 118.56 344.06 118.944 344.366 119.351Z" fill="#E0E0E0"/>
<path d="M294.904 119.135L301.311 111.229L294.904 119.135Z" fill="white"/>
<path d="M301.311 111.229C300.355 112.63 299.324 113.977 298.223 115.267C296.448 117.444 294.966 119.181 294.912 119.127C295.87 117.728 296.901 116.381 298 115.089C299.036 113.746 300.141 112.458 301.311 111.229Z" fill="#E0E0E0"/>
<path d="M294.904 48.2656C295.999 49.4497 297.03 50.6918 297.992 51.9867C299.027 53.2209 299.996 54.5094 300.895 55.8467C299.797 54.6649 298.766 53.4226 297.807 52.1256C296.771 50.8914 295.802 49.6029 294.904 48.2656Z" fill="#E0E0E0"/>
<path d="M326.309 67.2256H313.996V102.182H326.309V67.2256Z" fill="#E0E0E0"/>
<path d="M356.61 337.364C356.61 337.48 281.402 337.565 188.661 337.565C95.921 337.565 20.6973 337.51 20.6973 337.364C20.6973 337.217 95.8823 337.163 188.661 337.163C281.44 337.163 356.61 337.287 356.61 337.364Z" fill="#263238"/>
<path d="M262.248 203.809C262.822 206.14 262.755 208.582 262.055 210.879C261.355 213.175 260.048 215.24 258.272 216.855C255.918 218.94 252.868 220.144 250.707 222.437C249.369 223.962 248.449 225.807 248.036 227.793C247.623 229.779 247.732 231.838 248.352 233.77C249.008 235.687 250.046 237.452 251.404 238.957C252.761 240.461 254.41 241.675 256.25 242.524C258.755 243.695 261.502 244.256 264.266 244.162C267.03 244.068 269.733 243.322 272.153 241.984C278.121 238.61 281.595 231.84 282.475 225.039C283.355 218.237 281.973 211.351 280.159 204.735" fill="#263238"/>
<path d="M337.511 323.739C343.687 322.728 349.477 324.611 355.591 325.962C357.217 326.444 358.933 326.537 360.601 326.232C363.249 325.553 365.133 322.975 365.542 320.273C365.873 317.905 365.324 315.499 363.998 313.51C363.466 312.653 362.742 311.931 361.883 311.402C360.962 310.941 359.955 310.678 358.926 310.63C355.179 310.329 351.42 311.038 348.041 312.684C344.671 314.322 341.614 316.538 339.008 319.23C337.711 320.527 338.097 322.017 337.526 323.762" fill="#263238"/>
<path d="M212.3 224.058C211.31 218.169 211.43 212.147 212.655 206.302C213.173 203.444 214.22 200.708 215.743 198.235C216.262 197.312 217.052 196.571 218.005 196.112C218.698 195.882 219.44 195.849 220.151 196.016C220.861 196.184 221.511 196.546 222.027 197.061C222.687 197.748 223.193 198.567 223.512 199.464C223.832 200.361 223.957 201.316 223.88 202.265C223.742 204.162 223.277 206.022 222.506 207.761C220.12 213.86 216.33 218.924 212.277 224.051" fill="#263238"/>
<path d="M331.96 246.377C333.357 247.373 364.384 314.205 364.384 314.205C361.889 313.139 359.125 312.869 356.471 313.433L354.788 313.881C351.776 314.69 348.919 315.995 346.335 317.741L337.48 323.731C337.129 323.53 336.832 323.247 336.614 322.908C336.395 322.568 336.26 322.181 336.222 321.778V321.523L312.166 280.237L331.96 246.377Z" fill="#2A356A"/>
<path d="M215.457 139.979L223.733 187.017C226.397 193.348 257.454 231.701 257.454 231.701L247.187 264.696L206.394 208.919C202.606 204.869 200.546 199.502 200.651 193.958L202.241 143.701L215.457 139.979Z" fill="#FFBE9D"/>
<path d="M259.5 224.328L280.8 225.942L299.374 228.821C299.374 228.821 331.96 237.383 331.96 240.949C331.96 242.138 323.067 270.463 318.064 287.431C316.838 291.553 315.838 295.738 315.069 299.969L331.96 337.364H251.803V303.08C251.803 303.08 246.399 258.049 247.349 251.896C248.298 245.743 259.5 224.328 259.5 224.328Z" fill="#2A356A"/>
<path d="M205.352 120.973C205.477 116.182 205.968 111.408 206.819 106.691C206.935 106.02 207.213 105.209 207.884 105.147C208.718 105.039 209.143 106.112 209.251 106.946C209.991 112.634 209.753 118.407 208.548 124.015" fill="#EB996E"/>
<path d="M214.847 220.576C223.988 212.408 224.297 198.257 223.517 186.994C223.364 186.171 223.489 185.321 223.872 184.578C224.744 183.335 226.867 183.806 227.732 185.056C228.597 186.307 228.504 187.951 228.458 189.464C228.929 188.183 230.936 188.19 231.878 189.179C232.82 190.167 232.982 191.657 233.09 193.039L233.391 196.806L260.094 222.282C260.094 222.282 260.828 219.966 262.789 221.302C264.75 222.637 266.016 225.455 266.016 225.455L247.202 266.518L212.284 224.058C212.956 222.773 213.82 221.599 214.847 220.576Z" fill="#2A356A"/>
<path d="M251.085 248.994C248.299 252.548 246.219 256.602 244.956 260.937C243.697 265.301 243.835 269.949 245.349 274.231C246.521 277.193 248.441 279.802 250.921 281.801C253.401 283.801 256.357 285.124 259.5 285.641" fill="#2A356A"/>
<path d="M337.51 323.739L336.499 337.365H356.285L360.917 313.24C354.89 312.903 348.946 314.766 344.188 318.482L337.51 323.739Z" fill="#FFBE9D"/>
<path d="M224.15 217.558C224.262 217.183 224.407 216.819 224.583 216.469C224.892 215.79 225.308 214.786 225.779 213.536C226.25 212.285 226.752 210.772 227.223 209.073C227.712 207.22 228.101 205.341 228.389 203.446C228.655 201.549 228.818 199.639 228.875 197.725C228.875 195.957 228.875 194.367 228.767 193.031C228.659 191.696 228.558 190.623 228.458 189.882C228.392 189.496 228.355 189.107 228.35 188.716C228.476 189.087 228.563 189.47 228.613 189.858C228.813 190.9 228.96 191.951 229.053 193.008C229.203 194.578 229.268 196.156 229.246 197.733C229.187 201.6 228.626 205.443 227.578 209.166C227.147 210.684 226.631 212.176 226.034 213.636C225.525 214.887 225.069 215.875 224.714 216.539C224.552 216.892 224.364 217.233 224.15 217.558Z" fill="#263238"/>
<path d="M229.963 210.385C230.215 209.721 230.504 209.072 230.828 208.44C232.18 205.307 232.964 201.958 233.144 198.551C233.143 197.841 233.182 197.133 233.26 196.428C233.412 197.127 233.469 197.844 233.43 198.558C233.403 202.021 232.612 205.435 231.114 208.556C230.819 209.217 230.432 209.833 229.963 210.385Z" fill="#263238"/>
<path d="M261.322 231.74C261.26 231.701 261.584 231.2 261.769 230.289C261.986 229.098 261.917 227.873 261.569 226.714C261.202 225.548 260.756 224.408 260.233 223.302C259.989 222.844 259.808 222.356 259.693 221.851C259.998 222.263 260.257 222.709 260.465 223.178C261.076 224.266 261.57 225.415 261.939 226.606C262.308 227.826 262.338 229.123 262.024 230.358C261.927 230.876 261.683 231.356 261.322 231.74Z" fill="#263238"/>
<path d="M256.682 286.119C256.562 286.069 256.447 286.004 256.343 285.926L255.432 285.324C254.66 284.791 253.509 284.012 252.166 282.954C250.578 281.731 249.126 280.341 247.835 278.808C246.246 276.911 245.102 274.682 244.485 272.285C243.895 269.887 243.744 267.403 244.037 264.951C244.274 262.963 244.716 261.004 245.357 259.107C245.782 257.829 246.274 256.574 246.832 255.347C247.032 254.915 247.187 254.575 247.302 254.359C247.354 254.239 247.418 254.125 247.495 254.02C247.349 254.492 247.177 254.956 246.978 255.409C246.631 256.289 246.129 257.571 245.627 259.192C245.034 261.081 244.626 263.022 244.407 264.99C244.139 267.397 244.295 269.832 244.871 272.185C245.472 274.528 246.581 276.711 248.121 278.577C249.385 280.1 250.8 281.492 252.344 282.73C253.656 283.811 254.76 284.622 255.524 285.201L256.389 285.865C256.59 286.019 256.69 286.104 256.682 286.119Z" fill="#263238"/>
<path d="M300.416 293.754C300.309 293.81 300.195 293.852 300.076 293.877C299.845 293.939 299.513 294.055 299.073 294.14C297.829 294.409 296.562 294.562 295.29 294.595C291.048 294.726 286.863 293.583 283.276 291.314C279.689 289.045 276.864 285.754 275.164 281.865C274.646 280.702 274.24 279.492 273.952 278.252C273.844 277.812 273.805 277.48 273.759 277.233C273.732 277.114 273.719 276.992 273.72 276.87C273.878 277.306 274.007 277.752 274.106 278.206C275.335 282.867 278.087 286.983 281.923 289.901C285.76 292.819 290.462 294.371 295.282 294.31C296.542 294.303 297.8 294.195 299.042 293.985C299.496 293.884 299.954 293.807 300.416 293.754Z" fill="#263238"/>
<path d="M312.698 308.8C312.59 308.8 313.609 304.5 315.014 299.266C316.419 294.032 317.577 289.809 317.678 289.84C317.778 289.871 316.767 294.132 315.4 299.367C314.034 304.601 312.806 308.8 312.698 308.8Z" fill="#263238"/>
<path d="M323.468 299.699C323.375 299.753 320.272 294.681 316.52 288.366C312.768 282.051 309.834 276.886 309.935 276.832C310.035 276.778 313.131 281.843 316.883 288.158C320.635 294.473 323.599 299.637 323.468 299.699Z" fill="#263238"/>
<path d="M353.105 312.197C353.105 312.274 351.978 312.367 350.218 312.815C349.19 313.076 348.181 313.409 347.199 313.811C346.002 314.317 344.846 314.916 343.741 315.602C342.651 316.303 341.618 317.091 340.653 317.956C339.866 318.675 339.131 319.449 338.453 320.272C337.295 321.669 336.723 322.65 336.654 322.588C336.747 322.338 336.869 322.1 337.017 321.878C337.374 321.246 337.78 320.642 338.229 320.071C338.888 319.218 339.614 318.418 340.398 317.678C341.369 316.779 342.418 315.968 343.532 315.254C344.657 314.555 345.84 313.956 347.068 313.463C348.07 313.068 349.103 312.755 350.156 312.529C350.862 312.365 351.58 312.257 352.302 312.205C352.568 312.164 352.839 312.161 353.105 312.197Z" fill="#263238"/>
<path d="M356.888 307.55C356.888 307.635 355.645 307.48 353.661 307.65C352.503 307.755 351.357 307.956 350.233 308.252C347.478 308.984 344.903 310.274 342.667 312.043C341.758 312.766 340.911 313.564 340.135 314.428C338.815 315.911 338.197 316.991 338.128 316.953C338.232 316.68 338.369 316.42 338.537 316.181C338.703 315.883 338.888 315.597 339.093 315.324C339.35 314.95 339.626 314.589 339.919 314.243C340.678 313.337 341.52 312.505 342.436 311.757C343.568 310.85 344.789 310.058 346.08 309.395C347.379 308.759 348.739 308.257 350.14 307.897C351.289 307.609 352.463 307.43 353.645 307.365C354.095 307.342 354.546 307.342 354.996 307.365C355.339 307.366 355.682 307.387 356.023 307.426C356.315 307.431 356.606 307.472 356.888 307.55Z" fill="#263238"/>
<g opacity="0.3">
<path opacity="0.3" d="M274.546 278.515C272.732 281.958 274.245 286.157 275.905 289.685C277.194 292.418 278.63 295.19 280.977 297.097C282.13 298.039 283.466 298.733 284.9 299.136C286.334 299.538 287.836 299.639 289.311 299.433C290.786 299.227 292.203 298.719 293.472 297.939C294.742 297.16 295.836 296.127 296.687 294.904C291.766 294.831 286.982 293.271 282.964 290.428C278.947 287.586 275.883 283.594 274.176 278.978" fill="black"/>
</g>
<g opacity="0.3">
<path opacity="0.3" d="M309.989 276.832C308.599 280.144 309.649 284.676 311.101 287.957C312.552 291.238 314.096 294.905 312.93 298.309C312.63 298.913 312.474 299.579 312.475 300.255C312.552 300.918 313.247 301.559 313.872 301.25C314.195 301.023 314.419 300.68 314.497 300.293C315.594 296.989 316.692 293.687 317.794 290.388" fill="black"/>
</g>
<path d="M236.958 233.221C237.082 231.148 237.34 229.085 237.73 227.045C237.992 224.994 238.386 222.962 238.911 220.962C238.794 223.036 238.536 225.099 238.139 227.138C237.879 229.189 237.484 231.222 236.958 233.221Z" fill="#FAFAFA"/>
<path d="M228.828 231.516C228.728 231.578 227.4 229.725 225.563 227.594C223.725 225.463 222.104 223.865 222.181 223.78C223.566 224.793 224.807 225.987 225.872 227.331C227.034 228.592 228.028 229.999 228.828 231.516Z" fill="#FAFAFA"/>
<path d="M235.807 211.629C235.575 212.126 235.282 212.593 234.935 213.018C234.348 213.844 233.491 214.948 232.495 216.106C231.5 217.264 230.542 218.306 229.824 219.017C229.464 219.429 229.052 219.793 228.597 220.098C228.512 220.02 230.203 218.191 232.187 215.844C234.171 213.497 235.715 211.528 235.807 211.629Z" fill="#FAFAFA"/>
<path d="M233.082 201.909C232.966 201.956 232.526 200.975 231.677 199.995C230.828 199.014 229.917 198.451 229.979 198.335C230.782 198.566 231.485 199.058 231.978 199.732C232.572 200.319 232.959 201.083 233.082 201.909Z" fill="#FAFAFA"/>
<path d="M226.041 207.9C225.411 208.197 224.73 208.372 224.034 208.417C223.359 208.593 222.656 208.635 221.965 208.54C223.27 208.067 224.654 207.849 226.041 207.9Z" fill="#FAFAFA"/>
<path d="M243.805 216.477C243.823 215.275 243.737 214.074 243.55 212.887C243.231 211.728 242.81 210.599 242.292 209.514C243.167 210.413 243.742 211.562 243.936 212.802C244.267 214.012 244.221 215.294 243.805 216.477Z" fill="#FAFAFA"/>
<path d="M253.293 226.682C251.869 224.409 249.957 222.482 247.696 221.039C248.973 221.534 250.131 222.293 251.095 223.265C252.06 224.237 252.809 225.402 253.293 226.682Z" fill="#FAFAFA"/>
<path d="M238.062 244.393C235.763 245.254 233.217 245.168 230.982 244.154C231.021 244.038 232.526 244.524 234.51 244.578C236.494 244.632 238.031 244.277 238.062 244.393Z" fill="#FAFAFA"/>
<path d="M245.21 248.059C245.102 248.013 245.705 246.237 246.206 243.983C246.708 241.729 246.932 239.861 247.048 239.876C247.127 241.288 246.976 242.704 246.6 244.068C246.355 245.465 245.886 246.812 245.21 248.059Z" fill="#FAFAFA"/>
<path d="M260.828 248.654C259.607 247.622 258.478 246.485 257.454 245.257C256.325 244.12 255.292 242.891 254.366 241.582C255.583 242.619 256.709 243.758 257.732 244.987C258.861 246.124 259.896 247.35 260.828 248.654Z" fill="#FAFAFA"/>
<path d="M268.1 266.696C267.174 266.024 266.329 265.247 265.583 264.38C264.746 263.602 264 262.732 263.36 261.786C264.286 262.458 265.13 263.235 265.877 264.102C266.721 264.873 267.468 265.744 268.1 266.696Z" fill="#FAFAFA"/>
<path d="M254.582 268.417C253.695 269.362 252.65 270.145 251.494 270.733C250.407 271.457 249.199 271.98 247.928 272.277C247.928 272.169 249.472 271.505 251.294 270.417C253.116 269.328 254.505 268.324 254.582 268.417Z" fill="#FAFAFA"/>
<path d="M260.805 285.579C260.689 285.579 261.152 283.525 261.384 280.986C261.616 278.446 261.546 276.354 261.662 276.354C261.945 277.882 261.987 279.445 261.785 280.986C261.708 282.559 261.377 284.111 260.805 285.579Z" fill="#FAFAFA"/>
<path d="M284.204 271.629C282.929 270.848 281.798 269.853 280.861 268.687C279.829 267.61 278.995 266.358 278.398 264.989C278.499 264.92 279.556 266.595 281.162 268.425C282.768 270.254 284.281 271.528 284.204 271.629Z" fill="#FAFAFA"/>
<path d="M292.75 278.909C292.658 278.839 293.831 277.233 295.143 275.172C296.456 273.111 297.421 271.382 297.521 271.436C297.02 272.839 296.332 274.169 295.475 275.388C294.734 276.682 293.817 277.867 292.75 278.909Z" fill="#FAFAFA"/>
<path d="M291.499 261.091C288.863 260.653 286.277 259.955 283.779 259.007C285.11 259.166 286.424 259.45 287.701 259.856C289.006 260.138 290.278 260.552 291.499 261.091Z" fill="#FAFAFA"/>
<path d="M285.27 292.45C285.133 291.234 285.133 290.006 285.27 288.79C285.28 287.567 285.419 286.348 285.686 285.154C285.825 286.37 285.825 287.598 285.686 288.814C285.679 290.037 285.539 291.256 285.27 292.45Z" fill="#FAFAFA"/>
<path d="M290.658 303.188C291.062 301.941 291.387 300.67 291.63 299.382C291.737 298.075 291.758 296.762 291.692 295.452C292.091 296.737 292.204 298.093 292.026 299.426C291.847 300.759 291.38 302.038 290.658 303.172V303.188Z" fill="#FAFAFA"/>
<path d="M276.693 300.818C276.299 298.151 276.821 295.429 278.175 293.098C278.283 293.144 277.573 294.773 277.171 296.911C276.77 299.05 276.808 300.81 276.693 300.818Z" fill="#FAFAFA"/>
<path d="M263.954 306.261C262.696 305.386 261.484 304.446 260.326 303.443C259.086 302.545 257.893 301.584 256.751 300.563C258.139 301.255 259.436 302.116 260.611 303.126C261.844 304.037 262.966 305.089 263.954 306.261Z" fill="#FAFAFA"/>
<path d="M272.577 291.114C269.623 292.989 266.525 294.628 263.313 296.016C264.767 295.016 266.295 294.128 267.884 293.361C269.388 292.492 270.957 291.741 272.577 291.114Z" fill="#FAFAFA"/>
<path d="M299.374 325.105C299.21 325.159 299.042 325.2 298.872 325.229C298.54 325.291 298.053 325.414 297.42 325.499C295.633 325.772 293.824 325.889 292.016 325.847C287.346 325.779 282.743 324.721 278.511 322.744C274.279 320.766 270.515 317.914 267.467 314.375C265.696 312.337 264.18 310.092 262.951 307.689C262.113 306.079 261.421 304.397 260.882 302.663C260.673 302.054 260.573 301.567 260.48 301.243C260.429 301.077 260.395 300.906 260.38 300.733C260.454 300.89 260.513 301.053 260.557 301.22C260.673 301.536 260.797 301.992 261.028 302.617C262.509 306.849 264.789 310.757 267.745 314.128C270.801 317.585 274.53 320.383 278.705 322.349C282.88 324.315 287.412 325.408 292.024 325.561C293.828 325.628 295.635 325.556 297.428 325.345C298.069 325.283 298.555 325.183 298.887 325.152C299.047 325.118 299.21 325.103 299.374 325.105Z" fill="#263238"/>
<path d="M276.306 321.106C276.043 319.881 276.17 318.604 276.669 317.454C277.046 316.259 277.792 315.213 278.8 314.467C278.118 315.454 277.531 316.503 277.048 317.601C276.694 318.744 276.446 319.918 276.306 321.106Z" fill="#FAFAFA"/>
<path d="M269.953 318.45C269.22 319.018 268.547 319.659 267.946 320.365C267.444 321.142 267.02 321.967 266.68 322.827C266.706 321.849 267.034 320.902 267.62 320.118C268.207 319.335 269.022 318.752 269.953 318.45Z" fill="#FAFAFA"/>
<path d="M294.386 332.995C293.123 332.894 291.902 332.49 290.827 331.818C289.753 331.147 288.855 330.226 288.21 329.135C289.889 330.948 292.021 332.28 294.386 332.995Z" fill="#FAFAFA"/>
<path d="M298.185 311.61C298.023 312.745 297.543 313.811 296.802 314.685C296.06 315.56 295.086 316.206 293.993 316.551C294.895 315.929 295.733 315.217 296.494 314.428C297.153 313.55 297.72 312.605 298.185 311.61Z" fill="#FAFAFA"/>
<path d="M308.985 327.552C308.893 327.475 309.912 326.186 310.853 324.41C311.795 322.635 312.297 321.068 312.397 321.106C311.96 323.562 310.761 325.817 308.97 327.552H308.985Z" fill="#FAFAFA"/>
<path d="M323.259 329.645C323.306 329.76 321.901 330.316 320.488 331.482C319.075 332.648 318.226 333.898 318.125 333.798C318.569 332.733 319.299 331.811 320.233 331.134C321.084 330.367 322.132 329.851 323.259 329.645Z" fill="#FAFAFA"/>
<path d="M312.374 311.371C312.251 311.41 311.602 309.155 310.159 306.654C308.715 304.153 307.171 302.393 307.271 302.315C307.695 302.614 308.068 302.979 308.375 303.396C310 305.295 311.238 307.492 312.019 309.866C312.213 310.346 312.333 310.854 312.374 311.371Z" fill="#FAFAFA"/>
<path d="M314.505 288.389C312.102 289.219 309.618 289.79 307.094 290.095C309.497 289.267 311.981 288.695 314.505 288.389Z" fill="#FAFAFA"/>
<path d="M307.935 281.518C307.054 280.698 306.262 279.787 305.573 278.801C304.787 277.891 304.101 276.9 303.527 275.844C304.417 276.652 305.21 277.562 305.89 278.553C306.683 279.46 307.369 280.455 307.935 281.518Z" fill="#FAFAFA"/>
<path d="M324.24 277.395C321.738 277.333 319.277 276.75 317.014 275.682C318.237 275.891 319.446 276.172 320.635 276.523C321.853 276.741 323.057 277.032 324.24 277.395Z" fill="#FAFAFA"/>
<path d="M335.82 277.187C336.152 276.094 336.546 275.022 337.001 273.975C337.327 272.878 337.721 271.803 338.182 270.756C338.119 271.911 337.858 273.047 337.41 274.114C337.066 275.224 336.527 276.264 335.82 277.187Z" fill="#FAFAFA"/>
<path d="M333.18 292.874C330.786 292.339 328.623 291.058 327.004 289.215C327.081 289.122 328.301 290.187 329.992 291.183C331.682 292.179 333.218 292.758 333.18 292.874Z" fill="#FAFAFA"/>
<path d="M340.699 292.395C340.854 290.846 341.138 289.312 341.548 287.81C341.827 286.283 342.235 284.782 342.768 283.324C342.335 286.405 341.635 289.443 340.676 292.403L340.699 292.395Z" fill="#FAFAFA"/>
<path d="M334.423 309.935C332.496 307.755 330.775 305.4 329.281 302.902C330.293 303.95 331.208 305.087 332.014 306.299C332.927 307.435 333.734 308.652 334.423 309.935Z" fill="#FAFAFA"/>
<path d="M345.138 303.227C345.03 303.281 344.328 301.884 343.216 300.324C342.104 298.765 341.031 297.63 341.116 297.545C342.087 298.225 342.914 299.091 343.548 300.093C344.285 301.018 344.827 302.085 345.138 303.227Z" fill="#FAFAFA"/>
<path d="M355.189 301.721C354.309 300.688 353.485 299.608 352.719 298.487C351.842 297.453 351.017 296.376 350.249 295.26C352.302 297.07 353.981 299.265 355.189 301.721Z" fill="#FAFAFA"/>
<path d="M352.804 308.384C352.666 307.456 352.355 306.563 351.885 305.751C351.321 305.002 350.622 304.363 349.824 303.868C349.824 303.821 350.179 303.868 350.666 304.107C351.293 304.441 351.825 304.93 352.21 305.527C352.603 306.123 352.839 306.808 352.897 307.519C352.974 308.029 352.874 308.384 352.804 308.384Z" fill="#FAFAFA"/>
<path d="M344.992 317.516C344.93 317.516 344.953 317.308 344.891 317.038C344.818 316.69 344.631 316.378 344.358 316.15C344.073 315.939 343.724 315.833 343.37 315.849C343.092 315.849 342.915 315.918 342.884 315.849C342.853 315.779 343 315.64 343.332 315.548C343.55 315.491 343.778 315.485 343.999 315.53C344.22 315.576 344.428 315.672 344.606 315.811C344.783 315.95 344.927 316.128 345.024 316.331C345.122 316.535 345.172 316.758 345.169 316.984C345.161 317.354 345.038 317.532 344.992 317.516Z" fill="#FAFAFA"/>
<path d="M264.672 332.115C263.23 331.559 261.92 330.709 260.825 329.619C259.73 328.529 258.874 327.223 258.311 325.784C259.886 328.388 262.068 330.571 264.672 332.146V332.115Z" fill="#FAFAFA"/>
<path d="M215.535 140.504C214.292 128.762 212.045 117.715 211.435 106.205C211.459 105.916 211.423 105.625 211.329 105.352C211.234 105.078 211.084 104.827 210.887 104.614C210.719 104.516 210.533 104.453 210.34 104.429C210.146 104.405 209.95 104.42 209.763 104.475C209.576 104.529 209.402 104.62 209.252 104.744C209.101 104.867 208.977 105.02 208.888 105.193C208.551 105.916 208.417 106.716 208.502 107.509C208.515 113.631 207.47 119.708 205.414 125.474C204.094 129.218 202.326 132.808 201.337 136.644C200.349 140.481 202.21 141.786 203.939 145.36" fill="#FFBE9D"/>
<path d="M203.962 145.344C202.433 144.171 201.247 142.609 200.528 140.82C199.81 139.031 199.585 137.082 199.878 135.177C200.272 132.861 201.422 130.761 202.333 128.6C203.244 126.438 203.947 124.037 203.391 121.76C203.084 120.915 202.876 120.036 202.773 119.143C202.773 118.247 203.352 117.244 204.248 117.205C204.586 117.232 204.914 117.338 205.205 117.513C205.495 117.689 205.741 117.93 205.923 118.216C207.428 120.077 208.633 125.512 207.876 129.573" fill="#FFBE9D"/>
<path d="M207.876 129.573C207.876 129.573 207.954 128.947 208 127.82C208.048 126.23 207.916 124.64 207.606 123.08C207.398 122.006 207.088 120.954 206.68 119.938C206.465 119.386 206.174 118.866 205.815 118.394C205.654 118.141 205.443 117.923 205.195 117.755C204.946 117.586 204.666 117.47 204.371 117.414C204.068 117.428 203.778 117.542 203.545 117.737C203.312 117.932 203.149 118.198 203.082 118.495C202.917 119.153 202.96 119.846 203.206 120.479C203.465 121.185 203.647 121.917 203.746 122.663C203.821 123.436 203.792 124.214 203.661 124.979C203.121 128.114 201.453 130.646 200.573 133.155C200.139 134.327 199.907 135.564 199.886 136.814C199.882 137.903 200.043 138.986 200.365 140.026C200.832 141.543 201.622 142.941 202.681 144.125C203.453 144.951 203.955 145.314 203.931 145.352C203.794 145.282 203.664 145.197 203.545 145.098C203.197 144.832 202.869 144.541 202.565 144.225C201.437 143.061 200.591 141.654 200.095 140.111C199.743 139.047 199.56 137.934 199.554 136.814C199.561 135.524 199.788 134.245 200.226 133.031C201.075 130.468 202.719 127.936 203.229 124.918C203.361 124.184 203.389 123.436 203.314 122.694C203.221 121.969 203.048 121.257 202.797 120.571C202.53 119.862 202.492 119.087 202.689 118.356C202.803 117.99 203.014 117.662 203.298 117.406C203.441 117.273 203.609 117.171 203.792 117.106C203.975 117.041 204.17 117.014 204.364 117.028C204.717 117.074 205.057 117.196 205.361 117.383C205.664 117.571 205.924 117.821 206.124 118.116C206.499 118.627 206.801 119.189 207.019 119.784C207.428 120.821 207.728 121.897 207.915 122.995C208.207 124.578 208.298 126.192 208.185 127.797C208.158 128.233 208.101 128.666 208.015 129.094C207.992 129.259 207.945 129.421 207.876 129.573Z" fill="#EB996E"/>
<path d="M308.8 192.267C309.053 193.371 309.651 194.366 310.507 195.107C311.364 195.849 312.434 196.298 313.563 196.389C314.695 196.445 315.822 196.212 316.839 195.712C317.856 195.212 318.729 194.462 319.377 193.533C320.659 191.642 321.175 189.335 320.82 187.079C320.38 183.829 318.219 180.702 315.084 179.737C311.95 178.772 308.051 180.509 307.187 183.659L303.574 188.7L308.8 192.267Z" fill="#263238"/>
<path d="M304.531 182.362C304.881 179.569 304.667 176.733 303.901 174.024C303.134 171.314 301.832 168.787 300.07 166.591C298.308 164.394 296.122 162.575 293.644 161.239C291.165 159.904 288.443 159.08 285.64 158.816C274.438 157.751 264.472 166.096 262.797 177.229C261.322 186.987 260.056 196.837 260.102 200.389C260.241 211.197 266.548 215.381 269.112 216.601C270.032 216.932 270.984 217.168 271.952 217.303C271.962 217.305 271.971 217.309 271.978 217.314C271.986 217.319 271.993 217.326 271.998 217.334C272.003 217.342 272.006 217.351 272.008 217.36C272.009 217.369 272.009 217.379 272.007 217.388L269.613 229.74C268.525 237.854 273.056 245.095 281.155 246.276C289.253 247.457 295.637 241.227 296.88 233.106L304.531 182.362Z" fill="#FFBE9D"/>
<path d="M264.657 183.536C264.834 183.791 266.255 183.026 268.084 183.296C269.914 183.567 271.111 184.678 271.342 184.478C271.458 184.393 271.296 183.968 270.779 183.459C270.069 182.795 269.171 182.366 268.208 182.231C267.258 182.093 266.288 182.258 265.437 182.702C264.796 183.049 264.564 183.42 264.657 183.536Z" fill="#263238"/>
<path d="M280.9 187.056C281.078 187.31 282.506 186.546 284.328 186.816C286.15 187.086 287.362 188.198 287.593 187.997C287.701 187.913 287.547 187.488 287.022 186.971C286.313 186.311 285.418 185.885 284.459 185.751C283.509 185.612 282.539 185.777 281.687 186.222C281.062 186.569 280.815 186.94 280.9 187.056Z" fill="#263238"/>
<path d="M274.585 195.687C273.666 195.247 272.696 194.923 271.698 194.722C271.234 194.606 270.81 194.444 270.779 194.12C270.809 193.633 270.987 193.167 271.288 192.784L273.188 189.433C275.836 184.655 277.82 180.702 277.634 180.594C277.449 180.486 275.133 184.277 272.485 189.086L270.64 192.46C270.27 192.984 270.091 193.618 270.13 194.258C270.179 194.428 270.265 194.585 270.381 194.719C270.497 194.852 270.641 194.959 270.802 195.03C271.049 195.136 271.309 195.211 271.574 195.254C272.555 195.525 273.567 195.671 274.585 195.687Z" fill="#263238"/>
<path d="M272.022 217.38C272.022 217.38 278.97 218.986 288.581 214.972C288.581 214.972 284.443 223.888 271.381 220.715L272.022 217.38Z" fill="#EB996E"/>
<path d="M274.716 200.203C275.125 199.826 275.622 199.558 276.162 199.424C276.701 199.289 277.266 199.291 277.804 199.431C278.201 199.529 278.575 199.705 278.904 199.949C279.232 200.193 279.509 200.499 279.718 200.851C279.919 201.19 280.009 201.583 279.978 201.976C279.946 202.368 279.793 202.741 279.541 203.044C279.201 203.331 278.783 203.509 278.341 203.554C277.899 203.599 277.453 203.51 277.063 203.299C276.243 202.872 275.519 202.283 274.932 201.569C274.744 201.395 274.592 201.185 274.484 200.952C274.431 200.841 274.412 200.716 274.432 200.595C274.451 200.474 274.507 200.361 274.592 200.272" fill="#EB996E"/>
<path d="M279.773 197.733C279.479 197.671 279.186 199.655 277.287 200.821C275.388 201.987 273.303 201.454 273.249 201.732C273.203 201.855 273.666 202.187 274.554 202.342C275.712 202.525 276.898 202.295 277.904 201.693C278.87 201.112 279.573 200.18 279.865 199.092C280.058 198.266 279.912 197.741 279.773 197.733Z" fill="#263238"/>
<path d="M282.158 181.112C282.266 181.637 284.127 181.668 286.227 182.239C288.326 182.81 289.986 183.644 290.334 183.243C290.488 183.05 290.256 182.54 289.631 181.953C288.784 181.228 287.782 180.705 286.703 180.424C285.624 180.143 284.494 180.112 283.401 180.332C282.552 180.533 282.12 180.865 282.158 181.112Z" fill="#263238"/>
<path d="M266.502 177.908C266.757 178.372 268.085 178.124 269.59 178.325C271.095 178.526 272.346 179.005 272.678 178.619C272.84 178.426 272.678 177.978 272.192 177.507C271.509 176.925 270.669 176.56 269.778 176.458C268.887 176.356 267.985 176.522 267.189 176.936C266.626 177.283 266.386 177.684 266.502 177.908Z" fill="#263238"/>
<path d="M260.681 174.813C262.912 178.217 269.999 176.11 274.276 173.77C276.51 175.195 279.212 175.693 281.807 175.156C284.402 174.62 286.686 173.092 288.172 170.899C290.619 173.987 295.599 172.983 297.436 169.47C299.273 165.958 298.208 161.117 295.738 158.045C293.267 154.972 289.608 153.413 286.01 152.757C277.48 151.213 268.193 154.486 263.09 162.198C260.735 165.757 259.322 170.551 260.72 174.813" fill="#263238"/>
<path d="M284.258 153.968C284.258 154.123 282.243 153.737 279.078 154.262C274.967 154.945 271.198 156.974 268.363 160.028C265.694 163.227 263.929 167.081 263.252 171.191C263.017 172.905 262.927 174.635 262.982 176.364C262.817 175.918 262.721 175.449 262.696 174.974C262.561 173.69 262.582 172.394 262.758 171.114C263.318 166.845 265.092 162.825 267.869 159.534C270.804 156.356 274.758 154.305 279.047 153.737C280.327 153.564 281.623 153.544 282.907 153.675C283.37 153.703 283.826 153.802 284.258 153.968Z" fill="#455A64"/>
<path d="M272.725 169.841C272.597 169.45 272.54 169.04 272.555 168.629C272.514 167.509 272.631 166.389 272.902 165.301C273.315 163.478 274.097 161.758 275.2 160.248C276.302 158.738 277.702 157.469 279.313 156.52C280.925 155.571 282.713 154.962 284.569 154.731C286.424 154.499 288.307 154.649 290.102 155.173C291.186 155.47 292.224 155.911 293.19 156.485C293.563 156.679 293.895 156.941 294.171 157.257C292.824 156.62 291.424 156.103 289.986 155.713C286.49 154.822 282.783 155.35 279.674 157.181C276.565 159.012 274.306 161.997 273.388 165.487C272.632 168.065 272.871 169.841 272.725 169.841Z" fill="#455A64"/>
<path d="M293.19 166.135C292.353 169.157 291.871 172.266 291.754 175.399C291.639 178.55 292.618 181.643 294.526 184.153C297.506 187.743 302.477 188.839 307.063 189.712C309.516 183.592 310.255 176.92 309.201 170.412C308.677 167.254 307.658 164.035 305.434 161.734C303.781 160.104 301.634 159.068 299.329 158.788C297.024 158.509 294.691 159.002 292.696 160.19" fill="#263238"/>
<path d="M295.737 181.081C294.533 183.69 294.618 186.709 295.035 189.573C295.452 192.437 296.178 195.24 296.147 198.111C296.116 200.983 295.205 204.033 292.951 205.831C292.267 206.287 291.626 206.804 291.036 207.375C290.745 207.665 290.55 208.038 290.478 208.443C290.406 208.848 290.461 209.265 290.635 209.637C291.067 210.332 292.372 210.317 292.557 209.522L292.441 209.722C292.327 209.915 292.266 210.133 292.264 210.357C292.261 210.58 292.318 210.8 292.427 210.995C292.537 211.19 292.695 211.352 292.888 211.466C293.08 211.58 293.298 211.642 293.522 211.645C294.311 211.607 295.083 211.408 295.792 211.06C296.502 210.712 297.132 210.223 297.644 209.622C299.119 207.916 299.706 205.623 300.092 203.446C301.28 196.629 301.049 189.55 302.933 182.903" fill="#263238"/>
<path d="M269.559 225.85C270.091 228.172 271.116 230.352 272.565 232.243C274.014 234.134 275.853 235.691 277.956 236.809C280.06 237.926 282.38 238.578 284.758 238.72C287.136 238.862 289.517 238.49 291.739 237.63C295.738 236.086 298.965 233.075 302.076 230.134C302.633 233.483 302.479 236.911 301.626 240.196C300.772 243.481 299.238 246.55 297.122 249.204C295.006 251.859 292.355 254.038 289.343 255.602C286.33 257.165 283.022 258.078 279.634 258.281C274.515 258.59 269.019 257.031 265.799 253.039C263.553 250.26 262.65 246.578 262.711 243.003C262.868 239.423 263.549 235.886 264.734 232.504C265.645 229.586 267.089 226.328 270.038 225.518" fill="#2A356A"/>
<path d="M306.183 189.912C309.271 191.572 310.923 195.046 311.517 198.474C312.112 201.902 311.811 205.422 311.958 208.888C312.104 212.355 312.768 215.998 314.968 218.693C317.284 221.564 320.951 222.923 324.232 224.676C331.427 228.536 337.356 235.121 339.518 243.011C341.679 250.9 339.719 259.995 333.813 265.669C328.409 270.81 320.612 272.617 313.17 272.617C307.866 272.617 302.037 271.474 298.725 267.329C295.414 263.183 295.637 257.37 296.795 252.259C297.953 247.149 300.076 242.185 300.161 236.943C299.369 240.188 297.987 243.26 296.085 246.006C295.537 246.778 294.603 247.627 293.769 247.179C292.935 246.732 293.19 245.288 293.623 244.323C300.015 230.095 297.791 201.415 301.582 185.705" fill="#263238"/>
<path d="M300.918 188.299C301.111 188.237 308.576 186.824 307.611 194.204C306.646 201.585 299.443 199.099 299.459 198.89C299.474 198.682 300.918 188.299 300.918 188.299Z" fill="#FFBE9D"/>
<path d="M302.076 196.39C302.076 196.39 302.191 196.49 302.4 196.621C302.688 196.791 303.031 196.844 303.357 196.768C304.175 196.583 304.994 195.425 305.202 194.105C305.3 193.473 305.257 192.827 305.079 192.213C305.04 191.973 304.943 191.747 304.796 191.553C304.649 191.359 304.457 191.204 304.237 191.102C304.098 191.053 303.947 191.051 303.808 191.097C303.668 191.143 303.547 191.234 303.465 191.356C303.342 191.549 303.365 191.704 303.326 191.712C303.288 191.719 303.187 191.565 303.28 191.271C303.346 191.093 303.471 190.943 303.635 190.847C303.75 190.778 303.878 190.733 304.011 190.716C304.143 190.699 304.278 190.709 304.407 190.747C304.702 190.846 304.967 191.02 305.177 191.251C305.386 191.482 305.533 191.763 305.604 192.067C305.832 192.747 305.893 193.473 305.781 194.182C305.542 195.664 304.6 196.953 303.465 197.123C303.26 197.156 303.049 197.142 302.85 197.082C302.651 197.022 302.468 196.917 302.315 196.776C302.068 196.567 302.052 196.398 302.076 196.39Z" fill="#EB996E"/>
<path d="M261.932 241.752C262.294 240.964 262.712 240.203 263.182 239.475C264.258 237.694 265.151 235.808 265.846 233.847C266.521 231.884 266.748 229.795 266.51 227.733C266.359 226.886 266.163 226.049 265.923 225.224C266.068 225.412 266.181 225.623 266.255 225.849C266.507 226.441 266.688 227.06 266.795 227.694C267.12 229.801 266.926 231.955 266.232 233.97C265.531 235.961 264.59 237.859 263.429 239.621C262.997 240.301 262.657 240.841 262.372 241.204C262.086 241.567 261.955 241.768 261.932 241.752Z" fill="#263238"/>
<path d="M265.691 233.237C265.583 233.237 265.375 232.604 264.711 232.164C264.047 231.724 263.383 231.724 263.368 231.608C263.352 231.492 263.53 231.476 263.831 231.469C264.23 231.472 264.618 231.599 264.943 231.832C265.269 232.06 265.522 232.379 265.668 232.75C265.769 233.036 265.745 233.221 265.691 233.237Z" fill="#FAFAFA"/>
<path d="M270.462 233.222C269.884 232.571 269.248 231.975 268.563 231.438C267.803 231.013 267.001 230.666 266.17 230.404C266.63 230.34 267.098 230.37 267.546 230.49C267.994 230.611 268.414 230.82 268.779 231.106C269.595 231.565 270.199 232.324 270.462 233.222Z" fill="#FAFAFA"/>
<path d="M273.458 248.885C273.476 247.821 273.626 246.763 273.906 245.735C274.055 244.675 274.337 243.637 274.747 242.647C274.73 243.714 274.579 244.775 274.299 245.805C274.15 246.863 273.867 247.898 273.458 248.885Z" fill="#FAFAFA"/>
<path d="M285.501 251.248C285.308 249.031 285.378 246.8 285.709 244.601C285.913 246.816 285.843 249.049 285.501 251.248Z" fill="#FAFAFA"/>
<path d="M39.6113 285.555L27.707 337.395L52.882 337.472L64.5083 291.885L39.6113 285.555Z" fill="#B78876"/>
<path d="M163.239 221.865C160.846 218.661 158.098 215.581 156.839 211.782C156.23 209.945 155.99 208 155.342 206.178C154.693 204.356 153.512 202.58 151.706 201.893C149.899 201.206 148.525 201.893 147.352 203.19L138.713 228.458L143.692 247.866C148.664 246.746 154.886 245.419 159.534 243.326C164.181 241.234 167.254 237.884 167.578 232.796C167.802 228.805 165.633 225.076 163.239 221.865Z" fill="#263238"/>
<path d="M84.6266 217.403C84.6266 217.403 54.5958 230.473 50.8439 236.371C47.092 242.269 34.74 284.32 34.74 284.32L66.392 293.584L65.8516 337.364H143.438L142.797 260.164L133.07 217.503C133.07 217.503 115.939 216.399 114.349 215.619C112.758 214.84 84.6266 217.403 84.6266 217.403Z" fill="#2A356A"/>
<path d="M191.348 110.396C191.595 108.628 190.352 106.683 191.248 105.131C191.84 104.331 192.687 103.757 193.649 103.502C194.115 103.289 194.619 103.171 195.131 103.154C195.386 103.15 195.637 103.221 195.853 103.359C196.068 103.496 196.239 103.693 196.343 103.926C196.398 104.222 196.372 104.527 196.268 104.808C196.163 105.09 195.983 105.337 195.748 105.525C195.278 105.894 194.882 106.35 194.583 106.868C194.373 108.139 194.471 109.441 194.868 110.666C195.897 113.362 196.75 116.121 197.424 118.926" fill="#B78876"/>
<path d="M185.01 110.998C185.118 108.319 187.326 97.7658 187.403 95.0869C189.217 95.6428 190.267 97.5728 190.607 99.441C190.946 101.309 190.769 103.232 191.093 105.1C191.525 107.609 192.83 109.871 194.143 112.048C195.455 114.225 196.829 116.44 197.424 118.911C198.018 121.381 200.257 127.804 198.512 129.657" fill="#B78876"/>
<path d="M184.508 129.062L173.769 180.076C173.391 182.392 133.07 217.557 133.07 217.557L141.029 249.356L193.525 197.994C197.315 193.942 199.378 188.573 199.276 183.025L198.381 135.161L184.508 129.062Z" fill="#B78876"/>
<path d="M182.671 111.322L184.508 129.078L198.404 135.192C198.404 135.192 198.574 133.934 199.176 127.781C199.832 121.003 192.544 118.092 189.294 113.113C187.905 110.975 188.268 107.037 187.194 102.158C187.071 101.595 186.299 98.1825 185.882 96.3529C185.663 95.3361 185.067 94.4399 184.215 93.8439C183.581 93.427 182.871 93.2186 182.354 93.8439C181.837 94.4692 182.671 111.322 182.671 111.322Z" fill="#B78876"/>
<path d="M191.348 132.011C192.892 130.676 193.262 128.283 192.683 126.299C191.975 124.345 190.856 122.565 189.402 121.08C187.951 119.598 186.731 117.906 185.782 116.062C185.195 114.734 184.917 113.267 184.238 111.963C183.558 110.658 182.408 109.461 180.957 109.407C182.123 116.749 182.092 120.987 184.477 129.031" fill="#B78876"/>
<path d="M182.401 117.791C182.401 117.791 182.346 117.59 182.262 117.204C182.177 116.818 182.03 116.178 181.891 115.521C181.559 113.977 181.119 112.009 180.664 109.747L180.617 109.531H180.841C181.316 109.513 181.79 109.59 182.235 109.757C182.681 109.924 183.088 110.178 183.435 110.503C184.495 111.512 185.25 112.799 185.612 114.217C185.92 115.319 186.326 116.391 186.824 117.421C187.202 118.097 187.658 118.727 188.183 119.297C188.374 119.515 188.531 119.763 188.646 120.03C188.435 119.834 188.239 119.622 188.059 119.397C187.485 118.854 186.986 118.236 186.577 117.56C186.032 116.526 185.587 115.443 185.249 114.325C184.89 112.978 184.169 111.755 183.165 110.789C182.539 110.201 181.707 109.883 180.849 109.901L181.034 109.67C181.968 114.317 182.57 117.799 182.401 117.791Z" fill="#7C5142"/>
<path d="M188.646 113.275C188.086 110.887 187.658 108.469 187.364 106.034C186.935 103.617 186.639 101.179 186.477 98.7305C187.041 101.121 187.469 103.541 187.758 105.98C188.187 108.393 188.483 110.829 188.646 113.275Z" fill="#7C5142"/>
<path d="M193.07 113.877C193.07 113.877 193.124 113.954 193.17 114.147H193.054C192.48 112.496 192.011 110.809 191.649 109.098C191.317 107.609 191.078 106.25 190.931 105.238C190.812 104.709 190.765 104.167 190.792 103.625C190.908 103.625 191.379 106.026 192.043 109.029C192.575 111.43 193.07 113.453 193.17 114.132H193.054C193.046 113.97 193.046 113.877 193.07 113.877Z" fill="#7C5142"/>
<path d="M195.81 123.659C195.748 123.659 195.47 123.257 194.914 122.663C193.446 121.103 191.453 120.14 189.317 119.961C188.871 119.965 188.424 119.936 187.982 119.876C188.409 119.71 188.868 119.642 189.325 119.675C190.438 119.689 191.534 119.948 192.536 120.432C193.538 120.916 194.421 121.614 195.123 122.478C195.439 122.814 195.674 123.218 195.81 123.659Z" fill="#7C5142"/>
<path d="M185.766 130.467C185.385 129.803 185.076 129.099 184.848 128.368C184.213 126.635 183.682 124.867 183.257 123.072C182.826 121.291 182.501 119.487 182.285 117.668C182.158 116.902 182.112 116.126 182.146 115.352C182.339 116.089 182.479 116.84 182.563 117.598C182.794 118.98 183.149 120.895 183.643 123.002C184.137 125.11 184.693 126.955 185.118 128.298C185.384 129.005 185.601 129.73 185.766 130.467Z" fill="#7C5142"/>
<path d="M123.644 218.475C124.331 217.422 125.398 216.674 126.623 216.386C127.848 216.099 129.136 216.294 130.221 216.931C135.887 212.299 141.685 207.806 147.352 203.197C145.499 212.461 144.264 225.377 148.409 233.853C148.409 233.853 153.636 243.565 161.958 242.083L154.531 249.355L142.82 260.217" fill="#2A356A"/>
<path d="M121.806 222.798C121.815 221.556 122.194 220.343 122.895 219.317C123.486 218.22 124.389 217.323 125.489 216.738C123.744 218.395 122.473 220.487 121.806 222.798Z" fill="#263238"/>
<path d="M127.928 228.512C127.607 227.997 127.386 227.426 127.279 226.829C126.946 225.397 126.906 223.913 127.163 222.465C127.419 221.018 127.965 219.637 128.769 218.406C129.076 217.88 129.479 217.417 129.958 217.04C130.012 217.086 129.565 217.611 129.016 218.584C128.303 219.815 127.81 221.16 127.557 222.56C127.316 223.962 127.316 225.396 127.557 226.798C127.75 227.802 127.99 228.45 127.928 228.512Z" fill="#263238"/>
<path d="M156.291 248.336C155.722 248.691 155.099 248.951 154.446 249.108C152.663 249.538 150.797 249.483 149.042 248.946C146.444 248.121 144.17 246.501 142.542 244.314C140.586 241.633 139.266 238.541 138.682 235.274C137.592 229.391 137.28 223.39 137.756 217.426C137.933 215.11 138.188 213.303 138.404 212.022C138.505 211.389 138.597 210.902 138.667 210.57C138.691 210.399 138.732 210.231 138.79 210.068C138.796 210.242 138.78 210.416 138.744 210.586L138.559 212.045C138.396 213.311 138.18 215.133 138.041 217.449C137.646 223.387 137.994 229.352 139.076 235.205C139.654 238.387 140.933 241.402 142.82 244.029C144.381 246.193 146.582 247.813 149.112 248.661C150.82 249.211 152.642 249.309 154.4 248.946C155.043 248.786 155.675 248.582 156.291 248.336Z" fill="#FAFAFA"/>
<path d="M66.5386 306.615C66.4305 306.615 66.3379 295.637 66.3379 282.104C66.3379 268.571 66.4305 257.593 66.5386 257.593C66.6467 257.593 66.7393 268.563 66.7393 282.104C66.7393 295.645 66.6544 306.615 66.5386 306.615Z" fill="#263238"/>
<path d="M65.921 249.124C65.8361 249.124 65.8592 248.027 65.4809 246.321C65.2556 245.324 64.9323 244.352 64.5159 243.419C63.9971 242.283 63.3578 241.206 62.6091 240.207C61.8395 239.222 60.9674 238.321 60.0075 237.52C59.2171 236.874 58.3666 236.306 57.4676 235.822C55.9236 235.011 54.8505 234.741 54.8737 234.664C55.1372 234.678 55.3972 234.73 55.6457 234.818C55.9383 234.891 56.2248 234.987 56.5026 235.104C56.8813 235.235 57.2502 235.392 57.6065 235.575C58.5339 236.029 59.4089 236.583 60.2159 237.227C61.2069 238.036 62.1054 238.953 62.8947 239.96C63.6652 240.985 64.313 242.096 64.8247 243.272C65.2452 244.233 65.5584 245.238 65.7589 246.267C65.8381 246.66 65.8922 247.057 65.921 247.456C65.9571 247.756 65.9726 248.058 65.9673 248.359C65.9813 248.615 65.9658 248.872 65.921 249.124Z" fill="#263238"/>
<path d="M118.795 217.062C118.859 217.277 118.903 217.496 118.927 217.719C119.031 218.345 119.098 218.976 119.127 219.61C119.22 221.952 118.893 224.292 118.162 226.519C117.074 229.841 115.146 232.825 112.565 235.181C109.328 238.011 105.262 239.717 100.975 240.045C96.6885 240.373 92.4105 239.306 88.78 237.003C85.8778 235.061 83.5269 232.402 81.9555 229.283C80.9029 227.19 80.2311 224.926 79.9714 222.598C79.9087 221.967 79.8804 221.333 79.8865 220.699C79.8679 220.478 79.8679 220.256 79.8865 220.035C79.9228 220.252 79.9408 220.471 79.9406 220.691C79.9604 221.321 80.0119 221.95 80.095 222.575C80.4112 224.87 81.1161 227.094 82.1794 229.152C83.7545 232.208 86.0852 234.809 88.9498 236.71C92.5146 238.951 96.7042 239.991 100.903 239.675C105.102 239.36 109.09 237.706 112.28 234.957C114.833 232.649 116.752 229.726 117.854 226.465C118.593 224.27 118.959 221.965 118.934 219.649C118.934 218.83 118.865 218.197 118.803 217.765C118.741 217.333 118.788 217.07 118.795 217.062Z" fill="#263238"/>
<path d="M65.8748 284.041C65.8748 284.149 59.4594 282.134 51.6314 279.548C43.8033 276.962 37.4806 274.777 37.5192 274.669C37.5578 274.561 43.9268 276.576 51.7626 279.162C59.5984 281.748 65.9056 283.933 65.8748 284.041Z" fill="#FAFAFA"/>
<path d="M142.048 273.327C142.048 273.442 125.025 273.604 104.027 273.689C83.0286 273.774 65.9983 273.759 65.9983 273.689C65.9983 273.62 83.0209 273.411 104.027 273.327C125.033 273.242 142.048 273.218 142.048 273.327Z" fill="#FAFAFA"/>
<path d="M142.434 280.05C142.434 280.158 125.319 280.251 104.22 280.251C83.1213 280.251 65.9983 280.158 65.9983 280.05C65.9983 279.942 83.1058 279.85 104.22 279.85C125.334 279.85 142.434 279.935 142.434 280.05Z" fill="#FAFAFA"/>
<path d="M131.95 288.218C131.898 288.433 131.826 288.642 131.734 288.843C131.564 289.275 131.333 289.862 131.047 290.603L130.537 291.869C130.337 292.333 130.097 292.819 129.85 293.352C129.341 294.401 128.816 295.621 128.082 296.903L126.971 298.925C126.585 299.628 126.122 300.323 125.674 301.064C124.794 302.554 123.713 304.052 122.586 305.65C120.079 309.045 117.318 312.245 114.325 315.222C111.291 318.158 108.036 320.857 104.59 323.297C102.969 324.378 101.448 325.436 99.9584 326.285C99.1864 326.717 98.5071 327.165 97.7968 327.543L95.7279 328.609C94.4386 329.311 93.2034 329.821 92.1458 330.307C91.6131 330.539 91.119 330.77 90.6558 330.963L89.3743 331.45L87.6064 332.106C87.4025 332.193 87.1905 332.261 86.9734 332.307C87.1661 332.198 87.3675 332.105 87.5755 332.029L89.3203 331.303L90.5786 330.786C91.0418 330.585 91.5282 330.346 92.0531 330.099C93.1031 329.597 94.3228 329.072 95.5966 328.354L97.627 327.273C98.3295 326.887 99.032 326.432 99.7732 325.999C101.263 325.143 102.769 324.077 104.405 322.996C111.282 318.144 117.33 312.214 122.316 305.433C123.435 303.851 124.523 302.345 125.404 300.886C125.859 300.153 126.33 299.466 126.724 298.771L127.843 296.764C128.615 295.505 129.132 294.293 129.657 293.251C129.912 292.726 130.167 292.248 130.375 291.792C130.584 291.337 130.754 290.92 130.916 290.542C131.232 289.816 131.487 289.245 131.688 288.812C131.765 288.61 131.853 288.411 131.95 288.218Z" fill="#263238"/>
<g opacity="0.3">
<path opacity="0.3" d="M128.816 294.903C123.628 301.218 118.193 305.796 110.573 308.745C106.922 310.15 103.1 311.115 99.5647 312.791C96.0289 314.466 92.6939 316.99 91.0727 320.565C89.8452 323.328 90.4396 327.513 93.3887 328.115C94.5344 328.255 95.6966 328.076 96.7469 327.598C111.839 322.124 121.76 308.298 128.769 294.903" fill="black"/>
</g>
<path d="M74.83 157.549C71.5722 160.104 71.356 164.883 71.5181 169.021C71.6802 173.159 71.7266 177.868 68.708 180.724C66.2376 183.079 61.9144 183.951 61.2042 187.294C61.0244 188.082 61.0963 188.906 61.4097 189.65C61.7231 190.395 62.2622 191.022 62.951 191.444C63.6398 191.866 64.4437 192.062 65.2494 192.003C66.0551 191.944 66.822 191.633 67.442 191.115C66.392 193.732 66.8707 197.083 69.1018 198.835C71.3328 200.588 75.2314 199.754 76.0498 197.068C75.9233 197.512 75.8884 197.977 75.9472 198.436C76.006 198.894 76.1573 199.336 76.392 199.734C76.6266 200.132 76.9396 200.478 77.3121 200.752C77.6845 201.025 78.1087 201.22 78.5588 201.325C79.0089 201.43 79.4755 201.442 79.9305 201.361C80.3854 201.28 80.8191 201.107 81.2053 200.853C81.5915 200.6 81.9222 200.27 82.1772 199.885C82.4322 199.499 82.6063 199.066 82.689 198.612" fill="#263238"/>
<path d="M122.107 187.511C122.263 188.053 122.528 188.557 122.886 188.993C123.245 189.428 123.689 189.785 124.191 190.042C124.693 190.299 125.243 190.449 125.806 190.484C126.369 190.52 126.933 190.439 127.464 190.247C127.994 190.055 128.479 189.756 128.889 189.368C129.299 188.981 129.625 188.513 129.847 187.995C130.068 187.476 130.181 186.917 130.178 186.353C130.174 185.789 130.055 185.232 129.827 184.716C129.186 183.11 127.511 181.898 127.473 180.177C127.372 178.092 129.565 176.71 131.487 175.9C133.409 175.089 135.664 174.008 135.965 171.947C136.266 169.886 134.544 168.303 133.108 166.89C131.672 165.478 130.29 163.332 131.302 161.587C131.819 160.699 132.846 160.22 133.51 159.441C135.007 157.711 134.405 154.809 132.676 153.334C130.947 151.86 128.469 151.52 126.207 151.79C123.945 152.06 121.783 152.91 119.567 153.458C115.893 154.344 112.075 154.459 108.355 153.795C104.634 153.13 101.091 151.701 97.9514 149.598" fill="#263238"/>
<path d="M77.0456 173.468L84.9895 219.51C85.3187 221.437 86.0259 223.279 87.0706 224.932C88.1153 226.584 89.4766 228.014 91.0762 229.137C92.6758 230.261 94.4821 231.057 96.3908 231.48C98.2995 231.902 100.273 231.943 102.197 231.599C105.844 230.946 109.113 228.952 111.362 226.008C113.611 223.065 114.677 219.386 114.349 215.696C113.986 211.612 113.677 208.231 113.677 208.231C113.677 208.231 125.211 205.266 124.215 193.563C123.728 187.896 121.791 176.309 119.907 165.84C118.93 160.422 115.95 155.57 111.558 152.25C107.166 148.93 101.686 147.385 96.2067 147.922L95.0796 148.03C92.2082 148.48 89.4561 149.501 86.9857 151.032C84.5152 152.563 82.3764 154.573 80.6955 156.944C79.0146 159.315 77.8256 161.998 77.1988 164.836C76.5719 167.674 76.5198 170.609 77.0456 173.468Z" fill="#B78876"/>
<path d="M117.444 173.399C117.494 173.834 117.371 174.272 117.101 174.618C116.831 174.963 116.435 175.188 116.001 175.244C115.79 175.282 115.573 175.278 115.364 175.232C115.155 175.185 114.958 175.097 114.783 174.972C114.609 174.847 114.462 174.689 114.35 174.506C114.238 174.324 114.164 174.12 114.132 173.908C114.082 173.473 114.205 173.035 114.476 172.69C114.746 172.344 115.141 172.119 115.576 172.063C115.787 172.025 116.003 172.029 116.212 172.076C116.421 172.122 116.619 172.211 116.793 172.335C116.967 172.46 117.115 172.618 117.227 172.801C117.339 172.984 117.413 173.187 117.444 173.399Z" fill="#263238"/>
<path d="M117.954 171.801C117.768 172.032 116.41 171.222 114.611 171.399C112.812 171.577 111.577 172.611 111.361 172.41C111.261 172.318 111.43 171.909 111.963 171.43C112.69 170.813 113.591 170.438 114.542 170.357C115.477 170.264 116.417 170.469 117.228 170.944C117.823 171.314 118.046 171.692 117.954 171.801Z" fill="#263238"/>
<path d="M99.8427 175.46C99.8867 175.895 99.7598 176.329 99.4889 176.672C99.2181 177.015 98.8245 177.239 98.3914 177.297C98.1807 177.335 97.9647 177.33 97.756 177.283C97.5474 177.235 97.3502 177.147 97.1762 177.023C97.0021 176.898 96.8547 176.74 96.7426 176.558C96.6304 176.376 96.5558 176.173 96.5231 175.962C96.4769 175.527 96.6017 175.091 96.8712 174.747C97.1406 174.402 97.5336 174.176 97.9668 174.116C98.1784 174.079 98.3954 174.084 98.605 174.132C98.8146 174.179 99.0126 174.268 99.1874 174.393C99.3621 174.519 99.5101 174.677 99.6227 174.86C99.7352 175.044 99.81 175.247 99.8427 175.46Z" fill="#263238"/>
<path d="M100.298 173.854C100.113 174.093 98.7542 173.283 96.9555 173.46C95.1567 173.638 93.9292 174.672 93.7054 174.472C93.605 174.379 93.7749 173.97 94.3075 173.491C95.0362 172.877 95.9366 172.502 96.886 172.418C97.8212 172.321 98.7629 172.527 99.5726 173.005C100.167 173.375 100.36 173.754 100.298 173.854Z" fill="#263238"/>
<path d="M108.134 186.569C108.134 186.461 109.215 186.16 110.998 185.751C111.454 185.658 111.886 185.527 111.932 185.203C111.919 184.726 111.766 184.264 111.492 183.875L109.786 180.509C107.416 175.707 105.656 171.747 105.849 171.654C106.042 171.561 108.119 175.375 110.481 180.146L112.125 183.543C112.467 184.068 112.612 184.697 112.534 185.318C112.488 185.492 112.402 185.652 112.283 185.786C112.163 185.92 112.014 186.024 111.847 186.09C111.598 186.182 111.339 186.244 111.075 186.276C110.11 186.493 109.123 186.591 108.134 186.569Z" fill="#263238"/>
<path d="M100.074 166.751C99.943 167.261 98.1288 167.199 96.0444 167.662C93.96 168.125 92.3002 168.866 91.9837 168.434C91.837 168.241 92.084 167.747 92.7557 167.207C93.6131 166.529 94.6182 166.064 95.6893 165.848C96.7576 165.613 97.8667 165.636 98.9239 165.917C99.7037 166.172 100.128 166.52 100.074 166.751Z" fill="#263238"/>
<path d="M116.788 166.651C116.51 167.091 115.244 166.79 113.7 166.914C112.156 167.037 110.975 167.462 110.612 167.061C110.465 166.868 110.612 166.435 111.137 165.995C111.829 165.449 112.673 165.13 113.553 165.084C114.431 165.013 115.308 165.218 116.062 165.671C116.688 166.042 116.904 166.443 116.788 166.651Z" fill="#263238"/>
<path d="M88.502 159.387L88.4402 159.449C86.7198 161.1 85.7022 163.351 85.5992 165.733C85.5992 165.818 85.5992 165.903 85.5992 165.972C85.468 169.361 85.8772 172.75 85.715 176.132C85.5529 179.513 84.7269 183.018 82.4804 185.558C81.5617 186.6 79.8324 187.426 78.8906 186.399C78.5628 185.967 78.3647 185.45 78.3193 184.909C76.9142 176.911 74.0115 169.971 73.2086 161.533C73.0934 160.405 73.2499 159.265 73.6649 158.21C74.0798 157.154 74.7413 156.213 75.5941 155.465C77.2308 154.022 79.2611 152.501 81.3146 153.242C83.3682 153.983 86.2632 157.403 87.9384 158.808" fill="#263238"/>
<path d="M81.5077 178.378C81.2993 178.316 73.2319 176.788 74.2664 184.762C75.3009 192.737 83.0981 190.058 83.0826 189.827C83.0672 189.595 81.5077 178.378 81.5077 178.378Z" fill="#B78876"/>
<path d="M80.288 187.125C80.288 187.125 80.1645 187.24 79.9406 187.372C79.7873 187.465 79.617 187.528 79.4395 187.556C79.262 187.584 79.0807 187.576 78.9061 187.534C78.026 187.333 77.1382 186.082 76.9143 184.654C76.8047 183.971 76.8496 183.272 77.0456 182.608C77.0896 182.349 77.1953 182.105 77.3539 181.895C77.5124 181.685 77.7192 181.517 77.9566 181.404C78.1106 181.344 78.2808 181.338 78.4384 181.389C78.596 181.44 78.7312 181.543 78.8212 181.682C78.9602 181.891 78.9293 182.06 78.9756 182.068C79.0219 182.076 79.13 181.914 79.0219 181.589C78.9521 181.397 78.8187 181.233 78.6436 181.126C78.4082 180.997 78.1324 180.961 77.8716 181.026C77.5518 181.134 77.2648 181.322 77.0379 181.572C76.8109 181.822 76.6515 182.125 76.5747 182.454C76.3238 183.199 76.2576 183.994 76.3817 184.77C76.6442 186.368 77.6632 187.765 78.8598 187.951C79.0821 187.987 79.3097 187.971 79.5252 187.906C79.7406 187.84 79.9382 187.726 80.1027 187.572C80.288 187.318 80.288 187.132 80.288 187.125Z" fill="#7C5142"/>
<path d="M81.1526 154.508C78.8366 151.497 83.8237 146.371 87.6528 144.742C91.4819 143.113 96.8782 144.526 100.939 145.445C103.494 146.031 106.08 146.935 108.659 146.572C110.388 146.226 112.056 145.625 113.607 144.788C115.158 143.938 116.865 143.412 118.625 143.244C119.507 143.177 120.39 143.353 121.18 143.751C121.969 144.15 122.634 144.757 123.103 145.506C123.921 147.05 123.188 149.366 121.474 149.791C122.001 149.428 122.609 149.199 123.244 149.123C123.879 149.047 124.523 149.126 125.121 149.353C125.719 149.581 126.253 149.951 126.677 150.43C127.1 150.91 127.401 151.485 127.554 152.106C127.706 152.728 127.705 153.377 127.551 153.998C127.397 154.619 127.095 155.193 126.67 155.672C126.245 156.15 125.711 156.518 125.112 156.745C124.514 156.971 123.869 157.048 123.234 156.971C124.292 155.998 126.176 157.256 126.176 158.684C126.176 160.113 124.979 161.286 123.728 161.989C120.532 163.78 116.595 163.687 113.028 162.861C109.462 162.035 106.08 160.545 102.529 159.619C98.978 158.692 93.0259 157.025 89.7063 158.576C87.2668 159.711 85.8 162.93 84.3023 162.436C83.5936 162.142 82.9639 161.686 82.4637 161.104C81.9636 160.522 81.607 159.831 81.4228 159.086C81.0779 157.588 80.9788 156.045 81.1294 154.516" fill="#263238"/>
<path d="M81.6082 179.744C81.7077 183.984 82.1935 188.206 83.0595 192.358C83.925 196.525 85.9017 200.38 88.78 203.514C92.64 207.474 97.7044 211.234 103.186 212.168C109.169 213.156 116.487 211.905 121.358 208.308C123.674 206.602 125.35 202.904 124.632 200.109C125.612 199.647 126.451 198.93 127.062 198.035C127.673 197.139 128.033 196.096 128.106 195.014C128.229 192.853 126.909 190.151 125.203 189.865C126.485 189.649 126.855 187.611 126.369 186.46C125.882 185.31 124.192 184.963 122.91 185.21C121.644 185.541 120.465 186.148 119.459 186.985C118.459 187.824 117.33 188.497 116.117 188.977C111.979 190.32 107.787 186.661 103.44 186.839C99.5108 186.993 96.0137 190.259 92.1151 189.711C91.0328 189.504 90.0061 189.073 89.1017 188.443C88.1972 187.814 87.4353 187.002 86.8655 186.059C85.6612 184.214 86.1861 177.397 85.7152 175.251" fill="#263238"/>
<g opacity="0.6">
<path opacity="0.6" d="M113.144 198.125C112.819 198.049 112.499 197.951 112.187 197.832C111.431 197.616 110.635 197.576 109.861 197.717C109.088 197.858 108.357 198.174 107.725 198.643C107.231 198.998 106.953 199.283 106.953 199.245C106.953 199.206 107.107 198.866 107.578 198.473C108.212 197.915 108.987 197.54 109.818 197.391C110.65 197.241 111.506 197.322 112.295 197.624C112.866 197.817 113.167 198.087 113.144 198.125Z" fill="#455A64"/>
</g>
<path d="M104.691 189.256C104.984 189.209 105.177 191.163 107.007 192.344C108.837 193.525 110.867 193.154 110.913 193.424C110.952 193.54 110.489 193.849 109.609 193.957C108.468 194.091 107.317 193.818 106.358 193.185C105.44 192.572 104.798 191.625 104.567 190.545C104.39 189.757 104.56 189.256 104.691 189.256Z" fill="white"/>
<path d="M98.8855 210.864C99.0601 210.904 99.2288 210.966 99.3873 211.049C99.7193 211.173 100.206 211.343 100.846 211.52C102.662 212.011 104.526 212.303 106.405 212.393C107.691 212.468 108.982 212.442 110.265 212.315C111.744 212.183 113.206 211.898 114.627 211.466C116.195 210.998 117.692 210.314 119.073 209.436C120.576 208.53 121.887 207.339 122.933 205.931C124.177 204.273 124.73 202.198 124.477 200.141V199.979L124.616 199.917C125.577 199.471 126.408 198.788 127.033 197.933C127.336 197.53 127.594 197.095 127.805 196.636C127.989 196.191 128.104 195.719 128.144 195.239C128.228 194.369 128.104 193.492 127.782 192.68C127.46 191.868 126.949 191.144 126.291 190.568L126.176 190.475L126.268 190.36C126.617 189.918 126.844 189.393 126.928 188.837C127.012 188.28 126.949 187.712 126.747 187.187C126.588 186.789 126.348 186.428 126.043 186.128C125.737 185.827 125.372 185.594 124.971 185.442C124.46 185.238 123.906 185.161 123.358 185.218C122.98 185.264 122.794 185.334 122.787 185.311C122.965 185.226 123.155 185.169 123.35 185.141C124.084 185.022 124.836 185.149 125.489 185.503C126.143 185.856 126.661 186.415 126.963 187.094C127.192 187.66 127.269 188.276 127.188 188.881C127.107 189.486 126.87 190.059 126.5 190.545V190.337C127.205 190.939 127.757 191.7 128.108 192.558C128.46 193.416 128.602 194.346 128.523 195.27C128.483 195.8 128.361 196.321 128.16 196.814C127.936 197.297 127.664 197.758 127.349 198.188C126.692 199.104 125.809 199.836 124.786 200.311L124.902 200.079C125.212 202.241 124.657 204.438 123.358 206.193C122.28 207.643 120.93 208.868 119.382 209.799C117.973 210.696 116.441 211.385 114.835 211.844C113.389 212.279 111.901 212.558 110.396 212.678C109.088 212.782 107.774 212.782 106.467 212.678C104.573 212.56 102.7 212.22 100.885 211.667C100.393 211.514 99.9109 211.331 99.4413 211.119C99.2475 211.054 99.0611 210.969 98.8855 210.864Z" fill="#455A64"/>
<path d="M63.8907 190.491C63.7429 190.45 63.6041 190.382 63.4816 190.29C63.1337 190.029 62.8662 189.676 62.7096 189.271C62.4487 188.619 62.3921 187.902 62.5474 187.217C62.791 186.31 63.3354 185.513 64.0914 184.955C64.9796 184.286 65.9703 183.765 67.025 183.411C68.207 183.04 69.3499 182.554 70.4373 181.96C71.5815 181.236 72.4782 180.18 73.008 178.934C73.5892 177.593 73.8988 176.149 73.919 174.688C73.9808 171.669 73.286 168.805 73.2088 166.142C73.1316 163.478 73.5948 160.993 74.8068 159.325C75.7146 157.988 77.0929 157.043 78.6668 156.677C79.0936 156.592 79.5308 156.571 79.9638 156.615C80.1149 156.633 80.2645 156.661 80.4115 156.7C79.8396 156.673 79.2664 156.717 78.7054 156.831C77.1883 157.232 75.8719 158.178 75.0075 159.487C73.8804 161.108 73.4095 163.517 73.5484 166.126C73.6874 168.736 74.3204 171.6 74.3204 174.703C74.2883 176.22 73.955 177.716 73.34 179.104C72.7725 180.419 71.8161 181.529 70.5994 182.284C69.4822 182.889 68.305 183.375 67.0868 183.736C66.0621 184.06 65.0954 184.544 64.2227 185.172C63.5058 185.679 62.9809 186.413 62.7327 187.256C62.5645 187.898 62.5941 188.576 62.8176 189.201C63.0211 189.739 63.3989 190.193 63.8907 190.491Z" fill="#455A64"/>
<path d="M121.767 149.659C121.877 149.593 121.993 149.539 122.115 149.497C122.262 149.432 122.414 149.38 122.57 149.343C122.78 149.281 122.994 149.237 123.211 149.212C123.932 149.133 124.66 149.22 125.342 149.464C126.025 149.709 126.642 150.106 127.148 150.624C127.655 151.303 128.021 152.076 128.226 152.898C128.432 153.719 128.472 154.574 128.345 155.411C128.193 156.449 127.835 157.447 127.292 158.345C126.748 159.242 126.03 160.022 125.18 160.637C123.222 162.062 120.883 162.869 118.463 162.953C115.84 163.057 113.216 162.776 110.674 162.12C106.636 161.128 102.805 159.432 99.3563 157.109C97.8822 156.096 96.3339 155.195 94.7243 154.415C93.3145 153.763 91.7967 153.375 90.2467 153.272C87.9889 153.116 85.7284 153.536 83.677 154.492C82.2333 155.172 81.5463 155.758 81.5154 155.712C82.1494 155.166 82.8529 154.707 83.6075 154.345C85.671 153.325 87.9638 152.857 90.2621 152.987C91.8623 153.069 93.4331 153.448 94.8941 154.106C96.5269 154.885 98.0985 155.785 99.5956 156.8C103.019 159.078 106.812 160.744 110.805 161.726C113.308 162.383 115.893 162.674 118.479 162.59C120.825 162.508 123.094 161.735 125.002 160.367C125.821 159.781 126.516 159.039 127.046 158.183C127.576 157.327 127.931 156.374 128.09 155.38C128.226 154.575 128.201 153.752 128.017 152.957C127.833 152.162 127.493 151.411 127.017 150.748C126.538 150.246 125.954 149.856 125.307 149.607C124.659 149.357 123.965 149.254 123.273 149.304C122.763 149.384 122.259 149.503 121.767 149.659Z" fill="#455A64"/>
<path d="M117.676 142.858C117.675 143.466 117.552 144.067 117.313 144.626C116.644 146.162 115.481 147.431 114.009 148.232C113.015 148.81 111.924 149.202 110.79 149.39C109.489 149.579 108.168 149.579 106.868 149.39C104.112 149.042 101.263 147.961 98.2677 147.027C95.2724 146.093 92.2539 145.537 89.5982 146.109C87.245 146.623 85.1137 147.865 83.5071 149.66C82.4127 150.857 81.5747 152.265 81.0444 153.798C80.6893 154.894 80.6198 155.535 80.5735 155.527C80.5546 155.373 80.5546 155.218 80.5735 155.064C80.6353 154.62 80.7308 154.181 80.8591 153.751C81.3387 152.166 82.158 150.704 83.2601 149.467C84.8824 147.592 87.0635 146.288 89.4824 145.746C92.2307 145.136 95.3341 145.699 98.3449 146.641C101.356 147.583 104.181 148.664 106.876 149.019C108.143 149.204 109.43 149.204 110.697 149.019C111.798 148.852 112.859 148.489 113.831 147.946C115.27 147.191 116.426 145.992 117.128 144.526C117.355 143.986 117.538 143.428 117.676 142.858Z" fill="#455A64"/>
<path d="M176.109 93.9984C176.039 94.0833 171.701 90.5552 166.412 86.1162C161.124 81.6772 156.901 77.9717 156.979 77.9176C157.056 77.8636 161.387 81.3607 166.675 85.8074C171.963 90.2542 176.186 93.9134 176.109 93.9984Z" fill="#263238"/>
<path d="M198.126 88.7106C198.018 88.7106 197.578 81.8553 197.153 73.3864C196.729 64.9176 196.466 58.0468 196.574 58.0391C196.682 58.0313 197.123 64.8944 197.555 73.371C197.987 81.8475 198.234 88.7106 198.126 88.7106Z" fill="#263238"/>
<path d="M184.106 83.8087C183.998 83.8087 182.647 79.9487 181.08 75.062C179.513 70.1752 178.332 66.2303 178.44 66.1994C178.548 66.1685 179.899 70.0594 181.466 74.9384C183.033 79.8175 184.207 83.7779 184.106 83.8087Z" fill="#263238"/>
<path d="M171.608 101.24C169.575 100.525 167.587 99.6871 165.656 98.7311C163.668 97.893 161.734 96.9312 159.866 95.8516C161.899 96.5667 163.886 97.4046 165.818 98.3606C167.805 99.2005 169.739 100.162 171.608 101.24Z" fill="#263238"/>
<path d="M151.312 92.3696C151.312 92.4777 150.656 92.4931 149.876 92.3696C149.096 92.2461 148.479 92.1071 148.494 91.9991C148.51 91.891 149.15 91.8755 149.922 91.9991C150.694 92.1226 151.312 92.2615 151.312 92.3696Z" fill="#263238"/>
<path d="M178.942 61.2123C178.826 61.2123 178.741 60.587 178.741 59.8073C178.741 59.0276 178.826 58.3945 178.942 58.3945C179.058 58.3945 179.143 59.0276 179.143 59.8073C179.143 60.587 179.05 61.2123 178.942 61.2123Z" fill="#263238"/>
<path d="M225.424 72.1122C225.509 72.1894 221.942 76.2733 217.472 81.2373C213.003 86.2012 209.312 90.1693 209.212 90.0921C209.112 90.0149 212.694 85.9387 217.164 80.9671C221.634 75.9954 225.347 72.0428 225.424 72.1122Z" fill="#263238"/>
<path d="M231.098 66.5006C231.175 66.5778 230.766 67.1181 230.18 67.7049C229.593 68.2916 229.06 68.693 228.983 68.6158C228.906 68.5386 229.315 67.9982 229.902 67.4192C230.488 66.8402 231.021 66.3925 231.098 66.5006Z" fill="#263238"/>
<path d="M244.855 86.2637C244.524 86.5021 244.173 86.7114 243.805 86.889C243.118 87.2673 242.115 87.8 240.864 88.433C238.355 89.6991 234.842 91.3511 230.89 92.9955C226.937 94.6399 223.286 95.9523 220.614 96.8555C219.287 97.2955 218.206 97.6275 217.449 97.8514C217.066 97.9904 216.671 98.0913 216.268 98.1525C216.633 97.9718 217.013 97.822 217.403 97.7047L220.491 96.5853C223.131 95.6357 226.752 94.2693 230.704 92.6481C234.657 91.0269 238.17 89.398 240.74 88.2014L243.736 86.7809C244.096 86.5811 244.47 86.4082 244.855 86.2637Z" fill="#263238"/>
<path d="M233.569 105.271C232.909 105.564 232.221 105.789 231.515 105.942C230.234 106.297 228.427 106.714 226.435 107.062C224.444 107.409 222.575 107.602 221.271 107.695C220.556 107.786 219.834 107.798 219.117 107.733C219.818 107.572 220.53 107.463 221.247 107.409C222.56 107.247 224.374 107 226.366 106.637C228.358 106.274 230.156 105.927 231.453 105.649C232.145 105.458 232.853 105.331 233.569 105.271Z" fill="#263238"/>
<path d="M243.829 103.371C242.358 103.638 240.852 103.638 239.382 103.371C240.852 103.103 242.358 103.103 243.829 103.371Z" fill="#263238"/>
<path d="M185.805 294.904C186.892 295.089 187.93 295.491 188.858 296.085C189.787 296.679 190.586 297.454 191.209 298.363C192.439 300.2 193.231 302.294 193.525 304.485C194.227 308.685 193.093 313.455 191.533 317.424C187.249 315.409 184.963 310.422 183.968 307.812C182.424 303.697 182.03 295.29 185.766 294.904" fill="#2A356A"/>
<path d="M197.887 323.36C197.241 322.307 196.887 321.103 196.858 319.869C196.83 318.635 197.129 317.416 197.725 316.335C198.336 315.264 199.154 314.326 200.133 313.575C201.111 312.825 202.229 312.278 203.422 311.965C203.955 311.761 204.526 311.677 205.096 311.717C205.665 311.757 206.219 311.92 206.718 312.197C207.134 312.53 207.454 312.968 207.644 313.466C207.834 313.964 207.887 314.504 207.799 315.03C207.608 316.08 207.145 317.063 206.456 317.879C204.217 320.766 201.53 323.144 197.887 323.36Z" fill="#2A356A"/>
<path d="M196.806 336.669C196.717 336.384 196.667 336.088 196.659 335.789C196.605 335.218 196.528 334.384 196.474 333.357C196.279 330.671 196.442 327.971 196.96 325.328C197.514 322.659 198.775 320.187 200.612 318.172C201.178 317.58 201.816 317.062 202.511 316.628C202.743 316.45 203.004 316.315 203.283 316.227C202.405 316.885 201.584 317.616 200.828 318.411C199.115 320.429 197.937 322.845 197.4 325.437C196.889 328.044 196.682 330.702 196.783 333.357C196.857 334.46 196.865 335.566 196.806 336.669Z" fill="#263238"/>
<path d="M186.824 301.305C187.04 301.748 187.221 302.207 187.364 302.679C187.681 303.574 188.136 304.871 188.646 306.485C189.704 309.712 191.085 314.205 192.506 319.184C193.926 324.164 195.069 328.718 195.856 332.023C196.25 333.675 196.551 335.01 196.744 335.944C196.873 336.42 196.96 336.905 197.007 337.396C196.818 336.942 196.671 336.471 196.567 335.991C196.296 334.987 195.949 333.675 195.532 332.131C194.66 328.85 193.448 324.318 192.043 319.339C190.638 314.359 189.31 309.858 188.337 306.608L187.202 302.748C187.036 302.278 186.91 301.796 186.824 301.305Z" fill="#263238"/>
<path d="M192.182 327.328C191.104 324.967 189.481 322.896 187.446 321.286C185.412 319.675 183.023 318.571 180.478 318.064C179.181 317.817 177.583 317.848 176.857 318.96C176.132 320.071 176.757 321.554 177.537 322.619C179.2 324.828 181.482 326.495 184.093 327.407C186.704 328.32 189.527 328.437 192.205 327.745" fill="#2A356A"/>
<path d="M181.899 321.762C182.187 321.751 182.476 321.782 182.756 321.855C183.087 321.9 183.415 321.97 183.736 322.063C184.17 322.165 184.598 322.291 185.017 322.441C186.114 322.826 187.17 323.32 188.167 323.916C190.63 325.373 192.714 327.391 194.251 329.806C194.868 330.781 195.385 331.816 195.795 332.894C195.961 333.307 196.103 333.73 196.219 334.16C196.326 334.48 196.409 334.808 196.466 335.141C196.547 335.416 196.584 335.703 196.574 335.99C196.489 335.99 196.25 334.809 195.486 333.025C195.032 331.984 194.487 330.984 193.857 330.038C193.077 328.887 192.185 327.816 191.193 326.842C190.189 325.883 189.092 325.024 187.92 324.279C186.953 323.677 185.935 323.16 184.878 322.735C183.087 322.055 181.883 321.855 181.899 321.762Z" fill="#263238"/>
</svg>
