<svg width="129" height="128" viewBox="0 0 129 128" fill="none" xmlns="http://www.w3.org/2000/svg">
<circle cx="64.3201" cy="64" r="64" fill="#999999"/>
<path d="M81.7537 68.1836C85.4724 68.1836 89.5232 68.7148 93.906 69.7773C98.2888 70.8398 102.34 72.5664 106.058 74.957C109.777 77.3477 111.636 80.0703 111.636 83.125V93.6836H86.1365V83.125C86.1365 77.2812 83.3474 72.3672 77.7693 68.3828C78.699 68.25 80.0271 68.1836 81.7537 68.1836ZM35.7341 69.7773C40.1169 68.7148 44.1677 68.1836 47.8865 68.1836C51.6052 68.1836 55.656 68.7148 60.0388 69.7773C64.4216 70.8398 68.406 72.5664 71.9919 74.957C75.7107 77.3477 77.5701 80.0703 77.5701 83.125V93.6836H18.0037V83.125C18.0037 80.0703 19.863 77.3477 23.5818 74.957C27.3005 72.5664 31.3513 70.8398 35.7341 69.7773ZM56.6521 56.0312C54.2615 58.5547 51.3396 59.8164 47.8865 59.8164C44.4333 59.8164 41.4451 58.5547 38.9216 56.0312C36.3982 53.5078 35.1365 50.5195 35.1365 47.0664C35.1365 43.6133 36.3982 40.625 38.9216 38.1016C41.4451 35.5781 44.4333 34.3164 47.8865 34.3164C51.3396 34.3164 54.2615 35.5781 56.6521 38.1016C59.1755 40.625 60.4373 43.6133 60.4373 47.0664C60.4373 50.5195 59.1755 53.5078 56.6521 56.0312ZM90.7185 56.0312C88.1951 58.5547 85.2068 59.8164 81.7537 59.8164C78.3005 59.8164 75.3123 58.5547 72.7888 56.0312C70.2654 53.5078 69.0037 50.5195 69.0037 47.0664C69.0037 43.6133 70.2654 40.625 72.7888 38.1016C75.3123 35.5781 78.3005 34.3164 81.7537 34.3164C85.2068 34.3164 88.1951 35.5781 90.7185 38.1016C93.2419 40.625 94.5037 43.6133 94.5037 47.0664C94.5037 50.5195 93.2419 53.5078 90.7185 56.0312Z" fill="white"/>
<ellipse cx="110.75" cy="110" rx="17.93" ry="18" fill="#5AD4AB"/>
<g clip-path="url(#clip0_482_336)">
<path d="M110.05 113.234C109.604 112.766 109.382 112.191 109.382 111.512C109.382 110.832 109.616 110.258 110.085 109.789C110.554 109.32 111.116 109.086 111.772 109.086C112.452 109.086 113.026 109.32 113.495 109.789C113.964 110.258 114.198 110.832 114.198 111.512C114.198 112.168 113.964 112.73 113.495 113.199C113.026 113.668 112.452 113.902 111.772 113.902C111.093 113.902 110.518 113.68 110.05 113.234ZM109.136 114.148C109.862 114.875 110.741 115.238 111.772 115.238C112.804 115.238 113.682 114.875 114.409 114.148C115.159 113.422 115.534 112.543 115.534 111.512C115.534 110.48 115.159 109.602 114.409 108.875C113.682 108.125 112.804 107.75 111.772 107.75C110.741 107.75 109.862 108.125 109.136 108.875C108.409 109.602 108.046 110.48 108.046 111.512C108.046 112.543 108.409 113.422 109.136 114.148ZM106.534 108.488V106.238H108.784V103.988H114.022L115.393 105.5H117.784C118.182 105.5 118.534 105.652 118.839 105.957C119.143 106.262 119.296 106.613 119.296 107.012V116.012C119.296 116.41 119.143 116.762 118.839 117.066C118.534 117.348 118.182 117.488 117.784 117.488H105.796C105.397 117.488 105.046 117.348 104.741 117.066C104.436 116.762 104.284 116.41 104.284 116.012V108.488H106.534ZM104.284 103.988V101.738H105.796V103.988H108.046V105.5H105.796V107.75H104.284V105.5H102.034V103.988H104.284Z" fill="white"/>
</g>
<defs>
<clipPath id="clip0_482_336">
<rect width="18" height="18" fill="white" transform="translate(102.034 101)"/>
</clipPath>
</defs>
</svg>
