<svg width="123" height="123" viewBox="0 0 123 123" fill="none" xmlns="http://www.w3.org/2000/svg">
<path d="M30.8066 95.7533C47.7585 103.832 75.2416 103.834 92.1934 95.7533C109.145 87.6722 109.143 74.5751 92.1934 66.4965C75.244 58.4178 47.7585 58.4178 30.8066 66.4965C13.8547 74.5751 13.8572 87.6746 30.8066 95.7533Z" fill="#F5F5F5"/>
<path d="M92.1344 89.7824C95.2565 89.7824 97.7875 88.5764 97.7875 87.0887C97.7875 85.601 95.2565 84.395 92.1344 84.395C89.0123 84.395 86.4813 85.601 86.4813 87.0887C86.4813 88.5764 89.0123 89.7824 92.1344 89.7824Z" fill="#EBEBEB"/>
<path d="M29.52 87.4751L31.52 86.3214C32.6366 85.4101 33.4866 84.2143 33.98 82.8602C34.5975 81.1578 34.5114 79.8639 34.0686 79.2144C33.5249 78.4149 32.1153 78.5552 32.0587 80.2378C31.9407 83.5539 30.9739 85.854 29.52 87.4751Z" fill="#003159"/>
<path opacity="0.2" d="M29.52 87.4751L31.52 86.3214C32.6366 85.4101 33.4866 84.2143 33.98 82.8602C34.5975 81.1578 34.5114 79.8639 34.0686 79.2144C33.5249 78.4149 32.1153 78.5552 32.0587 80.2378C31.9407 83.5539 30.9739 85.854 29.52 87.4751Z" fill="black"/>
<path d="M29.5201 87.5981C29.494 87.5978 29.4687 87.5893 29.4479 87.5736C29.427 87.558 29.4117 87.5362 29.404 87.5113C29.3963 87.4864 29.3968 87.4598 29.4053 87.4351C29.4137 87.4105 29.4298 87.3892 29.4512 87.3743C34.076 84.1763 33.1805 79.7163 33.1707 79.672C33.1673 79.6559 33.1671 79.6392 33.1702 79.623C33.1732 79.6068 33.1794 79.5913 33.1885 79.5775C33.1975 79.5637 33.2091 79.5517 33.2228 79.5424C33.2364 79.5331 33.2517 79.5266 33.2679 79.5232C33.284 79.5198 33.3007 79.5196 33.3169 79.5227C33.3331 79.5257 33.3486 79.5319 33.3624 79.5409C33.3762 79.55 33.3881 79.5616 33.3974 79.5753C33.4068 79.5889 33.4133 79.6042 33.4167 79.6204C33.4167 79.6671 34.3613 84.2796 29.5988 87.576C29.5757 87.5918 29.548 87.5996 29.5201 87.5981Z" fill="white"/>
<path d="M25.5127 89.7899C25.5127 89.7899 24.8165 89.2241 24.9838 88.4566C25.151 87.6891 25.6012 87.1381 24.8312 86.1491C24.0613 85.1602 23.8472 83.8417 24.7673 83.1283C25.4684 82.5747 26.5631 83.357 26.9567 81.8982C27.247 80.8306 27.1486 78.4665 28.5089 77.6793C29.8693 76.8921 30.7229 78.0779 30.5089 79.6818C30.322 81.116 30.0563 82.496 30.2629 82.8798C30.6614 83.6178 31.3429 83.5169 31.3109 84.865C31.2838 86.1196 30.0956 87.1577 30.0956 87.1577L25.5127 89.7899Z" fill="#003159"/>
<path d="M27.798 88.5872C27.7679 88.5869 27.739 88.5758 27.7164 88.556C27.6938 88.5361 27.6791 88.5088 27.675 88.479C27.3232 85.5639 28.167 80.5307 28.8558 79.035C28.8616 79.0185 28.8709 79.0033 28.883 78.9906C28.8952 78.9779 28.9099 78.968 28.9262 78.9614C28.9425 78.9549 28.9601 78.952 28.9776 78.9528C28.9952 78.9536 29.0123 78.9582 29.028 78.9662C29.0427 78.9728 29.0559 78.9823 29.0668 78.9941C29.0778 79.0059 29.0863 79.0198 29.0918 79.0349C29.0973 79.05 29.0997 79.0661 29.0989 79.0822C29.0981 79.0983 29.094 79.114 29.087 79.1285C28.4056 80.6045 27.5913 85.6525 27.9284 88.4396C27.9318 88.4719 27.9224 88.5042 27.9021 88.5296C27.8818 88.5549 27.8524 88.5712 27.8201 88.5749L27.798 88.5872Z" fill="white"/>
<path d="M27.7316 86.3164C27.7128 86.3173 27.6941 86.313 27.6775 86.3041C26.8239 85.8883 26.2827 84.4049 26.2605 84.3361C26.2545 84.3208 26.2516 84.3044 26.252 84.288C26.2524 84.2715 26.2561 84.2553 26.2629 84.2403C26.2696 84.2254 26.2793 84.2119 26.2914 84.2007C26.3035 84.1895 26.3177 84.1809 26.3331 84.1753C26.3486 84.1697 26.365 84.1673 26.3814 84.1681C26.3979 84.169 26.4139 84.1732 26.4287 84.1803C26.4435 84.1875 26.4567 84.1976 26.4675 84.21C26.4784 84.2224 26.4866 84.2368 26.4918 84.2524C26.4918 84.2672 27.0207 85.7038 27.7857 86.0753C27.8108 86.0874 27.831 86.1078 27.8431 86.1329C27.8551 86.1581 27.8582 86.1866 27.8519 86.2137C27.8456 86.2409 27.8303 86.2651 27.8084 86.2824C27.7866 86.2997 27.7595 86.3091 27.7316 86.309V86.3164Z" fill="white"/>
<path d="M27.7169 87.3007C27.6922 87.3007 27.6682 87.2932 27.6479 87.2791C27.6277 87.265 27.6123 87.2451 27.6037 87.222C27.5915 87.192 27.5916 87.1583 27.604 87.1284C27.6165 87.0984 27.6402 87.0746 27.6701 87.0621C29.1068 86.4865 30.0022 84.7768 30.012 84.7571C30.0271 84.728 30.053 84.7062 30.0841 84.6962C30.1153 84.6863 30.1491 84.6892 30.1781 84.7042C30.2071 84.7192 30.229 84.7451 30.2389 84.7763C30.2488 84.8074 30.246 84.8412 30.231 84.8702C30.1916 84.944 29.2839 86.6808 27.771 87.2909C27.7541 87.2989 27.7355 87.3023 27.7169 87.3007Z" fill="white"/>
<path d="M77.9328 74.0655C77.9328 74.0655 76.8578 72.3238 76.752 70.4321C76.6462 68.5403 77.0619 67.7531 77.6326 67.5268C78.2034 67.3005 78.2477 67.9967 78.5404 68.4075C78.8331 68.8183 79.4309 68.5846 79.6523 67.3029C79.8737 66.0213 80.6806 63.8589 82.3583 63.4383C84.2033 62.9807 83.2144 65.1455 82.7495 65.9893C82.2845 66.8331 81.9254 67.9844 82.2304 68.2968C82.5354 68.6092 83.0102 68.0311 83.4604 68.5674C84.009 69.2144 82.3042 71.544 81.3251 72.1073L77.9328 74.0655Z" fill="#003159"/>
<path d="M79.4064 73.3353C79.3902 73.3346 79.3744 73.3308 79.3597 73.324C79.345 73.3173 79.3318 73.3077 79.3208 73.2958C79.3099 73.2839 79.3013 73.27 79.2958 73.2548C79.2902 73.2396 79.2877 73.2235 79.2883 73.2073C79.4549 70.1642 80.4039 67.2156 82.0435 64.6465C82.0528 64.6332 82.0647 64.6218 82.0785 64.6131C82.0923 64.6045 82.1077 64.5987 82.1238 64.5962C82.1399 64.5937 82.1563 64.5944 82.1721 64.5984C82.1879 64.6024 82.2027 64.6096 82.2157 64.6195C82.2415 64.6386 82.2587 64.6671 82.2638 64.6988C82.2688 64.7306 82.2613 64.763 82.2427 64.7892C80.6324 67.3207 79.7006 70.2239 79.5368 73.2196C79.5358 73.2358 79.5317 73.2516 79.5246 73.2662C79.5176 73.2808 79.5077 73.2938 79.4956 73.3045C79.4835 73.3153 79.4694 73.3235 79.4541 73.3288C79.4387 73.3341 79.4226 73.3363 79.4064 73.3353Z" fill="white"/>
<path d="M79.5466 71.8814C79.526 71.8812 79.5058 71.8762 79.4876 71.8667C78.7987 71.4854 78.4174 70.3538 78.4027 70.307C78.3972 70.2917 78.3949 70.2754 78.3958 70.2592C78.3967 70.2429 78.4008 70.227 78.4079 70.2124C78.415 70.1978 78.425 70.1847 78.4371 70.1739C78.4493 70.1631 78.4635 70.1548 78.4789 70.1496C78.5099 70.1395 78.5437 70.1421 78.5727 70.1569C78.6018 70.1717 78.6238 70.1973 78.6339 70.2283C78.6339 70.2283 79.0029 71.3181 79.6179 71.6502C79.6458 71.6667 79.6662 71.6933 79.6749 71.7244C79.6836 71.7556 79.68 71.7889 79.6647 71.8175C79.6536 71.8386 79.6364 71.856 79.6154 71.8674C79.5943 71.8788 79.5704 71.8837 79.5466 71.8814Z" fill="white"/>
<path d="M79.6671 71.1357C79.6399 71.1354 79.6135 71.1261 79.5921 71.1092C79.5707 71.0922 79.5556 71.0687 79.5491 71.0422C79.545 71.0267 79.5441 71.0106 79.5464 70.9947C79.5487 70.9788 79.5541 70.9636 79.5623 70.9498C79.5706 70.9361 79.5815 70.9241 79.5944 70.9147C79.6074 70.9052 79.622 70.8984 79.6376 70.8946C81.4138 70.4444 82.0288 69.5146 82.0337 69.5047C82.0424 69.491 82.0537 69.4791 82.0671 69.4698C82.0804 69.4604 82.0954 69.4538 82.1113 69.4502C82.1271 69.4467 82.1436 69.4463 82.1596 69.4491C82.1756 69.4519 82.1909 69.4579 82.2047 69.4666C82.2184 69.4753 82.2303 69.4866 82.2396 69.5C82.249 69.5133 82.2556 69.5283 82.2591 69.5442C82.2627 69.56 82.263 69.5765 82.2602 69.5925C82.2574 69.6085 82.2515 69.6238 82.2428 69.6375C82.2157 69.6794 81.5761 70.656 79.6991 71.1333L79.6671 71.1357Z" fill="white"/>
<path d="M51.168 70.2429C51.168 70.2429 48.8089 69.6672 48.6859 65.2491C48.5555 60.4816 49.264 54.9171 46.4718 54.4669C43.6797 54.0167 42.1299 57.4189 42.1644 61.3918C42.1964 64.8702 43.5986 72.4224 51.1582 73.9034L51.168 70.2429Z" fill="#003159"/>
<path opacity="0.2" d="M51.168 70.2429C51.168 70.2429 48.8089 69.6672 48.6859 65.2491C48.5555 60.4816 49.264 54.9171 46.4718 54.4669C43.6797 54.0167 42.1299 57.4189 42.1644 61.3918C42.1964 64.8702 43.5986 72.4224 51.1582 73.9034L51.168 70.2429Z" fill="black"/>
<path d="M51.1681 73.4507H51.1459C49.4461 73.1408 48.0611 72.2035 47.0303 70.6685C43.975 66.1101 44.9369 57.5985 45.2542 56.1127C45.2613 56.081 45.2804 56.0533 45.3074 56.0354C45.3345 56.0176 45.3674 56.0108 45.3993 56.0167C45.4312 56.0244 45.4589 56.0439 45.4767 56.0714C45.4946 56.0989 45.5012 56.1321 45.4953 56.1643C45.1829 57.6403 44.2259 66.0437 47.2345 70.5307C47.6724 71.2266 48.2502 71.8238 48.9312 72.2845C49.6121 72.7453 50.3814 73.0595 51.1902 73.2072C51.2062 73.2101 51.2216 73.2163 51.2352 73.2252C51.2489 73.2341 51.2606 73.2457 51.2698 73.2592C51.279 73.2727 51.2853 73.2879 51.2886 73.3039C51.2918 73.3199 51.2918 73.3363 51.2886 73.3523C51.2834 73.3803 51.2684 73.4056 51.2463 73.4236C51.2243 73.4416 51.1965 73.4512 51.1681 73.4507Z" fill="white"/>
<path d="M51.168 84.7891C48.7302 85.1187 44.772 85.1138 42.4867 83.3131C40.2013 81.5123 40.6786 79.9625 41.5568 79.3156C42.435 78.6686 43.1976 77.9306 41.6872 76.4939C40.1767 75.0573 37.7512 72.7498 36.964 69.2886C36.1768 65.8274 36.5655 63.6626 38.1103 62.9418C39.6085 62.2432 40.0045 63.3551 40.9221 65.6478C41.8397 67.9405 43.9036 65.975 45.6699 66.6909C47.4362 67.4067 47.3649 68.8237 47.4756 70.0414C47.5863 71.2591 48.1693 71.5961 49.1705 71.5961C50.1717 71.5961 51.168 72.1717 51.168 73.3181V84.7891Z" fill="#003159"/>
<path d="M51.168 80.7691C51.1575 80.7714 51.1465 80.7714 51.136 80.7691C51.0302 80.7396 48.5087 80.0065 44.836 76.6338C40.9246 73.0422 39.0796 67.6548 39.0599 67.6007C39.0504 67.5697 39.0534 67.5363 39.068 67.5074C39.0827 67.4785 39.108 67.4564 39.1386 67.4457C39.1693 67.4355 39.2027 67.4378 39.2317 67.4521C39.2607 67.4664 39.2829 67.4915 39.2936 67.522C39.3108 67.5761 41.1386 72.9045 45.0032 76.4518C48.6244 79.7802 51.1754 80.5256 51.2024 80.5329C51.2179 80.5375 51.2324 80.545 51.245 80.5551C51.2576 80.5652 51.2681 80.5777 51.2758 80.5919C51.2836 80.6061 51.2885 80.6216 51.2903 80.6377C51.292 80.6537 51.2906 80.67 51.2861 80.6855C51.2781 80.7103 51.2623 80.7319 51.241 80.747C51.2197 80.7621 51.1941 80.7698 51.168 80.7691Z" fill="white"/>
<path d="M45.8618 77.49C45.8371 77.4904 45.8129 77.483 45.7926 77.4689C45.7723 77.4547 45.7569 77.4346 45.7487 77.4113C44.959 75.3842 44.7794 71.0473 44.7647 70.8628C44.764 70.8303 44.7759 70.7989 44.7979 70.775C44.8199 70.7512 44.8503 70.7368 44.8828 70.7349C44.9149 70.7353 44.9457 70.7476 44.9693 70.7694C44.9929 70.7912 45.0076 70.821 45.0107 70.8529C45.0107 70.8972 45.1952 75.3326 45.9701 77.3227C45.976 77.3379 45.9789 77.3541 45.9785 77.3704C45.9781 77.3867 45.9745 77.4027 45.9678 77.4176C45.9612 77.4325 45.9517 77.4459 45.9398 77.457C45.9279 77.4682 45.914 77.4769 45.8987 77.4826C45.8869 77.4869 45.8744 77.4894 45.8618 77.49Z" fill="white"/>
<path d="M45.842 80.4049C45.6152 80.4067 45.3885 80.3952 45.1631 80.3704C45.1469 80.3685 45.1313 80.3634 45.1171 80.3554C45.103 80.3475 45.0905 80.3368 45.0804 80.324C45.0704 80.3112 45.0629 80.2965 45.0586 80.2809C45.0542 80.2652 45.0529 80.2488 45.0548 80.2327C45.0568 80.2165 45.0619 80.2009 45.0698 80.1867C45.0778 80.1726 45.0885 80.1601 45.1013 80.15C45.1141 80.14 45.1287 80.1326 45.1444 80.1282C45.1601 80.1238 45.1764 80.1225 45.1926 80.1244C45.2147 80.1244 47.505 80.3852 48.5554 79.3151C48.5664 79.3022 48.5799 79.2916 48.5951 79.2841C48.6103 79.2766 48.6269 79.2724 48.6438 79.2716C48.6607 79.2708 48.6776 79.2736 48.6934 79.2797C48.7093 79.2857 48.7237 79.295 48.7357 79.3069C48.7478 79.3188 48.7573 79.3331 48.7636 79.3488C48.7699 79.3645 48.7729 79.3814 48.7723 79.3983C48.7718 79.4153 48.7678 79.4319 48.7605 79.4472C48.7532 79.4625 48.7429 79.4762 48.7301 79.4873C47.9699 80.272 46.644 80.4049 45.842 80.4049Z" fill="white"/>
<path d="M44.0709 33.8224L43.8052 32.2898L42.4374 33.1902C42.3124 32.9442 42.1353 32.7284 41.9184 32.5579L42.5727 30.7867L41.3427 30.5137L40.4424 32.2357C40.1166 32.2906 39.8008 32.3934 39.5051 32.5407L39.114 31.2418L37.6527 32.3907L37.7487 33.9159C37.4511 34.2492 37.1812 34.6062 36.9418 34.9835L35.7364 34.922L34.8901 36.8187L35.9258 37.2615C35.8177 37.6538 35.7493 38.0559 35.7216 38.4619L34.4055 39.6723L34.6687 41.2073L36.039 40.3069C36.1632 40.5527 36.3405 40.7678 36.558 40.9367L35.916 42.7104L37.146 42.981L38.435 41.7264C38.7327 41.6796 38.6589 41.1187 38.9836 40.9588L39.3747 42.2528L40.8335 41.1064L40.7966 40.5062C41.0918 40.1766 42.2086 39.4509 42.4497 39.072L42.7523 38.58L43.5985 36.6834L43.2049 35.97L42.7671 35.0401L44.0709 33.8224ZM39.606 38.8678C38.4842 39.7485 38.13 39.9429 37.9405 38.7645C37.7511 37.5862 38.3932 35.7953 39.5149 34.9122C40.6367 34.029 41.0647 33.9675 41.2665 35.1434C41.4682 36.3193 40.7302 37.997 39.606 38.8678Z" fill="#E0E0E0"/>
<path d="M41.3525 30.5137L42.949 31.4337L42.0487 33.1508L40.4521 32.2308L41.3525 30.5137Z" fill="#F5F5F5"/>
<path d="M45.4017 33.2101L44.0339 34.1104L42.4374 33.1904L43.8051 32.29L45.4017 33.2101Z" fill="#F5F5F5"/>
<path d="M45.1827 37.5962L44.1471 37.1559L42.5505 36.2358L43.5862 36.6762L45.1827 37.5962Z" fill="#E0E0E0"/>
<path d="M35.9135 42.7107L37.51 43.6283L38.1644 41.857L36.5678 40.937L35.9135 42.7107Z" fill="#E0E0E0"/>
<path d="M40.9565 43.173L39.3625 42.2529L38.9713 40.959L40.5679 41.879L40.9565 43.173Z" fill="#E0E0E0"/>
<path d="M45.665 34.7428L45.4018 33.2102L44.034 34.1106C43.9081 33.8645 43.7302 33.6487 43.5125 33.4783L44.1669 31.7071L42.9492 31.4341L42.0463 33.1561C41.7206 33.211 41.4048 33.3138 41.1091 33.4611L40.7204 32.1672L39.2592 33.316L39.3551 34.8412C39.0572 35.1769 38.7873 35.5364 38.5482 35.9162L37.3404 35.8547L36.4941 37.7514L37.5298 38.1942C37.4226 38.5875 37.3543 38.9904 37.3256 39.3971L36.012 40.5902L36.2752 42.1252L37.6429 41.2249C37.7689 41.4703 37.9468 41.6852 38.1645 41.8546L37.5101 43.6258L38.7401 43.8989L39.6405 42.1769C39.9675 42.1226 40.2843 42.0189 40.5802 41.8694L40.9689 43.1634L42.4301 42.017L42.3342 40.4918C42.6317 40.1585 42.9016 39.8014 43.141 39.4242L44.3489 39.4832L45.1951 37.5865L44.1447 37.1462C44.2536 36.7531 44.3229 36.3501 44.3514 35.9433L45.665 34.7428ZM41.205 39.7981C40.0857 40.6788 39.0132 40.4401 38.809 39.2643C38.6048 38.0884 39.3502 36.418 40.4719 35.5374C41.5937 34.6567 42.6638 34.8978 42.868 36.0736C43.0722 37.2495 42.3268 38.9174 41.205 39.7981Z" fill="#EBEBEB"/>
<path d="M40.7204 32.1622L39.1238 31.2422L37.6626 32.391L39.2591 33.3111L40.7204 32.1622Z" fill="#F5F5F5"/>
<path d="M37.6626 32.3906L37.7585 33.9158L39.3551 34.8359L39.2591 33.3107L37.6626 32.3906Z" fill="#E0E0E0"/>
<path d="M38.5482 35.9039L36.9516 34.9838L35.7462 34.9248L37.3403 35.8448L38.5482 35.9039Z" fill="#F5F5F5"/>
<path d="M35.7463 34.9248L34.9 36.819L36.4941 37.739L37.3403 35.8448L35.7463 34.9248Z" fill="#E0E0E0"/>
<path d="M37.3256 39.382L35.7315 38.4619L34.4154 39.6722L36.0095 40.5923L37.3256 39.382Z" fill="#F5F5F5"/>
<path d="M36.2752 42.1274L34.6786 41.2074L34.4154 39.6724L36.0095 40.5924L36.2752 42.1274Z" fill="#E0E0E0"/>
<path d="M42.9491 31.4337L41.3525 30.5137L42.5727 30.7867L44.1668 31.7068L42.9491 31.4337Z" fill="#F5F5F5"/>
<path d="M36.9221 26.8657V24.5754L35.0992 25.397C35.0027 25.0085 34.836 24.6408 34.6072 24.3122L35.7561 21.9973L34.3539 21.188L32.9221 23.3405C32.5232 23.3056 32.1212 23.3448 31.7364 23.4561L31.5347 21.466L29.5519 22.6123L29.3527 24.8263C28.9212 25.2087 28.5244 25.6285 28.167 26.0809L26.7352 25.5889L25.3331 28.0194L26.4794 29.0034C26.2676 29.5391 26.103 30.0922 25.9874 30.6565L24.1646 31.9382V34.2309L25.9874 33.4093C26.084 33.7978 26.2507 34.1655 26.4794 34.4941L25.338 36.8114L26.7402 37.6208L28.1719 35.4683C28.5709 35.503 28.9728 35.4638 29.3576 35.3527L29.5569 37.3428L31.5396 36.1964L31.7413 33.9824C32.3602 33.7567 32.9084 33.3714 33.3305 32.8656L34.3588 33.2272L35.761 30.7992L34.9 30.0612C35.0869 29.4458 35.1562 28.8007 35.1042 28.1596L36.9221 26.8657ZM30.5433 32.5876C29.0231 33.4658 28.0833 32.8336 28.0833 31.0846C28.0833 29.3355 29.3404 27.1732 30.8631 26.2949C32.3859 25.4167 33.3059 26.0489 33.3059 27.8128C33.3059 29.5766 32.0661 31.7069 30.5433 32.5876Z" fill="#E0E0E0"/>
<path d="M35.9479 22.1056L34.3538 21.188L32.9221 23.3405L34.5162 24.2605L35.9479 22.1056Z" fill="#F5F5F5"/>
<path d="M38.5186 25.4952L36.9221 24.5752L35.0992 25.3968L36.6958 26.3169L38.5186 25.4952Z" fill="#F5F5F5"/>
<path d="M31.146 38.2627L29.5519 37.3427L29.3527 35.3525L30.9467 36.2726L31.146 38.2627Z" fill="#E0E0E0"/>
<path d="M25.3306 36.8114L26.9271 37.7315L28.0759 35.4166L26.4794 34.4966L25.3306 36.8114Z" fill="#E0E0E0"/>
<path d="M38.5187 27.7979V25.5076L36.6958 26.3219C36.6003 25.933 36.4334 25.5651 36.2038 25.237L37.3526 22.9222L35.9504 22.1104L34.5187 24.2653C34.1197 24.2292 33.7175 24.2685 33.333 24.3809L33.1313 22.3859L31.1485 23.5322L30.9468 25.7462C30.5159 26.1292 30.1192 26.549 29.7611 27.0008L28.3293 26.5088L26.9271 28.9393L28.076 29.9233C27.863 30.4586 27.6984 31.0118 27.584 31.5764L25.7611 32.8581V35.1508L27.584 34.3292C27.6795 34.7181 27.8463 35.086 28.076 35.414L26.9271 37.7289L28.3293 38.5382L29.7611 36.3857C30.1601 36.4206 30.5621 36.3814 30.9468 36.2701L31.1485 38.2603L33.1313 37.1139L33.3305 34.8999C33.762 34.5175 34.1588 34.0977 34.5162 33.6453L35.948 34.1373L37.3502 31.7093L36.2013 30.7253C36.4142 30.19 36.5789 29.6367 36.6933 29.0722L38.5187 27.7979ZM32.1399 33.5198C30.6171 34.3981 29.3822 33.6847 29.3822 31.9282C29.3822 30.1718 30.6122 28.034 32.1399 27.1534C33.6675 26.2727 34.8951 26.9885 34.8951 28.745C34.8951 30.5014 33.6602 32.6269 32.1399 33.5075V33.5198Z" fill="#EBEBEB"/>
<path d="M28.1669 26.0858L29.761 27.0059L28.3293 26.5065L26.7352 25.584L28.1669 26.0858Z" fill="#F0F0F0"/>
<path d="M26.7351 25.5868L25.3325 28.0181L26.9285 28.9388L28.3311 26.5075L26.7351 25.5868Z" fill="#F5F5F5"/>
<path d="M25.3306 28.0146L26.9271 28.9347L28.0759 29.9236L26.4794 29.006L25.3306 28.0146Z" fill="#E0E0E0"/>
<path d="M25.9874 30.6592L27.5839 31.5792L25.7611 32.8609L24.1646 31.9408L25.9874 30.6592Z" fill="#F5F5F5"/>
<path d="M24.1646 31.9404L25.7611 32.8605V35.1532L24.1646 34.2331V31.9404Z" fill="#E0E0E0"/>
<path d="M33.1313 22.3859L31.5348 21.4658L29.552 22.6122L31.1461 23.5322L33.1313 22.3859Z" fill="#F5F5F5"/>
<path d="M53.5984 88.08L76.7224 74.7271C76.7734 74.7092 76.8175 74.6759 76.8487 74.6319C76.8799 74.5878 76.8967 74.5351 76.8967 74.4811C76.8967 74.4271 76.8799 74.3745 76.8487 74.3304C76.8175 74.2863 76.7734 74.253 76.7224 74.2351L74.5847 73.0051C74.4523 72.9385 74.3061 72.9038 74.1579 72.9038C74.0097 72.9038 73.8635 72.9385 73.7311 73.0051L50.5997 86.3457C50.5487 86.3636 50.5046 86.3969 50.4734 86.441C50.4422 86.4851 50.4254 86.5377 50.4254 86.5917C50.4254 86.6457 50.4422 86.6984 50.4734 86.7425C50.5046 86.7865 50.5487 86.8198 50.5997 86.8377L52.7448 88.0677C52.8763 88.1363 53.0219 88.1731 53.1702 88.1752C53.3184 88.1774 53.4651 88.1447 53.5984 88.08Z" fill="#E0E0E0"/>
<path d="M76.0878 23.1732L55.2368 35.2124C54.9269 35.4147 54.6689 35.6871 54.4838 36.0077C54.2988 36.3282 54.1918 36.6878 54.1716 37.0574V86.5206C54.1716 87.1996 54.6489 87.4751 55.2368 87.1356L76.0878 75.0964C76.3981 74.8946 76.6564 74.6222 76.8415 74.3016C77.0266 73.9809 77.1333 73.6211 77.153 73.2514V23.7882C77.153 23.1092 76.6782 22.8337 76.0878 23.1732Z" fill="#455A64"/>
<path d="M55.2369 35.2123L76.0878 23.173C76.6142 22.868 77.0497 23.0574 77.1382 23.5863C77.089 23.2538 76.97 22.9354 76.789 22.6522C76.6079 22.369 76.369 22.1273 76.0878 21.943L75.2219 21.451C74.8918 21.2836 74.5269 21.1963 74.1567 21.1963C73.7866 21.1963 73.4216 21.2836 73.0915 21.451L52.2381 33.4804C51.924 33.6774 51.665 33.9508 51.4854 34.275L54.4841 35.997C54.6637 35.6753 54.9229 35.4051 55.2369 35.2123Z" fill="#37474F"/>
<path d="M51.168 84.7885C51.1882 85.1581 51.2951 85.5177 51.4802 85.8382C51.6652 86.1588 51.9232 86.4312 52.2331 86.6335L53.1015 87.1255C53.4021 87.2758 53.731 87.361 54.0668 87.3754C54.4025 87.3898 54.7375 87.3332 55.0499 87.2091C54.5579 87.401 54.1667 87.1181 54.1667 86.5105V37.0571C54.179 36.6859 54.2866 36.3242 54.4791 36.0067L51.4804 34.2847C51.2906 34.5998 51.1831 34.9577 51.168 35.3253V84.7885Z" fill="#263238"/>
<path d="M55.81 41.8024L75.5219 30.4249C75.8762 30.2232 76.1615 30.388 76.1615 30.7939V67.4037C76.1497 67.6255 76.0856 67.8415 75.9745 68.0339C75.8633 68.2262 75.7082 68.3896 75.5219 68.5107L55.8173 79.8882C55.4631 80.0924 55.1777 79.9275 55.1777 79.5192V42.9094C55.1889 42.6883 55.252 42.4728 55.3618 42.2805C55.4716 42.0882 55.6251 41.9245 55.81 41.8024Z" fill="white"/>
<path d="M65.6623 31.0671C65.5534 31.1385 65.4629 31.2345 65.398 31.3473C65.333 31.4601 65.2955 31.5866 65.2883 31.7165C65.2883 31.9625 65.4556 32.0535 65.6623 31.933C65.7715 31.862 65.8623 31.7661 65.9273 31.6532C65.9923 31.5404 66.0296 31.4137 66.0362 31.2836C66.0362 31.0449 65.8689 30.949 65.6623 31.0671Z" fill="#37474F"/>
<path d="M65.6623 75.9497C65.2322 76.2311 64.8745 76.6097 64.6181 77.0551C64.3616 77.5004 64.2137 77.9999 64.1863 78.5131C64.1863 79.4552 64.848 79.839 65.6623 79.3667C66.0922 79.0852 66.4498 78.7065 66.7062 78.2612C66.9626 77.8159 67.1106 77.3165 67.1383 76.8034C67.1432 75.8612 66.479 75.4774 65.6623 75.9497Z" fill="#37474F"/>
<path d="M62.1223 34.8755C61.9061 35.019 61.7266 35.2113 61.5984 35.4369C61.4703 35.6625 61.3969 35.9151 61.3843 36.1743C61.3843 36.6516 61.7188 36.8459 62.1223 36.6073C62.3408 36.4651 62.5226 36.2734 62.653 36.0477C62.7833 35.822 62.8586 35.5687 62.8726 35.3084C62.8726 34.8312 62.538 34.6368 62.1223 34.8755Z" fill="#37474F"/>
<path d="M63.96 34.7131C63.96 35.0329 64.206 35.1534 64.4938 34.9837L69.4138 32.1374C69.5662 32.0423 69.694 31.9124 69.7867 31.7586C69.8795 31.6047 69.9346 31.4311 69.9476 31.2518C69.9476 30.9345 69.7016 30.814 69.4138 30.9837L64.4938 33.8299C64.3417 33.9249 64.2141 34.0543 64.1214 34.2077C64.0286 34.3612 63.9733 34.5343 63.96 34.7131Z" fill="#37474F"/>
<path d="M52.8309 43.3869C53.0055 43.5006 53.1508 43.6539 53.2551 43.8343C53.3594 44.0146 53.4197 44.217 53.4312 44.425C53.4312 44.8088 53.163 44.9638 52.8309 44.7719C52.657 44.6578 52.5122 44.5044 52.4084 44.3241C52.3046 44.1437 52.2445 43.9416 52.2332 43.7338C52.2332 43.3525 52.5013 43.1975 52.8309 43.3869Z" fill="#37474F"/>
<path d="M52.8309 48.0066C53.0055 48.1203 53.1508 48.2736 53.2551 48.4539C53.3594 48.6343 53.4197 48.8367 53.4312 49.0447C53.4312 49.426 53.163 49.581 52.8309 49.3916C52.657 49.2775 52.5122 49.1241 52.4084 48.9437C52.3046 48.7634 52.2445 48.5612 52.2332 48.3535C52.2332 47.9697 52.5013 47.8147 52.8309 48.0066Z" fill="#37474F"/>
<path d="M52.6439 43.4804C52.8185 43.5941 52.9638 43.7474 53.0681 43.9278C53.1724 44.1081 53.2327 44.3105 53.2442 44.5186C53.2442 44.8998 52.976 45.0548 52.6439 44.8654C52.4694 44.7517 52.324 44.5984 52.2198 44.4181C52.1155 44.2377 52.0552 44.0353 52.0437 43.8273C52.0462 43.4435 52.3143 43.2959 52.6439 43.4804Z" fill="#455A64"/>
<path d="M52.6439 48.0979C52.8188 48.2118 52.9644 48.3655 53.0687 48.5463C53.173 48.7271 53.2331 48.93 53.2442 49.1385C53.2442 49.5198 52.976 49.6747 52.6439 49.4829C52.469 49.3696 52.3233 49.2164 52.219 49.036C52.1146 48.8555 52.0546 48.6529 52.0437 48.4447C52.0462 48.0634 52.3143 47.9085 52.6439 48.0979Z" fill="#455A64"/>
<path d="M80.1516 31.9527C80.1516 31.5443 79.8663 31.3795 79.512 31.5837L77.1529 32.9441L59.8074 42.9612C59.6211 43.0822 59.4661 43.2456 59.3549 43.438C59.2438 43.6304 59.1797 43.8463 59.1678 44.0682V80.6681C59.1678 81.0764 59.4532 81.2412 59.8074 81.0371L77.1603 71.0175L79.512 69.6596C79.6984 69.5385 79.8534 69.3751 79.9646 69.1827C80.0757 68.9904 80.1398 68.7744 80.1516 68.5526V31.9527Z" fill="white"/>
<path d="M80.3977 31.9526C80.4132 31.8293 80.3919 31.7041 80.3366 31.5927C80.2813 31.4814 80.1944 31.3888 80.0868 31.3266C79.9791 31.2643 79.8555 31.2352 79.7314 31.2429C79.6073 31.2506 79.4882 31.2946 79.3891 31.3696L77.1382 32.671L59.6845 42.757C59.4598 42.8988 59.2729 43.0932 59.1401 43.3233C59.0072 43.5535 58.9323 43.8125 58.9219 44.078V80.668C58.912 80.7909 58.9356 80.914 58.9902 81.0245C59.0448 81.135 59.1283 81.2286 59.2318 81.2953C59.3199 81.3465 59.4202 81.3729 59.5221 81.3716C59.6663 81.3671 59.8069 81.3256 59.9305 81.2511L77.3965 71.1651L79.6424 69.8686C79.8659 69.7254 80.0517 69.5307 80.1844 69.3009C80.3171 69.071 80.3928 68.8127 80.405 68.5476L80.3977 31.9526ZM77.1431 70.7444L76.9414 70.8625L59.6943 80.8206C59.6653 80.8428 59.6317 80.8584 59.596 80.866C59.5602 80.8737 59.5232 80.8733 59.4877 80.8648C59.4557 80.8452 59.4237 80.7763 59.4237 80.6631V44.0681C59.4364 43.8895 59.4896 43.7161 59.579 43.561C59.6685 43.4059 59.7921 43.2731 59.9403 43.1727L77.1702 33.2097L79.6301 31.7854C79.6591 31.7631 79.6927 31.7476 79.7285 31.7399C79.7642 31.7322 79.8012 31.7326 79.8368 31.7411C79.8688 31.7608 79.9007 31.8296 79.9007 31.9428V68.5525C79.888 68.7312 79.8349 68.9045 79.7454 69.0597C79.6559 69.2148 79.5324 69.3475 79.3841 69.448L77.1382 70.7444H77.1431Z" fill="#003159"/>
<path d="M69.6597 40.4572C71.8737 39.183 73.6572 40.2112 73.6572 42.7672C73.6572 45.3231 71.8663 48.4252 69.6597 49.6896C67.4531 50.954 65.6622 49.9356 65.6622 47.3821C65.6622 44.8287 67.4531 41.734 69.6597 40.4572Z" fill="#003159"/>
<path d="M69.6598 42.4645C70.3757 42.0512 70.9562 42.3857 70.9562 43.2025C70.9319 43.6524 70.8019 44.0902 70.5766 44.4805C70.3514 44.8707 70.0373 45.2024 69.6598 45.4485C68.944 45.8617 68.3634 45.5272 68.3634 44.7105C68.3877 44.2605 68.5178 43.8227 68.743 43.4324C68.9683 43.0422 69.2824 42.7106 69.6598 42.4645Z" fill="#003159"/>
<path d="M72.1862 46.8727C72.1862 45.5148 71.2342 44.9638 70.0559 45.6427L69.3179 46.0683C68.142 46.7473 67.1875 48.4004 67.1875 49.7583V50.1249C67.8689 50.3487 68.725 50.2282 69.6475 49.6894C70.6694 49.0591 71.5336 48.2033 72.1739 47.1876L72.1862 46.8727Z" fill="#003159"/>
<path opacity="0.7" d="M69.6598 42.4645C70.3757 42.0512 70.9562 42.3857 70.9562 43.2025C70.9319 43.6524 70.8019 44.0902 70.5766 44.4805C70.3514 44.8707 70.0373 45.2024 69.6598 45.4485C68.944 45.8617 68.3634 45.5272 68.3634 44.7105C68.3877 44.2605 68.5178 43.8227 68.743 43.4324C68.9683 43.0422 69.2824 42.7106 69.6598 42.4645Z" fill="white"/>
<path opacity="0.7" d="M72.1862 46.8727C72.1862 45.5148 71.2342 44.9638 70.0559 45.6427L69.3179 46.0683C68.142 46.7473 67.1875 48.4004 67.1875 49.7583V50.1249C67.8689 50.3487 68.725 50.2282 69.6475 49.6894C70.6694 49.0591 71.5336 48.2033 72.1739 47.1876L72.1862 46.8727Z" fill="white"/>
<path d="M61.9256 55.3106L67.0694 52.3414C67.3154 52.2061 67.495 52.3143 67.495 52.5874V52.7571C67.4872 52.905 67.4446 53.0489 67.3707 53.1771C67.2967 53.3054 67.1935 53.4143 67.0694 53.4951L61.9256 56.4644C61.6919 56.5997 61.5 56.489 61.5 56.2184V56.0486C61.508 55.9008 61.5507 55.757 61.6246 55.6288C61.6986 55.5005 61.8017 55.3916 61.9256 55.3106Z" fill="#003159"/>
<path opacity="0.1" d="M61.9256 55.3106L67.0694 52.3414C67.3154 52.2061 67.495 52.3143 67.495 52.5874V52.7571C67.4872 52.905 67.4446 53.0489 67.3707 53.1771C67.2967 53.3054 67.1935 53.4143 67.0694 53.4951L61.9256 56.4644C61.6919 56.5997 61.5 56.489 61.5 56.2184V56.0486C61.508 55.9008 61.5507 55.757 61.6246 55.6288C61.6986 55.5005 61.8017 55.3916 61.9256 55.3106Z" fill="black"/>
<path d="M61.714 58.8946L77.276 49.9107C77.3916 49.8418 77.4875 49.896 77.4875 50.0337V51.8492C77.4832 51.9229 77.4618 51.9945 77.4251 52.0586C77.3884 52.1226 77.3374 52.1772 77.276 52.2182L61.714 61.2021C61.5959 61.271 61.5 61.2144 61.5 61.0791V59.2636C61.5042 59.1897 61.5258 59.1177 61.563 59.0536C61.6002 58.9895 61.6519 58.935 61.714 58.8946Z" fill="#003159"/>
<path opacity="0.2" d="M61.714 58.8946L77.276 49.9107C77.3916 49.8418 77.4875 49.896 77.4875 50.0337V51.8492C77.4832 51.9229 77.4618 51.9945 77.4251 52.0586C77.3884 52.1226 77.3374 52.1772 77.276 52.2182L61.714 61.2021C61.5959 61.271 61.5 61.2144 61.5 61.0791V59.2636C61.5042 59.1897 61.5258 59.1177 61.563 59.0536C61.6002 58.9895 61.6519 58.935 61.714 58.8946Z" fill="white"/>
<path d="M61.9256 63.3868L67.0694 60.4176C67.3154 60.2823 67.495 60.393 67.495 60.6636V60.8333C67.4874 60.9812 67.4449 61.1252 67.3709 61.2535C67.2969 61.3818 67.1936 61.4907 67.0694 61.5713L61.9256 64.5406C61.6919 64.6783 61.5 64.5676 61.5 64.2946V64.1248C61.5084 63.9771 61.5512 63.8334 61.6251 63.7053C61.699 63.5771 61.8019 63.4681 61.9256 63.3868Z" fill="#003159"/>
<path opacity="0.1" d="M61.9256 63.3868L67.0694 60.4176C67.3154 60.2823 67.495 60.393 67.495 60.6636V60.8333C67.4874 60.9812 67.4449 61.1252 67.3709 61.2535C67.2969 61.3818 67.1936 61.4907 67.0694 61.5713L61.9256 64.5406C61.6919 64.6783 61.5 64.5676 61.5 64.2946V64.1248C61.5084 63.9771 61.5512 63.8334 61.6251 63.7053C61.699 63.5771 61.8019 63.4681 61.9256 63.3868Z" fill="black"/>
<path d="M61.714 66.9708L77.276 57.9869C77.3916 57.9181 77.4875 57.9746 77.4875 58.1099V59.9254C77.4832 59.9991 77.4618 60.0708 77.4251 60.1348C77.3884 60.1988 77.3374 60.2535 77.276 60.2944L61.714 69.2783C61.5959 69.3472 61.5 69.2931 61.5 69.1553V67.3398C61.5042 67.2659 61.5258 67.1939 61.563 67.1298C61.6002 67.0657 61.6519 67.0112 61.714 66.9708Z" fill="#003159"/>
<path opacity="0.2" d="M61.714 66.9708L77.276 57.9869C77.3916 57.9181 77.4875 57.9746 77.4875 58.1099V59.9254C77.4832 59.9991 77.4618 60.0708 77.4251 60.1348C77.3884 60.1988 77.3374 60.2535 77.276 60.2944L61.714 69.2783C61.5959 69.3472 61.5 69.2931 61.5 69.1553V67.3398C61.5042 67.2659 61.5258 67.1939 61.563 67.1298C61.6002 67.0657 61.6519 67.0112 61.714 66.9708Z" fill="white"/>
<path d="M67.9206 68.0016L74.0706 64.4567C74.3166 64.319 74.4986 64.4297 74.4986 64.7027V66.6019C74.4906 66.7499 74.4476 66.894 74.3732 67.0222C74.2988 67.1505 74.1951 67.2593 74.0706 67.3399L67.9206 70.8872C67.6746 71.0225 67.495 70.9118 67.495 70.6412V68.7396C67.5036 68.5919 67.5465 68.4483 67.6204 68.3202C67.6943 68.1921 67.7971 68.083 67.9206 68.0016Z" fill="#003159"/>
<path opacity="0.1" d="M67.9206 68.0016L74.0706 64.4567C74.3166 64.319 74.4986 64.4297 74.4986 64.7027V66.6019C74.4906 66.7499 74.4476 66.894 74.3732 67.0222C74.2988 67.1505 74.1951 67.2593 74.0706 67.3399L67.9206 70.8872C67.6746 71.0225 67.495 70.9118 67.495 70.6412V68.7396C67.5036 68.5919 67.5465 68.4483 67.6204 68.3202C67.6943 68.1921 67.7971 68.083 67.9206 68.0016Z" fill="black"/>
<path d="M82.4838 59.9871C82.4838 59.9871 79.4629 55.8198 79.2858 55.313C79.1456 54.9391 79.2858 54.3832 79.3301 54.1249C79.3744 53.8666 79.4137 53.2909 79.458 53.1409C79.5318 52.8604 79.1702 52.917 78.966 53.1728C78.7618 53.4287 78.6929 53.9404 78.5872 54.024C78.4814 54.1076 77.677 52.9342 77.2563 52.393C76.8356 51.8518 76.5724 51.5222 76.3141 51.7239C76.1296 51.869 76.2674 52.1839 76.5724 52.6464C76.7506 52.8954 76.9148 53.1541 77.0644 53.4213C77.1112 53.5222 76.8603 53.5295 76.725 53.7386C76.6192 53.901 76.725 54.1642 76.5774 54.2897C76.4865 54.3588 76.4243 54.4589 76.4025 54.571C76.3807 54.683 76.4009 54.7992 76.4593 54.8973C76.7331 55.3273 77.0862 55.7013 77.4999 55.9994C77.9525 56.3118 78.1345 56.4225 78.4027 56.8481C78.6708 57.2737 81.0767 61.6205 81.239 61.8813C81.4014 62.142 81.7138 62.6734 82.1886 62.6881C82.6634 62.7029 86.5502 59.3573 86.7495 59.19C87.3891 58.6562 87.5932 58.5799 87.7015 59.0596C87.7389 59.2302 87.7668 59.4026 87.7851 59.5762C87.8614 60.1863 88.2771 62.3659 88.2771 62.3659C88.2771 62.3659 90.2451 63.3179 91.8613 62.8579C93.4776 62.3979 94.0237 61.7115 94.0237 61.7115L93.2143 60.393C93.4333 59.8493 94.4443 57.6451 94.7715 56.1027L89.7039 55.2835C89.6006 55.2614 89.4333 55.2196 89.2119 55.163C88.9339 55.0892 88.2279 54.8456 87.6941 55.313C85.9524 56.8309 82.4887 59.9871 82.4887 59.9871" fill="#FFA8A7"/>
<path d="M92.5304 85.5565L91.6227 86.8184C92.0352 87.0111 92.486 87.1078 92.9412 87.1013C93.7555 87.1309 93.9793 86.8553 94.0089 86.8012C94.1466 86.506 93.9326 85.9747 93.8736 85.5171L92.5304 85.5565Z" fill="#37474F"/>
<path d="M91.6743 86.2133C91.6743 86.2133 90.5722 86.1419 89.8121 86.0484C89.0519 85.955 88.4492 86.324 88.6264 86.6364C88.8035 86.9488 89.2241 87.2096 89.8785 87.4285C90.4369 87.6179 91.1085 87.7532 91.6891 87.9205C92.2696 88.0878 92.6731 88.3067 93.0101 88.1886C93.3865 88.0583 93.5488 87.9082 93.5168 87.6327C93.4347 87.2408 93.3329 86.8532 93.2118 86.4716L91.6743 86.2133Z" fill="#37474F"/>
<path d="M94.0089 84.2891C94.0089 84.2891 93.8711 85.4355 93.8613 85.6815C93.8514 85.9275 92.742 86.0062 92.5304 85.556L92.496 84.1538L94.0089 84.2891Z" fill="#F28F8F"/>
<path d="M92.8921 84.9927L93.2881 86.7344C93.2881 86.7344 93.325 86.9459 92.4197 87.0812C91.5145 87.2165 90.0926 86.6064 89.849 86.4834C89.6055 86.3604 89.5784 86.112 90.469 86.1612C91.3595 86.2104 91.6744 86.2128 91.6744 86.2128L91.3841 85.4429L92.8921 84.9927Z" fill="#FFA8A7"/>
<path d="M94.7568 56.0877L95.3841 55.9131C95.3841 55.9131 96.6953 60.0631 96.8404 60.4641C96.9856 60.8651 97.1504 61.2882 96.8675 61.7826C96.5305 62.3706 94.7568 64.7346 94.7568 64.7346L93.6301 63.6326L94.9093 61.2906L93.7777 59.0029L94.7568 56.0877Z" fill="#F28F8F"/>
<path d="M88.314 50.698C88.1669 50.4219 88.0923 50.1131 88.097 49.8003C88.1017 49.4876 88.1857 49.1811 88.341 48.9096C88.9659 47.7509 90.3582 47.1876 92.0163 47.4016C92.7838 47.5025 93.6891 48.1396 94.1836 49.0916C94.7297 50.147 94.7813 52.2724 94.9216 53.0768L88.314 50.698Z" fill="#37474F"/>
<path d="M88.2697 51.1533C88.2697 51.1533 87.8761 51.9036 87.945 51.9725C88.047 52.0321 88.1585 52.0737 88.2746 52.0955L88.2697 51.1533Z" fill="#FFA8A7"/>
<path d="M89.4653 48.7819C89.0373 49.0598 88.2993 49.5715 88.2673 51.2566C88.2328 52.9786 88.4788 53.5469 88.7347 53.7461C88.9069 53.8814 89.9179 53.8126 90.3509 53.7117C90.7839 53.6108 92.0311 52.9934 92.4813 52.0561C93.0102 50.954 92.9019 49.3501 92.1172 48.8581C91.7178 48.6219 91.2649 48.491 90.8011 48.4777C90.3373 48.4644 89.8776 48.569 89.4653 48.7819Z" fill="#FFA8A7"/>
<path d="M94.0089 61.7017C94.7666 62.8825 95.4849 63.9157 95.6424 65.249C95.9671 68.0509 94.9044 71.2538 94.6756 73.3276C95.1058 73.9175 95.3538 74.6205 95.389 75.3497C95.389 76.2083 94.0089 84.2894 94.0089 84.2894C94.0089 84.2894 93.0053 84.5944 92.496 84.1541L91.549 69.2883L92.0409 67.4777L94.0089 61.7017Z" fill="#003159"/>
<path opacity="0.2" d="M94.0089 61.7017C94.7666 62.8825 95.4849 63.9157 95.6424 65.249C95.9671 68.0509 94.9044 71.2538 94.6756 73.3276C95.1058 73.9175 95.3538 74.6205 95.389 75.3497C95.389 76.2083 94.0089 84.2894 94.0089 84.2894C94.0089 84.2894 93.0053 84.5944 92.496 84.1541L91.549 69.2883L92.0409 67.4777L94.0089 61.7017Z" fill="black"/>
<path d="M91.549 69.2884L92.0409 67.4779C92.983 67.2299 93.8916 66.8689 94.7469 66.4028C94.7469 66.4028 94.2353 67.3352 92.7642 67.8469L92.0041 70.1716L91.9401 75.4975L91.549 69.2884Z" fill="#003159"/>
<path opacity="0.3" d="M91.549 69.2884L92.0409 67.4779C92.983 67.2299 93.8916 66.8689 94.7469 66.4028C94.7469 66.4028 94.2353 67.3352 92.7642 67.8469L92.0041 70.1716L91.9401 75.4975L91.549 69.2884Z" fill="black"/>
<path d="M94.009 61.7017C94.4149 62.3659 95.3841 63.4975 95.1775 64.5872C94.9315 65.9058 94.2181 66.8332 92.0483 67.4777L90.0115 74.8577C90.0115 74.8577 91.0717 75.8417 91.3964 76.7938C91.7212 77.7458 92.8921 84.9979 92.8921 84.9979C92.8921 84.9979 92.528 85.5907 91.3841 85.448C91.3841 85.448 87.3965 76.346 87.116 75.7532C86.7757 75.1528 86.6564 74.4521 86.779 73.7729C86.9045 72.8184 88.255 62.3708 88.255 62.3708L94.009 61.7017Z" fill="#003159"/>
<path opacity="0.2" d="M94.009 61.7017C94.4149 62.3659 95.3841 63.4975 95.1775 64.5872C94.9315 65.9058 94.2181 66.8332 92.0483 67.4777L90.0115 74.8577C90.0115 74.8577 91.0717 75.8417 91.3964 76.7938C91.7212 77.7458 92.8921 84.9979 92.8921 84.9979C92.8921 84.9979 92.528 85.5907 91.3841 85.448C91.3841 85.448 87.3965 76.346 87.116 75.7532C86.7757 75.1528 86.6564 74.4521 86.779 73.7729C86.9045 72.8184 88.255 62.3708 88.255 62.3708L94.009 61.7017Z" fill="black"/>
<path d="M94.7567 56.0877L89.6891 55.2685C89.5858 55.2464 89.4185 55.2045 89.1971 55.1479C89.1971 55.1479 88.9807 58.3263 87.6793 59.0544C87.7113 59.207 87.7384 59.3767 87.763 59.571C87.8392 60.1811 88.255 62.3607 88.255 62.3607C88.255 62.3607 90.223 63.3127 91.8392 62.8527C93.4554 62.3927 94.0015 61.7063 94.0015 61.7063L93.1922 60.3878C93.4185 59.8392 94.4369 57.635 94.7567 56.0877Z" fill="#003159"/>
<path opacity="0.7" d="M94.7567 56.0877L89.6891 55.2685C89.5858 55.2464 89.4185 55.2045 89.1971 55.1479C89.1971 55.1479 88.9807 58.3263 87.6793 59.0544C87.7113 59.207 87.7384 59.3767 87.763 59.571C87.8392 60.1811 88.255 62.3607 88.255 62.3607C88.255 62.3607 90.223 63.3127 91.8392 62.8527C93.4554 62.3927 94.0015 61.7063 94.0015 61.7063L93.1922 60.3878C93.4185 59.8392 94.4369 57.635 94.7567 56.0877Z" fill="white"/>
<path d="M93.421 59.8638C92.748 60.2679 92.0428 60.6159 91.3127 60.9044C91.9754 60.8911 92.6242 60.7118 93.1996 60.3828L93.421 59.8638Z" fill="#003159"/>
<path d="M89.3399 48.8651C89.3399 48.8651 89.0938 50.4641 89.6744 51.4038C89.6744 51.4038 89.8909 50.7667 90.4296 50.8872C90.9684 51.0078 90.9979 51.7187 90.619 52.1172C90.5227 52.229 90.3969 52.3114 90.2559 52.3549C90.1149 52.3984 89.9646 52.4013 89.822 52.3632C89.822 52.3632 89.7359 53.5194 89.6892 54.4887C89.6424 55.4579 89.3866 57.571 90.4764 58.4247C91.5661 59.2783 94.3017 59.5784 95.5833 57.7875C96.2967 56.7912 95.3496 55.0299 94.9093 53.0545C94.5034 51.239 94.2746 48.5478 92.3484 48.1148C90.4222 47.6818 89.3399 48.8651 89.3399 48.8651Z" fill="#37474F"/>
<path d="M96.4074 27.0182L96.0015 27.2642C96.0356 27.1198 96.0545 26.9722 96.0581 26.8239C96.0581 25.9998 95.48 25.6677 94.7666 26.0859C94.5495 26.2168 94.3557 26.3831 94.1934 26.5779C94.1934 25.4709 93.416 25.0207 92.4566 25.5742C91.9511 25.9039 91.5303 26.3481 91.2286 26.8708C90.9268 27.3936 90.7525 27.9801 90.7199 28.5828C90.7199 28.6393 90.7199 28.6935 90.7199 28.7476C90.4727 28.7165 90.2226 28.774 90.0138 28.9099C89.6379 29.1549 89.3251 29.485 89.1007 29.8736C88.8763 30.2621 88.7467 30.6981 88.7223 31.1461C88.7222 31.2502 88.7329 31.3541 88.7543 31.456L88.5378 31.5815C87.9499 31.921 87.4727 32.5827 87.4727 33.0575C87.4727 33.5323 87.9499 33.6454 88.5378 33.3035L96.4098 28.7648C96.9978 28.4253 97.475 27.7636 97.475 27.2888C97.475 26.814 96.9953 26.6763 96.4074 27.0182Z" fill="#EBEBEB"/>
</svg>
