<svg width="24" height="12" viewBox="0 0 24 12" fill="none" xmlns="http://www.w3.org/2000/svg">
<path d="M18.5455 1.63636H6C3.58909 1.63636 1.63636 3.58909 1.63636 6C1.63636 8.41091 3.58909 10.3636 6 10.3636H19.6364C21.1418 10.3636 22.3636 9.14182 22.3636 7.63636C22.3636 6.13091 21.1418 4.90909 19.6364 4.90909H8.18182C7.58182 4.90909 7.09091 5.4 7.09091 6C7.09091 6.6 7.58182 7.09091 8.18182 7.09091H18.5455V8.72727H8.18182C6.67636 8.72727 5.45455 7.50545 5.45455 6C5.45455 4.49455 6.67636 3.27273 8.18182 3.27273H19.6364C22.0473 3.27273 24 5.22545 24 7.63636C24 10.0473 22.0473 12 19.6364 12H6C2.68364 12 0 9.31636 0 6C0 2.68364 2.68364 -3.57628e-07 6 -3.57628e-07H18.5455V1.63636Z" fill="black" fill-opacity="0.39"/>
</svg>
